<svg width="1085" height="1208" viewBox="0 0 1085 1208" fill="none" xmlns="http://www.w3.org/2000/svg">
<path d="M1080.6 396.6L1043.5 709.9L986.1 770.9L886.5 876.7L711.1 1063V562.4L1080.6 396.6ZM1012.7 696.4L1024.6 603.6L972 646.7L961.1 746.5L1012.7 696.4Z" fill="white"/>
<path d="M1080.6 396.6L711.1 562.3V507L646.1 458.5L874.4 356.1L545.3 104.2L253.6 165.6L153.5 90.9L565.9 4L1080.6 396.6Z" fill="white"/>
<path d="M1024.6 603.5L1012.7 696.4L961.1 746.4L972 646.6L1024.6 603.5Z" fill="black"/>
<path d="M1006.3 786V842L711.1 1062.9L886.5 876.7L1006.3 786Z" fill="white"/>
<path d="M1006.3 786L886.5 876.7L986.1 770.8L1006.3 786Z" fill="black"/>
<path d="M874.4 356.1L646.1 458.5L253.6 165.6L545.3 104.2L874.4 356.1Z" fill="white"/>
<path d="M711.1 1062.9V1092.7L598 1204V535.8L711.1 507V562.3V1062.9Z" fill="white"/>
<path d="M153.5 90.9L253.6 165.6L646.1 458.5L711.1 507L598 535.8L4 90.3L107.9 56.9L153.5 90.9Z" fill="white"/>
<path d="M598 535.8V1204L4 758.5V90.3L598 535.8ZM538.7 1033.2L541.7 588.7L101.2 259.5L94.5 254.5L61 229.5V675L538.7 1033.2ZM538.6 1114.4V1070.9L480.6 1027.4V1070.9L538.6 1114.4ZM453.2 1051C459.5 1048.8 461.4 1037.5 457.3 1025.7C453.2 1013.9 444.8 1006.1 438.5 1008.3C432.2 1010.5 430.3 1021.8 434.4 1033.6C438.5 1045.4 446.9 1053.2 453.2 1051ZM134.1 804.2V760.7L123 752.4V795.9L134.1 804.2ZM113 789V745.5L101.9 737.2V780.7L113 789ZM92 773.7V730.2L80.9 721.9V765.4L92 773.7ZM70.9 758.5V715L59.8 706.7V750.2L70.9 758.5Z" fill="white"/>
<path d="M541.7 588.7L538.7 1033.2L61 675L98.3 645.8C98.4 646.4 98.6 647 98.7 647.6C98.8 648.2 99.1 648.9 99.6 649.3C165.7 722.7 239.2 790 318.1 849.5C387.5 901.9 461.7 948.6 538.9 988.6V980.2L541.7 588.7Z" fill="black"/>
<path d="M541.7 588.7L539 980.2C463.3 940.7 390.7 894.9 322.6 843.5C244.4 784.5 171.5 717.7 105.9 645C90.2997 569.3 83.2997 497.1 84.4997 424.3C85.3997 369.5 90.8997 315.2 101.2 259.5L541.7 588.7Z" fill="#046CD5"/>
<path d="M541.7 588.7L101.2 259.5L541.7 588.7Z" fill="#046CD5"/>
<path d="M98.3997 645.8C82.7997 569.9 75.7997 497.4 76.9997 424.3C77.8997 367.9 83.6997 311.9 94.4997 254.6L101.2 259.6C90.8997 315.3 85.2997 369.6 84.4997 424.4C83.2997 497.3 90.2997 569.5 105.9 645.1C171.5 717.8 244.4 784.6 322.6 843.6C390.7 895 463.3 940.8 539 980.3V988.7C461.7 948.6 387.5 901.9 318.1 849.6C239.3 790.1 165.7 722.7 99.5997 649.4C99.1997 648.9 98.8997 648.3 98.6997 647.7C98.5997 647.1 98.3997 646.5 98.2997 645.9L98.3997 645.8Z" fill="black"/>
<path d="M538.6 1070.9V1114.4L480.7 1070.9V1027.5L538.6 1070.9Z" fill="white"/>
<path d="M452.1 1027.4C454.3 1033.8 453.3 1040 449.9 1041.1C446.5 1042.3 441.9 1038.1 439.7 1031.6C437.5 1025.2 438.5 1019 441.9 1017.9C445.3 1016.7 449.9 1020.9 452.1 1027.4Z" fill="black"/>
<path d="M134.1 760.8V804.2L123 795.9V752.4L134.1 760.8Z" fill="white"/>
<path d="M113 745.5V789L101.9 780.6V737.2L113 745.5Z" fill="white"/>
<path d="M98.3996 645.8L61.0996 675V229.5L94.5996 254.5C83.6996 311.8 77.9996 367.8 77.0996 424.2C75.8996 497.4 82.8996 569.8 98.4996 645.7L98.3996 645.8Z" fill="black"/>
<path d="M92.0004 730.3V773.7L80.9004 765.4V721.9L92.0004 730.3Z" fill="white"/>
<path d="M70.8998 715V758.5L59.7998 750.2V706.7L70.8998 715Z" fill="white"/>
<path d="M0.5 90.3C0.5 88.3671 2.067 86.8 4 86.8C5.933 86.8 7.5 88.3671 7.5 90.3V756.75L600.1 1201.2C601.646 1202.36 601.96 1204.55 600.8 1206.1C599.64 1207.65 597.447 1207.96 595.9 1206.8L1.90039 761.3C1.01912 760.639 0.500057 759.602 0.5 758.5V90.3Z" fill="black"/>
<path d="M710.236 503.608C712.109 503.131 714.015 504.263 714.492 506.137C714.969 508.01 713.836 509.914 711.964 510.392L598.863 539.191C596.99 539.668 595.085 538.537 594.608 536.664C594.131 534.791 595.263 532.885 597.136 532.408L710.236 503.608Z" fill="black"/>
<path d="M1077.12 396.189C1077.35 394.269 1079.09 392.897 1081.01 393.124C1082.93 393.352 1084.3 395.092 1084.07 397.011L1046.98 710.312C1046.89 711.057 1046.56 711.754 1046.05 712.3L988.648 773.197L988.649 773.198L889.049 879.098L889.047 879.1L713.647 1065.3C712.322 1066.71 710.107 1066.77 708.7 1065.45C707.293 1064.12 707.226 1061.91 708.552 1060.5L983.55 768.402L983.553 768.4L1040.16 708.341L1077.12 396.189Z" fill="black"/>
<path d="M565.365 0.540979C566.303 0.395949 567.263 0.637896 568.022 1.21676L1082.72 393.817C1083.7 394.566 1084.22 395.776 1084.08 397.002C1083.94 398.228 1083.16 399.289 1082.03 399.794L712.532 565.493C710.769 566.284 708.697 565.496 707.906 563.732C707.115 561.969 707.904 559.897 709.668 559.106L1073.8 395.813L565.052 7.75485L154.222 94.3252C153.984 94.3751 153.742 94.4003 153.5 94.4004H153.3C151.367 94.4004 149.8 92.8332 149.8 90.9004C149.8 89.0293 151.268 87.5002 153.115 87.4043L565.178 0.575158L565.365 0.540979Z" fill="black"/>
<path d="M59.4307 226.371C60.6144 225.777 62.0325 225.903 63.0938 226.695L103.293 256.695L103.295 256.696L543.795 585.896C544.686 586.562 545.208 587.612 545.2 588.724L542.2 1033.22C542.191 1034.54 541.439 1035.75 540.255 1036.34C539.071 1036.92 537.658 1036.79 536.601 1036L58.9004 677.8C58.019 677.139 57.5 676.102 57.5 675V229.5C57.5 228.176 58.2471 226.965 59.4307 226.371ZM64.5 673.25L535.246 1026.24L538.188 590.445L99.1045 262.304L64.5 236.478V673.25Z" fill="black"/>
<path d="M98.471 641.202C99.9612 639.971 102.168 640.18 103.399 641.671C104.63 643.161 104.419 645.367 102.929 646.598L100.629 648.499C100.605 648.519 100.579 648.539 100.554 648.559L63.1546 677.758C61.631 678.948 59.4311 678.678 58.2415 677.154C57.052 675.63 57.3224 673.43 58.846 672.241L96.1898 643.086L98.471 641.202Z" fill="black"/>
<path d="M707.6 508.755L151.407 93.7047L107.253 60.7838L11.515 91.5602L600.1 533C600.981 533.661 601.5 534.699 601.5 535.8V1195.65L707.6 1091.23V508.755ZM714.6 1092.7C714.6 1093.64 714.224 1094.54 713.555 1095.19L600.455 1206.49C599.45 1207.48 597.949 1207.77 596.648 1207.23C595.347 1206.68 594.5 1205.41 594.5 1204V537.549L1.90076 93.1002C0.854049 92.3152 0.331904 91.0117 0.548217 89.7213C0.764729 88.4309 1.68345 87.3689 2.92908 86.9684L106.829 53.568L107.033 53.5094C108.053 53.2481 109.142 53.4602 109.993 54.0944L155.592 88.0944L155.594 88.0954L713.194 504.195C714.079 504.856 714.6 505.895 714.6 507V1092.7Z" fill="black"/>
<path d="M983.304 768.695C984.466 767.151 986.659 766.841 988.204 768.003L1008.4 783.203C1009.28 783.863 1009.8 784.897 1009.8 785.995C1009.8 787.093 1009.29 788.128 1008.41 788.79L888.612 879.49C887.071 880.657 884.877 880.354 883.71 878.813C882.543 877.271 882.846 875.076 884.387 873.909L1000.49 786.008L983.995 773.597C982.451 772.435 982.141 770.24 983.304 768.695Z" fill="black"/>
<path d="M1002.8 786C1002.8 784.067 1004.37 782.5 1006.3 782.5C1008.23 782.5 1009.8 784.067 1009.8 786V842C1009.8 843.103 1009.28 844.142 1008.4 844.803L713.197 1065.7C711.649 1066.86 709.455 1066.54 708.297 1065C707.139 1063.45 707.456 1061.26 709.003 1060.1L1002.8 840.247V786Z" fill="black"/>
<path d="M544.767 100.741C545.707 100.596 546.668 100.84 547.427 101.421L876.528 353.321C877.507 354.071 878.019 355.28 877.877 356.505C877.734 357.729 876.958 358.789 875.833 359.294L647.533 461.693C645.769 462.484 643.698 461.696 642.907 459.932C642.116 458.169 642.904 456.098 644.668 455.306L867.608 355.309L544.448 107.956L254.321 169.025C252.429 169.423 250.574 168.212 250.175 166.321C249.777 164.43 250.988 162.573 252.879 162.175L544.58 100.775L544.767 100.741Z" fill="black"/>
<path d="M803.828 739.855C805.344 738.656 807.545 738.913 808.744 740.429C809.943 741.945 809.687 744.146 808.171 745.345L736.87 801.746C735.354 802.944 733.153 802.687 731.954 801.171C730.755 799.655 731.012 797.454 732.528 796.255L803.828 739.855Z" fill="black"/>
<path d="M803.828 711.655C805.344 710.456 807.545 710.713 808.744 712.229C809.943 713.745 809.687 715.946 808.171 717.145L736.87 773.545C735.354 774.744 733.153 774.487 731.954 772.971C730.755 771.455 731.012 769.255 732.528 768.055L803.828 711.655Z" fill="black"/>
<path d="M803.828 683.455C805.344 682.256 807.545 682.513 808.744 684.029C809.943 685.545 809.687 687.746 808.171 688.945L736.87 745.345C735.354 746.544 733.153 746.287 731.954 744.771C730.755 743.255 731.012 741.055 732.528 739.855L803.828 683.455Z" fill="black"/>
<path d="M803.828 655.255C805.344 654.056 807.545 654.313 808.744 655.829C809.943 657.345 809.687 659.546 808.171 660.745L736.87 717.146C735.354 718.344 733.153 718.087 731.954 716.571C730.755 715.055 731.012 712.854 732.528 711.655L803.828 655.255Z" fill="black"/>
<path d="M803.828 627.055C805.344 625.856 807.545 626.113 808.744 627.629C809.943 629.145 809.687 631.346 808.171 632.545L736.87 688.945C735.354 690.144 733.153 689.887 731.954 688.371C730.755 686.855 731.012 684.654 732.528 683.455L803.828 627.055Z" fill="black"/>
<path d="M479.135 1024.37C480.32 1023.78 481.739 1023.9 482.8 1024.7L540.699 1068.1C541.581 1068.76 542.101 1069.8 542.101 1070.9V1114.4C542.1 1115.73 541.35 1116.94 540.164 1117.53C538.978 1118.12 537.558 1117.99 536.498 1117.2L478.598 1073.7C477.718 1073.04 477.2 1072 477.2 1070.9V1027.5L477.209 1027.25C477.296 1026.03 478.023 1024.93 479.135 1024.37ZM484.2 1069.15L535.101 1107.39V1072.65L484.2 1034.5V1069.15Z" fill="black"/>
<path d="M58.2324 703.571C59.4169 702.978 60.8345 703.104 61.8955 703.897L72.9961 712.197C73.8796 712.858 74.3994 713.897 74.3994 715V758.5C74.3994 759.825 73.6521 761.036 72.4678 761.63C71.2833 762.223 69.8647 762.096 68.8037 761.303L57.7041 753.003C56.8204 752.342 56.2998 751.303 56.2998 750.2V706.7C56.2998 705.375 57.048 704.164 58.2324 703.571ZM63.2998 748.447L67.3994 751.512V716.752L63.2998 713.686V748.447Z" fill="black"/>
<path d="M79.3418 718.766C80.5312 718.175 81.9534 718.307 83.0127 719.109L94.1123 727.509C94.9865 728.171 95.5 729.204 95.5 730.3V773.7C95.5 775.025 94.7527 776.236 93.5684 776.83C92.3839 777.423 90.9653 777.296 89.9043 776.503L78.8047 768.203C77.921 767.542 77.4004 766.503 77.4004 765.4V721.9C77.4004 720.572 78.1524 719.358 79.3418 718.766ZM84.4004 763.647L88.5 766.712V732.04L84.4004 728.937V763.647Z" fill="black"/>
<path d="M100.333 734.071C101.518 733.478 102.935 733.604 103.996 734.397L115.097 742.697C115.98 743.358 116.5 744.397 116.5 745.5V789C116.5 790.328 115.748 791.542 114.559 792.134C113.369 792.725 111.948 792.592 110.889 791.791L99.7881 783.39C98.9142 782.729 98.4005 781.696 98.4004 780.6V737.2L98.4092 736.953C98.4957 735.726 99.2226 734.627 100.333 734.071ZM105.4 778.859L109.5 781.962V747.252L105.4 744.186V778.859Z" fill="black"/>
<path d="M121.441 749.266C122.631 748.675 124.053 748.807 125.112 749.609L136.212 758.009C137.086 758.671 137.6 759.704 137.6 760.8V804.2C137.6 805.525 136.852 806.736 135.668 807.33C134.483 807.923 133.065 807.796 132.004 807.003L120.904 798.703C120.021 798.042 119.5 797.003 119.5 795.9V752.4C119.5 751.072 120.252 749.858 121.441 749.266ZM126.5 794.147L130.6 797.212V762.54L126.5 759.437V794.147Z" fill="black"/>
<path d="M1022.38 600.793C1023.49 599.884 1025.04 599.744 1026.3 600.438C1027.55 601.133 1028.25 602.522 1028.07 603.944L1016.17 696.845C1016.07 697.632 1015.7 698.361 1015.14 698.913L963.535 748.913C962.476 749.94 960.887 750.192 959.562 749.544C958.237 748.896 957.46 747.486 957.62 746.02L968.521 646.22L968.543 646.05C968.678 645.205 969.117 644.437 969.782 643.893L1022.38 600.793ZM975.324 648.401L965.632 737.134L1009.38 694.739L1020.01 611.785L975.324 648.401Z" fill="black"/>
<path d="M437.346 1005C442.31 1003.26 447.346 1005.68 451.136 1009.18C455.053 1012.79 458.463 1018.23 460.615 1024.58H460.614C462.811 1030.91 463.464 1037.27 462.604 1042.52C461.77 1047.61 459.292 1052.58 454.354 1054.3C449.391 1056.04 444.353 1053.62 440.563 1050.12C436.652 1046.51 433.247 1041.09 431.094 1034.75C428.891 1028.41 428.235 1022.04 429.096 1016.78C429.931 1011.69 432.408 1006.72 437.346 1005ZM446.388 1014.32C443.354 1011.52 440.991 1011.14 439.654 1011.6C438.292 1012.08 436.669 1013.86 436.004 1017.92C435.365 1021.81 435.81 1026.99 437.706 1032.45C437.709 1032.46 437.712 1032.47 437.715 1032.48C439.562 1037.93 442.403 1042.29 445.311 1044.98C448.346 1047.78 450.71 1048.16 452.047 1047.7C453.408 1047.22 455.031 1045.44 455.696 1041.38C456.335 1037.49 455.89 1032.31 453.994 1026.85C453.991 1026.84 453.988 1026.83 453.985 1026.82C452.137 1021.37 449.297 1017.01 446.388 1014.32Z" fill="black"/>
<path d="M407.3 716C406.2 710.5 405.1 705 404.1 699.5C307.2 634.8 212.8 566.5 121.7 493.9C122 499.7 122.3 505.6 122.7 511.4C214.6 583.7 309.6 651.7 407.2 716H407.3Z" fill="white"/>
<path d="M387.3 610.6C386.8 605.1 386.4 599.7 386 594.2C297.7 529 210.3 462.8 122.8 396.6C122.4 402.2 122 407.9 121.8 413.5C210 479.7 298.2 545.7 387.3 610.7V610.6Z" fill="white"/>
<path d="M300.799 579.7C300.399 574.1 299.999 568.6 299.699 563C239.599 518.9 180.099 474 121.199 428.4C121.099 432.3 120.999 436.3 120.899 440.2C120.899 442 120.899 443.7 120.899 445.5C180.299 491 240.299 535.8 300.799 579.7Z" fill="white"/>
<path d="M314.999 682.2C314.099 676.7 313.299 671.2 312.399 665.7C281.799 644.5 251.399 622.8 221.599 600.6C241.899 615.6 262.299 630.4 282.899 645C228.799 606.5 175.699 566.6 123.899 525.1C124.399 531 124.999 536.9 125.599 542.8C186.999 591.6 250.299 638 314.999 682.3V682.2ZM279.999 644C282.499 645.8 284.999 647.5 287.399 649.3C284.899 647.6 282.399 645.8 279.999 644Z" fill="white"/>
<path d="M287.4 649.3C284.9 647.6 282.4 645.8 280 644C282.5 645.8 284.9 647.5 287.4 649.3Z" fill="white"/>
<path d="M293.1 473.1C293.1 467.5 293.3 461.9 293.4 456.4C239.6 414.7 185.1 373.7 129.7 334.1C128.9 339.8 128.1 345.4 127.3 351.1C182.8 390.3 239 431.9 293 473.1H293.1Z" fill="white"/>
<path d="M259.1 581.1C258.7 575.6 258.3 570 258 564.5C211.7 530.4 166 495.6 120.8 460.1C120.8 465.9 120.9 471.6 121.1 477.4C166.6 512.7 212.6 547.3 259.1 581.2V581.1Z" fill="white"/>
<path d="M253.399 478.2C253.399 472.6 253.399 466.9 253.399 461.3C210.999 429.2 168.399 397.2 125.599 365.6C124.999 371.2 124.399 376.8 123.899 382.4C167.199 414 210.299 446 253.299 478.2H253.399Z" fill="white"/>
<path d="M168.2 654.9C167.9 649.8 167.6 644.6 167.4 639.5C165.8 638.2 165 637.6 163.4 636.3C154.1 628.9 145.9 619.8 136.6 612.3C136.6 613 136.6 613.9 136.6 614.9C137.5 619.6 138.5 624.4 139.5 629.2C148.1 636.8 157.9 646.8 168.2 654.9Z" fill="white"/>
</svg>
