<svg width="651" height="983" viewBox="0 0 651 983" fill="none" xmlns="http://www.w3.org/2000/svg">
<path d="M20.1119 563.12C20.5054 562.926 20.9756 562.97 21.3256 563.234L181.542 684.202C181.831 684.42 182 684.759 182 685.119V850.785C182 851.222 181.751 851.622 181.358 851.816C180.964 852.011 180.494 851.966 180.144 851.702L19.9272 730.734C19.639 730.516 19.4695 730.177 19.4695 729.817V564.151C19.4695 563.714 19.7184 563.315 20.1119 563.12ZM21.7833 729.245L179.686 848.467V685.691L21.7833 566.469V729.245Z" fill="black"/>
<path d="M180.843 685.12V730.277L20.6263 610.723V564.151L180.843 685.12Z" fill="#046CD5"/>
<path d="M20.1119 563.12C20.5054 562.926 20.9756 562.97 21.3256 563.234L181.542 684.202C181.831 684.42 182 684.759 182 685.119V730.277C182 730.713 181.752 731.112 181.361 731.307C180.969 731.502 180.499 731.46 180.149 731.198L19.9324 611.644C19.641 611.427 19.4695 611.085 19.4695 610.723V564.151C19.4695 563.714 19.7184 563.315 20.1119 563.12ZM21.7833 610.147L179.686 727.975V685.691L21.7833 566.469V610.147Z" fill="black"/>
<path d="M19.7045 563.456C20.0906 562.949 20.8165 562.85 21.3256 563.234L30.2171 569.944C30.7262 570.328 30.8259 571.05 30.4398 571.556C30.0538 572.063 29.3282 572.162 28.8191 571.778L19.9272 565.069C19.4181 564.684 19.3184 563.962 19.7045 563.456Z" fill="black"/>
<path d="M19.7045 575.197C20.0906 574.69 20.8165 574.591 21.3256 574.975L30.2171 581.685C30.7262 582.069 30.8259 582.791 30.4398 583.298C30.0538 583.804 29.3282 583.903 28.8191 583.519L19.9272 576.81C19.4181 576.426 19.3184 575.703 19.7045 575.197Z" fill="black"/>
<path d="M19.7045 586.939C20.0906 586.432 20.8165 586.333 21.3256 586.717L30.2171 593.427C30.7262 593.811 30.8259 594.533 30.4398 595.04C30.0538 595.546 29.3282 595.645 28.8191 595.261L19.9272 588.552C19.4181 588.168 19.3184 587.446 19.7045 586.939Z" fill="black"/>
<path d="M19.7388 598.679C20.1258 598.173 20.8518 598.075 21.3602 598.46L30.2188 605.169C30.7272 605.555 30.8256 606.277 30.4387 606.782C30.0517 607.288 29.3257 607.386 28.8172 607.001L19.9586 600.292C19.4502 599.907 19.3518 599.184 19.7388 598.679Z" fill="black"/>
<path d="M19.7375 610.422C20.1236 609.916 20.8495 609.817 21.3586 610.201L30.2501 616.91C30.7592 617.295 30.8589 618.017 30.4729 618.523C30.0868 619.03 29.3612 619.129 28.8521 618.745L19.9602 612.035C19.4511 611.651 19.3514 610.929 19.7375 610.422Z" fill="black"/>
<path d="M19.7375 622.164C20.1236 621.657 20.8495 621.558 21.3586 621.942L30.2501 628.652C30.7592 629.036 30.859 629.758 30.4729 630.264C30.0868 630.771 29.3612 630.87 28.8521 630.486L19.9602 623.777C19.4511 623.392 19.3514 622.67 19.7375 622.164Z" fill="black"/>
<path d="M19.7703 633.906C20.1561 633.4 20.8818 633.3 21.3911 633.684L30.2497 640.36C30.7591 640.744 30.8592 641.466 30.4734 641.973C30.0876 642.48 29.362 642.579 28.8527 642.196L19.994 635.519C19.4847 635.135 19.3845 634.413 19.7703 633.906Z" fill="black"/>
<path d="M19.7703 645.648C20.1561 645.141 20.8818 645.041 21.3911 645.425L30.2497 652.102C30.7591 652.485 30.8592 653.207 30.4734 653.714C30.0876 654.221 29.362 654.321 28.8527 653.937L19.994 647.26C19.4847 646.876 19.3845 646.154 19.7703 645.648Z" fill="black"/>
<path d="M19.7703 657.39C20.1561 656.883 20.8818 656.783 21.3911 657.167L30.2497 663.844C30.7591 664.228 30.8592 664.95 30.4734 665.456C30.0876 665.963 29.362 666.063 28.8527 665.679L19.994 659.002C19.4847 658.619 19.3845 657.897 19.7703 657.39Z" fill="black"/>
<path d="M19.7703 669.131C20.1561 668.624 20.8818 668.525 21.3911 668.908L30.2497 675.585C30.7591 675.969 30.8592 676.691 30.4734 677.198C30.0876 677.704 29.362 677.804 28.8527 677.42L19.994 670.744C19.4847 670.36 19.3845 669.638 19.7703 669.131Z" fill="black"/>
<path d="M19.803 680.906C20.1885 680.399 20.9139 680.299 21.4234 680.682L30.2491 687.326C30.7587 687.71 30.8593 688.432 30.4738 688.939C30.0883 689.445 29.3629 689.546 28.8533 689.162L20.0276 682.518C19.5181 682.135 19.4175 681.413 19.803 680.906Z" fill="black"/>
<path d="M19.8017 692.65C20.1863 692.142 20.9116 692.041 21.4218 692.423L30.2804 699.067C30.7907 699.45 30.8926 700.171 30.508 700.679C30.1234 701.187 29.3981 701.288 28.8879 700.906L20.0292 694.262C19.519 693.879 19.4171 693.157 19.8017 692.65Z" fill="black"/>
<path d="M19.8017 704.391C20.1863 703.883 20.9116 703.782 21.4218 704.165L30.2804 710.808C30.7907 711.191 30.8926 711.913 30.508 712.42C30.1234 712.928 29.3981 713.029 28.8879 712.647L20.0292 706.003C19.519 705.62 19.4171 704.899 19.8017 704.391Z" fill="black"/>
<path d="M19.8017 716.133C20.1863 715.625 20.9116 715.524 21.4218 715.907L30.2804 722.551C30.7907 722.933 30.8926 723.655 30.508 724.163C30.1234 724.67 29.3981 724.772 28.8879 724.389L20.0292 717.745C19.519 717.363 19.4171 716.641 19.8017 716.133Z" fill="black"/>
<path d="M180.843 850.786L160.68 865.849L1.1571 745.111L21.3536 731.561L180.843 850.786Z" fill="white"/>
<path d="M20.785 730.558C21.1825 730.334 21.6788 730.364 22.0484 730.64L181.538 849.865C181.829 850.083 182 850.424 182 850.786C182 851.148 181.829 851.489 181.538 851.706L161.374 866.769C160.96 867.078 160.391 867.077 159.979 866.765L0.456585 746.027C0.159796 745.802 -0.010119 745.449 0.000466994 745.078C0.0111003 744.707 0.200926 744.364 0.51017 744.156L20.7069 730.606L20.785 730.558ZM3.14229 745.167L160.684 864.406L178.916 850.785L21.3173 732.973L3.14229 745.167Z" fill="black"/>
<path d="M10.5447 745.045L20.6264 752.577L30.7081 745.045V722.483L20.6264 714.951L10.5447 722.483V745.045Z" fill="white"/>
<path d="M19.9317 714.03C20.3433 713.723 20.9095 713.723 21.3211 714.03L31.4028 721.562C31.6938 721.779 31.865 722.121 31.865 722.483V745.045C31.865 745.407 31.6938 745.748 31.4028 745.966L21.3211 753.497C20.9095 753.805 20.3433 753.805 19.9317 753.497L9.85001 745.966C9.55899 745.748 9.38776 745.407 9.38776 745.045V722.483L9.38969 722.415C9.40957 722.078 9.57716 721.766 9.85001 721.562L19.9317 714.03ZM11.7016 723.058V744.47L20.6264 751.137L29.5512 744.47V723.058L20.6264 716.39L11.7016 723.058Z" fill="black"/>
<path d="M20.6264 752.577V729.982L30.7081 722.483L20.6264 714.951L10.5447 722.483L20.6264 729.982" fill="white"/>
<path d="M19.9317 714.03C20.3433 713.723 20.9095 713.723 21.3211 714.03L31.4028 721.562C31.6941 721.78 31.8654 722.121 31.865 722.484C31.8646 722.846 31.6927 723.188 31.4008 723.405L21.7833 730.558V752.577H19.4695V730.558L9.85194 723.405C9.56013 723.188 9.38814 722.846 9.38776 722.484C9.3874 722.121 9.55865 721.78 9.85001 721.562L19.9317 714.03ZM12.4741 722.481L20.6264 728.544L28.7784 722.481L20.6264 716.39L12.4741 722.481Z" fill="black"/>
<path d="M20.6264 752.577L30.7081 760.109L40.8229 752.577V726.496L30.7081 718.964L20.6264 726.496V752.577Z" fill="white"/>
<path d="M30.0135 718.043C30.4245 717.736 30.9897 717.736 31.4012 718.042L41.5161 725.574C41.808 725.791 41.9797 726.133 41.9797 726.495V752.577C41.9797 752.94 41.808 753.281 41.5161 753.498L31.4012 761.03C30.9897 761.337 30.4244 761.336 30.0135 761.029L19.9317 753.497C19.6407 753.28 19.4695 752.939 19.4695 752.577V726.495L19.4714 726.428C19.4913 726.091 19.6589 725.779 19.9317 725.575L30.0135 718.043ZM21.7833 727.07V752.002L30.7091 758.67L39.6658 752V727.071L30.7094 720.402L21.7833 727.07Z" fill="black"/>
<path d="M30.7081 760.109V734.027L40.8229 726.496L30.7081 718.964L20.6264 726.496L30.7081 734.027" fill="white"/>
<path d="M30.0135 718.043C30.4245 717.736 30.9897 717.736 31.4012 718.042L41.5161 725.574C41.808 725.791 41.9797 726.133 41.9797 726.495C41.9796 726.858 41.808 727.2 41.5161 727.417L31.865 734.603V760.108H29.5512V734.602L19.9317 727.416C19.6407 727.199 19.4695 726.858 19.4695 726.495C19.4695 726.133 19.6408 725.792 19.9317 725.575L30.0135 718.043ZM22.5532 726.495L30.7091 732.588L38.8918 726.495L30.7094 720.402L22.5532 726.495Z" fill="black"/>
<path d="M30.7081 760.108L40.8228 767.64L50.9046 760.108V729.981L40.8228 722.482L30.7081 729.981V760.108Z" fill="white"/>
<path d="M40.2104 721.506C40.6121 721.256 41.1309 721.274 41.5154 721.56L51.5972 729.059C51.8893 729.277 52.0613 729.618 52.0613 729.981V760.108C52.0613 760.47 51.8901 760.811 51.5991 761.029L41.5174 768.56C41.1064 768.867 40.5411 768.868 40.1297 768.562L30.015 761.03C29.7232 760.812 29.5512 760.471 29.5511 760.108V729.981C29.5512 729.617 29.7239 729.275 30.0169 729.058L40.1316 721.559L40.2104 721.506ZM31.865 730.559V759.532L40.8214 766.201L49.7475 759.533V730.558L40.8214 723.919L31.865 730.559Z" fill="black"/>
<path d="M40.8228 767.64V737.513L50.9046 729.981L40.8228 722.482L30.7081 729.981L40.8228 737.513" fill="white"/>
<path d="M40.2104 721.506C40.6121 721.256 41.1309 721.274 41.5154 721.56L51.5972 729.059C51.889 729.276 52.0609 729.617 52.0613 729.98C52.0617 730.342 51.8905 730.684 51.5991 730.902L41.9796 738.088V767.64H39.6658V738.089L30.015 730.903C29.7228 730.685 29.5508 730.343 29.5511 729.98C29.5516 729.617 29.7243 729.275 30.0169 729.058L40.1316 721.559L40.2104 721.506ZM32.6413 729.983L40.8217 736.074L48.9747 729.983L40.8214 723.919L32.6413 729.983Z" fill="black"/>
<path d="M40.8229 767.641L50.9046 775.173L60.9863 767.641V733.271L50.9046 725.739L40.8229 733.271V767.641Z" fill="white"/>
<path d="M50.2099 724.818C50.6215 724.511 51.1877 724.511 51.5993 724.818L61.681 732.35C61.972 732.568 62.1432 732.909 62.1432 733.271V767.641C62.1432 768.003 61.972 768.344 61.681 768.561L51.5993 776.093C51.1877 776.4 50.6215 776.4 50.2099 776.093L40.1282 768.561C39.8372 768.344 39.666 768.003 39.666 767.641V733.271L39.6679 733.203C39.6878 732.867 39.8554 732.554 40.1282 732.35L50.2099 724.818ZM41.9798 733.846V767.065L50.9046 773.733L59.8294 767.065V733.846L50.9046 727.178L41.9798 733.846Z" fill="black"/>
<path d="M50.9046 775.173V740.803L60.9863 733.271L50.9046 725.739L40.8229 733.271L50.9046 740.803" fill="white"/>
<path d="M50.2099 724.818C50.6215 724.511 51.1877 724.511 51.5993 724.818L61.681 732.35C61.972 732.568 62.1432 732.909 62.1432 733.271C62.1432 733.633 61.972 733.974 61.681 734.191L52.0615 741.377V775.172H49.7477V741.377L40.1282 734.191C39.8372 733.974 39.666 733.633 39.666 733.271C39.666 732.909 39.8372 732.568 40.1282 732.35L50.2099 724.818ZM42.7497 733.271L50.9046 739.363L59.0592 733.271L50.9046 727.178L42.7497 733.271Z" fill="black"/>
<path d="M50.9046 775.172L60.9863 782.704L71.068 775.172V724.423L60.9863 716.892L50.9046 724.423V775.172Z" fill="white"/>
<path d="M60.2916 715.971C60.7032 715.663 61.2694 715.663 61.681 715.971L71.7627 723.503C72.0537 723.72 72.225 724.061 72.225 724.423V775.172C72.2249 775.534 72.0537 775.875 71.7627 776.093L61.681 783.624C61.2695 783.932 60.7032 783.932 60.2916 783.624L50.2099 776.093C49.9189 775.875 49.7477 775.534 49.7477 775.172V724.423L49.7496 724.355C49.7695 724.019 49.9371 723.707 50.2099 723.503L60.2916 715.971ZM52.0615 724.998V774.597L60.9863 781.264L69.9111 774.597V724.998L60.9863 718.331L52.0615 724.998Z" fill="black"/>
<path d="M60.9863 782.704V731.955L71.068 724.423L60.9863 716.892L50.9046 724.423L60.9863 731.955" fill="white"/>
<path d="M60.2916 715.971C60.7032 715.663 61.2694 715.663 61.681 715.971L71.7627 723.503C72.0537 723.72 72.225 724.061 72.225 724.423C72.2249 724.785 72.0537 725.126 71.7627 725.344L62.1432 732.53V782.704H59.8294V732.53L50.2099 725.344C49.9189 725.126 49.7477 724.785 49.7477 724.423C49.7477 724.061 49.919 723.72 50.2099 723.503L60.2916 715.971ZM52.8314 724.423L60.9863 730.515L69.1409 724.423L60.9863 718.331L52.8314 724.423Z" fill="black"/>
<path d="M60.9863 782.704L71.068 790.236L81.1828 782.704V711.432L71.068 703.9L60.9863 711.432V782.704Z" fill="white"/>
<path d="M70.3733 702.98C70.7843 702.672 71.3495 702.672 71.761 702.979L81.876 710.51C82.1679 710.727 82.3395 711.069 82.3395 711.432V782.704C82.3395 783.067 82.1678 783.408 81.876 783.626L71.761 791.157C71.3495 791.464 70.7843 791.463 70.3733 791.156L60.2916 783.625C60.0006 783.407 59.8294 783.066 59.8293 782.704V711.432L59.8313 711.364C59.8512 711.028 60.0188 710.715 60.2916 710.511L70.3733 702.98ZM62.1432 712.007V782.129L71.0693 788.797L80.0257 782.128V712.008L71.0693 705.338L62.1432 712.007Z" fill="black"/>
<path d="M71.068 790.236V718.964L81.1828 711.432L71.068 703.9L60.9863 711.432L71.068 718.964" fill="white"/>
<path d="M70.3733 702.98C70.7843 702.672 71.3495 702.672 71.761 702.979L81.876 710.51C82.1679 710.727 82.3395 711.069 82.3395 711.432C82.3395 711.795 82.1678 712.136 81.876 712.353L72.2249 719.54V790.236H69.9111V719.538L60.2916 712.352C60.0006 712.135 59.8294 711.794 59.8293 711.432C59.8293 711.07 60.0006 710.729 60.2916 710.511L70.3733 702.98ZM62.9131 711.432L71.069 717.525L79.2516 711.432L71.0693 705.338L62.9131 711.432Z" fill="black"/>
<path d="M71.068 790.235L81.1828 797.767L91.2645 790.235V699.887L81.1828 692.355L71.068 699.887V790.235Z" fill="white"/>
<path d="M80.5683 691.38C80.971 691.128 81.492 691.147 81.8773 691.435L91.959 698.967C92.25 699.184 92.4213 699.525 92.4213 699.887V790.235C92.4213 790.597 92.25 790.938 91.959 791.156L81.8773 798.687C81.4663 798.994 80.9011 798.995 80.4896 798.688L70.3749 791.157C70.083 790.939 69.9111 790.598 69.9111 790.235V699.887C69.9111 699.524 70.083 699.183 70.3749 698.965L80.4896 691.434L80.5683 691.38ZM72.2249 700.463V789.659L81.1813 796.328L90.1074 789.66V700.462L81.1813 693.794L72.2249 700.463Z" fill="black"/>
<path d="M81.1828 797.767V707.419L91.2645 699.887L81.1828 692.355L71.068 699.887L81.1828 707.419" fill="white"/>
<path d="M80.5683 691.38C80.971 691.128 81.492 691.147 81.8773 691.435L91.959 698.967C92.25 699.184 92.4213 699.525 92.4213 699.887C92.4212 700.249 92.25 700.59 91.959 700.808L82.3396 707.994V797.767H80.0257V707.995L70.3749 700.809C70.0831 700.591 69.9111 700.25 69.9111 699.887C69.9111 699.524 70.083 699.183 70.3749 698.965L80.4896 691.434L80.5683 691.38ZM72.9987 699.887L81.1813 705.98L89.3372 699.887L81.1813 693.794L72.9987 699.887Z" fill="black"/>
<path d="M81.1828 797.768L91.2645 805.299L101.346 797.768V692.356L91.2645 684.824L81.1828 692.356V797.768Z" fill="white"/>
<path d="M90.5698 683.903C90.9814 683.596 91.5476 683.596 91.9592 683.903L102.041 691.435C102.332 691.653 102.503 691.994 102.503 692.356V797.767C102.503 798.13 102.332 798.471 102.041 798.688L91.9592 806.22C91.5476 806.527 90.9814 806.527 90.5698 806.22L80.4881 798.688C80.1971 798.471 80.0259 798.13 80.0259 797.767V692.356L80.0278 692.288C80.0477 691.951 80.2153 691.639 80.4881 691.435L90.5698 683.903ZM82.3397 692.931V797.192L91.2645 803.859L100.189 797.192V692.931L91.2645 686.263L82.3397 692.931Z" fill="black"/>
<path d="M91.2645 805.299V699.888L101.346 692.356L91.2645 684.824L81.1828 692.356L91.2645 699.888" fill="white"/>
<path d="M90.5698 683.903C90.9814 683.596 91.5476 683.596 91.9592 683.903L102.041 691.435C102.332 691.653 102.503 691.994 102.503 692.356C102.503 692.718 102.332 693.059 102.041 693.276L92.4214 700.462V805.299H90.1076V700.462L80.4881 693.276C80.1971 693.059 80.0259 692.718 80.0259 692.356C80.0259 691.994 80.1972 691.653 80.4881 691.435L90.5698 683.903ZM83.1096 692.356L91.2645 698.448L99.4191 692.356L91.2645 686.263L83.1096 692.356Z" fill="black"/>
<path d="M91.2645 805.299L101.346 812.831L111.428 805.299V654.697L101.346 647.165L91.2645 654.697V805.299Z" fill="white"/>
<path d="M100.652 646.244C101.063 645.937 101.629 645.937 102.041 646.244L112.123 653.776C112.414 653.994 112.585 654.335 112.585 654.697V805.299C112.585 805.661 112.414 806.002 112.123 806.219L102.041 813.751C101.629 814.058 101.063 814.058 100.652 813.751L90.5698 806.219C90.2788 806.002 90.1076 805.661 90.1076 805.299V654.697L90.1095 654.629C90.1294 654.292 90.297 653.98 90.5698 653.776L100.652 646.244ZM92.4214 655.272V804.723L101.346 811.391L110.271 804.723V655.272L101.346 648.604L92.4214 655.272Z" fill="black"/>
<path d="M101.346 812.831V662.229L111.428 654.697L101.346 647.165L91.2645 654.697L101.346 662.229" fill="white"/>
<path d="M100.652 646.244C101.063 645.937 101.629 645.937 102.041 646.244L112.123 653.776C112.414 653.994 112.585 654.335 112.585 654.697C112.585 655.059 112.414 655.4 112.123 655.617L102.503 662.803V812.83H100.189V662.803L90.5698 655.617C90.2788 655.4 90.1076 655.059 90.1076 654.697C90.1076 654.335 90.2788 653.994 90.5698 653.776L100.652 646.244ZM93.1913 654.696L101.346 660.789L109.501 654.696L101.346 648.604L93.1913 654.696Z" fill="black"/>
<path d="M101.346 812.831L111.428 820.363L121.543 812.831V677.293L111.428 669.761L101.346 677.293V812.831Z" fill="white"/>
<path d="M110.733 668.84C111.144 668.533 111.71 668.533 112.121 668.839L122.236 676.37C122.528 676.588 122.7 676.93 122.7 677.292V812.831C122.7 813.193 122.528 813.535 122.236 813.752L112.121 821.284C111.71 821.59 111.144 821.59 110.733 821.283L100.652 813.751C100.361 813.534 100.189 813.193 100.189 812.831V677.292L100.191 677.225C100.211 676.888 100.379 676.576 100.652 676.372L110.733 668.84ZM102.503 677.867V812.256L111.429 818.924L120.386 812.255V677.868L111.429 671.199L102.503 677.867Z" fill="black"/>
<path d="M111.428 820.363V684.824L121.543 677.293L111.428 669.761L101.346 677.293L111.428 684.824" fill="white"/>
<path d="M110.733 668.84C111.144 668.533 111.71 668.533 112.121 668.839L122.236 676.37C122.528 676.588 122.7 676.93 122.7 677.292C122.699 677.655 122.528 677.996 122.236 678.214L112.585 685.4V820.363H110.271V685.399L100.652 678.213C100.361 677.995 100.189 677.654 100.189 677.292C100.189 676.93 100.361 676.589 100.652 676.372L110.733 668.84ZM103.273 677.292L111.429 683.385L119.612 677.292L111.429 671.199L103.273 677.292Z" fill="black"/>
<path d="M111.428 820.363L121.543 827.895L131.624 820.363V677.293L121.543 669.761L111.428 677.293V820.363Z" fill="white"/>
<path d="M120.928 668.785C121.331 668.534 121.852 668.552 122.237 668.84L132.319 676.372C132.61 676.589 132.781 676.93 132.781 677.292V820.363C132.781 820.725 132.61 821.066 132.319 821.283L122.237 828.815C121.826 829.122 121.261 829.122 120.85 828.816L110.735 821.284C110.443 821.067 110.271 820.725 110.271 820.363V677.292C110.271 676.93 110.443 676.588 110.735 676.371L120.85 668.839L120.928 668.785ZM112.585 677.868V819.786L121.541 826.455L130.467 819.788V677.867L121.541 671.199L112.585 677.868Z" fill="black"/>
<path d="M121.543 827.895V684.824L131.624 677.293L121.543 669.761L111.428 677.293L121.543 684.824" fill="white"/>
<path d="M120.928 668.785C121.331 668.534 121.852 668.552 122.237 668.84L132.319 676.372C132.61 676.589 132.781 676.93 132.781 677.292C132.781 677.654 132.61 677.996 132.319 678.213L122.699 685.399V827.894H120.386V685.4L110.735 678.214C110.443 677.997 110.271 677.655 110.271 677.292C110.271 676.93 110.443 676.588 110.735 676.371L120.85 668.839L120.928 668.785ZM113.359 677.292L121.541 683.385L129.697 677.292L121.541 671.199L113.359 677.292Z" fill="black"/>
<path d="M121.543 827.894L131.624 835.425L141.706 827.894V708.011L131.624 700.512L121.543 708.011V827.894Z" fill="white"/>
<path d="M131.01 699.536C131.412 699.285 131.932 699.303 132.317 699.589L142.399 707.089C142.691 707.306 142.863 707.647 142.863 708.01V827.893C142.863 828.256 142.692 828.597 142.401 828.814L132.319 836.346C131.907 836.653 131.341 836.653 130.93 836.346L120.848 828.814C120.557 828.597 120.386 828.256 120.386 827.893V708.01C120.386 707.647 120.558 707.306 120.85 707.089L130.932 699.589L131.01 699.536ZM122.7 708.587V827.318L131.624 833.986L140.549 827.318V708.587L131.624 701.949L122.7 708.587Z" fill="black"/>
<path d="M131.624 834.801V715.411L141.706 707.879L131.624 700.348L121.543 707.879L131.624 715.411" fill="white"/>
<path d="M130.93 699.427C131.341 699.119 131.907 699.119 132.319 699.427L142.401 706.959C142.692 707.176 142.863 707.517 142.863 707.879C142.863 708.241 142.692 708.582 142.401 708.8L132.781 715.986V834.801H130.467V715.986L120.848 708.8C120.557 708.582 120.386 708.241 120.386 707.879C120.386 707.517 120.557 707.176 120.848 706.959L130.93 699.427ZM123.469 707.879L131.624 713.971L139.779 707.879L131.624 701.787L123.469 707.879Z" fill="black"/>
<path d="M131.624 835.426L141.706 842.958L151.821 835.426V737.513L141.706 729.981L131.624 737.513V835.426Z" fill="white"/>
<path d="M141.011 729.061C141.422 728.754 141.988 728.753 142.399 729.06L152.514 736.591C152.806 736.809 152.978 737.15 152.978 737.513V835.425C152.978 835.788 152.806 836.13 152.514 836.347L142.399 843.879C141.988 844.185 141.422 844.185 141.011 843.878L130.93 836.346C130.639 836.129 130.467 835.788 130.467 835.425V737.513L130.469 737.445C130.489 737.109 130.657 736.796 130.93 736.592L141.011 729.061ZM132.781 738.088V834.85L141.707 841.519L150.664 834.849V738.089L141.707 731.419L132.781 738.088Z" fill="black"/>
<path d="M141.706 842.958V745.045L151.821 737.513L141.706 729.981L131.624 737.513L141.706 745.045" fill="white"/>
<path d="M141.011 729.061C141.422 728.754 141.988 728.753 142.399 729.06L152.514 736.591C152.806 736.809 152.978 737.15 152.978 737.513C152.978 737.876 152.806 738.217 152.514 738.434L142.863 745.621V842.957H140.549V745.619L130.93 738.434C130.639 738.216 130.467 737.875 130.467 737.513C130.467 737.151 130.639 736.81 130.93 736.592L141.011 729.061ZM133.551 737.513L141.707 743.606L149.89 737.513L141.707 731.419L133.551 737.513Z" fill="black"/>
<path d="M141.706 842.958L151.821 850.489L161.903 842.958V752.577L151.821 745.045L141.706 752.577V842.958Z" fill="white"/>
<path d="M151.206 744.069C151.609 743.818 152.13 743.836 152.515 744.124L162.597 751.656C162.888 751.873 163.059 752.214 163.059 752.577V842.958C163.059 843.32 162.888 843.661 162.597 843.878L152.515 851.41C152.104 851.717 151.539 851.717 151.128 851.411L141.013 843.879C140.721 843.662 140.549 843.32 140.549 842.958V752.577C140.549 752.214 140.721 751.872 141.013 751.655L151.128 744.123L151.206 744.069ZM142.863 753.152V842.381L151.819 849.05L160.745 842.382V753.151L151.819 746.483L142.863 753.152Z" fill="black"/>
<path d="M151.821 850.489V760.108L161.903 752.577L151.821 745.045L141.706 752.577L151.821 760.108" fill="white"/>
<path d="M151.206 744.069C151.609 743.818 152.13 743.836 152.515 744.124L162.597 751.656C162.888 751.873 163.059 752.214 163.059 752.576C163.059 752.938 162.888 753.28 162.597 753.497L152.978 760.683V850.489H150.664V760.684L141.013 753.498C140.721 753.281 140.549 752.939 140.549 752.576C140.549 752.214 140.721 751.872 141.013 751.655L151.128 744.123L151.206 744.069ZM143.637 752.576L151.819 758.669L159.975 752.576L151.819 746.483L143.637 752.576Z" fill="black"/>
<path d="M151.821 850.489L161.903 858.021L171.984 850.489V777.178L161.903 769.646L151.821 777.178V850.489Z" fill="white"/>
<path d="M161.208 768.726C161.62 768.418 162.186 768.418 162.597 768.726L172.679 776.258C172.97 776.475 173.141 776.816 173.141 777.178V850.489C173.141 850.851 172.97 851.192 172.679 851.41L162.597 858.942C162.186 859.249 161.62 859.249 161.208 858.942L151.126 851.41C150.835 851.192 150.664 850.851 150.664 850.489V777.178L150.666 777.11C150.686 776.774 150.853 776.461 151.126 776.258L161.208 768.726ZM152.978 777.753V849.914L161.903 856.581L170.827 849.914V777.753L161.903 771.085L152.978 777.753Z" fill="black"/>
<path d="M161.903 858.021V784.71L171.984 777.178L161.903 769.646L151.821 777.178L161.903 784.71" fill="white"/>
<path d="M161.208 768.726C161.62 768.418 162.186 768.418 162.597 768.726L172.679 776.258C172.97 776.475 173.141 776.816 173.141 777.178C173.141 777.54 172.97 777.881 172.679 778.099L163.06 785.285V858.021H160.746V785.285L151.126 778.099C150.835 777.881 150.664 777.54 150.664 777.178C150.664 776.816 150.835 776.475 151.126 776.258L161.208 768.726ZM153.748 777.178L161.903 783.27L170.057 777.178L161.903 771.085L153.748 777.178Z" fill="black"/>
<g style="mix-blend-mode:multiply" opacity="0.6">
<path d="M130.897 692.553L130.864 697.749L132.153 698.374L120.551 707.814L88.7193 683.804L92.2892 681.173V663.61L21.3536 610.263L1.1571 623.813L160.68 744.552L180.843 729.488L130.897 692.553Z" fill="#046CD5"/>
</g>
<path d="M21.2875 613.092L90.0746 664.696V680.647L89.3804 681.108C88.7524 681.535 88.3887 682.226 88.3557 682.949C88.3557 683.706 88.6863 684.397 89.2812 684.857L119.725 707.485C120.121 707.781 120.617 707.946 121.113 707.946C121.609 707.946 122.039 707.814 122.435 707.518L132.947 700.184C133.641 699.69 134.004 698.868 133.905 698.013C133.872 697.651 133.74 697.289 133.542 696.993L176.976 729.488L160.68 741.658L5.12368 623.912L21.2544 613.092M21.3536 610.263L1.1571 623.814L160.68 744.552L180.843 729.488L130.468 691.83L130.6 697.881L131.624 698.276L121.113 705.61L90.6695 682.982L92.3554 681.831V663.512L21.3205 610.197L21.3536 610.263Z" fill="black"/>
<path d="M211.799 261.461L201.776 269.006L1.15021 118.112L11.1733 110.601L211.799 261.461Z" fill="white"/>
<path d="M10.5629 109.623C10.963 109.372 11.4803 109.39 11.8632 109.678L212.489 260.538C212.778 260.756 212.949 261.098 212.949 261.461C212.949 261.824 212.779 262.165 212.489 262.383L202.466 269.928C202.057 270.236 201.495 270.236 201.085 269.928L0.459883 119.034C0.170097 118.816 -0.000308549 118.474 4.19427e-07 118.111C0.000328872 117.748 0.17135 117.406 0.461488 117.189L10.4846 109.677L10.5629 109.623ZM3.06899 118.114L201.775 267.564L209.883 261.461L11.1723 112.041L3.06899 118.114Z" fill="black"/>
<path d="M11.1733 110.6V4.97461L211.799 155.835V261.461L11.1733 110.6Z" fill="white"/>
<path d="M10.6588 3.94295C11.0485 3.74763 11.5147 3.78999 11.8632 4.05202L212.489 154.912C212.778 155.13 212.949 155.472 212.949 155.835V261.461C212.949 261.897 212.703 262.297 212.313 262.492C211.924 262.687 211.457 262.645 211.109 262.383L10.4833 111.523C10.1937 111.305 10.0231 110.963 10.0231 110.6V4.97444L10.026 4.89304C10.0544 4.48857 10.2935 4.12607 10.6588 3.94295ZM12.3234 110.023L210.649 259.154V156.411L12.3234 7.28036V110.023Z" fill="black"/>
<path d="M10.0231 110.6V104.67C10.0231 104.033 10.538 103.517 11.1733 103.517C11.8085 103.517 12.3234 104.033 12.3234 104.67V110.6C12.3234 111.237 11.8085 111.753 11.1733 111.753C10.538 111.753 10.0231 111.237 10.0231 110.6Z" fill="black"/>
<path d="M30.0692 125.657V119.595C30.0692 118.958 30.5842 118.441 31.2194 118.441C31.8546 118.441 32.3696 118.958 32.3696 119.595V125.657C32.3695 126.294 31.8546 126.81 31.2194 126.81C30.5842 126.81 30.0693 126.294 30.0692 125.657Z" fill="black"/>
<path d="M50.1482 140.746V134.519C50.1482 133.882 50.6632 133.366 51.2984 133.366C51.9336 133.366 52.4486 133.882 52.4486 134.519V140.746C52.4485 141.383 51.9336 141.899 51.2984 141.899C50.6632 141.899 50.1483 141.383 50.1482 140.746Z" fill="black"/>
<path d="M70.1943 155.835V149.443C70.1943 148.806 70.7093 148.29 71.3445 148.29C71.9798 148.29 72.4947 148.806 72.4947 149.443V155.835C72.4946 156.472 71.9797 156.988 71.3445 156.988C70.7093 156.988 70.1944 156.472 70.1943 155.835Z" fill="black"/>
<path d="M90.2733 170.924V164.368C90.2733 163.731 90.7883 163.215 91.4235 163.215C92.0587 163.215 92.5737 163.731 92.5737 164.368V170.924C92.5736 171.561 92.0587 172.077 91.4235 172.077C90.7883 172.077 90.2734 171.561 90.2733 170.924Z" fill="black"/>
<path d="M110.352 186.014V179.293C110.352 178.656 110.867 178.14 111.502 178.14C112.138 178.14 112.653 178.656 112.653 179.293V186.014C112.653 186.651 112.138 187.167 111.502 187.167C110.867 187.167 110.352 186.651 110.352 186.014Z" fill="black"/>
<path d="M130.398 201.103V194.218C130.398 193.581 130.913 193.064 131.549 193.064C132.184 193.064 132.699 193.581 132.699 194.218V201.103L132.697 201.163C132.666 201.772 132.164 202.257 131.549 202.257C130.933 202.257 130.431 201.772 130.4 201.163L130.398 201.103Z" fill="black"/>
<path d="M150.477 216.193V209.142C150.477 208.506 150.992 207.989 151.628 207.989C152.263 207.989 152.778 208.506 152.778 209.142V216.193L152.776 216.252C152.745 216.861 152.243 217.346 151.628 217.346C151.012 217.346 150.51 216.861 150.479 216.252L150.477 216.193Z" fill="black"/>
<path d="M170.524 231.283V224.067C170.524 223.43 171.038 222.914 171.674 222.914C172.309 222.914 172.824 223.43 172.824 224.067V231.283C172.824 231.919 172.309 232.436 171.674 232.436C171.039 232.436 170.524 231.919 170.524 231.283Z" fill="black"/>
<path d="M190.603 246.371V238.991C190.603 238.354 191.117 237.838 191.753 237.838C192.388 237.838 192.903 238.354 192.903 238.991V246.371C192.903 247.008 192.388 247.524 191.753 247.524C191.118 247.524 190.603 247.008 190.603 246.371Z" fill="black"/>
<path d="M210.649 261.461V253.916C210.649 253.279 211.164 252.763 211.799 252.763C212.434 252.763 212.949 253.279 212.949 253.916V261.461C212.949 262.097 212.434 262.614 211.799 262.614C211.164 262.614 210.649 262.097 210.649 261.461Z" fill="black"/>
<path d="M10.2534 4.28208C10.6348 3.77284 11.3558 3.66997 11.8638 4.05235L20.7039 10.7076C21.2118 11.09 21.3144 11.8128 20.933 12.322C20.5516 12.8312 19.8306 12.934 19.3226 12.5518L10.4825 5.89657C9.97456 5.51417 9.87195 4.79133 10.2534 4.28208Z" fill="black"/>
<path d="M10.2535 25.4002C10.6349 24.891 11.3559 24.7881 11.8639 25.1705L20.704 31.8257C21.2119 32.2081 21.3145 32.931 20.9332 33.4402C20.5517 33.9495 19.8304 34.0523 19.3224 33.6699L10.4826 27.0147C9.97468 26.6323 9.87208 25.9095 10.2535 25.4002Z" fill="black"/>
<path d="M10.2548 46.5177C10.6371 46.0092 11.3582 45.9076 11.8655 46.2909L20.6726 52.9461C21.1799 53.3294 21.2812 54.0523 20.8988 54.5609C20.5165 55.0695 19.7954 55.171 19.2881 54.7877L10.481 48.1325C9.97377 47.7492 9.87247 47.0263 10.2548 46.5177Z" fill="black"/>
<path d="M10.2548 67.6359C10.6371 67.1273 11.3582 67.0258 11.8655 67.4091L20.6726 74.0643C21.1799 74.4476 21.2812 75.1705 20.8988 75.6791C20.5165 76.1876 19.7954 76.2892 19.2881 75.9059L10.481 69.2507C9.97377 68.8674 9.87247 68.1445 10.2548 67.6359Z" fill="black"/>
<path d="M10.2548 88.7541C10.6371 88.2455 11.3582 88.1439 11.8655 88.5272L20.6726 95.1824C21.1799 95.5657 21.2812 96.2887 20.8988 96.7972C20.5165 97.3058 19.7954 97.4073 19.2881 97.0241L10.481 90.3689C9.97377 89.9856 9.87247 89.2626 10.2548 88.7541Z" fill="black"/>
<path d="M10.2548 109.873C10.6371 109.365 11.3582 109.263 11.8655 109.646L20.6726 116.302C21.1799 116.685 21.2812 117.408 20.8988 117.916C20.5165 118.425 19.7954 118.526 19.2881 118.143L10.481 111.488C9.97377 111.105 9.87247 110.382 10.2548 109.873Z" fill="black"/>
<path d="M211.799 261.461L216.794 257.672L217.287 151.717L211.799 155.835V261.461Z" fill="white"/>
<path d="M216.598 150.794C216.947 150.532 217.414 150.491 217.804 150.688C218.194 150.884 218.439 151.286 218.437 151.723L217.944 257.678C217.942 258.037 217.774 258.375 217.488 258.592L212.493 262.381C212.145 262.645 211.677 262.688 211.287 262.494C210.896 262.299 210.649 261.899 210.649 261.461V155.836L210.651 155.768C210.67 155.43 210.838 155.117 211.109 154.913L216.598 150.794ZM212.949 156.413V259.143L215.646 257.096L216.126 154.029L212.949 156.413Z" fill="black"/>
<path d="M211.799 155.836L217.287 151.717L16.267 1.15332L11.1733 4.97509L211.799 155.836Z" fill="white"/>
<path d="M15.6559 0.176024C16.0554 -0.0753377 16.5723 -0.0574542 16.9553 0.229433L217.975 150.794C218.266 151.011 218.437 151.353 218.437 151.717C218.437 152.08 218.266 152.422 217.976 152.64L212.488 156.759C212.079 157.065 211.517 157.065 211.109 156.758L10.4833 5.89753C10.1935 5.67966 10.0229 5.33756 10.0231 4.97446C10.0233 4.6113 10.1942 4.2693 10.4842 4.05171L15.5779 0.230077L15.6559 0.176024ZM13.0914 4.97574L211.799 154.394L215.366 151.718L16.2673 2.59261L13.0914 4.97574Z" fill="black"/>
<path d="M1.15021 118.112V125.888L201.776 276.847V269.006L1.15021 118.112Z" fill="#046CD5"/>
<path d="M0.635748 117.081C1.02545 116.885 1.49198 116.928 1.84049 117.19L202.466 268.083C202.756 268.301 202.926 268.643 202.926 269.006V276.847C202.926 277.284 202.68 277.683 202.29 277.878C201.9 278.074 201.434 278.031 201.085 277.769L0.459882 126.81C0.170443 126.592 0 126.25 0 125.887V118.112C0 117.675 0.246085 117.276 0.635748 117.081ZM2.30038 125.311L200.626 274.54V269.582L2.30038 120.419V125.311Z" fill="black"/>
<path d="M226.159 249.173C226.507 248.91 226.974 248.868 227.364 249.063C227.754 249.258 228 249.657 228 250.095V257.672C228 258.032 227.833 258.371 227.547 258.589L202.473 277.764C202.126 278.029 201.657 278.075 201.266 277.88C200.874 277.686 200.626 277.285 200.626 276.847V269.006L200.628 268.938C200.647 268.601 200.814 268.289 201.084 268.084L226.159 249.173ZM202.926 269.581V274.517L225.7 257.101V252.405L202.926 269.581Z" fill="black"/>
<path d="M216.365 242.157C216.744 241.647 217.465 241.541 217.974 241.922L227.537 249.071C228.046 249.452 228.152 250.174 227.772 250.685C227.392 251.196 226.671 251.301 226.162 250.92L216.599 243.771C216.09 243.39 215.985 242.668 216.365 242.157Z" fill="black"/>
<path d="M29.4396 77.6133C29.7709 76.5733 30.8805 75.9995 31.9178 76.3315L51.3721 82.5584L51.4607 82.589C51.5484 82.6217 51.6337 82.6606 51.7159 82.7055L71.3727 93.4429L90.9955 92.45L91.0716 92.4474C91.8569 92.438 92.5764 92.898 92.897 93.6221L112.953 138.92L132.68 165.635L152.144 175.09L172.022 178.666L172.113 178.684C172.324 178.733 172.526 178.816 172.711 178.93L192.855 191.417C193.782 191.991 194.068 193.209 193.495 194.138C192.923 195.066 191.708 195.353 190.782 194.779L170.956 182.491L151.181 178.933C151.003 178.901 150.831 178.845 150.669 178.766L130.525 168.981C130.238 168.842 129.989 168.635 129.8 168.378L109.655 141.099C109.569 140.983 109.496 140.857 109.437 140.725L89.8418 96.4666L71.0168 97.4196C70.6539 97.438 70.2929 97.3555 69.9738 97.1812L49.9941 86.2675L30.7182 80.0978C29.6809 79.7657 29.1085 78.6533 29.4396 77.6133Z" fill="black"/>
<path d="M30.0475 62.2828C30.9834 61.7249 32.1934 62.0333 32.75 62.9717L52.2512 95.8497L72.0922 109.796L90.3194 110.346L109.865 91.2938L109.951 91.2147C110.391 90.8336 110.979 90.6656 111.557 90.7601C112.174 90.8609 112.706 91.2485 112.992 91.8051L132.588 129.911L151.535 129.973C152.19 129.975 152.802 130.303 153.167 130.849L173.311 160.962L173.313 160.963L193.457 191.142C194.063 192.049 193.82 193.277 192.915 193.884C192.01 194.491 190.786 194.248 190.18 193.341L170.035 163.162V163.162L150.475 133.923L131.378 133.861C130.642 133.858 129.969 133.446 129.632 132.79L110.706 95.9877L92.4695 113.764C92.0867 114.137 91.5693 114.339 91.0357 114.323L71.3839 113.73C70.9993 113.718 70.6262 113.594 70.3111 113.373L49.6408 98.8431C49.4124 98.6826 49.2204 98.4754 49.0779 98.235L29.3604 64.9922C28.8039 64.0538 29.1115 62.8408 30.0475 62.2828Z" fill="#046CD5"/>
<path d="M188.19 196.589C188.518 195.94 189.309 195.681 189.957 196.01L192.413 197.26C193.061 197.589 193.319 198.382 192.991 199.031C192.662 199.68 191.871 199.939 191.224 199.61L188.767 198.361C188.12 198.032 187.861 197.238 188.19 196.589ZM178.117 191.466C178.446 190.817 179.237 190.558 179.884 190.887L184.797 193.386C185.445 193.715 185.703 194.509 185.375 195.158C185.047 195.807 184.256 196.066 183.608 195.737L178.695 193.238C178.047 192.908 177.789 192.115 178.117 191.466ZM171.697 186.871C171.895 186.875 172.091 186.923 172.269 187.013L174.725 188.263C175.373 188.592 175.631 189.385 175.303 190.035C174.974 190.684 174.183 190.943 173.536 190.614L171.389 189.522L166.823 189.738C166.097 189.773 165.482 189.211 165.447 188.484C165.413 187.757 165.973 187.14 166.698 187.105L171.612 186.872L171.697 186.871ZM149.229 185.191C149.856 184.824 150.661 185.036 151.027 185.665L152.263 187.79L156.38 187.595C157.105 187.56 157.721 188.122 157.756 188.849C157.79 189.576 157.23 190.193 156.505 190.228L151.591 190.461C151.102 190.484 150.64 190.232 150.394 189.808L148.756 186.993C148.39 186.364 148.602 185.557 149.229 185.191ZM142.514 173.649C143.141 173.282 143.946 173.494 144.312 174.123L147.587 179.753C147.953 180.382 147.741 181.189 147.114 181.556C146.487 181.922 145.682 181.71 145.317 181.081L142.041 175.451C141.675 174.822 141.887 174.015 142.514 173.649ZM135.799 162.107C136.426 161.74 137.231 161.952 137.597 162.581L140.872 168.211C141.238 168.84 141.026 169.647 140.399 170.014C139.772 170.38 138.967 170.168 138.602 169.539L135.326 163.909C134.96 163.28 135.172 162.473 135.799 162.107ZM128.967 151.225C129.552 150.794 130.375 150.919 130.805 151.506L132.443 153.737L132.483 153.794C132.496 153.814 132.508 153.834 132.52 153.854L134.158 156.669C134.523 157.298 134.311 158.104 133.684 158.471C133.057 158.838 132.252 158.626 131.887 157.997L130.284 155.242L128.688 153.068C128.258 152.481 128.383 151.657 128.967 151.225ZM122.252 142.077C122.837 141.646 123.66 141.771 124.09 142.357L127.366 146.82C127.796 147.406 127.671 148.231 127.086 148.662C126.502 149.094 125.679 148.968 125.249 148.382L121.973 143.92C121.543 143.333 121.668 142.509 122.252 142.077ZM115.537 132.929C116.122 132.497 116.945 132.623 117.375 133.209L120.651 137.672C121.081 138.258 120.956 139.083 120.372 139.514C119.787 139.946 118.964 139.82 118.534 139.234L115.258 134.771C114.828 134.185 114.953 133.36 115.537 132.929ZM87.7837 131.024C88.0461 130.346 88.8074 130.009 89.4843 130.272L91.5931 131.091L93.5803 130.547C94.2805 130.355 95.0034 130.768 95.1948 131.47C95.3862 132.172 94.9734 132.897 94.2731 133.089L91.8688 133.748C91.5975 133.822 91.3095 133.807 91.0472 133.706L88.5344 132.729C87.8575 132.466 87.5214 131.703 87.7837 131.024ZM103.439 127.845C104.139 127.653 104.862 128.067 105.054 128.769C105.245 129.471 104.832 130.196 104.132 130.387L99.3229 131.705C98.6226 131.897 97.8997 131.484 97.7083 130.782C97.5169 130.08 97.9294 129.355 98.6297 129.163L103.439 127.845ZM77.4812 127.021C77.7435 126.343 78.5051 126.006 79.1821 126.269L84.2074 128.221C84.8843 128.485 85.2204 129.248 84.958 129.926C84.6957 130.605 83.9344 130.942 83.2575 130.679L78.2318 128.726C77.555 128.463 77.2189 127.7 77.4812 127.021ZM110.992 125.779C111.486 125.684 111.996 125.881 112.298 126.293L113.936 128.524C114.366 129.11 114.241 129.935 113.657 130.366C113.072 130.798 112.249 130.672 111.819 130.086L110.716 128.583L109.182 129.004C108.481 129.196 107.758 128.782 107.567 128.08C107.376 127.378 107.788 126.653 108.488 126.461L110.893 125.802L110.992 125.779ZM67.5136 121.186C68.0171 120.662 68.849 120.646 69.3721 121.151L71.6381 123.337L73.9051 124.218C74.582 124.481 74.918 125.245 74.6558 125.923C74.3934 126.602 73.6321 126.939 72.9552 126.676L70.4424 125.7C70.2799 125.637 70.1315 125.542 70.0059 125.42L67.5492 123.05C67.0262 122.545 67.0102 121.711 67.5136 121.186ZM57.4411 111.467C57.9446 110.943 58.7769 110.927 59.2999 111.432L64.2132 116.173C64.7363 116.677 64.7523 117.512 64.2489 118.036C63.7455 118.561 62.9131 118.577 62.3901 118.072L57.4768 113.331C56.9537 112.826 56.9377 111.992 57.4411 111.467ZM47.4444 101.882C47.9428 101.353 48.7747 101.329 49.3025 101.829L51.6751 104.075L51.6841 104.083L54.1408 106.454C54.6638 106.958 54.6798 107.793 54.1764 108.317C53.6729 108.841 52.8407 108.857 52.3176 108.353L49.8609 105.982V105.982L47.4977 103.745C46.9698 103.245 46.946 102.411 47.4444 101.882ZM37.7169 92.6734C38.2153 92.1442 39.0475 92.1203 39.5754 92.62L44.3202 97.1118C44.848 97.6115 44.8719 98.4458 44.3735 98.975C43.8751 99.5041 43.0431 99.528 42.5153 99.0284L37.7705 94.5363C37.2427 94.0366 37.2185 93.2026 37.7169 92.6734ZM30.3623 85.7109C30.8607 85.1817 31.6926 85.1578 32.2204 85.6575L34.593 87.9036C35.1208 88.4033 35.1447 89.2373 34.6463 89.7665C34.1479 90.2956 33.316 90.3195 32.7882 89.8199L30.4156 87.5738C29.8877 87.0741 29.8639 86.2401 30.3623 85.7109Z" fill="black"/>
<path d="M474.584 143.91L445.175 118.762V153L426.377 139.696V106.973L400 88.311L439.566 24.834L474.584 143.91Z" fill="white"/>
<path d="M474.584 143.91L445.175 118.762V153L426.377 139.696V106.973L400 88.3109L439.566 24.834L474.584 143.91ZM427.984 138.866L443.568 149.895V115.274L471.516 139.173L439.035 28.7235L402.165 87.8749L427.984 106.142V138.866Z" fill="black"/>
<path d="M460.334 139.971L444.265 151.485V116.338L460.334 130.124V139.971Z" fill="#046CD5"/>
<path d="M460.858 129.515L461.138 130.124V139.971L460.802 140.624L444.734 152.137L443.462 151.485V116.338L444.789 115.729L460.858 129.515ZM445.069 149.921L459.531 139.559V130.492L445.069 118.085V149.921Z" fill="black"/>
<path d="M488.076 131.488L473.675 143.153L439.414 26.7397L456.084 17.2596L488.076 131.488Z" fill="#046CD5"/>
<path d="M456.858 17.0427L488.849 131.271L488.582 132.111L474.181 143.776L472.904 143.379L438.643 26.9659L439.017 26.0414L455.687 16.5613L456.858 17.0427ZM440.364 27.1227L474.105 141.77L487.16 131.195L455.587 18.4654L440.364 27.1227Z" fill="black"/>
<path d="M282.776 526.261C262.477 511.003 229.55 511.003 209.224 526.261C188.925 541.519 188.925 566.299 209.224 581.557C229.523 596.815 262.45 596.815 282.776 581.557C303.075 566.299 303.075 541.519 282.776 526.261Z" fill="white"/>
<path d="M246.01 513.985C259.468 513.985 272.957 517.84 283.274 525.595C293.6 533.357 298.83 543.599 298.83 553.909C298.83 564.218 293.6 574.46 283.274 582.222L283.274 582.222C272.944 589.977 259.447 593.832 245.99 593.832C232.532 593.832 219.043 589.977 208.726 582.222C198.4 574.46 193.17 564.218 193.17 553.909C193.17 543.599 198.4 533.357 208.726 525.595L208.726 525.595C219.056 517.84 232.553 513.985 246.01 513.985ZM246.01 515.649C232.848 515.649 219.718 519.423 209.722 526.926L209.722 526.926C199.75 534.422 194.83 544.199 194.83 553.909C194.83 563.619 199.75 573.395 209.722 580.892C219.704 588.394 232.827 592.168 245.99 592.168C259.152 592.168 272.282 588.394 282.278 580.891C292.25 573.395 297.17 563.618 297.17 553.909C297.17 544.199 292.25 534.422 282.278 526.926C272.296 519.423 259.173 515.649 246.01 515.649Z" fill="black"/>
<path d="M274.366 532.572C258.697 520.799 233.303 520.799 217.634 532.572C201.965 544.344 201.965 563.444 217.634 575.244C233.303 587.017 258.697 587.017 274.366 575.244C290.035 563.472 290.035 544.372 274.366 532.572Z" fill="white"/>
<path d="M246 522.911C256.251 522.911 266.536 525.802 274.487 531.627L274.864 531.907L274.865 531.908C282.876 537.94 286.948 545.898 286.948 553.919C286.948 561.941 282.875 569.892 274.864 575.911C266.862 581.923 256.413 584.907 246 584.907C235.587 584.907 225.138 581.923 217.136 575.911L217.135 575.91C209.124 569.878 205.052 561.92 205.052 553.899C205.052 545.877 209.125 537.926 217.136 531.907C225.138 525.895 235.587 522.911 246 522.911ZM246 524.575C235.882 524.575 225.799 527.477 218.132 533.238C210.474 538.992 206.712 546.477 206.712 553.899C206.712 561.32 210.474 568.812 218.132 574.58L218.493 574.848C226.114 580.43 236.04 583.243 246 583.243C256.118 583.243 266.201 580.34 273.868 574.58C281.526 568.826 285.288 561.341 285.288 553.919C285.288 546.497 281.526 539.005 273.867 533.237V533.237C266.2 527.477 256.118 524.575 246 524.575Z" fill="black"/>
<path d="M229.276 553.894L245.986 566.463V365.421L234.015 356.42L229.276 553.894Z" fill="white"/>
<path d="M233.653 355.672C233.933 355.536 234.265 355.568 234.514 355.755L246.485 364.757C246.694 364.914 246.817 365.16 246.817 365.422V566.464C246.817 566.779 246.639 567.067 246.357 567.208C246.076 567.349 245.739 567.318 245.488 567.129L228.778 554.56C228.563 554.399 228.44 554.144 228.446 553.875L233.185 356.401L233.188 356.343C233.216 356.055 233.391 355.8 233.653 355.672ZM230.116 553.487L245.156 564.799V365.837L234.807 358.055L230.116 553.487Z" fill="black"/>
<path d="M234.015 356.42L245.986 334V365.421L234.015 356.42Z" fill="white"/>
<path d="M245.254 333.608C245.434 333.271 245.819 333.1 246.188 333.193C246.558 333.286 246.817 333.618 246.817 334V365.421C246.817 365.736 246.639 366.024 246.357 366.165C246.076 366.306 245.739 366.276 245.488 366.086L233.517 357.085C233.189 356.839 233.09 356.39 233.283 356.028L245.254 333.608ZM235.083 356.183L245.156 363.756V337.318L235.083 356.183Z" fill="black"/>
<path d="M262.696 553.894L245.986 566.463V365.421L257.957 356.42L262.696 553.894Z" fill="#046CD5"/>
<path d="M257.506 355.722C257.749 355.565 258.057 355.545 258.32 355.672C258.599 355.808 258.78 356.089 258.787 356.401L263.527 553.875C263.533 554.144 263.41 554.399 263.195 554.56L246.485 567.129C246.233 567.318 245.897 567.349 245.615 567.208C245.334 567.067 245.156 566.779 245.156 566.464V365.422C245.156 365.16 245.279 364.914 245.488 364.757L257.459 355.756L257.506 355.722ZM246.817 365.837V564.799L261.856 553.487L257.166 358.056L246.817 365.837Z" fill="black"/>
<path d="M257.957 356.42L245.986 334V365.421L257.957 356.42Z" fill="#046CD5"/>
<path d="M245.785 333.193C246.154 333.1 246.539 333.271 246.718 333.608L258.689 356.028C258.883 356.39 258.784 356.839 258.456 357.085L246.485 366.086C246.233 366.276 245.897 366.306 245.615 366.165C245.334 366.024 245.156 365.736 245.156 365.421V334C245.156 333.618 245.415 333.286 245.785 333.193ZM246.817 363.757L256.889 356.183L246.817 337.318V363.757Z" fill="black"/>
<path d="M269.728 583.258V552.002C269.728 551.542 270.1 551.17 270.558 551.17C271.017 551.17 271.389 551.542 271.389 552.002V583.258C271.389 583.718 271.017 584.09 270.558 584.09C270.1 584.09 269.728 583.718 269.728 583.258Z" fill="black"/>
<path d="M284.712 571.952V540.695C284.712 540.236 285.084 539.863 285.543 539.863C286.001 539.863 286.373 540.236 286.373 540.695V571.952C286.373 572.411 286.001 572.784 285.543 572.784C285.084 572.784 284.712 572.411 284.712 571.952Z" fill="black"/>
<path d="M291.424 555.377V524.12C291.424 523.66 291.796 523.288 292.254 523.288C292.713 523.288 293.085 523.66 293.085 524.12V555.377C293.085 555.836 292.713 556.208 292.254 556.208C291.796 556.208 291.424 555.836 291.424 555.377Z" fill="black"/>
<path d="M284.712 534.795V503.511C284.712 503.051 285.084 502.679 285.543 502.679C286.001 502.679 286.373 503.051 286.373 503.511V534.795C286.373 535.254 286.001 535.626 285.543 535.626C285.084 535.626 284.712 535.254 284.712 534.795Z" fill="black"/>
<path d="M245.156 587.594V556.338C245.156 555.878 245.528 555.506 245.986 555.506C246.445 555.506 246.817 555.878 246.817 556.338V587.594C246.817 588.054 246.445 588.426 245.986 588.426C245.528 588.426 245.156 588.054 245.156 587.594Z" fill="black"/>
<path d="M221.077 583.258V552.002C221.077 551.542 221.449 551.17 221.907 551.17C222.366 551.17 222.738 551.542 222.738 552.002V583.258C222.738 583.718 222.366 584.09 221.907 584.09C221.449 584.09 221.077 583.718 221.077 583.258Z" fill="black"/>
<path d="M206.093 571.952V540.668C206.093 540.208 206.464 539.836 206.923 539.836C207.382 539.836 207.753 540.208 207.753 540.668V571.952C207.753 572.411 207.382 572.784 206.923 572.784C206.464 572.784 206.093 572.411 206.093 571.952Z" fill="black"/>
<path d="M198.888 554.334V523.077C198.888 522.618 199.26 522.245 199.718 522.245C200.177 522.245 200.549 522.618 200.549 523.077V554.334C200.549 554.793 200.177 555.165 199.718 555.165C199.26 555.165 198.888 554.793 198.888 554.334Z" fill="black"/>
<path d="M206.12 535.261V504.005C206.12 503.545 206.492 503.173 206.95 503.173C207.409 503.173 207.781 503.545 207.781 504.005V535.261C207.781 535.721 207.409 536.093 206.95 536.093C206.492 536.093 206.12 535.721 206.12 535.261Z" fill="black"/>
<path d="M270.166 524.065V492.808C270.166 492.349 270.538 491.977 270.997 491.977C271.455 491.977 271.827 492.349 271.827 492.808V524.065C271.827 524.524 271.455 524.897 270.997 524.897C270.538 524.897 270.166 524.524 270.166 524.065Z" fill="black"/>
<path d="M219.899 524.065V492.808C219.899 492.349 220.271 491.977 220.729 491.977C221.188 491.977 221.56 492.349 221.56 492.808V524.065C221.56 524.524 221.188 524.897 220.729 524.897C220.271 524.897 219.899 524.524 219.899 524.065Z" fill="black"/>
<path d="M245.046 518.632V483.506C245.046 483.046 245.418 482.674 245.877 482.674C246.335 482.674 246.707 483.046 246.707 483.506V518.632C246.707 519.091 246.335 519.464 245.877 519.464C245.418 519.464 245.046 519.091 245.046 518.632Z" fill="black"/>
<path d="M270.558 551.645L265.956 569.235L270.558 570.497V551.645Z" fill="white"/>
<path d="M269.755 551.433C269.861 551.029 270.25 550.766 270.664 550.819C271.079 550.873 271.389 551.226 271.389 551.644V570.497C271.389 570.757 271.268 571.001 271.062 571.159C270.856 571.316 270.589 571.368 270.339 571.3L265.737 570.037C265.298 569.917 265.038 569.465 265.153 569.024L269.755 551.433ZM266.968 568.65L269.728 569.407V558.099L266.968 568.65Z" fill="black"/>
<path d="M246.233 558.203L241.631 575.766L246.233 577.056V558.203Z" fill="white"/>
<path d="M245.43 557.992C245.536 557.587 245.925 557.324 246.339 557.378C246.753 557.432 247.063 557.785 247.063 558.203V577.056C247.063 577.316 246.942 577.561 246.735 577.719C246.528 577.876 246.259 577.927 246.009 577.857L241.407 576.567C240.97 576.445 240.712 575.994 240.827 575.555L245.43 557.992ZM242.641 575.186L245.402 575.959V564.648L242.641 575.186Z" fill="black"/>
<path d="M221.907 552.001L217.305 569.564L221.907 570.854V552.001Z" fill="white"/>
<path d="M221.104 551.79C221.21 551.385 221.599 551.122 222.014 551.176C222.428 551.229 222.737 551.583 222.737 552.001V570.854C222.737 571.114 222.616 571.359 222.409 571.517C222.202 571.674 221.934 571.725 221.684 571.655L217.081 570.365C216.645 570.242 216.387 569.792 216.502 569.353L221.104 551.79ZM218.316 568.983L221.077 569.757V558.446L218.316 568.983Z" fill="black"/>
<path d="M206.348 541.189L201.773 558.752L206.348 560.015V541.189Z" fill="white"/>
<path d="M205.544 540.979C205.65 540.574 206.039 540.311 206.453 540.364C206.868 540.417 207.178 540.771 207.178 541.189V560.015C207.178 560.274 207.057 560.519 206.851 560.676C206.645 560.834 206.377 560.885 206.127 560.817L201.552 559.554C201.115 559.433 200.855 558.983 200.97 558.542L205.544 540.979ZM202.783 558.168L205.517 558.923V547.672L202.783 558.168Z" fill="black"/>
<path d="M199.718 523.077L195.144 540.64L199.718 541.93V523.077Z" fill="white"/>
<path d="M198.915 522.867C199.02 522.462 199.41 522.199 199.824 522.252C200.238 522.305 200.549 522.659 200.549 523.077V541.93C200.549 542.19 200.427 542.436 200.22 542.593C200.012 542.75 199.744 542.801 199.493 542.73L194.919 541.441C194.483 541.318 194.226 540.869 194.34 540.43L198.915 522.867ZM196.153 540.06L198.888 540.832V529.559L196.153 540.06Z" fill="black"/>
<path d="M206.95 504.225L202.376 521.815L206.95 523.077V504.225Z" fill="white"/>
<path d="M206.147 504.015C206.252 503.61 206.642 503.346 207.056 503.399C207.47 503.453 207.781 503.806 207.781 504.224V523.077C207.781 523.337 207.66 523.582 207.453 523.739C207.247 523.896 206.98 523.948 206.73 523.879L202.155 522.617C201.717 522.496 201.458 522.045 201.572 521.605L206.147 504.015ZM203.385 521.231L206.12 521.985V510.716L203.385 521.231Z" fill="black"/>
<path d="M220.729 492.809L216.155 510.372L220.729 511.661V492.809Z" fill="white"/>
<path d="M219.926 492.598C220.031 492.194 220.421 491.93 220.835 491.983C221.249 492.037 221.56 492.39 221.56 492.808V511.661C221.56 511.922 221.438 512.167 221.231 512.324C221.023 512.482 220.755 512.532 220.504 512.462L215.93 511.172C215.494 511.049 215.237 510.6 215.351 510.161L219.926 492.598ZM217.164 509.792L219.899 510.563V499.291L217.164 509.792Z" fill="black"/>
<path d="M271.079 492.809L266.504 510.372L271.079 511.661V492.809Z" fill="white"/>
<path d="M270.275 492.598C270.381 492.194 270.77 491.93 271.185 491.983C271.599 492.037 271.909 492.39 271.909 492.808V511.661C271.909 511.922 271.787 512.167 271.58 512.324C271.373 512.482 271.104 512.532 270.854 512.462L266.279 511.172C265.844 511.049 265.586 510.6 265.701 510.161L270.275 492.598ZM267.513 509.792L270.249 510.563V499.291L267.513 509.792Z" fill="black"/>
<path d="M285.543 503.648L280.941 521.211L285.543 522.501V503.648Z" fill="white"/>
<path d="M284.74 503.437C284.846 503.033 285.235 502.77 285.649 502.823C286.063 502.877 286.373 503.23 286.373 503.648V522.501C286.373 522.761 286.252 523.007 286.045 523.164C285.838 523.321 285.569 523.372 285.319 523.302L280.717 522.012C280.28 521.89 280.022 521.439 280.137 521L284.74 503.437ZM281.951 520.631L284.712 521.405V510.094L281.951 520.631Z" fill="black"/>
<path d="M292.391 523.735L287.816 541.298L292.391 542.588V523.735Z" fill="white"/>
<path d="M291.588 523.526C291.693 523.121 292.082 522.858 292.497 522.911C292.911 522.964 293.221 523.318 293.221 523.736V542.589C293.221 542.849 293.1 543.095 292.892 543.252C292.685 543.409 292.416 543.46 292.166 543.39L287.591 542.1C287.156 541.977 286.899 541.528 287.013 541.089L291.588 523.526ZM288.825 540.719L291.561 541.491V530.218L288.825 540.719Z" fill="black"/>
<path d="M285.543 540.668L280.941 558.258L285.543 559.521V540.668Z" fill="white"/>
<path d="M284.74 540.457C284.846 540.052 285.235 539.789 285.649 539.843C286.063 539.896 286.373 540.25 286.373 540.668V559.521C286.373 559.78 286.252 560.025 286.046 560.182C285.84 560.339 285.573 560.391 285.323 560.323L280.721 559.061C280.283 558.94 280.022 558.489 280.137 558.048L284.74 540.457ZM281.952 557.673L284.712 558.431V547.123L281.952 557.673Z" fill="black"/>
<path d="M371.003 243.1L370.003 333.256L376.952 344.537L381.564 369.295L379.158 378.157L374.967 386.673L360.713 394.982L370.981 380.226L372.025 366.152L366.301 347.979L359.321 337.229V247.393L369.844 239.626L371.003 234.775L372.161 229.924L369.844 220.533L367.391 209.019L356.864 192.096L363.369 187.4L371.003 195.879L378.331 208.271L381.974 224.316L378.331 238.123L371.003 243.1Z" fill="#046CD5"/>
<path d="M331.682 206.078L345.734 227.537L356.297 224.044V193.167C360.278 194.714 369.482 212.267 370.676 226.155C371.949 240.959 364.865 245.409 358.234 246.42V338.257C364.596 344.635 369.705 353.167 370.619 364.465C372.373 386.164 362.576 394.032 357.458 395.254V365.727L343.405 344.268L332.843 347.761V378.638C328.862 377.09 319.657 359.538 318.463 345.65C316.989 328.509 326.718 325.249 333.977 325.136V236.388C326.248 229.776 319.578 220.408 318.521 207.339C316.767 185.641 326.564 177.773 331.682 176.551V206.078Z" fill="white"/>
<path d="M332.996 205.684L346.28 225.969L354.983 223.091V191.243L356.772 191.938C357.535 192.235 358.273 192.842 358.951 193.541C359.652 194.264 360.388 195.193 361.134 196.269C362.628 198.426 364.225 201.267 365.722 204.475C368.709 210.876 371.371 218.892 371.985 226.042C372.64 233.654 371.164 238.842 368.449 242.278C366.02 245.353 362.734 246.854 359.548 247.521V337.716C365.905 344.225 371.003 352.918 371.928 364.359C373.718 386.485 363.704 395.117 357.762 396.536L356.144 396.922V366.121L342.86 345.835L334.157 348.714V380.562L332.368 379.866C331.605 379.57 330.866 378.963 330.189 378.264C329.488 377.541 328.751 376.613 328.005 375.536C326.511 373.38 324.915 370.538 323.418 367.33C320.431 360.929 317.769 352.914 317.154 345.764C316.396 336.942 318.503 331.384 322.046 328.047C325.154 325.12 329.159 324.103 332.663 323.872V236.991C324.942 230.24 318.282 220.689 317.211 207.446C315.422 185.32 325.435 176.688 331.378 175.269L332.996 174.883V205.684ZM330.368 178.417C325.688 180.627 318.304 188.344 319.831 207.233C320.853 219.863 327.287 228.933 334.83 235.386L335.291 235.781V326.433L333.997 326.454C330.516 326.508 326.657 327.319 323.845 329.968C321.078 332.574 319.057 337.218 319.773 345.537C320.352 352.275 322.889 359.98 325.798 366.214C327.25 369.323 328.775 372.028 330.164 374.032C330.645 374.727 331.104 375.326 331.529 375.825V346.808L343.95 342.7L358.772 365.333V393.387C363.452 391.177 370.836 383.46 369.309 364.572C368.425 353.646 363.494 345.393 357.305 339.189L356.92 338.803V245.288L358.036 245.118C361.148 244.643 364.222 243.386 366.389 240.642C368.556 237.9 369.985 233.46 369.367 226.268C368.788 219.53 366.25 211.825 363.342 205.591C361.89 202.482 360.365 199.777 358.976 197.773C358.495 197.078 358.036 196.478 357.611 195.98V224.997L345.189 229.105L330.368 206.472V178.417Z" fill="black"/>
<path d="M342.4 172.921L332.973 176.767L332.973 205.974L342.4 220.244L342.4 172.921Z" fill="#046CD5"/>
<path d="M343.506 372.238L334.079 378.476L334.079 348.698L343.506 345.597L343.506 372.238Z" fill="#046CD5"/>
<path d="M343.806 222.677H341.178V175.429L332.151 177.843L331.474 175.297L343.806 172V222.677Z" fill="black"/>
<path d="M344.911 373.597V345.132H342.283V372.184L333.348 378.133L334.802 380.328L344.911 373.597Z" fill="black"/>
<path d="M364.95 186.094C367.926 188.384 371.572 192.743 374.774 198.087C377.986 203.449 380.821 209.92 382.093 216.499C383.029 221.339 383.478 227.084 382.258 232.279C381.082 237.288 378.334 241.833 372.996 244.467L371.585 332.694C382.183 347.748 388.098 369.602 375.635 387.472L375.449 387.738L357.617 397L356.409 394.66L373.662 385.699C385.06 369.058 379.597 348.439 369.196 333.872L368.944 333.519L370.395 242.753L371.169 242.414C376.094 240.254 378.612 236.309 379.7 231.676C380.799 226.993 380.415 221.665 379.513 217C378.313 210.796 375.618 204.614 372.521 199.443C369.676 194.694 366.549 190.895 364.033 188.741L355.734 193.683L354.392 191.417L364.244 185.551L364.95 186.094Z" fill="black"/>
<path d="M370.682 818.815L370.847 819.013C370.419 822.078 369.661 825.242 368.574 828.471C365.708 836.776 361.13 843.532 356.255 847.322L318.539 875.565V857.934L370.682 818.815Z" fill="#046CD5"/>
<path d="M370.814 818.716L370.682 818.815L318.539 857.933V835.886L357.21 807.148L370.814 818.716Z" fill="white"/>
<path d="M370.682 769.81L318.539 809.555V792.22L353.619 765.263C357.243 762.593 360.998 761.572 364.325 762.725C364.753 762.89 365.181 763.055 365.577 763.285C367.849 764.538 369.595 766.811 370.715 769.843L370.682 769.81Z" fill="#046CD5"/>
<path d="M351.709 752.607L365.544 763.285C365.148 763.054 364.72 762.889 364.292 762.725C360.998 761.604 357.243 762.626 353.586 765.262L338.928 754.288L339.027 754.156C342.651 751.487 346.406 750.465 349.733 751.619C350.424 751.849 351.083 752.179 351.709 752.607Z" fill="white"/>
<path d="M353.619 765.262L318.539 792.22V788.331L306.614 779.07L306.647 779.038L338.862 754.255L338.928 754.288L353.619 765.262Z" fill="white"/>
<path d="M318.539 875.598V964.512L295.415 981.847V893.427V809.554V805.666L318.539 788.331V792.22V809.554V835.886V857.933V875.598Z" fill="white"/>
<path d="M318.539 788.331L295.415 805.665L280.658 794.658L304.078 777.093L306.614 779.07L318.539 788.331Z" fill="white"/>
<path d="M295.415 893.427V981.847L280.658 970.807V903.874L294.526 893.427H295.415Z" fill="white"/>
<path d="M294.46 870.226L280.691 860.241V823.067L280.889 822.803L285.928 826.626C286.62 827.417 287.476 827.977 288.432 828.307C290.342 828.966 292.483 828.537 294.591 827.285L294.888 827.021V809.588H295.448V893.46H294.591V870.292L294.493 870.226H294.46Z" fill="white"/>
<path d="M295.415 805.665V809.554H294.822L294.789 809.587L294.69 809.455L280.493 798.778L280.658 798.547V794.658L295.415 805.665Z" fill="white"/>
<path d="M294.822 809.555V826.988L294.526 827.252C292.417 828.504 290.276 828.933 288.366 828.274C287.411 827.944 286.587 827.351 285.862 826.593C284.314 824.879 283.392 822.21 283.161 818.98L283.26 818.288L294.756 809.621L294.822 809.555Z" fill="#046CD5"/>
<path d="M294.789 809.588L283.293 818.255H282.832L268.371 807.413L268.306 807.38L279.867 798.68L280.164 798.548L280.493 798.779L294.69 809.456L294.789 809.588Z" fill="white"/>
<path d="M294.526 870.292V893.459L280.658 903.906L278.978 905.159C278.616 900.314 279.373 894.613 281.35 888.78C284.314 880.145 289.321 873.389 294.427 870.226L294.526 870.292Z" fill="#046CD5"/>
<path d="M280.658 860.207L294.427 870.193C289.321 873.357 284.314 880.112 281.35 888.747C279.34 894.58 278.583 900.281 278.978 905.126L264.221 894.514C263.859 889.67 264.616 883.968 266.593 878.135C269.557 869.501 274.564 862.712 279.703 859.581H279.769L280.625 860.207H280.658Z" fill="white"/>
<path d="M285.895 826.593L280.856 822.77L272.061 816.113L271.929 816.014C269.854 814.432 268.602 811.367 268.306 807.544L268.371 807.445L282.799 818.288H283.26L283.161 818.98C283.392 822.209 284.347 824.912 285.862 826.593H285.895Z" fill="white"/>
<path d="M305.001 776.401C304.619 775.891 303.896 775.788 303.387 776.17L279.967 793.736C279.676 793.954 279.505 794.296 279.505 794.66C279.506 795.024 279.677 795.366 279.969 795.583L294.726 806.59C295.236 806.971 295.959 806.866 296.339 806.355C296.72 805.844 296.615 805.121 296.104 804.741L282.584 794.656L304.77 778.016C305.279 777.634 305.383 776.911 305.001 776.401Z" fill="black"/>
<path d="M304.787 776.183C304.284 775.792 303.56 775.881 303.169 776.384C302.777 776.886 302.867 777.611 303.37 778.003L305.906 779.98L305.908 779.981L317.832 789.242C318.335 789.633 319.059 789.541 319.449 789.038C319.84 788.535 319.749 787.81 319.246 787.42L307.321 778.159L304.787 776.183Z" fill="black"/>
<path d="M281.811 860.24V823.033C281.811 822.396 281.295 821.88 280.658 821.88C280.021 821.88 279.505 822.396 279.505 823.033V860.24C279.505 860.877 280.021 861.394 280.658 861.394C281.295 861.394 281.811 860.877 281.811 860.24Z" fill="black"/>
<path d="M319.692 788.331L319.689 788.25C319.66 787.845 319.421 787.483 319.055 787.3C318.664 787.104 318.197 787.146 317.847 787.408L294.724 804.743C294.433 804.96 294.262 805.302 294.262 805.666V979.544L281.811 970.229V903.874C281.811 903.237 281.295 902.72 280.658 902.72C280.021 902.72 279.505 903.237 279.505 903.874V970.807C279.505 971.17 279.677 971.513 279.968 971.73L294.725 982.77C295.134 983.077 295.697 983.077 296.106 982.77L319.23 965.435C319.52 965.217 319.692 964.875 319.692 964.512V788.331ZM317.386 963.935L296.568 979.541V806.243L317.386 790.636V963.935Z" fill="black"/>
<path d="M357.878 806.208C357.474 805.921 356.926 805.923 356.523 806.223L317.851 834.96C317.34 835.34 317.233 836.062 317.613 836.574C317.993 837.085 318.715 837.192 319.226 836.812L357.162 808.621L368.968 818.659L317.847 857.01C317.338 857.393 317.234 858.116 317.616 858.625C317.998 859.135 318.721 859.238 319.23 858.856L371.506 819.639C371.786 819.429 371.955 819.102 371.966 818.751C371.977 818.401 371.828 818.064 371.561 817.837L357.957 806.27L357.878 806.208Z" fill="black"/>
<path d="M371.008 817.903C370.378 817.814 369.794 818.253 369.705 818.884C369.313 821.664 368.666 824.583 367.685 827.535L367.485 828.125L367.483 828.131C364.707 836.268 360.213 842.779 355.557 846.436L317.848 874.674C317.338 875.055 317.234 875.778 317.615 876.288C317.997 876.798 318.72 876.902 319.229 876.521L356.945 848.278C356.952 848.273 356.959 848.267 356.966 848.262C362.054 844.272 366.776 837.343 369.663 828.882L369.874 828.262C370.901 825.167 371.578 822.112 371.989 819.206C372.078 818.576 371.638 817.992 371.008 817.903Z" fill="black"/>
<path d="M339.303 753.189C338.924 753.032 338.488 753.088 338.16 753.341L305.945 778.123C305.44 778.512 305.345 779.236 305.733 779.741C306.121 780.246 306.845 780.34 307.35 779.952L338.883 755.694L351.71 765.275L317.836 791.305C317.331 791.693 317.237 792.417 317.624 792.923C318.012 793.428 318.736 793.523 319.241 793.135L354.322 766.177C354.608 765.957 354.775 765.615 354.772 765.254C354.77 764.893 354.598 764.554 354.309 764.338L339.618 753.364C339.563 753.323 339.505 753.287 339.444 753.256L339.378 753.223L339.303 753.189Z" fill="black"/>
<path d="M364.663 761.632C360.878 760.345 356.729 761.574 352.912 764.326C352.396 764.699 352.279 765.42 352.651 765.936C353.023 766.453 353.744 766.57 354.26 766.198C357.748 763.683 361.102 762.867 363.901 763.81C364.333 763.976 364.666 764.108 364.963 764.281C365.513 764.602 366.219 764.416 366.54 763.866C366.86 763.316 366.674 762.609 366.125 762.288C365.636 762.003 365.119 761.807 364.706 761.648L364.663 761.632Z" fill="black"/>
<path d="M366.082 762.265C365.519 761.967 364.822 762.182 364.524 762.746C364.227 763.309 364.442 764.007 365.005 764.304C366.796 765.251 368.245 766.98 369.288 769.422L317.84 808.637C317.334 809.023 317.236 809.747 317.622 810.253C318.007 810.76 318.731 810.858 319.237 810.472L371.381 770.727C371.784 770.42 371.939 769.886 371.764 769.41C370.581 766.207 368.716 763.658 366.082 762.265Z" fill="black"/>
<path d="M352.258 751.593C351.821 751.356 351.263 751.422 350.894 751.792C350.444 752.242 350.444 752.972 350.894 753.423C351.051 753.58 351.228 753.677 351.39 753.731C351.469 753.757 351.542 753.773 351.606 753.782C351.638 753.786 351.669 753.789 351.697 753.791C351.711 753.792 351.724 753.793 351.737 753.793C351.744 753.794 351.75 753.794 351.756 753.794H351.774C351.774 753.794 351.775 753.794 351.775 752.64V753.794C352.412 753.794 352.928 753.277 352.928 752.64C352.928 752.176 352.653 751.776 352.258 751.593ZM351.85 751.489C351.853 751.49 351.856 751.49 351.859 751.491C351.853 751.49 351.846 751.489 351.84 751.489C351.843 751.489 351.847 751.489 351.85 751.489ZM351.793 751.487C351.799 751.487 351.805 751.487 351.811 751.487C351.817 751.488 351.822 751.488 351.827 751.488C351.814 751.488 351.8 751.487 351.787 751.487C351.789 751.487 351.791 751.487 351.793 751.487ZM351.779 751.487C351.78 751.487 351.781 751.487 351.782 751.487C351.78 751.487 351.778 751.487 351.775 751.487L351.776 751.487H351.779Z" fill="black"/>
<path d="M350.113 750.53C346.317 749.2 342.162 750.474 338.353 753.22C337.836 753.593 337.72 754.313 338.092 754.83C338.464 755.347 339.185 755.464 339.701 755.092C343.205 752.565 346.56 751.73 349.352 752.707C349.357 752.709 349.363 752.711 349.368 752.713C349.947 752.905 350.502 753.182 351.037 753.545L364.839 764.198C365.344 764.587 366.068 764.494 366.457 763.989C366.845 763.485 366.752 762.76 366.248 762.371L352.413 751.694L352.36 751.655C351.654 751.172 350.905 750.796 350.113 750.53Z" fill="black"/>
<path d="M295.447 892.733C295.064 892.224 294.341 892.122 293.832 892.506L279.969 902.949H279.969L278.289 904.201C277.779 904.582 277.673 905.304 278.053 905.815C278.434 906.326 279.156 906.432 279.667 906.051L281.347 904.799C281.348 904.798 281.35 904.796 281.351 904.795L295.219 894.348C295.728 893.965 295.83 893.242 295.447 892.733Z" fill="black"/>
<path d="M295.678 893.427V870.292C295.678 869.655 295.162 869.139 294.526 869.139C293.889 869.139 293.373 869.655 293.373 870.292V893.427C293.373 894.064 293.889 894.581 294.526 894.581C295.162 894.581 295.678 894.064 295.678 893.427Z" fill="black"/>
<path d="M294.46 869.039C294.245 869.039 294.035 869.099 293.853 869.212C288.453 872.558 283.313 879.573 280.293 888.371L280.104 888.929C278.192 894.696 277.465 900.35 277.862 905.219C277.914 905.854 278.47 906.327 279.105 906.275C279.739 906.223 280.212 905.666 280.16 905.032C279.78 900.37 280.507 894.829 282.473 889.122L282.473 889.121C285.381 880.651 290.255 874.155 295.067 871.173L294.493 870.245V869.039H294.46Z" fill="black"/>
<path d="M280.72 858.981C280.389 858.437 279.68 858.265 279.136 858.596C273.695 861.911 268.555 868.965 265.536 877.759L265.347 878.318C263.435 884.085 262.708 889.738 263.105 894.608C263.157 895.243 263.713 895.716 264.348 895.664C264.982 895.612 265.455 895.055 265.403 894.42C265.023 889.758 265.75 884.218 267.716 878.511L267.716 878.51C270.625 870.036 275.499 863.513 280.335 860.566C280.879 860.235 281.051 859.526 280.72 858.981Z" fill="black"/>
<path d="M264.892 893.609C264.375 893.238 263.655 893.357 263.284 893.875C262.913 894.393 263.032 895.113 263.549 895.484L278.307 906.063C278.824 906.434 279.544 906.315 279.915 905.798C280.286 905.28 280.167 904.559 279.649 904.188L264.892 893.609Z" fill="black"/>
<path d="M280.482 858.65C279.968 858.274 279.247 858.386 278.871 858.901C278.495 859.415 278.607 860.137 279.121 860.513L279.978 861.139L279.981 861.141L279.981 861.141L293.71 871.107L293.71 871.107C294.161 871.558 294.891 871.558 295.341 871.107C295.791 870.657 295.791 869.927 295.341 869.476L295.275 869.41L295.208 869.349C295.185 869.329 295.161 869.31 295.137 869.292L281.335 859.274L280.482 858.65Z" fill="black"/>
<path d="M295.975 826.988V809.555L295.972 809.468C295.939 809.036 295.667 808.656 295.263 808.489C294.847 808.317 294.37 808.404 294.041 808.707L282.599 817.334C282.091 817.717 281.989 818.44 282.373 818.949C282.756 819.458 283.479 819.559 283.987 819.176L293.669 811.876V826.988C293.669 827.625 294.185 828.142 294.822 828.142C295.459 828.142 295.975 827.625 295.975 826.988Z" fill="black"/>
<path d="M284.311 818.898C284.266 818.262 283.714 817.784 283.079 817.829C282.444 817.875 281.966 818.426 282.011 819.062C282.252 822.435 283.223 825.391 285.007 827.366C285.014 827.374 285.022 827.382 285.029 827.39C285.847 828.245 286.82 828.96 287.99 829.364C290.326 830.169 292.826 829.603 295.114 828.243C295.662 827.918 295.842 827.211 295.517 826.663C295.192 826.115 294.484 825.935 293.937 826.26C292.009 827.405 290.227 827.695 288.742 827.183C288.006 826.929 287.337 826.462 286.708 825.808C285.402 824.354 284.531 821.976 284.311 818.898Z" fill="black"/>
<path d="M280.789 797.986C280.406 797.476 279.683 797.374 279.175 797.757L267.612 806.457C267.104 806.84 267.001 807.563 267.384 808.072C267.767 808.582 268.49 808.684 268.999 808.301L280.56 799.601C281.069 799.218 281.171 798.495 280.789 797.986Z" fill="black"/>
<path d="M269.455 807.422C269.406 806.787 268.851 806.312 268.216 806.361C267.582 806.41 267.107 806.965 267.156 807.6C267.464 811.567 268.776 815.028 271.23 816.898C271.737 817.284 272.46 817.186 272.846 816.68C273.232 816.173 273.134 815.449 272.628 815.063C270.931 813.77 269.74 811.1 269.455 807.422Z" fill="black"/>
<path d="M268.821 806.348C268.252 806.063 267.559 806.294 267.274 806.863C266.995 807.423 267.213 808.101 267.76 808.395L282.141 819.178C282.65 819.56 283.373 819.456 283.755 818.946C284.136 818.437 284.033 817.714 283.523 817.332L269.063 806.489L268.977 806.431C268.948 806.413 268.918 806.396 268.887 806.381L268.821 806.348Z" fill="black"/>
<path d="M280.825 797.602C280.303 797.237 279.584 797.364 279.219 797.886C278.854 798.408 278.981 799.127 279.503 799.492L279.816 799.711L293.997 810.377C294.506 810.76 295.229 810.658 295.612 810.148C295.994 809.639 295.892 808.916 295.383 808.534L281.186 797.856L281.154 797.833L280.825 797.602Z" fill="black"/>
<path d="M272.791 815.194C272.284 814.809 271.561 814.907 271.175 815.415C270.79 815.922 270.889 816.646 271.396 817.031L280.158 823.688L280.159 823.689L285.199 827.511C285.706 827.896 286.429 827.797 286.814 827.289C287.199 826.781 287.099 826.058 286.592 825.673L272.791 815.194Z" fill="black"/>
<path d="M281.811 798.547V794.658C281.811 794.021 281.295 793.505 280.658 793.505C280.021 793.505 279.505 794.021 279.505 794.658V798.547C279.505 799.184 280.021 799.7 280.658 799.7C281.295 799.7 281.811 799.184 281.811 798.547Z" fill="black"/>
<path d="M319.037 802.738C318.657 802.226 317.935 802.119 317.424 802.498L308.003 809.485C307.492 809.864 307.384 810.587 307.763 811.098C308.143 811.61 308.865 811.717 309.376 811.338L318.797 804.351C319.308 803.972 319.416 803.25 319.037 802.738Z" fill="black"/>
<path d="M319.035 819.148C318.655 818.637 317.932 818.532 317.422 818.912L308.001 825.932C307.49 826.312 307.385 827.035 307.765 827.546C308.145 828.056 308.868 828.162 309.378 827.782L318.799 820.762C319.31 820.381 319.415 819.659 319.035 819.148Z" fill="black"/>
<path d="M319.037 835.595C318.657 835.083 317.935 834.975 317.424 835.355L308.003 842.341C307.492 842.721 307.384 843.443 307.763 843.955C308.143 844.467 308.865 844.574 309.376 844.195L318.797 837.208C319.308 836.829 319.416 836.106 319.037 835.595Z" fill="black"/>
<path d="M319.035 852.004C318.655 851.494 317.932 851.388 317.422 851.769L308.001 858.788C307.49 859.169 307.385 859.891 307.765 860.402C308.145 860.913 308.868 861.019 309.378 860.638L318.799 853.618C319.31 853.238 319.415 852.515 319.035 852.004Z" fill="black"/>
<path d="M319.037 868.452C318.657 867.94 317.935 867.833 317.424 868.212L308.003 875.199C307.492 875.578 307.384 876.301 307.763 876.812C308.143 877.324 308.865 877.431 309.376 877.052L318.797 870.065C319.308 869.686 319.416 868.964 319.037 868.452Z" fill="black"/>
<path d="M319.035 884.862C318.655 884.351 317.932 884.245 317.422 884.626L308.001 891.645C307.49 892.026 307.385 892.749 307.765 893.259C308.145 893.77 308.868 893.876 309.378 893.496L318.799 886.476C319.31 886.095 319.415 885.373 319.035 884.862Z" fill="black"/>
<path d="M319.035 901.273C318.655 900.762 317.932 900.657 317.422 901.037L308.001 908.057C307.49 908.437 307.385 909.16 307.765 909.671C308.145 910.181 308.868 910.287 309.378 909.907L318.799 902.887C319.31 902.506 319.415 901.784 319.035 901.273Z" fill="black"/>
<path d="M319.035 917.718C318.655 917.207 317.932 917.102 317.422 917.482L308.001 924.502C307.49 924.882 307.385 925.605 307.765 926.116C308.145 926.627 308.868 926.732 309.378 926.352L318.799 919.332C319.31 918.952 319.415 918.229 319.035 917.718Z" fill="black"/>
<path d="M319.035 934.13C318.655 933.62 317.932 933.514 317.422 933.894L308.001 940.914C307.49 941.294 307.385 942.017 307.765 942.528C308.145 943.039 308.868 943.145 309.378 942.764L318.799 935.744C319.31 935.364 319.415 934.641 319.035 934.13Z" fill="black"/>
<path d="M319.037 950.577C318.657 950.065 317.935 949.958 317.424 950.337L308.003 957.324C307.492 957.703 307.384 958.426 307.763 958.937C308.143 959.449 308.865 959.556 309.376 959.177L318.797 952.19C319.308 951.811 319.416 951.089 319.037 950.577Z" fill="black"/>
<path d="M371.997 576.113L460.943 641.179L460.29 758.954L416.144 726.333L371.997 693.712L371.997 576.113Z" fill="white"/>
<path d="M461.531 640.368L461.941 641.184L461.287 758.959L459.698 759.761L371.406 694.518L371 693.711V576.113L372.585 575.303L461.531 640.368ZM372.995 693.204L459.303 756.981L459.943 641.686L372.995 578.082V693.204Z" fill="black"/>
<path d="M482.002 626.884L460.491 642.474L459.921 759.193L482.003 742.887L482.002 626.884Z" fill="#046CD5"/>
<path d="M459.907 641.662L459.493 642.469L458.924 759.188L460.512 760L482.593 743.695L483 742.888L483 626.884L481.419 626.071L459.907 641.662ZM481.005 742.38L460.929 757.205L461.486 642.988L481.005 628.842V742.38Z" fill="black"/>
<path d="M394.073 561.656L371.629 576.999L460.401 642.529L481.901 626.906L394.073 561.656Z" fill="#046CD5"/>
<path d="M394.666 560.851L482.494 626.101L482.486 627.718L460.986 643.341L459.811 643.337L371.039 577.807L371.068 576.171L393.511 560.828L394.666 560.851ZM373.356 577.03L460.406 641.289L480.212 626.897L394.048 562.885L373.356 577.03Z" fill="black"/>
<path d="M413.629 640.004C422.389 640.004 426.262 650.15 426.262 665.572C426.262 676.869 424.194 683.374 419.636 684.61V704.113L417.838 702.833L408.141 695.934L407.66 695.592V678.373C405.109 674.39 403.234 668.399 403.234 660.296C403.234 646.497 408.89 640.004 413.629 640.004Z" fill="black"/>
<path d="M406.268 593.726C402.654 593.726 399 591.095 397.625 589.78V563.768L398.162 542.904L399.293 534.64C401.658 527.686 410.254 514.499 425.719 517.392C445.05 521.007 451.836 539.185 455.023 548.688C457.573 556.29 458.691 571.687 458.931 578.435L459.445 589.78C460.062 600.022 460.062 610.868 460.062 621.403C456.257 625.328 454.509 625.535 450.602 625.535C447.476 625.535 443.336 622.78 441.656 621.403V596.097V573.374L440.731 565.524C439.662 558.418 437.338 551.993 436.001 548.688C434.664 545.383 427.364 536.81 424.279 536.81C423.251 536.19 420.989 536.293 418.624 536.81C416.732 537.223 415.753 542.146 415.501 544.556V554.657V589.78C413.929 591.095 409.883 593.726 406.268 593.726Z" fill="white"/>
<path d="M413.86 516.699C415.432 516.258 418.764 515.834 422.601 516.065C426.445 516.297 430.913 517.191 434.692 519.488C440.744 523.166 445.993 527.939 450.086 534.707C454.174 541.467 457.079 550.167 458.519 561.661C460.864 580.374 461.057 608.597 460.863 620.357L458.868 620.323C459.062 608.579 458.866 580.475 456.54 561.911C455.125 550.621 452.289 542.208 448.381 535.748C444.479 529.295 439.479 524.74 433.659 521.202C430.259 519.136 426.146 518.286 422.482 518.065C418.811 517.844 415.709 518.261 414.397 518.629C413.892 518.771 413.018 519.314 411.888 520.209C410.802 521.07 409.603 522.156 408.48 523.229C407.359 524.301 406.326 525.349 405.572 526.13C405.195 526.52 404.889 526.843 404.677 527.068C404.571 527.181 404.489 527.268 404.434 527.328C404.406 527.358 404.385 527.38 404.371 527.395L404.352 527.416C404.351 527.417 404.351 527.417 404.35 527.418L402.888 526.055L402.888 526.055C402.889 526.054 402.889 526.054 402.889 526.053C402.89 526.052 402.892 526.05 402.894 526.048C402.898 526.044 402.904 526.038 402.911 526.03C402.926 526.014 402.948 525.99 402.977 525.959C403.035 525.897 403.119 525.806 403.227 525.691C403.444 525.461 403.756 525.132 404.139 524.735C404.905 523.942 405.959 522.873 407.105 521.778C408.248 520.685 409.497 519.552 410.652 518.637C411.763 517.755 412.923 516.962 413.86 516.699Z" fill="black"/>
<path d="M449.614 575.873C449.614 566.72 447.279 555.42 442.55 545.701C437.815 535.97 430.761 527.982 421.415 525.163C416.037 523.542 412.009 523.59 408.989 524.617C405.985 525.638 403.86 527.669 402.351 530.252C399.293 535.488 398.844 542.864 398.932 548.048L398.933 548.057V590H396.938V548.083L396.931 547.586C396.878 542.38 397.374 534.814 400.63 529.238C402.332 526.325 404.805 523.924 408.349 522.718C411.878 521.518 416.351 521.544 421.988 523.244C432.081 526.287 439.482 534.833 444.342 544.821C449.208 554.822 451.609 566.425 451.609 575.873V625.171C451.609 625.172 451.595 625.172 450.611 625.172C449.654 625.172 449.616 625.172 449.614 625.171V575.873ZM410.146 537.186C412.94 535.099 416.758 534.321 421.842 535.049C430.304 536.26 435.501 543.979 438.588 552.539C441.701 561.167 442.828 571.054 442.918 577.362V622.119H440.923V577.376C440.834 571.22 439.726 561.576 436.713 553.222C433.673 544.794 428.848 538.076 421.561 537.033C416.801 536.351 413.572 537.123 411.336 538.794C409.085 540.475 407.662 543.199 406.804 546.795C405.946 550.39 405.68 554.736 405.646 559.51C405.612 564.304 405.809 569.374 405.85 574.55C405.979 591.043 405.979 592.013 405.979 593.267H403.984C403.984 592.023 403.984 591.064 403.855 574.566C403.815 569.5 403.617 564.283 403.651 559.495C403.685 554.686 403.951 550.154 404.864 546.328C405.777 542.503 407.367 539.261 410.146 537.186Z" fill="black"/>
<path d="M422.093 537.019C420.766 537.546 419.794 538.161 419.059 538.934C418.327 539.703 417.781 540.68 417.383 542.008C416.569 544.726 416.42 548.735 416.491 555.005C416.633 567.488 416.599 583.943 416.54 589.15L414.545 589.127C414.604 583.937 414.638 567.497 414.496 555.028C414.426 548.823 414.555 544.494 415.473 541.43C415.942 539.867 416.625 538.592 417.616 537.549C418.604 536.511 419.848 535.755 421.359 535.155L422.093 537.019Z" fill="black"/>
<path d="M416.552 587.282C416.888 587.922 416.789 588.655 416.582 589.24C416.364 589.857 415.966 590.496 415.43 591.098C414.352 592.309 412.633 593.47 410.331 594.09C403.917 595.816 398.703 592.013 396.882 589.906L398.388 588.592C399.942 590.39 404.428 593.604 409.814 592.154C411.76 591.631 413.136 590.67 413.943 589.763C414.349 589.306 414.59 588.887 414.702 588.57C414.826 588.22 414.748 588.141 414.787 588.217L416.552 587.282Z" fill="black"/>
<path d="M460.699 619.393C461.035 620.033 460.936 620.765 460.73 621.35C460.512 621.967 460.113 622.606 459.577 623.209C458.5 624.42 456.781 625.58 454.478 626.2C448.064 627.927 442.85 624.123 441.029 622.016L442.535 620.702C444.089 622.501 448.575 625.714 453.962 624.265C455.907 623.741 457.283 622.78 458.09 621.873C458.496 621.417 458.738 620.997 458.85 620.68C458.973 620.33 458.895 620.252 458.935 620.327L460.699 619.393Z" fill="black"/>
<path d="M475.409 271.632L490.775 259.781C492.607 258.535 495.355 258.561 497.415 260.086L645.25 370.715C648.303 373.004 650.11 376.615 650.11 380.43V557.562C650.084 559.063 649.524 560.36 648.609 561.326L633.013 573.152" fill="#046CD5"/>
<path d="M649.219 380.429C649.219 376.895 647.545 373.547 644.716 371.426L496.886 260.801L496.802 260.741C495.045 259.493 492.771 259.512 491.293 260.506L475.953 272.337L474.866 270.927L490.231 259.076C490.245 259.065 490.26 259.055 490.274 259.045C492.404 257.596 495.5 257.631 497.835 259.291L497.945 259.371L497.949 259.374L645.784 370.002L645.785 370.002C649.062 372.459 651 376.335 651 380.429V557.562C651 557.567 651 557.572 651 557.577C650.971 559.299 650.325 560.809 649.255 561.938C649.222 561.973 649.185 562.006 649.147 562.035L633.552 573.861L632.475 572.443L648.008 560.664C648.742 559.866 649.198 558.8 649.219 557.547V380.429Z" fill="black"/>
<path d="M628.51 575.109C627.136 575.109 625.788 574.651 624.669 573.812L478.106 463.794C474.849 461.353 472.89 457.436 472.89 453.367V276.565C472.89 273.005 475.791 270.105 479.352 270.105C482.914 270.105 482.074 270.563 483.194 271.402L629.757 381.421C633.013 383.862 634.972 387.778 634.972 391.848V568.624C634.972 570.404 634.26 572.057 632.988 573.278C631.792 574.423 630.164 575.058 628.51 575.058V575.109Z" fill="white"/>
<path d="M479.352 271.021C480.472 271.021 481.642 271.377 482.66 272.14L629.223 382.158C632.275 384.447 634.082 388.059 634.082 391.873V568.65C634.082 571.931 631.385 574.219 628.51 574.219C625.635 574.219 626.221 573.863 625.203 573.1L478.64 463.082C475.587 460.794 473.781 457.182 473.781 453.368V276.566C473.781 273.285 476.478 270.996 479.352 270.996M479.352 269.241C477.495 269.241 475.638 269.979 474.264 271.276C472.814 272.649 472 274.531 472 276.591V453.368C472 457.742 474.086 461.887 477.571 464.507L624.134 574.525C625.432 575.491 626.933 576 628.51 576C630.087 576 632.224 575.262 633.598 573.965C635.048 572.592 635.862 570.71 635.862 568.65V391.873C635.862 387.499 633.776 383.354 630.291 380.734L483.728 270.716C482.431 269.75 480.93 269.241 479.352 269.241Z" fill="black"/>
<path d="M650.172 376.478L634.857 388.38L633.764 386.975L649.08 375.072L650.172 376.478Z" fill="black"/>
<path d="M491.717 308.61V472.951H489.936V308.61H491.717Z" fill="black"/>
<path d="M561.093 361.305H562.874V527.273H561.093V361.305Z" fill="black"/>
<path d="M599.406 389.712H601.187V555.705H599.406V389.712Z" fill="black"/>
<path d="M635.634 415.474L634.565 416.898L472.509 295.385L473.577 293.961L635.634 415.474Z" fill="black"/>
<path d="M497.534 348.132C498.179 347.3 499.378 347.147 500.211 347.792L532.088 372.461C532.921 373.105 533.074 374.303 532.429 375.136C531.784 375.969 530.585 376.122 529.752 375.477L497.875 350.808C497.042 350.163 496.889 348.965 497.534 348.132Z" fill="black"/>
<path d="M497.517 371.298C498.15 370.456 499.346 370.286 500.189 370.918L508.355 377.047C509.198 377.68 509.368 378.875 508.735 379.718C508.103 380.56 506.907 380.73 506.064 380.098L497.898 373.969C497.055 373.337 496.885 372.141 497.517 371.298Z" fill="black"/>
<path d="M497.532 324.993C498.176 324.159 499.374 324.004 500.208 324.647L516.109 336.905C516.943 337.548 517.098 338.746 516.454 339.58C515.811 340.415 514.613 340.569 513.778 339.926L497.878 327.668C497.043 327.025 496.889 325.827 497.532 324.993Z" fill="black"/>
<path d="M497.536 440.703C498.182 439.871 499.381 439.72 500.213 440.365L513.391 450.589C514.224 451.235 514.375 452.433 513.729 453.265C513.083 454.097 511.884 454.249 511.052 453.603L497.873 443.379C497.041 442.733 496.89 441.535 497.536 440.703Z" fill="black"/>
<path d="M497.517 394.442C498.149 393.599 499.345 393.428 500.188 394.06L511.076 402.224C511.919 402.856 512.09 404.051 511.458 404.894C510.826 405.737 509.63 405.908 508.787 405.276L497.898 397.112C497.055 396.48 496.884 395.285 497.517 394.442Z" fill="black"/>
<path d="M497.533 417.563C498.178 416.73 499.376 416.576 500.21 417.22L518.909 431.666C519.742 432.31 519.896 433.508 519.252 434.341C518.607 435.175 517.409 435.328 516.575 434.684L497.876 420.239C497.043 419.595 496.889 418.397 497.533 417.563Z" fill="black"/>
<path d="M497.535 463.847C498.18 463.014 499.379 462.862 500.212 463.507L532.089 488.202C532.922 488.847 533.074 490.045 532.428 490.878C531.783 491.71 530.584 491.862 529.751 491.217L497.874 466.523C497.042 465.877 496.889 464.679 497.535 463.847Z" fill="black"/>
<path d="M616.579 530.909C617.212 530.066 618.408 529.896 619.25 530.529L627.417 536.658C628.259 537.29 628.43 538.486 627.797 539.328C627.164 540.171 625.968 540.341 625.126 539.708L616.959 533.579C616.117 532.947 615.946 531.751 616.579 530.909Z" fill="black"/>
<path d="M616.579 507.613C617.212 506.771 618.408 506.6 619.25 507.233L627.417 513.362C628.259 513.994 628.43 515.19 627.797 516.032C627.164 516.875 625.968 517.045 625.126 516.412L616.959 510.284C616.117 509.651 615.946 508.455 616.579 507.613Z" fill="black"/>
<path d="M608.835 478.143C609.479 477.309 610.677 477.154 611.511 477.798L627.437 490.081C628.271 490.725 628.426 491.923 627.782 492.757C627.138 493.591 625.94 493.745 625.106 493.102L609.18 480.818C608.346 480.174 608.191 478.977 608.835 478.143Z" fill="black"/>
<path d="M611.586 550.085C612.232 549.252 613.431 549.102 614.263 549.747L627.441 559.971C628.274 560.617 628.425 561.815 627.779 562.647C627.133 563.479 625.934 563.63 625.102 562.985L611.923 552.761C611.091 552.115 610.94 550.917 611.586 550.085Z" fill="black"/>
<path d="M613.83 458.989C614.461 458.146 615.657 457.974 616.501 458.605L627.415 466.768C628.258 467.4 628.431 468.595 627.799 469.438C627.168 470.282 625.972 470.454 625.128 469.823L614.214 461.659C613.371 461.028 613.199 459.833 613.83 458.989Z" fill="black"/>
<path d="M613.83 412.399C614.461 411.555 615.657 411.383 616.501 412.014L627.415 420.178C628.258 420.809 628.431 422.004 627.799 422.848C627.168 423.691 625.972 423.863 625.128 423.232L614.214 415.068C613.371 414.437 613.199 413.242 613.83 412.399Z" fill="black"/>
<path d="M611.669 434.038C612.302 433.196 613.498 433.026 614.341 433.659L627.417 443.475C628.26 444.108 628.43 445.304 627.797 446.146C627.165 446.988 625.968 447.158 625.126 446.526L612.049 436.709C611.207 436.076 611.037 434.881 611.669 434.038Z" fill="black"/>
<path d="M571.971 404.239C572.615 403.405 573.813 403.25 574.647 403.893L591.311 416.736C592.146 417.379 592.3 418.577 591.657 419.411C591.014 420.245 589.816 420.4 588.981 419.757L572.318 406.914C571.483 406.271 571.328 405.073 571.971 404.239Z" fill="#046CD5"/>
<path d="M572.736 428.347C573.38 427.513 574.579 427.36 575.412 428.004L591.313 440.287C592.147 440.931 592.3 442.129 591.656 442.963C591.011 443.796 589.813 443.95 588.979 443.306L573.079 431.022C572.245 430.378 572.092 429.18 572.736 428.347Z" fill="#046CD5"/>
<path d="M576.632 453.825C577.278 452.993 578.477 452.843 579.309 453.49L591.317 462.823C592.149 463.47 592.299 464.668 591.652 465.5C591.005 466.331 589.807 466.481 588.975 465.835L576.967 456.501C576.135 455.855 575.985 454.656 576.632 453.825Z" fill="#046CD5"/>
<path d="M580.684 526.812C581.318 525.97 582.515 525.802 583.356 526.436L591.294 532.412C592.135 533.046 592.304 534.242 591.67 535.083C591.036 535.925 589.839 536.093 588.998 535.46L581.06 529.483C580.219 528.849 580.05 527.653 580.684 526.812Z" fill="#046CD5"/>
<path d="M579.997 502.754C580.63 501.912 581.827 501.743 582.669 502.376L591.293 508.862C592.135 509.495 592.304 510.691 591.671 511.532C591.037 512.374 589.841 512.543 588.999 511.91L580.375 505.425C579.533 504.791 579.364 503.596 579.997 502.754Z" fill="#046CD5"/>
<path d="M569.455 379.77C570.1 378.937 571.299 378.785 572.132 379.43L591.314 394.282C592.147 394.927 592.3 396.125 591.654 396.958C591.009 397.791 589.811 397.943 588.978 397.298L569.795 382.446C568.962 381.801 568.81 380.603 569.455 379.77Z" fill="#046CD5"/>
<path d="M578.979 479.255C579.612 478.413 580.809 478.244 581.651 478.877L591.293 486.125C592.135 486.758 592.304 487.954 591.671 488.796C591.038 489.638 589.841 489.807 588.999 489.174L579.357 481.926C578.515 481.293 578.346 480.097 578.979 479.255Z" fill="#046CD5"/>
<path d="M485.077 321.656C484.898 321.656 484.695 321.605 484.542 321.478L478.691 317.129C478.462 316.951 478.335 316.697 478.335 316.417V307.618C478.335 307.287 478.513 306.982 478.818 306.829C478.945 306.778 479.073 306.728 479.225 306.728C479.378 306.728 479.607 306.778 479.759 306.906L485.611 311.28C485.84 311.458 485.967 311.712 485.967 311.992V320.74C485.967 321.071 485.789 321.376 485.484 321.529C485.356 321.58 485.229 321.631 485.077 321.631V321.656Z" fill="white"/>
<path d="M479.225 307.618L485.077 311.992V320.741L479.225 316.392V307.593M479.225 305.838C478.945 305.838 478.691 305.889 478.437 306.016C477.826 306.321 477.444 306.931 477.444 307.618V316.418C477.444 316.977 477.699 317.511 478.157 317.842L484.008 322.191C484.313 322.419 484.695 322.547 485.077 322.547C485.458 322.547 485.611 322.496 485.865 322.369C486.476 322.063 486.857 321.453 486.857 320.766V312.018C486.857 311.458 486.603 310.924 486.145 310.594L480.294 306.219C479.988 305.99 479.607 305.863 479.225 305.863V305.838Z" fill="black"/>
<path d="M485.077 344.392C484.898 344.392 484.695 344.341 484.542 344.214L478.691 339.865C478.462 339.687 478.335 339.433 478.335 339.153V330.354C478.335 330.023 478.513 329.718 478.818 329.566C478.945 329.515 479.073 329.464 479.225 329.464C479.378 329.464 479.607 329.515 479.759 329.642L485.611 334.016C485.84 334.194 485.967 334.448 485.967 334.728V343.477C485.967 343.807 485.789 344.113 485.484 344.265C485.356 344.316 485.229 344.367 485.077 344.367V344.392Z" fill="white"/>
<path d="M479.225 330.354L485.077 334.729V343.477L479.225 339.128V330.329M479.225 328.574C478.945 328.574 478.691 328.625 478.437 328.752C477.826 329.057 477.444 329.668 477.444 330.354V339.154C477.444 339.713 477.699 340.247 478.157 340.578L484.008 344.927C484.313 345.156 484.695 345.283 485.077 345.283C485.458 345.283 485.611 345.232 485.865 345.105C486.476 344.8 486.857 344.189 486.857 343.503V334.754C486.857 334.195 486.603 333.661 486.145 333.33L480.294 328.956C479.988 328.727 479.607 328.6 479.225 328.6V328.574Z" fill="black"/>
<path d="M485.077 367.687C484.898 367.687 484.695 367.636 484.542 367.509L478.691 363.16C478.462 362.982 478.335 362.728 478.335 362.448V353.649C478.335 353.318 478.513 353.013 478.818 352.861C478.945 352.81 479.073 352.759 479.225 352.759C479.378 352.759 479.607 352.81 479.759 352.937L485.611 357.311C485.84 357.489 485.967 357.743 485.967 358.023V366.772C485.967 367.102 485.789 367.408 485.484 367.56C485.356 367.611 485.229 367.662 485.077 367.662V367.687Z" fill="white"/>
<path d="M479.225 353.649L485.077 358.024V366.772L479.225 362.423V353.624M479.225 351.869C478.945 351.869 478.691 351.92 478.437 352.047C477.826 352.352 477.444 352.963 477.444 353.649V362.449C477.444 363.008 477.699 363.542 478.157 363.873L484.008 368.222C484.313 368.451 484.695 368.578 485.077 368.578C485.458 368.578 485.611 368.527 485.865 368.4C486.476 368.095 486.857 367.484 486.857 366.798V358.049C486.857 357.49 486.603 356.956 486.145 356.625L480.294 352.251C479.988 352.022 479.607 351.895 479.225 351.895V351.869Z" fill="black"/>
<path d="M485.077 390.983C484.898 390.983 484.695 390.932 484.542 390.805L478.691 386.456C478.462 386.278 478.335 386.024 478.335 385.744V376.945C478.335 376.614 478.513 376.309 478.818 376.156C478.945 376.106 479.073 376.055 479.225 376.055C479.378 376.055 479.607 376.106 479.759 376.233L485.611 380.607C485.84 380.785 485.967 381.039 485.967 381.319V390.068C485.967 390.398 485.789 390.703 485.484 390.856C485.356 390.907 485.229 390.958 485.077 390.958V390.983Z" fill="white"/>
<path d="M479.225 376.945L485.077 381.32V390.068L479.225 385.719V376.92M479.225 375.165C478.945 375.165 478.691 375.216 478.437 375.343C477.826 375.648 477.444 376.259 477.444 376.945V385.745C477.444 386.304 477.699 386.838 478.157 387.169L484.008 391.518C484.313 391.747 484.695 391.874 485.077 391.874C485.458 391.874 485.611 391.823 485.865 391.696C486.476 391.391 486.857 390.78 486.857 390.094V381.345C486.857 380.785 486.603 380.251 486.145 379.921L480.294 375.547C479.988 375.318 479.607 375.19 479.225 375.19V375.165Z" fill="black"/>
<path d="M485.077 414.279C484.898 414.279 484.695 414.228 484.542 414.101L478.691 409.752C478.462 409.574 478.335 409.32 478.335 409.04V400.241C478.335 399.91 478.513 399.605 478.818 399.452C478.945 399.401 479.073 399.351 479.225 399.351C479.378 399.351 479.607 399.401 479.759 399.529L485.611 403.903C485.84 404.081 485.967 404.335 485.967 404.615V413.363C485.967 413.694 485.789 413.999 485.484 414.152C485.356 414.203 485.229 414.254 485.077 414.254V414.279Z" fill="white"/>
<path d="M479.225 400.241L485.077 404.615V413.364L479.225 409.015V400.216M479.225 398.461C478.945 398.461 478.691 398.512 478.437 398.639C477.826 398.944 477.444 399.555 477.444 400.241V409.041C477.444 409.6 477.699 410.134 478.157 410.465L484.008 414.814C484.313 415.042 484.695 415.17 485.077 415.17C485.458 415.17 485.611 415.119 485.865 414.992C486.476 414.686 486.857 414.076 486.857 413.389V404.641C486.857 404.081 486.603 403.547 486.145 403.217L480.294 398.842C479.988 398.614 479.607 398.486 479.225 398.486V398.461Z" fill="black"/>
<path d="M485.077 437.574C484.898 437.574 484.695 437.523 484.542 437.396L478.691 433.047C478.462 432.869 478.335 432.615 478.335 432.335V423.536C478.335 423.205 478.513 422.9 478.818 422.747C478.945 422.696 479.073 422.646 479.225 422.646C479.378 422.646 479.607 422.696 479.759 422.824L485.611 427.198C485.84 427.376 485.967 427.63 485.967 427.91V436.658C485.967 436.989 485.789 437.294 485.484 437.447C485.356 437.498 485.229 437.549 485.077 437.549V437.574Z" fill="white"/>
<path d="M479.225 423.536L485.077 427.91V436.659L479.225 432.31V423.511M479.225 421.756C478.945 421.756 478.691 421.807 478.437 421.934C477.826 422.239 477.444 422.849 477.444 423.536V432.336C477.444 432.895 477.699 433.429 478.157 433.76L484.008 438.109C484.313 438.337 484.695 438.465 485.077 438.465C485.458 438.465 485.611 438.414 485.865 438.287C486.476 437.981 486.857 437.371 486.857 436.684V427.936C486.857 427.376 486.603 426.842 486.145 426.512L480.294 422.137C479.988 421.908 479.607 421.781 479.225 421.781V421.756Z" fill="black"/>
<path d="M485.077 460.87C484.898 460.87 484.695 460.819 484.542 460.692L478.691 456.343C478.462 456.165 478.335 455.911 478.335 455.631V446.832C478.335 446.501 478.513 446.196 478.818 446.043C478.945 445.992 479.073 445.941 479.225 445.941C479.378 445.941 479.607 445.992 479.759 446.119L485.611 450.494C485.84 450.672 485.967 450.926 485.967 451.206V459.954C485.967 460.285 485.789 460.59 485.484 460.743C485.356 460.794 485.229 460.844 485.077 460.844V460.87Z" fill="white"/>
<path d="M479.225 446.832L485.077 451.206V459.955L479.225 455.606V446.807M479.225 445.052C478.945 445.052 478.691 445.103 478.437 445.23C477.826 445.535 477.444 446.145 477.444 446.832V455.631C477.444 456.191 477.699 456.725 478.157 457.056L484.008 461.404C484.313 461.633 484.695 461.76 485.077 461.76C485.458 461.76 485.611 461.71 485.865 461.582C486.476 461.277 486.857 460.667 486.857 459.98V451.232C486.857 450.672 486.603 450.138 486.145 449.808L480.294 445.433C479.988 445.204 479.607 445.077 479.225 445.077V445.052Z" fill="black"/>
<path d="M4.95905 353.695V298.339L52.1273 313.374L99.2956 371.464V424.087C89.0417 443.906 74.6861 456.208 52.1273 463.042C30.7991 439.532 11.795 380.349 4.95905 353.695Z" fill="white"/>
<path d="M4.39313 297.565C4.64024 297.384 4.95887 297.332 5.25045 297.425L52.4188 312.46L52.4844 312.484C52.6353 312.545 52.7688 312.643 52.8718 312.77L100.04 370.86C100.179 371.031 100.255 371.244 100.255 371.464V424.087C100.255 424.24 100.218 424.391 100.147 424.527C89.7751 444.575 75.2132 457.049 52.4054 463.959C52.0508 464.066 51.666 463.96 51.417 463.686C40.6252 451.79 30.4902 430.971 22.216 409.898C13.928 388.79 7.45633 367.292 4.03003 353.933C4.01009 353.856 4.00006 353.776 4.00006 353.695V298.339C4.00006 298.033 4.14605 297.745 4.39313 297.565ZM5.91806 353.573C9.33542 366.876 15.77 388.234 24.0012 409.197C32.1639 429.986 42.044 450.256 52.4322 461.945C74.3282 455.177 88.2974 443.151 98.3368 423.852V371.804L51.5628 314.2L5.91806 299.651V353.573Z" fill="black"/>
<path d="M49.9112 392.671L51.5552 314.211L98.4091 371.453V423.781L49.9112 392.671Z" fill="#2672DE"/>
<path d="M49.6263 393.076L52.3772 461.857C33.3813 443.73 11.1487 379.448 6.07123 354.067L49.6263 393.076Z" fill="#2672DE"/>
<path d="M117.041 417.147C112.702 436.665 74.8148 456.205 61.0082 459.94C74.4768 453.955 94.3073 433.196 99.5629 423.667V371.837L52.7968 313.329L4.97516 298.324L26.357 285.959L73.3904 301.722L117.041 361.38V417.147Z" fill="white"/>
<path d="M25.8767 285.129C26.1149 284.991 26.4009 284.962 26.6618 285.05L73.6953 300.812L73.7646 300.838C73.9235 300.906 74.0618 301.015 74.1643 301.155L117.815 360.814C117.935 360.978 118 361.177 118 361.38V417.146C118 417.216 117.992 417.286 117.977 417.355C116.839 422.475 113.528 427.506 109.094 432.2C104.651 436.905 99.0132 441.34 93.1053 445.261C81.304 453.093 68.2863 458.964 61.2585 460.865C60.7749 460.996 60.2721 460.732 60.1044 460.261C59.9368 459.789 60.1609 459.267 60.6187 459.063C67.1915 456.143 75.4166 449.557 82.6952 442.447C89.8611 435.447 95.975 428.072 98.6038 423.417V372.173L52.2299 314.155L4.68801 299.238C4.3251 299.124 4.06382 298.807 4.022 298.429C3.98022 298.051 4.16565 297.684 4.49481 297.494L25.8767 285.129ZM7.34318 298.061L53.084 312.413L53.1512 312.437C53.3055 312.499 53.4417 312.599 53.5458 312.73L100.312 371.238C100.448 371.408 100.522 371.619 100.522 371.837V423.667C100.522 423.828 100.481 423.988 100.403 424.129C97.7068 429.017 91.3555 436.668 84.0355 443.818C79.683 448.07 74.9386 452.193 70.3575 455.481C76.8365 452.66 84.6701 448.557 92.0447 443.663C97.8769 439.792 103.388 435.449 107.7 430.884C111.991 426.341 115.029 421.645 116.082 417.038V361.693L72.7965 302.534L26.4622 287.005L7.34318 298.061Z" fill="black"/>
<path d="M53.4726 313.83L51.0074 392.965L53.0616 462.788L51.1447 462.844L49.0897 392.993L49.0886 392.964L49.0897 392.935L51.5557 313.771L53.4726 313.83Z" fill="black"/>
<path d="M51.1706 392.468L100.152 423.244L99.1318 424.867L50.0227 394.011L49.9665 393.962L4.61957 354.517L5.87879 353.07L51.1706 392.468Z" fill="black"/>
</svg>
