<svg width="591" height="1024" viewBox="0 0 591 1024" fill="none" xmlns="http://www.w3.org/2000/svg">
<path d="M259.421 491.768C253.559 492.878 247.242 486.958 243.081 483.781L119.349 389.325C115.097 385.872 110.208 377.422 108.416 370.915C105.925 361.911 106.988 353.523 110.663 350.439L111.028 350.162C111.483 349.822 112 349.576 112.546 349.421C117.709 347.941 124.816 353.399 127.671 363.792C129.433 370.144 129.949 374.184 129.038 378.686L215.747 312.354L216.081 312.817L320.163 393.088V393.149C320.193 393.149 299.267 409.185 299.267 409.185L271.356 430.555L243.84 451.618C240.925 453.344 240.682 457.631 242.079 463.367L254.318 453.93C258.601 457.415 262.64 463.583 264.766 471.261C267.378 480.698 267.499 486.31 264.584 489.332C263.399 490.566 261.698 491.337 259.421 491.768ZM221.275 436.014L224.463 433.577L219.665 429.939L216.476 432.375L221.275 436.045V436.014ZM214.532 430.586L217.721 428.15L212.922 424.511L209.734 426.947L214.532 430.617V430.586ZM207.82 425.159L211.009 422.723L206.21 419.084L203.022 421.52L207.82 425.19V425.159ZM201.078 419.731L204.267 417.295L199.468 413.656L196.279 416.093L201.078 419.762V419.731ZM168.611 391.145L173.197 387.629L159.378 377.083L152.454 382.356L157.07 385.872L159.378 384.114L168.611 391.145Z" fill="white"/>
<path d="M243.871 451.618L271.387 430.556L299.298 409.185L320.223 393.149L339.782 378.193C345.674 374.739 356.304 384.977 359.949 398.268C362.834 408.722 362.712 414.304 358.703 417.11L264.553 489.363C267.469 486.372 267.347 480.728 264.735 471.292C262.61 463.614 258.57 457.446 254.288 453.961C251.16 451.402 247.88 450.292 245.116 451.093C244.63 451.217 244.205 451.402 243.84 451.618H243.871Z" fill="#0FADD0"/>
<path d="M243.871 451.617C244.235 451.401 244.66 451.216 245.146 451.093C247.91 450.322 251.19 451.432 254.318 453.961L242.079 463.397C240.682 457.661 240.925 453.344 243.84 451.648L243.871 451.617Z" fill="black"/>
<path d="M223.249 290.675C225.01 297.028 225.526 301.067 224.615 305.57L215.777 312.354L129.098 378.717C130.01 374.184 129.493 370.175 127.732 363.822C124.877 353.43 117.77 347.972 112.607 349.452C112.06 349.606 111.544 349.853 111.088 350.192L206.818 276.86C207.213 276.613 207.638 276.428 208.093 276.305C213.257 274.825 220.363 280.283 223.218 290.675H223.249Z" fill="#0FADD0"/>
<path d="M224.463 433.577L221.275 436.013L216.476 432.343L219.695 429.907L224.463 433.577Z" fill="white"/>
<path d="M217.751 428.15L214.532 430.586L209.764 426.917L212.953 424.48L217.751 428.15Z" fill="white"/>
<path d="M211.009 422.723L207.82 425.159L203.021 421.489L206.21 419.084L211.009 422.723Z" fill="white"/>
<path d="M204.267 417.295L201.078 419.731L196.279 416.092L199.468 413.656L204.267 417.295Z" fill="white"/>
<path d="M173.197 387.66L168.611 391.144L159.378 384.144L157.07 385.902L152.454 382.387L159.378 377.113L173.197 387.66Z" fill="white"/>
<path d="M174.953 387.661L168.612 392.48L159.38 385.48L157.07 387.239L150.698 382.386L159.379 375.775L174.953 387.661ZM154.21 382.386L157.07 384.564L159.377 382.808L168.61 389.809L171.441 387.658L159.378 378.451L154.21 382.386Z" fill="black"/>
<path d="M112.314 348.398C115.373 347.521 118.807 348.742 121.742 351.36C124.698 353.996 127.283 358.148 128.756 363.507L128.919 364.102C130.568 370.185 131.071 374.3 130.14 378.898C130.024 379.474 129.463 379.846 128.887 379.729C128.312 379.613 127.94 379.051 128.056 378.475C128.918 374.216 128.452 370.369 126.707 364.076L126.707 364.074C125.324 359.042 122.929 355.269 120.328 352.949C117.705 350.61 115.004 349.841 112.9 350.444C112.898 350.445 112.897 350.445 112.895 350.446C112.465 350.567 112.068 350.759 111.723 351.015C111.252 351.366 110.586 351.268 110.235 350.797C109.885 350.325 109.983 349.658 110.454 349.307C111.019 348.886 111.653 348.585 112.314 348.398V348.398Z" fill="black"/>
<path d="M110.384 349.314C110.851 348.958 111.518 349.049 111.874 349.517C112.229 349.985 112.138 350.652 111.671 351.008C111.61 351.055 111.55 351.101 111.489 351.147C111.436 351.187 111.384 351.227 111.331 351.267C109.805 352.558 108.683 355.096 108.284 358.578C107.888 362.031 108.226 366.24 109.44 370.631L109.441 370.632C110.306 373.775 111.934 377.428 113.876 380.724C115.826 384.034 118.035 386.887 120.019 388.498C120.475 388.869 120.545 389.539 120.175 389.996C119.805 390.452 119.135 390.522 118.68 390.152C116.412 388.31 114.05 385.21 112.044 381.806C110.03 378.387 108.317 374.562 107.391 371.199C106.115 366.585 105.74 362.098 106.171 358.335C106.598 354.612 107.839 351.42 109.98 349.623L110.02 349.592C110.08 349.545 110.141 349.499 110.202 349.453C110.263 349.407 110.323 349.36 110.384 349.314Z" fill="black"/>
<path d="M244.831 450.067C247.969 449.192 251.477 450.422 254.65 452.89L254.956 453.133L254.959 453.135C259.441 456.783 263.586 463.155 265.76 471.007C267.074 475.756 267.788 479.629 267.78 482.735C267.772 485.853 267.035 488.321 265.319 490.1L265.32 490.1C263.927 491.551 261.988 492.389 259.588 492.844H259.588C256.255 493.475 252.918 492.094 250.027 490.32C247.134 488.544 244.411 486.189 242.406 484.658C241.939 484.302 241.849 483.634 242.205 483.166C242.561 482.699 243.228 482.609 243.695 482.965C245.851 484.611 248.367 486.804 251.138 488.505C253.911 490.207 256.664 491.232 259.193 490.753L259.393 490.714C261.439 490.3 262.841 489.609 263.787 488.625L263.789 488.623C264.988 487.38 265.647 485.532 265.654 482.73C265.661 479.915 265.009 476.263 263.711 471.576C261.634 464.072 257.701 458.111 253.62 454.789L253.339 454.566C250.433 452.307 247.618 451.5 245.401 452.118C245.393 452.12 245.385 452.122 245.377 452.124C244.994 452.222 244.663 452.366 244.381 452.533C244.379 452.535 244.377 452.536 244.374 452.537C243.296 453.165 242.622 454.307 242.397 456.109C242.17 457.931 242.426 460.3 243.112 463.114C243.251 463.685 242.901 464.261 242.331 464.4C241.76 464.539 241.185 464.189 241.046 463.618C240.334 460.697 240.014 458.039 240.287 455.845C240.564 453.63 241.469 451.765 243.306 450.697V450.697C243.746 450.437 244.255 450.216 244.831 450.068V450.067Z" fill="black"/>
<path d="M339.245 377.274C341.07 376.205 343.188 376.249 345.268 377.003C347.339 377.753 349.46 379.23 351.454 381.192C355.444 385.12 359.104 391.169 360.973 397.985L361.107 398.474C362.467 403.493 363.148 407.484 362.973 410.617C362.789 413.909 361.648 416.348 359.313 417.982C358.831 418.319 358.168 418.202 357.832 417.72C357.496 417.238 357.613 416.575 358.094 416.238C359.768 415.066 360.693 413.311 360.85 410.498C361.011 407.626 360.36 403.756 358.924 398.552L358.923 398.55C357.148 392.075 353.671 386.36 349.963 382.71C348.107 380.883 346.238 379.618 344.545 379.005C342.861 378.395 341.441 378.454 340.32 379.111C339.813 379.408 339.162 379.238 338.865 378.731C338.568 378.223 338.738 377.571 339.245 377.274Z" fill="black"/>
<path d="M206.172 276.015C206.639 275.658 207.306 275.747 207.662 276.214C208.019 276.681 207.93 277.349 207.464 277.706L111.734 351.007C111.682 351.047 111.625 351.081 111.567 351.111L111.337 351.286C110.87 351.642 110.203 351.551 109.847 351.083C109.492 350.615 109.583 349.948 110.05 349.592L110.414 349.314C110.466 349.275 110.52 349.241 110.577 349.213L206.172 276.015Z" fill="black"/>
<path d="M223.938 304.726C224.404 304.368 225.071 304.456 225.429 304.923C225.786 305.389 225.698 306.057 225.232 306.415L216.394 313.199L216.393 313.2L129.744 379.562C129.278 379.92 128.611 379.831 128.254 379.364C127.897 378.897 127.986 378.229 128.452 377.872L215.101 311.509L223.938 304.726Z" fill="black"/>
<path d="M339.137 377.347C339.604 376.991 340.271 377.08 340.627 377.547C340.983 378.014 340.894 378.682 340.428 379.039L320.869 393.995L320.868 393.995L299.944 410.03L299.943 410.031L272.002 431.4L272.003 431.401L244.517 452.463C244.509 452.468 244.502 452.474 244.494 452.48L244.069 452.788C243.594 453.133 242.929 453.026 242.585 452.55C242.24 452.074 242.346 451.409 242.822 451.064L243.231 450.767L270.71 429.71L270.711 429.71L319.577 392.304L319.578 392.304L339.137 377.347Z" fill="black"/>
<path d="M253.67 453.087C254.135 452.729 254.802 452.816 255.16 453.281C255.519 453.747 255.432 454.415 254.967 454.774L242.727 464.21C242.262 464.569 241.594 464.482 241.236 464.016C240.878 463.551 240.965 462.882 241.43 462.524L253.67 453.087Z" fill="black"/>
<path d="M358.056 416.234C358.522 415.877 359.19 415.965 359.547 416.431C359.904 416.898 359.816 417.566 359.35 417.924L265.23 490.176C264.765 490.534 264.097 490.446 263.74 489.979C263.383 489.513 263.471 488.845 263.937 488.487L358.056 416.234Z" fill="black"/>
<path d="M118.504 388.68C118.86 388.212 119.527 388.122 119.994 388.479L243.726 482.935C244.192 483.291 244.282 483.959 243.926 484.426C243.57 484.894 242.903 484.984 242.436 484.627L118.705 390.171C118.238 389.815 118.148 389.147 118.504 388.68Z" fill="black"/>
<path d="M215.239 312.167C215.597 311.701 216.265 311.614 216.73 311.973L320.842 392.244C321.307 392.602 321.393 393.271 321.035 393.736C320.677 394.202 320.009 394.289 319.544 393.93L215.432 313.66C214.967 313.301 214.88 312.633 215.239 312.167Z" fill="black"/>
<path d="M207.801 275.282C210.86 274.405 214.293 275.625 217.229 278.243C220.185 280.88 222.77 285.032 224.243 290.391L224.406 290.986C226.055 297.068 226.557 301.184 225.627 305.781C225.51 306.357 224.949 306.73 224.374 306.613C223.798 306.496 223.426 305.935 223.543 305.359C224.405 301.1 223.939 297.253 222.194 290.96L222.193 290.958C220.811 285.925 218.416 282.153 215.814 279.833C213.192 277.494 210.491 276.725 208.386 277.328C208.381 277.33 208.376 277.331 208.371 277.333C208.015 277.429 207.686 277.572 207.381 277.763C206.883 278.074 206.227 277.922 205.916 277.424C205.605 276.925 205.757 276.269 206.255 275.957C206.735 275.657 207.252 275.432 207.801 275.282V275.282Z" fill="black"/>
<path d="M207.614 338.902C207.986 338.664 208.471 338.681 208.828 338.952L229.844 354.926L229.846 354.927L257.818 376.267C258.081 376.468 258.236 376.781 258.236 377.114C258.236 377.446 258.081 377.759 257.817 377.96L215.844 409.939C215.464 410.229 214.937 410.229 214.557 409.939L194.184 394.424L180.827 404.604C180.359 404.96 179.692 404.87 179.337 404.402C178.981 403.934 179.071 403.266 179.539 402.91L193.54 392.24L193.613 392.189C193.985 391.952 194.47 391.969 194.827 392.24L215.2 407.755L255.418 377.113L228.559 356.621L208.185 341.136L167.938 371.777L187.841 386.905C188.106 387.106 188.261 387.419 188.261 387.752C188.261 388.084 188.106 388.398 187.842 388.599L173.841 399.269C173.374 399.625 172.707 399.535 172.351 399.067C171.996 398.599 172.086 397.931 172.553 397.575L185.441 387.753L165.539 372.626C165.274 372.425 165.119 372.112 165.118 371.779C165.118 371.447 165.273 371.133 165.537 370.932L179.539 360.262L179.539 360.261L207.541 338.952L207.614 338.902Z" fill="black"/>
<path d="M228.557 354.926C229.025 354.57 229.692 354.661 230.047 355.129C230.403 355.596 230.313 356.264 229.845 356.62L215.844 367.29C215.377 367.646 214.71 367.556 214.354 367.088C213.999 366.62 214.089 365.953 214.556 365.596L228.557 354.926Z" fill="black"/>
<path d="M249.788 413.579C250.256 413.224 250.923 413.315 251.278 413.783C251.633 414.251 251.541 414.919 251.073 415.275L237.072 425.913C236.605 426.269 235.938 426.177 235.583 425.709C235.228 425.241 235.319 424.573 235.787 424.218L249.788 413.579Z" fill="black"/>
<path d="M179.335 360.466C179.689 359.997 180.356 359.905 180.824 360.26L191.606 368.432C192.074 368.787 192.166 369.454 191.812 369.923C191.457 370.391 190.79 370.484 190.322 370.129L179.541 361.957C179.073 361.602 178.981 360.935 179.335 360.466Z" fill="black"/>
<path d="M194.247 349.797C194.602 349.328 195.268 349.236 195.736 349.591L206.518 357.763C206.986 358.118 207.078 358.785 206.724 359.254C206.37 359.722 205.703 359.815 205.235 359.46L194.453 351.288C193.985 350.933 193.893 350.266 194.247 349.797Z" fill="black"/>
<path d="M221.3 381.6C221.768 381.245 222.435 381.337 222.79 381.805C223.144 382.273 223.053 382.941 222.585 383.296L202.085 398.869C201.617 399.224 200.95 399.133 200.595 398.665C200.24 398.196 200.332 397.529 200.8 397.173L221.3 381.6Z" fill="black"/>
<path d="M284.411 397.821C284.879 397.466 285.546 397.557 285.901 398.026C286.255 398.494 286.164 399.162 285.696 399.517L271.999 409.909C271.531 410.264 270.864 410.172 270.509 409.704C270.155 409.236 270.246 408.568 270.714 408.213L284.411 397.821Z" fill="black"/>
<path d="M270.603 386.855C270.976 386.617 271.461 386.634 271.818 386.906L299.942 408.338C300.409 408.694 300.499 409.362 300.144 409.83C299.788 410.297 299.121 410.388 298.654 410.032L271.174 389.09L230.956 419.731L250.285 434.458C250.543 434.655 250.698 434.959 250.704 435.284C250.71 435.609 250.568 435.919 250.317 436.126L236.863 447.228C236.41 447.601 235.74 447.537 235.366 447.083C234.993 446.629 235.058 445.959 235.511 445.585L247.929 435.338L228.558 420.578C228.293 420.377 228.138 420.064 228.138 419.731C228.138 419.399 228.294 419.086 228.558 418.884L270.53 386.906L270.603 386.855Z" fill="black"/>
<path d="M270.529 418.885C270.996 418.529 271.663 418.619 272.019 419.086C272.375 419.553 272.286 420.221 271.819 420.578L265.94 425.067L272.002 429.71C272.469 430.067 272.557 430.735 272.201 431.202C271.844 431.669 271.177 431.758 270.71 431.401L263.543 425.912C263.28 425.71 263.125 425.397 263.126 425.066C263.126 424.734 263.28 424.421 263.544 424.22L270.529 418.885Z" fill="black"/>
<path d="M196.279 416.092L199.468 413.656L204.267 417.295L201.078 419.731L196.279 416.092Z" fill="black"/>
<path d="M199.059 413.015C199.325 412.845 199.672 412.856 199.926 413.05L204.725 416.689C204.914 416.832 205.026 417.056 205.026 417.293C205.026 417.531 204.916 417.755 204.727 417.899L201.538 420.335C201.267 420.542 200.891 420.543 200.619 420.337L195.821 416.698C195.631 416.554 195.52 416.331 195.52 416.093C195.519 415.856 195.63 415.632 195.818 415.487L199.008 413.051L199.059 413.015ZM197.534 416.09L201.076 418.775L203.012 417.297L199.47 414.611L197.534 416.09Z" fill="black"/>
<path d="M203.021 421.489L206.21 419.084L211.009 422.723L207.82 425.159L203.021 421.489Z" fill="black"/>
<path d="M205.806 418.44C206.071 418.273 206.415 418.285 206.669 418.477L211.468 422.116C211.657 422.26 211.768 422.484 211.768 422.721C211.769 422.959 211.658 423.183 211.47 423.327L208.281 425.763C208.009 425.971 207.631 425.971 207.359 425.763L202.561 422.093C202.372 421.949 202.261 421.724 202.262 421.486C202.263 421.248 202.375 421.025 202.565 420.882L205.753 418.476L205.806 418.44ZM204.278 421.493L207.82 424.202L209.754 422.724L206.209 420.036L204.278 421.493Z" fill="black"/>
<path d="M209.764 426.917L212.953 424.48L217.751 428.15L214.532 430.586L209.764 426.917Z" fill="black"/>
<path d="M212.544 423.839C212.811 423.668 213.159 423.681 213.414 423.876L218.212 427.545C218.401 427.69 218.511 427.914 218.511 428.152C218.51 428.389 218.399 428.613 218.209 428.756L214.99 431.192C214.717 431.399 214.34 431.397 214.069 431.188L209.301 427.519C209.114 427.375 209.004 427.151 209.005 426.915C209.005 426.678 209.115 426.455 209.303 426.312L212.492 423.876L212.544 423.839ZM211.013 426.918L214.536 429.63L216.496 428.146L212.953 425.436L211.013 426.918Z" fill="black"/>
<path d="M216.476 432.343L219.695 429.907L224.463 433.577L221.275 436.013L216.476 432.343Z" fill="black"/>
<path d="M219.237 429.301C219.51 429.095 219.887 429.096 220.158 429.305L224.926 432.975C225.114 433.119 225.223 433.342 225.223 433.579C225.222 433.815 225.112 434.038 224.924 434.182L221.735 436.618C221.463 436.826 221.085 436.826 220.813 436.618L216.015 432.948C215.826 432.804 215.716 432.58 215.716 432.342C215.717 432.104 215.829 431.881 216.018 431.737L219.237 429.301ZM217.731 432.347L221.275 435.057L223.214 433.575L219.691 430.864L217.731 432.347Z" fill="black"/>
<path d="M158.808 376.215C159.181 375.977 159.666 375.995 160.023 376.267L173.842 386.813C174.106 387.015 174.261 387.328 174.26 387.661C174.26 387.993 174.104 388.306 173.84 388.507L169.254 391.992C168.874 392.28 168.349 392.281 167.969 391.993L159.38 385.48L157.714 386.749C157.334 387.039 156.807 387.039 156.426 386.749L151.81 383.234C151.546 383.032 151.391 382.719 151.391 382.386C151.391 382.054 151.546 381.74 151.81 381.539L158.735 376.266L158.808 376.215ZM154.21 382.386L157.07 384.564L158.735 383.297L158.807 383.246C159.179 383.009 159.664 383.025 160.02 383.296L168.61 389.808L171.441 387.657L159.378 378.451L154.21 382.386Z" fill="black"/>
<path d="M374.095 489.271V648.277C374.095 653.921 376.766 659.273 381.302 662.66L470.455 729.182C473.82 731.695 477.991 731.403 480.917 729.291C483.112 727.762 484.649 725.213 484.649 722.118V563.112C484.649 560.418 484.063 557.833 482.929 555.466C481.685 552.844 479.82 550.551 477.442 548.766L388.289 482.207C385.143 479.877 381.266 479.986 378.376 481.734C375.888 483.227 374.132 485.921 374.132 489.271H374.095ZM388.143 652.647V500.158L471.04 562.056V714.545L388.143 652.647Z" fill="white"/>
<path d="M383.461 478.275L378.375 481.734C381.266 479.986 385.143 479.877 388.289 482.208L477.442 548.73C479.82 550.514 481.685 552.808 482.929 555.43L483.149 555.32L488.965 550.988L489.148 550.915C487.904 548.366 486.075 546.145 483.771 544.397L394.582 477.875C390.96 475.18 386.387 475.726 383.461 478.275Z" fill="#0FADD0"/>
<path d="M388.143 500.158V652.647L471.04 714.545V562.02L388.143 500.158Z" fill="white"/>
<path d="M486.77 725.287C489.222 723.794 490.941 721.099 490.941 717.786V558.78C490.941 556.013 490.319 553.318 489.112 550.915L488.929 550.988L483.112 555.321L482.893 555.43C484.027 557.797 484.612 560.418 484.612 563.076V722.082C484.612 725.177 483.076 727.726 480.881 729.255L486.77 725.287Z" fill="#0FADD0"/>
<path d="M488.27 550.114C488.753 549.751 489.44 549.848 489.804 550.33C490.168 550.812 490.071 551.497 489.588 551.86L483.771 556.229C483.288 556.592 482.601 556.495 482.237 556.013C481.873 555.531 481.97 554.847 482.453 554.484L488.27 550.114Z" fill="black"/>
<path d="M384.375 476.32C384.874 475.978 385.556 476.103 385.899 476.599C386.242 477.096 386.117 477.776 385.619 478.118L384.082 479.175C384.08 479.176 384.077 479.178 384.075 479.18L378.953 482.639C378.452 482.977 377.771 482.846 377.432 482.347C377.093 481.847 377.224 481.168 377.725 480.83L382.839 477.376L384.375 476.32Z" fill="black"/>
<path d="M373 648.277V489.271C373 485.515 374.977 482.478 377.771 480.8C380.96 478.871 385.238 478.718 388.74 481.21L388.906 481.33L388.909 481.332L478.061 547.855L478.064 547.857C480.582 549.746 482.561 552.178 483.881 554.958L483.992 555.195C485.125 557.65 485.708 560.346 485.708 563.075V722.081C485.708 725.556 483.977 728.428 481.51 730.148L481.51 730.148C478.2 732.467 473.509 732.807 469.763 730.021L469.762 730.02L380.646 663.534H380.646C375.833 659.941 373 654.3 373 648.277ZM375.191 648.277C375.191 653.613 377.699 658.605 381.959 661.785H381.958L471.073 728.27C473.985 730.435 477.635 730.193 480.251 728.361L480.253 728.359C482.175 727.02 483.517 724.795 483.517 722.081V563.075C483.517 560.576 482.966 558.116 481.904 555.9L481.902 555.896C480.735 553.436 478.984 551.281 476.749 549.604V549.604L387.596 483.082V483.081C384.837 481.039 381.446 481.132 378.907 482.667L378.904 482.67C376.724 483.978 375.191 486.328 375.191 489.271V648.277Z" fill="black"/>
<path d="M489.809 717.786V558.779C489.809 556.184 489.191 553.653 488.09 551.392C488.088 551.388 488.087 551.385 488.085 551.381C486.959 549.004 485.211 546.917 483.034 545.266L393.922 478.747C390.79 476.392 386.789 476.855 384.176 479.102C384.174 479.104 384.172 479.106 384.169 479.108C383.513 479.663 382.983 480.259 382.585 480.961C382.287 481.486 381.618 481.671 381.092 481.374C380.565 481.076 380.38 480.41 380.678 479.885C381.229 478.915 381.942 478.129 382.746 477.447C386.059 474.598 391.201 473.968 395.238 477L484.354 543.523L484.361 543.528C486.79 545.37 488.772 547.722 490.06 550.437C491.3 552.983 492 555.84 492 558.779V717.786C492 721.505 490.06 724.499 487.315 726.212C487.309 726.216 487.303 726.22 487.297 726.223C486.285 726.827 485.183 727.276 483.992 727.521C483.4 727.643 482.82 727.263 482.698 726.672C482.575 726.081 482.957 725.503 483.549 725.381C484.476 725.191 485.345 724.84 486.159 724.356C488.313 723.009 489.809 720.69 489.809 717.786Z" fill="black"/>
<path d="M387.653 499.181C388.024 498.996 388.468 499.036 388.8 499.283L471.696 561.145C471.973 561.351 472.135 561.676 472.135 562.02V714.545C472.135 714.958 471.901 715.336 471.53 715.521C471.159 715.706 470.715 715.667 470.383 715.419L387.487 653.521C387.21 653.314 387.048 652.99 387.048 652.646V500.158L387.051 500.081C387.078 499.698 387.305 499.354 387.653 499.181ZM389.239 652.099L469.944 712.362V562.566L389.239 502.339V652.099Z" fill="black"/>
<path d="M486.194 724.454C486.695 724.116 487.376 724.248 487.715 724.747C488.054 725.247 487.922 725.926 487.421 726.264L481.531 730.233L480.813 730.733C480.317 731.078 479.634 730.958 479.288 730.463C478.941 729.969 479.062 729.288 479.558 728.942L480.29 728.432C480.294 728.429 480.299 728.426 480.304 728.423L486.194 724.454Z" fill="black"/>
<path d="M405.044 492.002L407.752 515.268C407.752 517.526 408.812 519.674 410.642 521.058L449.785 550.296C452.529 552.371 456.48 550.405 456.48 546.946L453.773 528.413L405.044 492.002ZM413.532 514.904L412.178 503.726L449.017 531.144L450.371 544.215L414.885 517.562C414.044 516.943 413.532 515.96 413.532 514.904Z" fill="white"/>
<path d="M405.044 492.002L453.773 528.376L463.431 521.203L463.54 521.094L414.775 484.72L405.044 492.002Z" fill="white"/>
<path d="M453.773 528.376L456.516 546.909L457.541 533.911L463.54 529.214V521.349L463.431 521.203L453.773 528.376Z" fill="white"/>
<path d="M414.193 483.794C414.574 483.556 415.067 483.572 415.432 483.845L464.197 520.219C464.452 520.409 464.611 520.7 464.633 521.016C464.656 521.332 464.54 521.643 464.315 521.867L464.205 521.976C464.168 522.013 464.128 522.047 464.085 522.079L454.427 529.252C453.942 529.612 453.256 529.512 452.895 529.029C452.533 528.545 452.633 527.86 453.119 527.5L461.728 521.106L414.777 486.084L405.702 492.875C405.218 493.237 404.532 493.14 404.169 492.657C403.805 492.175 403.903 491.49 404.387 491.128L414.118 483.846L414.193 483.794Z" fill="black"/>
<path d="M404.499 491.054C404.878 490.837 405.351 490.866 405.701 491.127L454.43 527.538L454.513 527.607C454.698 527.776 454.82 528.005 454.857 528.255L457.564 546.788C457.572 546.84 457.575 546.893 457.575 546.945C457.575 551.296 452.597 553.793 449.123 551.165V551.165L409.985 521.931C409.983 521.93 409.981 521.929 409.979 521.928C407.897 520.352 406.68 517.913 406.657 515.342L403.956 492.127C403.906 491.694 404.119 491.272 404.499 491.054ZM408.84 515.142C408.845 515.184 408.847 515.226 408.847 515.268C408.847 517.184 409.748 519.01 411.304 520.187L450.442 549.421L450.447 549.425C452.442 550.934 455.33 549.539 455.383 547.016L452.754 529.016L406.426 494.399L408.84 515.142Z" fill="black"/>
<path d="M411.629 502.781C412.009 502.562 412.482 502.589 412.834 502.851L449.672 530.268C449.918 530.451 450.075 530.728 450.107 531.031L451.46 544.103C451.505 544.535 451.289 544.952 450.909 545.166C450.53 545.38 450.059 545.349 449.711 545.088L414.226 518.435V518.434C413.136 517.628 412.461 516.357 412.437 514.979L411.091 503.857C411.038 503.423 411.25 503 411.629 502.781ZM414.619 514.773C414.625 514.817 414.627 514.861 414.627 514.904C414.627 515.562 414.927 516.183 415.432 516.602L415.536 516.683L415.544 516.69L449.023 541.835L447.977 531.732L413.572 506.127L414.619 514.773Z" fill="black"/>
<path d="M462.445 521.348C462.445 520.745 462.935 520.256 463.54 520.256C464.145 520.256 464.636 520.745 464.636 521.348V529.213C464.636 529.548 464.481 529.865 464.217 530.072L458.595 534.473L457.609 546.994C457.561 547.595 457.034 548.045 456.431 547.997C455.828 547.95 455.377 547.424 455.424 546.823L456.449 533.824C456.473 533.52 456.623 533.239 456.864 533.051L462.445 528.682V521.348Z" fill="black"/>
<path d="M420.191 548.695C420.553 548.212 421.239 548.113 421.724 548.474L460.099 577.093C460.584 577.455 460.683 578.139 460.321 578.622C459.958 579.105 459.272 579.204 458.787 578.843L420.412 550.224C419.927 549.863 419.828 549.178 420.191 548.695Z" fill="black"/>
<path d="M420.191 584.413C420.553 583.93 421.24 583.832 421.724 584.194L460.1 612.849C460.584 613.211 460.683 613.895 460.32 614.378C459.957 614.861 459.271 614.959 458.786 614.598L420.411 585.942C419.927 585.581 419.828 584.896 420.191 584.413Z" fill="black"/>
<path d="M420.191 620.387C420.553 619.904 421.24 619.806 421.724 620.167L460.1 648.823C460.584 649.184 460.683 649.869 460.32 650.352C459.957 650.834 459.271 650.933 458.786 650.571L420.411 621.916C419.927 621.554 419.828 620.87 420.191 620.387Z" fill="black"/>
<path d="M398.974 648.059C399.337 647.576 400.023 647.479 400.507 647.841L444.48 680.756C444.964 681.118 445.062 681.803 444.699 682.286C444.335 682.768 443.648 682.865 443.164 682.503L399.192 649.588C398.708 649.226 398.61 648.541 398.974 648.059Z" fill="black"/>
<path d="M420.191 559.581C420.553 559.098 421.24 559 421.724 559.361L460.1 588.017C460.584 588.378 460.683 589.063 460.32 589.546C459.957 590.029 459.271 590.127 458.786 589.766L420.411 561.11C419.927 560.749 419.828 560.064 420.191 559.581Z" fill="black"/>
<path d="M420.191 595.3C420.553 594.817 421.24 594.719 421.724 595.08L460.1 623.736C460.584 624.097 460.683 624.782 460.32 625.265C459.957 625.748 459.271 625.846 458.786 625.484L420.411 596.829C419.927 596.467 419.828 595.783 420.191 595.3Z" fill="black"/>
<path d="M420.191 631.274C420.553 630.791 421.24 630.692 421.724 631.054L460.1 659.709C460.584 660.071 460.683 660.755 460.32 661.238C459.957 661.721 459.271 661.82 458.786 661.458L420.411 632.803C419.927 632.441 419.828 631.757 420.191 631.274Z" fill="black"/>
<path d="M403.216 636.79C403.771 636.548 404.416 636.801 404.658 637.354L410.109 649.806C410.351 650.359 410.098 651.003 409.543 651.244C408.989 651.486 408.343 651.233 408.101 650.68L402.65 638.228C402.408 637.675 402.662 637.031 403.216 636.79Z" fill="black"/>
<path d="M408.463 641.165C408.953 640.812 409.638 640.921 409.993 641.41C410.348 641.899 410.237 642.582 409.747 642.935L404.297 646.868C403.806 647.221 403.122 647.112 402.767 646.623C402.412 646.134 402.522 645.451 403.012 645.098L408.463 641.165Z" fill="black"/>
<path d="M448.653 685.089C449.016 684.606 449.702 684.508 450.186 684.87L460.466 692.552C460.95 692.914 461.049 693.599 460.686 694.081C460.323 694.564 459.636 694.662 459.152 694.301L448.872 686.618C448.388 686.256 448.29 685.571 448.653 685.089Z" fill="black"/>
<path d="M413.495 587.252V596.064L399.777 585.796V565.333L411.3 573.962" fill="white"/>
<path d="M399.287 564.356C399.658 564.171 400.103 564.212 400.435 564.46L411.958 573.089C412.442 573.452 412.54 574.137 412.176 574.619C411.813 575.101 411.126 575.198 410.642 574.836L400.872 567.52V585.25L412.4 593.878V587.253C412.4 586.65 412.89 586.161 413.495 586.161C414.1 586.161 414.591 586.65 414.591 587.253V596.064C414.591 596.478 414.356 596.856 413.985 597.041C413.614 597.226 413.17 597.186 412.838 596.938L399.119 586.67C398.843 586.464 398.681 586.14 398.681 585.796V565.333C398.681 564.92 398.916 564.541 399.287 564.356Z" fill="black"/>
<path d="M404.679 577.968L407.679 586.051L418.434 574.654" fill="white"/>
<path d="M417.636 573.906C418.051 573.467 418.744 573.446 419.185 573.859C419.625 574.273 419.646 574.964 419.232 575.403L408.476 586.8C408.216 587.075 407.832 587.197 407.461 587.122C407.089 587.047 406.783 586.785 406.651 586.43L403.651 578.347C403.441 577.782 403.731 577.153 404.299 576.944C404.866 576.734 405.496 577.023 405.706 577.589L408.092 584.019L417.636 573.906Z" fill="black"/>
<path d="M413.495 551.861V560.636L399.777 550.405V529.905L411.3 538.535" fill="white"/>
<path d="M399.287 528.929C399.658 528.744 400.103 528.784 400.435 529.032L411.958 537.662C412.442 538.024 412.54 538.709 412.176 539.191C411.813 539.674 411.126 539.771 410.642 539.408L400.872 532.092V549.858L412.4 558.455V551.861C412.4 551.258 412.89 550.769 413.495 550.769C414.1 550.769 414.591 551.258 414.591 551.861V560.637C414.591 561.05 414.356 561.428 413.986 561.613C413.615 561.798 413.171 561.759 412.839 561.511L399.12 551.28C398.844 551.073 398.681 550.749 398.681 550.405V529.906C398.681 529.492 398.916 529.114 399.287 528.929Z" fill="black"/>
<path d="M404.679 542.577L407.679 550.624L418.434 539.264" fill="white"/>
<path d="M417.637 538.513C418.053 538.075 418.746 538.055 419.186 538.469C419.626 538.883 419.646 539.574 419.23 540.013L408.475 551.373C408.215 551.648 407.832 551.769 407.461 551.694C407.089 551.619 406.784 551.358 406.652 551.004L403.652 542.957C403.441 542.392 403.73 541.763 404.297 541.553C404.864 541.343 405.495 541.631 405.705 542.196L408.091 548.596L417.637 538.513Z" fill="black"/>
<path d="M413.495 623.554V632.366L399.777 622.098V601.635L411.3 610.228" fill="white"/>
<path d="M399.286 600.658C399.657 600.472 400.101 600.512 400.433 600.76L411.956 609.352C412.441 609.714 412.54 610.398 412.178 610.881C411.815 611.365 411.129 611.463 410.644 611.102L400.872 603.815V621.551L412.4 630.179V623.554C412.4 622.95 412.89 622.461 413.495 622.461C414.1 622.461 414.591 622.951 414.591 623.554V632.365C414.591 632.779 414.356 633.157 413.985 633.342C413.614 633.527 413.17 633.487 412.838 633.239L399.119 622.971C398.843 622.765 398.681 622.441 398.681 622.097V601.634C398.681 601.221 398.915 600.843 399.286 600.658Z" fill="black"/>
<path d="M404.679 614.268L407.679 622.352L418.434 610.955" fill="white"/>
<path d="M417.636 610.207C418.051 609.768 418.744 609.747 419.185 610.16C419.625 610.574 419.646 611.265 419.232 611.704L408.476 623.101C408.216 623.376 407.832 623.498 407.461 623.423C407.089 623.347 406.783 623.086 406.651 622.731L403.651 614.648C403.441 614.082 403.731 613.454 404.299 613.244C404.866 613.035 405.496 613.324 405.706 613.89L408.092 620.32L417.636 610.207Z" fill="black"/>
<path d="M79.7647 567.91L50.6786 542.762V577L32.0875 563.696V530.973L6 512.311L45.1313 448.834L79.7647 567.91Z" fill="white"/>
<path d="M79.7647 567.91L50.6786 542.762V577L32.0874 563.696V530.973L6 512.311L45.1312 448.834L79.7647 567.91ZM33.6767 562.866L49.0893 573.895V539.274L76.7305 563.173L44.6059 452.724L8.14092 511.875L33.6767 530.142V562.866Z" fill="black"/>
<path d="M65.6714 563.971L49.779 575.485V540.338L65.6714 554.124V563.971Z" fill="#0FADD0"/>
<path d="M66.1891 553.515L66.466 554.124V563.971L66.1343 564.624L50.242 576.137L48.9844 575.485V540.338L50.2967 539.729L66.1891 553.515ZM50.5737 573.921L64.8767 563.559V554.492L50.5737 542.085V573.921Z" fill="black"/>
<path d="M93.1078 555.488L78.8651 567.153L44.9811 450.74L61.4677 441.26L93.1078 555.488Z" fill="#0FADD0"/>
<path d="M62.233 441.043L93.873 555.271L93.6082 556.111L79.3654 567.776L78.1026 567.379L44.2188 450.966L44.5882 450.041L61.0747 440.561L62.233 441.043ZM45.9208 451.123L79.2911 565.77L92.2019 555.195L60.9764 442.465L45.9208 451.123Z" fill="black"/>
<path d="M18 65.9736L73.7229 107.813V303L18 261.192V65.9736Z" fill="white"/>
<path d="M17.5239 65.0197C17.8845 64.8391 18.316 64.8783 18.6386 65.1205L74.3616 106.959C74.6297 107.161 74.7876 107.477 74.7876 107.812V303C74.7875 303.404 74.5597 303.772 74.1991 303.953C73.8386 304.134 73.407 304.095 73.0844 303.853L17.3617 262.044C17.0934 261.843 16.9354 261.527 16.9354 261.191V65.973L16.9381 65.8978C16.9644 65.524 17.1857 65.1889 17.5239 65.0197ZM19.0646 260.658L72.6584 300.869V108.345L19.0646 68.1043V260.658Z" fill="black"/>
<path d="M18 65.9732L27.277 59L82.9999 100.839L73.7229 107.812L18 65.9732Z" fill="white"/>
<path d="M26.6378 58.148C27.0163 57.8635 27.537 57.8634 27.9156 58.1477L83.6386 99.9866C83.9066 100.188 84.0645 100.504 84.0646 100.839C84.0646 101.174 83.9071 101.49 83.6392 101.692L74.3622 108.665C73.9837 108.949 73.4627 108.949 73.0841 108.665L17.3614 66.8261C17.0934 66.6249 16.9356 66.3092 16.9354 65.9739C16.9353 65.6385 17.0929 65.3227 17.3608 65.1213L26.6378 58.148ZM19.7736 65.973L73.7224 106.48L81.2261 100.84L27.2773 60.3325L19.7736 65.973Z" fill="black"/>
<path d="M82.9999 101.296V295.844L73.7229 302.817V108.269L82.9999 101.296Z" fill="#0FADD0"/>
<path d="M82.3607 100.444C82.6832 100.202 83.115 100.162 83.4758 100.343C83.8366 100.523 84.0645 100.892 84.0645 101.296V295.845C84.0645 296.18 83.9069 296.496 83.6391 296.697L74.3621 303.67C74.0396 303.912 73.6078 303.952 73.247 303.771C72.8863 303.591 72.6583 303.221 72.6583 302.818V108.27C72.6583 107.934 72.8159 107.619 73.0837 107.417L82.3607 100.444ZM74.7875 108.802V300.685L81.9353 295.312V103.429L74.7875 108.802Z" fill="black"/>
<path d="M24.935 78.4576C25.2878 77.9867 25.9549 77.8913 26.4253 78.2444L66.6662 108.451C67.1365 108.804 67.2321 109.472 66.8794 109.943C66.5267 110.414 65.8593 110.51 65.3889 110.156L25.148 79.9495C24.6777 79.5964 24.5823 78.9285 24.935 78.4576Z" fill="black"/>
<path d="M23.9625 137.105C24.7191 136.096 26.1491 135.893 27.1565 136.65L48.2959 152.545C49.3033 153.303 49.5067 154.734 48.7501 155.743C47.9935 156.751 46.5635 156.955 45.5561 156.198L24.4167 140.302C23.4093 139.545 23.2059 138.113 23.9625 137.105Z" fill="black"/>
<path d="M23.9622 148.31C24.7185 147.302 26.1483 147.098 27.1559 147.855L67.3968 178.092C68.4044 178.849 68.6083 180.281 67.8522 181.289C67.0959 182.298 65.6658 182.502 64.6582 181.745L24.4173 151.508C23.4096 150.751 23.2059 149.319 23.9622 148.31Z" fill="black"/>
<path d="M24.9347 85.1269C25.2873 84.6559 25.9544 84.5602 26.425 84.9131L46.5607 100.016C47.0312 100.369 47.1267 101.037 46.7743 101.508C46.4218 101.979 45.7546 102.075 45.284 101.722L25.1483 86.6188C24.6778 86.2659 24.5822 85.598 24.9347 85.1269Z" fill="black"/>
<path d="M24.9353 181.289C25.2882 180.819 25.9553 180.723 26.4255 181.077L66.6667 211.314C67.1369 211.667 67.232 212.335 66.8791 212.806C66.5262 213.277 65.8588 213.372 65.3886 213.019L25.1477 182.781C24.6775 182.428 24.5824 181.76 24.9353 181.289Z" fill="black"/>
<path d="M24.9353 227.696C25.2882 227.225 25.9553 227.13 26.4255 227.483L66.6667 257.72C67.1369 258.074 67.232 258.742 66.8791 259.212C66.5262 259.683 65.8588 259.778 65.3886 259.425L25.1477 229.187C24.6775 228.834 24.5824 228.166 24.9353 227.696Z" fill="black"/>
<path d="M34.2729 214.237C34.6256 213.766 35.2927 213.671 35.7631 214.024L53.1614 227.087C53.6317 227.44 53.7271 228.108 53.3743 228.579C53.0216 229.05 52.3542 229.145 51.8838 228.792L34.4858 215.729C34.0155 215.376 33.9201 214.708 34.2729 214.237Z" fill="black"/>
<path d="M24.9353 234.669C25.2882 234.198 25.9553 234.103 26.4255 234.457L66.6667 264.694C67.1369 265.047 67.232 265.715 66.8791 266.186C66.5262 266.657 65.8588 266.752 65.3886 266.399L25.1477 236.161C24.6775 235.808 24.5824 235.14 24.9353 234.669Z" fill="black"/>
<path d="M24.935 188.415C25.2877 187.944 25.9549 187.848 26.4252 188.201L55.2602 209.852C55.7306 210.205 55.8257 210.873 55.4729 211.344C55.1201 211.815 54.453 211.91 53.9827 211.557L25.148 189.907C24.6776 189.553 24.5823 188.886 24.935 188.415Z" fill="black"/>
<path d="M32.8736 108.604C29.5278 105.133 26.2733 106.046 25.6041 110.583C24.9349 115.151 27.1249 121.637 30.4707 125.108C33.8165 128.58 37.0711 127.666 37.7403 123.129C38.4094 118.561 36.2194 112.075 32.8736 108.604Z" fill="white"/>
<path d="M27.9533 105.562C29.8296 105.046 31.863 106.02 33.6398 107.863C35.4484 109.74 36.9029 112.379 37.8218 115.115C38.7395 117.848 39.1595 120.786 38.7937 123.283L38.7934 123.284C38.4327 125.73 37.3055 127.623 35.3911 128.149C33.5149 128.665 31.4815 127.691 29.7047 125.848C27.896 123.971 26.4416 121.332 25.5227 118.596C24.6049 115.863 24.185 112.925 24.5508 110.428L24.5511 110.427C24.9118 107.981 26.039 106.088 27.9533 105.562ZM32.1077 109.343C30.5388 107.716 29.2719 107.41 28.5171 107.618C27.8005 107.815 26.9659 108.647 26.6574 110.738C26.3543 112.809 26.6945 115.397 27.5408 117.917C28.386 120.433 29.6996 122.773 31.2368 124.368C32.8057 125.995 34.0726 126.301 34.8273 126.094C35.544 125.897 36.3786 125.064 36.6871 122.973C36.9901 120.903 36.6496 118.314 35.8034 115.795C34.9581 113.278 33.6448 110.938 32.1077 109.343Z" fill="black"/>
<path d="M27.5204 206.715C26.1212 205.254 24.722 205.619 24.4483 207.568C24.1745 209.486 25.087 212.227 26.4862 213.689C27.8854 215.15 29.2845 214.785 29.5583 212.836C29.832 210.918 28.9195 208.177 27.5204 206.715Z" fill="white"/>
<path d="M25.2829 204.835C26.402 204.53 27.484 205.138 28.2889 205.978C29.1244 206.851 29.7718 208.052 30.1766 209.268C30.58 210.48 30.7785 211.815 30.6123 212.984L30.6126 212.985C30.4504 214.139 29.8863 215.253 28.7237 215.57C27.6047 215.875 26.5227 215.267 25.7177 214.426C24.8823 213.554 24.2348 212.353 23.8301 211.137C23.4263 209.925 23.2274 208.587 23.3943 207.418C23.5569 206.264 24.1211 205.151 25.2829 204.835ZM25.8419 206.892C25.8372 206.893 25.8289 206.896 25.8143 206.907C25.7985 206.919 25.7683 206.946 25.7308 207.002C25.6527 207.118 25.5552 207.341 25.5024 207.717L25.5021 207.719C25.3953 208.468 25.5161 209.46 25.8499 210.463C26.1828 211.463 26.6913 212.363 27.2549 212.952C27.5328 213.242 27.7671 213.395 27.933 213.465C28.0937 213.533 28.1614 213.514 28.1647 213.513C28.1694 213.512 28.1778 213.509 28.1924 213.498C28.2082 213.486 28.2383 213.459 28.2758 213.403C28.3539 213.287 28.4512 213.064 28.5039 212.688L28.5045 212.686C28.6113 211.937 28.4905 210.944 28.1567 209.942C27.8238 208.942 27.3154 208.042 26.7517 207.453C26.4738 207.163 26.2396 207.01 26.0736 206.94C25.9137 206.872 25.8458 206.891 25.8419 206.892Z" fill="black"/>
<path d="M243.356 213.552L263.497 198.498C264.682 197.312 265.35 195.366 265.472 192.994V178.852L254.414 170.246C253.715 169.729 252.895 169.394 252.014 169.273L251.649 169.212C249.887 168.968 248.125 169.668 247.001 171.036C246.242 171.949 245.816 173.104 245.816 174.321L246.515 207.227L246.302 209.507C246.059 210.602 245.513 211.606 244.753 212.397L243.356 213.552Z" fill="white"/>
<path d="M246.184 170.355C247.499 168.758 249.534 167.917 251.595 168.133L251.794 168.157L251.824 168.162L252.188 168.222L252.188 168.223C253.166 168.362 254.086 168.722 254.886 169.275L255.046 169.39L255.066 169.405L266.124 178.012C266.383 178.214 266.535 178.524 266.535 178.852V192.994C266.535 193.012 266.534 193.03 266.533 193.048C266.405 195.555 265.694 197.804 264.249 199.251C264.213 199.287 264.174 199.321 264.133 199.351L243.992 214.405C243.529 214.751 242.876 214.664 242.52 214.21C242.163 213.755 242.234 213.1 242.678 212.732L244.023 211.619C244.617 210.987 245.048 210.195 245.251 209.334L245.45 207.189L244.753 174.343C244.753 174.336 244.753 174.328 244.753 174.321C244.753 172.854 245.267 171.458 246.184 170.355ZM251.494 170.265C250.104 170.077 248.712 170.63 247.822 171.712C247.821 171.714 247.819 171.716 247.818 171.718C247.219 172.437 246.882 173.348 246.88 174.31L247.578 207.204C247.579 207.244 247.578 207.285 247.574 207.325L247.399 209.202L262.793 197.696C263.687 196.766 264.292 195.15 264.408 192.964V179.373L253.774 171.096C253.221 170.689 252.572 170.424 251.868 170.327C251.859 170.326 251.849 170.324 251.839 170.322L251.494 170.265Z" fill="black"/>
<path d="M218.111 1.06445L199.154 14.2936V126.726C199.154 128.186 199.853 129.585 201.038 130.467L225.706 148.988C226.89 149.87 227.589 151.269 227.589 152.728V193.054C227.589 196.004 228.379 199.502 229.989 203.029C233.483 210.632 239.467 215.346 243.386 213.552C245.33 212.67 246.394 210.328 246.546 207.287V207.226V173.986C246.546 170.124 250.95 167.934 254.019 170.246L272.155 183.87C273.826 185.117 276.104 185.117 277.775 183.87L292.053 173.165C293.238 172.283 293.937 170.884 293.937 169.424V57.965L218.111 1.06445Z" fill="white"/>
<path d="M226.526 193.054V152.728C226.526 151.606 225.987 150.523 225.071 149.842C225.07 149.841 225.069 149.84 225.068 149.839L200.4 131.318C198.948 130.236 198.091 128.521 198.091 126.726V14.2936C198.091 13.9455 198.261 13.6195 198.546 13.4204L217.503 0.191251C217.879 -0.0714055 218.381 -0.0628051 218.749 0.212634L294.575 57.1134C294.842 57.3144 295 57.6298 295 57.9648V169.424C295 171.221 294.142 172.937 292.688 174.019L292.687 174.019L278.413 184.722L278.411 184.723C276.363 186.252 273.567 186.252 271.519 184.723L271.517 184.721L253.379 171.096C251.011 169.312 247.609 171.002 247.609 173.986V207.287C247.609 207.305 247.609 207.322 247.608 207.34C247.449 210.518 246.321 213.387 243.828 214.52L243.828 214.52C241.321 215.668 238.404 214.643 235.871 212.652C233.29 210.623 230.825 207.396 229.023 203.474L229.022 203.472C227.36 199.831 226.526 196.183 226.526 193.054ZM200.218 126.726C200.218 127.814 200.724 128.864 201.588 129.548L201.672 129.613L226.344 148.136C227.796 149.219 228.652 150.933 228.652 152.728V193.054C228.652 195.825 229.397 199.171 230.955 202.585L231.115 202.927C232.788 206.447 234.991 209.253 237.185 210.977C239.497 212.795 241.533 213.23 242.944 212.584L242.947 212.582C244.338 211.952 245.334 210.145 245.482 207.252V173.986C245.482 169.246 250.889 166.557 254.657 169.394L272.79 183.017L272.913 183.104C274.153 183.953 275.778 183.953 277.017 183.104L277.14 183.017L291.416 172.313L291.419 172.311C292.334 171.63 292.873 170.547 292.873 169.424V58.4973L218.088 2.3777L200.218 14.8489V126.726Z" fill="black"/>
<path d="M293.876 91.9654L286.251 97.6829C285.066 98.5952 284.337 99.9942 284.337 101.484V110.942C284.337 112.433 283.638 113.832 282.453 114.744L274.919 120.431L267.325 114.714C266.14 113.832 265.441 112.402 265.441 110.912V101.484C265.441 99.9942 264.712 98.5952 263.527 97.6829L257.816 93.3644C256.631 92.452 255.933 91.0531 255.933 89.5629V80.1048C255.933 78.6146 255.234 77.1853 254.049 76.3033L244.601 69.2174C241.472 66.8757 237.007 69.0957 237.007 73.0189V96.7097C237.007 100.633 232.541 102.853 229.412 100.511C228.197 99.5988 227.498 98.1695 227.498 96.6793L227.559 87.2516C227.559 85.731 226.86 84.3017 225.645 83.4197L210.486 72.0761C209.271 71.1637 208.572 69.7648 208.572 68.2442V58.8165C208.602 57.2959 207.904 55.897 206.688 54.9846L199.063 49.328L199.124 14.2936L218.111 1.06445L293.876 57.965V91.9959V91.9654Z" fill="#0FADD0"/>
<path d="M207.509 68.2444V58.8167C207.509 58.8096 207.509 58.8024 207.509 58.7953C207.532 57.6277 207.001 56.552 206.056 55.84L198.43 50.1832C198.159 49.9821 198 49.6641 198 49.3264L198.061 14.2919L198.063 14.2268C198.083 13.9039 198.249 13.6061 198.517 13.4199L217.503 0.190742L217.576 0.144709C217.942 -0.0694145 218.405 -0.0453095 218.749 0.213017L294.514 57.1135C294.782 57.3145 294.939 57.63 294.939 57.9649V91.9959C294.939 92.4258 294.684 92.7958 294.318 92.9638L286.899 98.5267L286.812 98.5956C285.925 99.3188 285.4 100.381 285.4 101.484V110.942C285.4 112.769 284.543 114.477 283.102 115.588C283.099 115.59 283.096 115.592 283.094 115.594L275.56 121.281C275.181 121.567 274.659 121.567 274.281 121.282L266.69 115.567C265.227 114.478 264.378 112.728 264.378 110.912V101.484C264.378 100.346 263.819 99.251 262.88 98.5273L257.175 94.2138C257.173 94.212 257.17 94.2101 257.168 94.2082C255.726 93.098 254.87 91.3895 254.87 89.563V80.105C254.87 78.9406 254.321 77.8324 253.415 77.1577L253.412 77.1553L243.964 70.0694V70.0691C241.532 68.2499 238.07 69.9781 238.07 73.0188V96.7097C238.07 101.515 232.601 104.227 228.775 101.364L228.774 101.363C227.288 100.247 226.435 98.5009 226.435 96.6794C226.435 96.6772 226.435 96.6746 226.435 96.6723L226.495 87.2518L226.494 87.1398C226.461 85.987 225.918 84.9327 225.021 84.2816C225.017 84.2785 225.012 84.2754 225.008 84.2724L209.849 72.9288L209.848 72.9276C208.365 71.8143 207.509 70.0999 207.509 68.2444ZM209.635 68.2444C209.635 69.4293 210.176 70.5122 211.122 71.2235L226.282 82.5673H226.281C227.778 83.6598 228.622 85.4119 228.622 87.2518C228.622 87.254 228.622 87.2564 228.622 87.2586L228.561 96.6863C228.563 97.842 229.107 98.9508 230.048 99.6586C232.481 101.479 235.944 99.7508 235.944 96.7097V73.0188C235.944 68.2888 241.243 65.5872 245.057 68.2349L245.238 68.3649L245.239 68.3655L254.687 75.4514H254.686C256.148 76.5407 256.996 78.2902 256.996 80.105V89.563C256.996 90.7163 257.536 91.8053 258.463 92.5198L264.168 96.8336L264.176 96.8392C265.606 97.9403 266.505 99.6434 266.505 101.484V110.912C266.505 112.04 267.019 113.115 267.875 113.795L267.959 113.859L267.964 113.863L274.918 119.098L281.805 113.9C282.733 113.186 283.274 112.096 283.274 110.942V101.484C283.274 99.6434 284.173 97.9403 285.603 96.8392L285.613 96.8309L292.813 91.4328V58.4968L218.088 2.37748L200.186 14.8502L200.128 48.7924L207.321 54.1296L207.327 54.1332C208.803 55.2417 209.665 56.9534 209.635 58.8167H209.635V68.2444Z" fill="black"/>
<path d="M239.229 192.079C238.499 190.483 237.525 189.24 236.589 188.505C235.605 187.731 234.926 187.697 234.589 187.851C234.252 188.006 233.835 188.543 233.776 189.794C233.721 190.983 234.025 192.534 234.755 194.13C235.485 195.727 236.459 196.97 237.395 197.705C238.379 198.478 239.058 198.513 239.395 198.359C239.731 198.204 240.149 197.667 240.207 196.416C240.263 195.226 239.959 193.676 239.229 192.079ZM241.163 191.193C242.004 193.033 242.406 194.922 242.332 196.515C242.26 198.047 241.712 199.638 240.28 200.294C238.847 200.951 237.287 200.327 236.082 199.38C234.828 198.395 233.662 196.856 232.821 195.017C231.98 193.177 231.578 191.288 231.652 189.694C231.724 188.162 232.271 186.572 233.704 185.916C235.136 185.259 236.697 185.883 237.902 186.83C239.155 187.815 240.321 189.353 241.163 191.193Z" fill="black"/>
<path d="M198.309 13.6484C198.665 13.181 199.332 13.0911 199.799 13.4476L274.955 70.8331L293.238 57.1139C293.708 56.7613 294.374 56.8567 294.727 57.3271C295.079 57.7975 294.983 58.4645 294.514 58.8171L275.588 73.0195C275.207 73.3051 274.683 73.3029 274.305 73.0141L198.509 15.1405C198.043 14.784 197.953 14.1158 198.309 13.6484Z" fill="black"/>
<path d="M198.304 99.9945C198.656 99.5242 199.322 99.4285 199.792 99.781L274.95 156.172L293.238 142.449C293.708 142.096 294.375 142.192 294.727 142.662C295.079 143.133 294.984 143.8 294.514 144.152L275.588 158.355C275.21 158.638 274.69 158.638 274.312 158.355L198.517 101.485C198.047 101.132 197.951 100.465 198.304 99.9945Z" fill="black"/>
<path d="M273.887 157.502V72.167C273.887 71.5791 274.363 71.1025 274.95 71.1025C275.537 71.1025 276.013 71.5791 276.013 72.167V157.502C276.013 158.09 275.537 158.567 274.95 158.567C274.363 158.567 273.887 158.09 273.887 157.502Z" fill="black"/>
<path d="M254.869 68.8219V57.9648C254.869 57.3769 255.345 56.9004 255.933 56.9004C256.52 56.9004 256.996 57.3769 256.996 57.9648V68.8219C256.996 69.4097 256.52 69.8863 255.933 69.8863C255.345 69.8863 254.869 69.4097 254.869 68.8219Z" fill="black"/>
<path d="M283.304 93.5161V65.081C283.304 64.4932 283.78 64.0166 284.367 64.0166C284.955 64.0166 285.431 64.4932 285.431 65.081V93.5161C285.431 94.104 284.955 94.5805 284.367 94.5805C283.78 94.5805 283.304 94.104 283.304 93.5161Z" fill="black"/>
<path d="M235.943 57.9651V43.7324C235.943 43.1445 236.419 42.668 237.007 42.668C237.594 42.668 238.07 43.1445 238.07 43.7324V57.9651C238.07 58.5529 237.594 59.0295 237.007 59.0295C236.419 59.0295 235.943 58.5529 235.943 57.9651Z" fill="black"/>
<path d="M216.987 67.0283V29.5C216.987 28.9121 217.463 28.4355 218.05 28.4355C218.637 28.4355 219.113 28.9121 219.113 29.5V67.0283C219.113 67.6161 218.637 68.0927 218.05 68.0927C217.463 68.0927 216.987 67.6161 216.987 67.0283Z" fill="black"/>
<path d="M264.408 121.951V65.081C264.408 64.4932 264.884 64.0166 265.472 64.0166C266.059 64.0166 266.535 64.4932 266.535 65.081V121.951C266.535 122.539 266.059 123.016 265.472 123.016C264.884 123.016 264.408 122.539 264.408 121.951Z" fill="black"/>
<path d="M207.539 80.0142V22.414C207.539 21.8262 208.015 21.3496 208.602 21.3496C209.189 21.3496 209.666 21.8262 209.666 22.414V80.0142C209.665 80.602 209.189 81.0786 208.602 81.0786C208.015 81.0786 207.539 80.602 207.539 80.0142Z" fill="black"/>
<path d="M245.452 93.5163V50.8486C245.452 50.2607 245.928 49.7842 246.515 49.7842C247.102 49.7842 247.578 50.2607 247.578 50.8486V93.5163C247.578 94.1042 247.102 94.5808 246.515 94.5808C245.928 94.5808 245.452 94.1042 245.452 93.5163Z" fill="black"/>
<path d="M226.526 79.2839V36.6162C226.526 36.0283 227.002 35.5518 227.589 35.5518C228.176 35.5518 228.652 36.0283 228.652 36.6162V79.2839C228.652 79.8718 228.176 80.3483 227.589 80.3483C227.002 80.3483 226.526 79.8718 226.526 79.2839Z" fill="black"/>
<path d="M437.958 326.558L447.873 308.784L447.36 136.911V128.973L421.204 109.646H411.972L403.254 117.411V289.457L409.921 317.93L429.239 329.664L437.958 326.558Z" fill="white"/>
<path d="M447.116 137.981L439.186 143.448L438.992 311.161L447.116 307.256V137.981Z" fill="#0FADD0"/>
<path d="M448.835 136.188V307.01L448.318 307.881L438.233 313.328L437.309 311.585L446.877 306.418V136.188H448.835Z" fill="black"/>
<path d="M421.307 108.339L448.446 129.024L448.835 129.813V136.34L448.437 137.136L439.765 143.58L439.184 143.772H430.373L429.788 143.576L403.002 123.408L402.61 122.674L402.253 116.58L402.638 115.735L411.672 108.805L412.211 108.605L420.664 108.141L421.307 108.339ZM412.617 110.562L404.238 116.99L404.538 122.099L430.698 141.795H438.863L446.877 135.84V130.305L420.413 110.134L412.617 110.562Z" fill="black"/>
<path d="M419.878 123.561L421.025 122.681L422.172 121.802L424.318 121.684L431.209 126.936V128.593L430.108 129.411L429.007 130.229H426.77L419.969 125.108L419.878 123.561Z" fill="black"/>
<path d="M424.908 120.894L431.799 126.146L432.188 126.935V128.592L431.789 129.388L429.587 131.024L429.007 131.217H426.77L426.184 131.021L419.383 125.9L418.991 125.166L418.901 123.619L419.286 122.774L421.579 121.014L422.118 120.814L424.265 120.696L424.908 120.894ZM422.525 122.771L420.886 124.029L420.919 124.59L427.094 129.24H428.685L430.229 128.092V127.427L424.014 122.69L422.525 122.771Z" fill="black"/>
<path d="M404.21 116.808V288.876L429.707 307.047V142.637H431.665V308.955L430.121 309.762L402.666 290.195L402.251 289.388V116.808H404.21Z" fill="black"/>
<path d="M439.622 142.859V312.373L438.248 313.278L430.059 309.637L430.849 307.828L437.664 310.858V142.859H439.622Z" fill="black"/>
<path d="M431.508 309.048L430.887 324.96L437.985 311.338L439.718 312.258L430.605 329.749L428.76 329.25L429.551 308.971L431.508 309.048ZM410.667 316.884L408.759 317.332L402.291 289.259L404.198 288.812L410.667 316.884Z" fill="black"/>
<path d="M448.965 307.357L439.421 325.881L438.976 326.316L430.162 330.585L429.204 330.522L408.744 317.06L409.813 315.404L429.811 328.562L437.834 324.676L447.227 306.444L448.965 307.357Z" fill="black"/>
<path d="M411.703 325.939L409.594 316.64L430.027 329.509L438.707 324.874L434.91 333.747L428.865 335.843L411.703 325.939Z" fill="black"/>
<path d="M430.067 328.368L438.249 324L439.606 325.265L435.809 334.138L435.228 334.681L429.183 336.778L428.379 336.701L411.217 326.796L410.749 326.159L408.639 316.86L410.112 315.801L430.067 328.368ZM412.562 325.295L428.966 334.763L434.182 332.953L436.704 327.061L430.485 330.382L429.509 330.347L411.074 318.736L412.562 325.295Z" fill="black"/>
<path d="M358.592 717.521C364.476 734.677 362.752 749.115 354.486 755.346L343.292 763.911C350.873 758.201 352.625 742.198 346.932 725.591C343.374 715.187 339.159 707.721 331.522 701.984L183.065 590.318C178.303 586.612 173.294 585.102 168.915 586.612C168.449 586.777 168.011 586.969 167.573 587.188V587.134C167.546 587.134 177.7 579.557 177.7 579.557C178.385 579.118 179.096 578.789 179.863 578.514C184.242 577.005 189.251 578.514 194.013 582.22L342.471 693.886C350.08 699.623 355.034 707.09 358.592 717.493V717.521Z" fill="white"/>
<path d="M291.206 716.779C295.749 712.662 296.68 702.45 293.067 691.855C290.713 684.965 287.921 680.024 282.858 676.208L184.516 602.231C182.627 600.748 180.656 599.815 178.795 599.513C177.536 599.321 176.305 599.403 175.155 599.788C168.531 602.066 166.588 613.897 170.803 626.194C173.184 633.112 176.852 638.712 181.067 641.868L278.834 715.379C282.283 718.069 285.677 719.304 288.742 718.261C289.673 717.932 290.494 717.438 291.233 716.779H291.206ZM346.877 725.618C352.57 742.198 350.819 758.228 343.237 763.911C342.334 764.597 341.348 765.118 340.281 765.475C335.655 767.067 330.537 765.173 325.337 761.138L177.783 650.186C171.433 645.409 165.876 636.955 162.291 626.524C156.215 608.819 158.623 591.772 167.546 587.243C167.984 587.023 168.422 586.831 168.887 586.667C173.266 585.157 178.275 586.667 183.038 590.372L331.495 702.039C339.104 707.776 343.319 715.242 346.905 725.645L346.877 725.618Z" fill="#0FADD0"/>
<path d="M293.067 691.882C296.707 702.451 295.749 712.689 291.206 716.807C289.18 716.45 287.045 715.352 284.911 713.678L187.143 640.167C182.928 637.01 179.261 631.41 176.879 624.493C173.239 613.897 174.197 603.658 178.768 599.541C180.656 599.843 182.6 600.804 184.488 602.259L282.83 676.236C287.867 680.024 290.658 684.993 293.04 691.882H293.067Z" fill="#67DAF7"/>
<path d="M291.206 716.779C290.467 717.438 289.618 717.959 288.715 718.261C285.649 719.304 282.256 718.069 278.807 715.379L181.04 641.868C176.825 638.711 173.157 633.112 170.776 626.194C166.561 613.897 168.504 602.066 175.128 599.788C176.277 599.376 177.509 599.293 178.768 599.513C174.197 603.603 173.239 613.842 176.879 624.465C179.261 631.382 182.928 636.982 187.143 640.139L284.91 713.65C287.045 715.324 289.18 716.422 291.206 716.779Z" fill="black"/>
<path d="M179.551 577.633C184.36 575.975 189.706 577.681 194.597 581.486L343.018 693.145L343.019 693.146C350.812 699.022 355.864 706.664 359.47 717.208L359.608 717.614C362.479 726.134 363.507 734.033 362.77 740.637C362.022 747.343 359.442 752.789 355.039 756.11L355.04 756.11L343.845 764.675C343.425 764.996 342.824 764.915 342.503 764.494C342.182 764.072 342.263 763.469 342.683 763.147L353.878 754.583L353.883 754.578C357.744 751.668 360.157 746.782 360.866 740.424C361.575 734.067 360.567 726.314 357.658 717.833L357.658 717.832C354.148 707.569 349.292 700.28 341.867 694.682V694.681L193.438 583.016C193.434 583.013 193.43 583.01 193.426 583.007C188.795 579.403 184.127 578.09 180.179 579.448C179.478 579.7 178.844 579.995 178.242 580.378L168.118 587.932C167.693 588.249 167.093 588.16 166.777 587.734C166.462 587.309 166.55 586.707 166.974 586.39L177.129 578.814C177.147 578.801 177.165 578.788 177.184 578.776C177.941 578.29 178.721 577.93 179.541 577.637L179.551 577.633Z" fill="black"/>
<path d="M168.576 585.731C173.381 584.074 178.724 585.777 183.612 589.576L332.07 701.243L332.071 701.243C339.894 707.142 344.193 714.811 347.81 725.304L347.81 725.305C350.695 733.706 351.705 741.999 351.016 748.946C350.33 755.858 347.939 761.603 343.842 764.676C342.859 765.424 341.783 765.994 340.619 766.384C335.529 768.136 330.065 765.998 324.789 761.907L177.235 650.955H177.235C170.684 646.027 165.038 637.384 161.413 626.837L161.412 626.837C158.334 617.867 157.39 609.027 158.372 601.813C159.331 594.765 162.167 589.063 166.886 586.52C166.954 586.455 167.032 586.4 167.118 586.356C167.585 586.122 168.059 585.914 168.568 585.733C168.571 585.733 168.573 585.732 168.576 585.731ZM182.45 591.104C177.818 587.5 173.148 586.187 169.2 587.547C168.862 587.667 168.537 587.804 168.211 587.96C168.15 588.015 168.081 588.062 168.006 588.1C163.956 590.157 161.21 595.165 160.27 602.073C159.336 608.94 160.226 617.475 163.224 626.211L163.392 626.693C166.941 636.784 172.331 644.864 178.385 649.417L325.939 760.37L325.95 760.379C331.071 764.352 335.84 765.998 339.997 764.567L340.005 764.564C340.973 764.241 341.865 763.768 342.686 763.145C342.687 763.144 342.689 763.142 342.691 763.141C346.173 760.532 348.447 755.422 349.109 748.756C349.768 742.123 348.807 734.11 345.999 725.932L345.832 725.451C342.315 715.392 338.198 708.268 330.919 702.779V702.779L182.463 591.114C182.459 591.111 182.455 591.107 182.45 591.104Z" fill="black"/>
<path d="M174.789 598.88C176.084 598.419 177.454 598.327 178.831 598.556C178.86 598.558 178.89 598.561 178.919 598.565C181.012 598.9 183.102 599.952 185.072 601.47H185.072L283.405 675.44C288.493 679.267 291.351 684.241 293.717 690.892L293.945 691.541L293.945 691.542C295.802 696.934 296.497 702.269 296.133 706.814C295.771 711.33 294.348 715.202 291.82 717.493C291.819 717.494 291.817 717.496 291.815 717.498C290.994 718.23 290.035 718.825 288.991 719.174L288.99 719.173C285.467 720.37 281.732 718.897 278.205 716.149L180.439 642.639L180.232 642.482C175.904 639.149 172.225 633.43 169.843 626.509L169.842 626.508C167.693 620.238 167.097 614.044 167.915 609.078C168.725 604.156 170.985 600.188 174.789 598.88V598.88ZM178.576 600.461C177.464 600.266 176.401 600.343 175.423 600.693C175.419 600.695 175.415 600.696 175.411 600.697C172.592 601.667 170.568 604.754 169.805 609.391C169.049 613.985 169.588 619.854 171.654 625.882C173.959 632.579 177.462 637.925 181.398 640.957L181.585 641.099L181.587 641.101L279.354 714.611L279.368 714.621C282.732 717.246 285.778 718.237 288.38 717.352L288.385 717.351C289.147 717.096 289.885 716.648 290.542 716.062C292.554 714.234 293.88 710.93 294.223 706.66C294.563 702.413 293.917 697.345 292.134 692.17C289.783 685.368 287.076 680.603 282.255 676.978L183.914 603C183.911 602.998 183.908 602.996 183.905 602.993C182.117 601.616 180.338 600.75 178.67 600.472C178.639 600.469 178.607 600.466 178.576 600.461Z" fill="black"/>
<path d="M178.101 598.826C178.494 598.472 179.1 598.504 179.453 598.899C179.807 599.294 179.774 599.901 179.381 600.255C177.352 602.083 176.018 605.388 175.672 609.665C175.328 613.914 175.974 618.99 177.757 624.179C180.099 630.983 183.677 636.392 187.689 639.397L187.691 639.398L285.458 712.909L285.473 712.921C287.508 714.516 289.473 715.513 291.271 715.847C291.783 715.867 292.191 716.289 292.191 716.807C292.191 717.337 291.762 717.767 291.233 717.767V716.494L291.233 716.494L291.233 716.807L291.233 717.767H291.178C291.123 717.767 291.067 717.763 291.013 717.753C288.785 717.36 286.512 716.171 284.309 714.446L186.541 640.935V640.935C182.124 637.626 178.367 631.837 175.946 624.806L175.946 624.806C174.089 619.4 173.394 614.058 173.762 609.51C174.128 604.99 175.558 601.116 178.101 598.826Z" fill="black"/>
<path d="M323.267 751.116C322.884 751.116 322.555 750.897 322.391 750.54C322.391 750.54 317.218 738.901 316.123 736.431C310.129 735.113 305.805 727.345 304.6 720.153C303.451 713.428 305.011 708.212 308.733 706.236C309.308 705.934 309.91 705.604 310.512 705.248C312.812 703.985 313.852 703.436 314.454 703.326C315.029 703.161 315.603 703.079 316.178 703.079C319.955 703.079 323.814 706.51 326.551 712.247C329.425 718.341 330.684 726.549 327.674 730.913L334.325 745.626C334.462 745.956 334.434 746.313 334.215 746.587L332.026 749.552C331.971 749.991 331.615 750.348 331.15 750.375L323.349 751.061C323.322 751.061 323.294 751.061 323.267 751.061V751.116ZM311.689 713.812C309.828 714.608 309.664 717.655 310.157 720.235C311.032 724.792 313.797 728.827 316.096 728.827C318.395 728.827 316.561 728.8 316.808 728.717C317.793 728.388 318.45 727.043 318.587 725.149C318.696 723.612 318.422 721.772 317.82 720.016C316.698 716.914 314.563 713.757 312.264 713.757C309.965 713.757 311.881 713.757 311.689 713.812Z" fill="white"/>
<path d="M316.178 704.04C324.772 704.04 331.998 724.106 326.579 730.776C326.579 730.831 326.606 730.941 326.606 730.941L333.421 746.038L330.903 749.442H331.068L323.267 750.128C323.267 750.128 316.808 735.635 316.78 735.552C306.681 733.988 300.823 711.506 309.171 707.032C311.251 705.906 314.043 704.259 314.645 704.232C315.165 704.095 315.685 704.012 316.178 704.012M316.096 729.788C316.424 729.788 316.78 729.733 317.109 729.623C318.532 729.129 319.38 727.455 319.545 725.231C319.654 723.612 319.408 721.69 318.724 719.741C317.547 716.475 315.165 712.824 312.264 712.824C311.99 712.824 311.689 712.851 311.388 712.934C305.914 715.102 310.595 729.815 316.096 729.815M316.178 702.118C315.521 702.118 314.892 702.201 314.262 702.365C313.551 702.475 312.593 702.969 310.047 704.397C309.445 704.726 308.815 705.083 308.268 705.357C304.162 707.553 302.411 713.153 303.642 720.29C304.327 724.27 305.832 728.141 307.885 731.215C310.047 734.399 312.62 736.458 315.412 737.227L321.488 750.897C321.789 751.583 322.473 752.022 323.24 752.022C324.006 752.022 323.349 752.022 323.404 752.022L331.204 751.336C332.026 751.254 332.655 750.705 332.874 749.963L334.927 747.164C335.337 746.615 335.42 745.873 335.118 745.215L328.686 730.968C329.945 728.854 330.493 725.945 330.247 722.486C330 719 328.96 715.212 327.345 711.808C324.417 705.632 320.311 702.091 316.123 702.091L316.178 702.118ZM311.99 714.718C312.073 714.718 312.182 714.718 312.264 714.718C313.797 714.718 315.768 717.078 316.917 720.345C317.465 721.965 317.738 723.666 317.629 725.066C317.519 726.713 316.972 727.619 316.479 727.784C316.342 727.839 316.205 727.866 316.069 727.866C314.426 727.866 311.908 724.462 311.06 720.07C310.54 717.38 310.923 715.267 311.963 714.745L311.99 714.718Z" fill="black"/>
<path d="M323.267 751.117C322.884 751.117 322.555 750.897 322.391 750.54L316.123 736.431C313.742 735.965 311.416 734.4 309.39 731.792C307.502 729.377 305.914 726.137 304.956 722.706C302.986 715.789 303.807 709.668 307.036 707.142C307.036 707.142 307.064 707.115 307.091 707.115C308.186 706.374 309.363 705.989 310.622 705.989C314.974 705.989 319.545 710.82 322.282 718.342C322.282 718.342 322.282 718.342 322.282 718.369C324.334 724.683 324.28 729.788 322.117 733.549L329.124 749.36C329.261 749.635 329.234 749.964 329.07 750.238C328.905 750.513 328.632 750.678 328.331 750.705L323.349 751.117C323.349 751.117 323.294 751.117 323.267 751.117ZM311.689 713.812C309.828 714.609 309.664 717.655 310.157 720.236C311.032 724.82 313.797 728.828 316.096 728.828C316.342 728.828 316.561 728.8 316.808 728.718C317.793 728.388 318.45 727.043 318.587 725.149C318.696 723.612 318.422 721.773 317.82 720.016C316.698 716.914 314.563 713.758 312.264 713.758C309.965 713.758 311.881 713.758 311.689 713.812Z" fill="white"/>
<path d="M310.622 706.922C314.727 706.922 318.942 712.001 321.378 718.644C322.966 723.502 323.732 729.239 321.05 733.466L321.16 733.741L328.248 749.717L323.267 750.129L316.78 735.553C307.255 734.455 300.933 713.154 307.611 707.856C308.569 707.197 309.582 706.895 310.594 706.895M316.096 729.788C316.424 729.788 316.78 729.733 317.109 729.624C318.532 729.129 319.38 727.455 319.545 725.232C319.654 723.612 319.408 721.69 318.724 719.742C317.547 716.475 315.165 712.824 312.264 712.824C309.363 712.824 311.689 712.852 311.388 712.934C305.914 715.103 310.595 729.816 316.096 729.816M310.622 705.001C309.199 705.001 307.83 705.44 306.571 706.291C306.544 706.291 306.489 706.346 306.462 706.373C304.546 707.883 303.369 710.436 303.04 713.73C302.767 716.502 303.122 719.714 304.053 722.981C305.066 726.549 306.708 729.898 308.651 732.396C310.677 735.004 313.003 736.651 315.466 737.282L321.543 750.925C321.844 751.611 322.528 752.05 323.294 752.05C324.061 752.05 323.404 752.05 323.459 752.05L328.44 751.638C329.07 751.583 329.617 751.227 329.918 750.705C330.246 750.156 330.274 749.525 330.028 748.948L323.212 733.576C325.265 729.624 325.265 724.408 323.212 718.04V717.985C321.899 714.416 320.147 711.314 318.094 709.009C315.768 706.401 313.195 705.001 310.649 705.001H310.622ZM311.99 714.718C312.073 714.718 312.182 714.718 312.264 714.718C313.797 714.718 315.768 717.079 316.917 720.345C317.464 721.965 317.738 723.667 317.629 725.067C317.519 726.714 316.972 727.62 316.479 727.784C316.342 727.839 316.205 727.867 316.069 727.867C314.426 727.867 311.908 724.463 311.06 720.071C310.54 717.381 310.923 715.267 311.963 714.746L311.99 714.718Z" fill="black"/>
<path d="M327.967 730.424C328.418 730.147 329.008 730.289 329.284 730.741C329.561 731.194 329.419 731.785 328.968 732.062L323.74 735.274C323.289 735.551 322.699 735.409 322.423 734.957C322.146 734.504 322.288 733.913 322.739 733.636L327.967 730.424Z" fill="black"/>
<path d="M309.999 892.801L359.531 855.478C361.263 854.136 362.387 852.611 362.812 849.562C363.846 842.548 360.503 832.547 355.367 827.241C352.025 823.765 348.713 823.155 346.555 825.076L296.567 862.735" fill="white"/>
<path d="M345.888 824.243C347.239 823.062 348.948 822.68 350.753 823.093C352.535 823.501 354.371 824.668 356.13 826.497C358.836 829.293 361.027 833.272 362.412 837.422C363.795 841.565 364.411 845.991 363.865 849.709L363.866 849.709C363.638 851.34 363.215 852.626 362.576 853.705C361.936 854.785 361.116 855.598 360.181 856.322C360.177 856.325 360.173 856.328 360.169 856.331L310.637 893.654C310.168 894.008 309.501 893.913 309.148 893.442C308.795 892.97 308.89 892.301 309.36 891.947L358.885 854.629C359.68 854.013 360.286 853.393 360.747 852.615C361.21 851.833 361.561 850.832 361.759 849.413L361.76 849.405C362.245 846.112 361.708 842.033 360.395 838.1C359.083 834.169 357.034 830.494 354.605 827.984L354.602 827.982C353.019 826.336 351.529 825.46 350.28 825.175C349.071 824.898 348.062 825.161 347.261 825.874C347.239 825.893 347.217 825.912 347.194 825.929L297.206 863.588C296.736 863.942 296.069 863.847 295.717 863.375C295.364 862.904 295.459 862.235 295.929 861.881L345.888 824.243Z" fill="black"/>
<path d="M361.961 843.586C362.431 843.232 363.098 843.327 363.45 843.799C363.803 844.27 363.708 844.939 363.238 845.293L313.22 882.952C312.75 883.306 312.083 883.21 311.731 882.739C311.378 882.267 311.473 881.598 311.943 881.245L361.961 843.586Z" fill="black"/>
<path d="M301.946 961.105V976.078C301.946 987.817 295.99 999.588 284.078 1008.55C260.254 1026.48 221.662 1026.48 197.868 1008.55C185.956 999.588 180 987.848 180 976.078V961.105" fill="white"/>
<path d="M178.936 976.077V961.105C178.936 960.516 179.413 960.038 180 960.038C180.587 960.038 181.064 960.516 181.064 961.105V976.077C181.064 987.284 186.642 998.546 197.963 1007.28L198.506 1007.7L198.507 1007.7C210.189 1016.5 225.55 1020.93 240.961 1020.93C256.373 1020.93 271.742 1016.5 283.44 1007.7C295.126 998.904 300.882 987.432 300.882 976.077V961.105C300.882 960.516 301.358 960.038 301.946 960.038C302.533 960.038 303.009 960.516 303.009 961.105V976.077C303.009 988.202 296.854 1000.27 284.716 1009.41C272.59 1018.53 256.751 1023.07 240.961 1023.07C225.172 1023.07 209.341 1018.53 197.23 1009.41V1009.41C185.092 1000.27 178.936 988.233 178.936 976.077Z" fill="black"/>
<path d="M284.078 929.88C260.254 911.95 221.662 911.95 197.868 929.88C186.594 938.357 180.669 949.365 180.061 960.495C179.392 972.875 185.318 985.408 197.868 994.83C221.692 1012.76 260.284 1012.76 284.078 994.83C307.902 976.9 307.902 947.81 284.078 929.88Z" fill="#0FADD0"/>
<path d="M240.962 915.366C256.751 915.366 272.59 919.901 284.716 929.027C296.854 938.162 303.01 950.216 303.01 962.356C303.01 974.496 296.854 986.55 284.716 995.685L284.716 995.685C272.604 1004.81 256.773 1009.35 240.984 1009.35C225.195 1009.35 209.356 1004.81 197.23 995.685V995.685C184.439 986.082 178.308 973.226 178.999 960.438V960.438C179.616 949.129 185.552 938.018 196.696 929.434L197.23 929.027C209.342 919.901 225.173 915.366 240.962 915.366ZM240.962 917.501C225.551 917.501 210.189 921.931 198.507 930.734L198.506 930.735C187.447 939.051 181.711 949.783 181.123 960.554C180.482 972.433 186.107 984.545 198.218 993.76L198.505 993.977L198.506 993.977C210.204 1002.78 225.573 1007.21 240.984 1007.21C256.395 1007.21 271.757 1002.78 283.439 993.978L283.44 993.977C295.126 985.182 300.882 973.726 300.882 962.356C300.882 950.986 295.126 939.53 283.44 930.735C271.742 921.931 256.373 917.501 240.962 917.501Z" fill="black"/>
<path d="M210.418 943.541V962.355C210.418 968.24 213.396 974.126 219.352 978.639C231.294 987.634 250.621 987.634 262.563 978.639C268.519 974.156 271.497 968.271 271.497 962.355V943.541" fill="white"/>
<path d="M209.355 962.356V943.542C209.355 942.952 209.831 942.475 210.418 942.475C211.006 942.475 211.482 942.952 211.482 943.542V962.356C211.482 967.856 214.26 973.443 219.991 977.786C225.747 982.122 233.33 984.319 240.958 984.319C248.585 984.319 256.168 982.122 261.925 977.786L261.925 977.785C267.654 973.474 270.434 967.888 270.434 962.356V943.542C270.434 942.952 270.91 942.475 271.497 942.475C272.085 942.475 272.561 942.952 272.561 943.542V962.356C272.561 968.655 269.385 974.84 263.202 979.493C257.016 984.152 248.964 986.453 240.958 986.453C232.951 986.453 224.899 984.152 218.714 979.493L218.711 979.491C212.531 974.809 209.355 968.626 209.355 962.356Z" fill="black"/>
<path d="M305.349 864.9C300.214 859.594 295.2 860.936 294.197 867.95C293.164 874.963 296.507 884.965 301.642 890.27C306.778 895.576 311.792 894.235 312.794 887.221C313.828 880.208 310.485 870.206 305.349 864.9Z" fill="white"/>
<path d="M297.946 860.775C300.524 860.075 303.442 861.397 306.112 864.156C308.818 866.952 311.009 870.931 312.394 875.081C313.778 879.228 314.395 883.657 313.847 887.377C313.319 891.06 311.669 893.683 309.046 894.395C306.468 895.096 303.55 893.773 300.879 891.014C298.173 888.218 295.983 884.239 294.598 880.089C293.214 875.942 292.597 871.513 293.145 867.793C293.673 864.11 295.323 861.487 297.946 860.775ZM304.587 865.644C302.122 863.097 299.965 862.438 298.501 862.835C297.084 863.22 295.726 864.773 295.25 868.101C295.25 868.102 295.249 868.104 295.249 868.105C294.764 871.399 295.302 875.478 296.615 879.411C297.927 883.342 299.976 887.017 302.405 889.527C304.87 892.073 307.027 892.733 308.49 892.335C309.908 891.95 311.266 890.397 311.742 887.069L311.742 887.065C312.227 883.772 311.689 879.693 310.377 875.759C309.065 871.828 307.016 868.154 304.587 865.644Z" fill="black"/>
<path d="M271.528 913.109C271.528 913.109 307.112 886.306 307.233 886.214C307.993 885.543 308.54 884.629 308.753 883.104C309.33 879.14 307.446 873.529 304.559 870.51C302.888 868.772 301.247 868.315 300.032 868.986L271.771 890.605" fill="white"/>
<path d="M271.528 913.109L272.166 913.963C271.697 914.316 271.03 914.221 270.677 913.75C270.325 913.278 270.42 912.609 270.889 912.255L271.528 913.109ZM299.519 868.05C301.32 867.056 303.403 867.857 305.156 869.598L305.325 869.769L305.327 869.771C306.905 871.421 308.167 873.728 308.963 876.113C309.758 878.493 310.124 881.058 309.806 883.252L309.806 883.252C309.562 885.001 308.907 886.158 307.936 887.015C307.915 887.034 307.894 887.051 307.871 887.068C307.801 887.121 298.88 893.84 289.974 900.549C285.518 903.905 281.066 907.259 277.728 909.773C276.059 911.03 274.669 912.077 273.696 912.81C273.209 913.177 272.827 913.465 272.566 913.661C272.436 913.76 272.336 913.835 272.269 913.885C272.235 913.911 272.209 913.93 272.192 913.943C272.183 913.949 272.177 913.954 272.173 913.957C272.171 913.959 272.169 913.961 272.168 913.961C272.167 913.962 272.167 913.962 272.167 913.962C272.166 913.962 272.159 913.953 271.528 913.109C270.889 912.255 270.89 912.255 270.89 912.255L270.896 912.251C270.9 912.247 270.907 912.242 270.915 912.236C270.932 912.223 270.958 912.204 270.991 912.179C271.059 912.128 271.159 912.052 271.289 911.954C271.55 911.758 271.932 911.47 272.419 911.104C273.392 910.37 274.782 909.323 276.451 908.066C279.789 905.552 284.241 902.198 288.697 898.842C297.288 892.371 305.893 885.889 306.555 885.39C307.092 884.908 307.521 884.237 307.7 882.956L307.7 882.949C307.958 881.18 307.671 878.96 306.947 876.791C306.224 874.626 305.101 872.618 303.792 871.249V871.249C302.289 869.687 301.191 869.609 300.603 869.891L272.416 891.454C271.949 891.811 271.281 891.721 270.925 891.252C270.569 890.783 270.659 890.114 271.126 889.756L299.387 868.137L299.451 868.091C299.473 868.077 299.496 868.063 299.519 868.05Z" fill="black"/>
<path d="M307.878 877.946C308.35 877.596 309.016 877.696 309.365 878.17C309.714 878.645 309.614 879.313 309.142 879.663L272.373 906.924C271.9 907.274 271.234 907.174 270.885 906.7C270.536 906.226 270.636 905.557 271.108 905.207L307.878 877.946Z" fill="black"/>
<path d="M262.563 927.258C250.621 918.263 231.294 918.263 219.352 927.258C207.41 936.254 207.41 950.799 219.352 959.794C231.294 968.79 250.621 968.79 262.563 959.794C274.506 950.799 274.506 936.254 262.563 927.258Z" fill="white"/>
<path d="M240.958 919.444C248.965 919.444 257.017 921.746 263.202 926.405C269.398 931.072 272.584 937.255 272.584 943.526C272.584 949.797 269.398 955.98 263.202 960.648C257.017 965.307 248.965 967.608 240.958 967.608C232.951 967.608 224.899 965.307 218.714 960.648C212.517 955.98 209.332 949.797 209.332 943.526C209.332 937.255 212.517 931.072 218.714 926.405C224.899 921.746 232.951 919.444 240.958 919.444ZM240.958 921.579C233.33 921.579 225.747 923.775 219.991 928.112C214.245 932.44 211.459 938.027 211.459 943.526C211.459 949.026 214.245 954.612 219.991 958.941C225.747 963.277 233.33 965.474 240.958 965.474C248.585 965.474 256.168 963.277 261.925 958.941C267.671 954.612 270.457 949.026 270.457 943.526C270.457 938.027 267.671 932.44 261.925 928.112C256.168 923.775 248.585 921.579 240.958 921.579Z" fill="black"/>
<path d="M271.528 882.586V930.582C271.497 936.437 268.519 942.292 262.594 946.744C250.651 955.739 231.325 955.739 219.382 946.744C213.426 942.261 210.448 936.376 210.448 930.46V882.556" fill="white"/>
<path d="M270.464 882.586C270.464 881.997 270.94 881.519 271.528 881.519C272.115 881.519 272.591 881.997 272.591 882.586V930.588C272.559 936.824 269.383 942.975 263.232 947.597L263.232 947.597C257.047 952.256 248.995 954.557 240.988 954.557C232.982 954.557 224.93 952.256 218.744 947.597C212.561 942.943 209.385 936.759 209.385 930.46V882.556C209.385 881.966 209.861 881.488 210.449 881.488C211.036 881.488 211.512 881.966 211.512 882.556V930.46C211.512 935.906 214.206 941.404 219.754 945.687L220.021 945.89L220.021 945.89C225.778 950.226 233.36 952.423 240.988 952.423C248.616 952.423 256.198 950.226 261.955 945.89L261.956 945.889C267.653 941.609 270.434 936.053 270.464 930.582V882.586Z" fill="black"/>
<path d="M219.383 900.424C231.325 909.42 250.651 909.42 262.594 900.424C274.536 891.429 274.536 876.884 262.594 867.888C250.651 858.893 231.325 858.893 219.383 867.888C207.44 876.884 207.44 891.429 219.383 900.424Z" fill="white"/>
<path d="M240.988 860.074C248.995 860.074 257.047 862.376 263.232 867.035C269.429 871.702 272.614 877.885 272.614 884.156C272.614 890.427 269.429 896.61 263.232 901.278C257.047 905.937 248.995 908.238 240.988 908.238C232.981 908.238 224.929 905.937 218.744 901.278C212.548 896.61 209.362 890.427 209.362 884.156C209.362 877.885 212.548 871.702 218.744 867.035C224.929 862.375 232.981 860.074 240.988 860.074ZM240.988 862.209C233.361 862.209 225.778 864.405 220.021 868.742C214.275 873.07 211.489 878.657 211.489 884.156C211.489 889.655 214.275 895.242 220.021 899.57C225.778 903.907 233.361 906.104 240.988 906.104C248.616 906.104 256.199 903.907 261.955 899.57C267.701 895.242 270.487 889.655 270.487 884.156C270.487 878.657 267.701 873.07 261.955 868.742C256.199 864.405 248.616 862.209 240.988 862.209Z" fill="black"/>
<path d="M210.418 849.349V868.285C210.236 874.353 213.214 880.482 219.352 885.117C231.294 894.112 250.621 894.112 262.563 885.117C274.506 876.122 271.497 874.749 271.497 868.834V849.349" fill="white"/>
<path d="M209.355 849.349C209.355 848.759 209.831 848.281 210.418 848.281C211.006 848.281 211.482 848.759 211.482 849.349V868.285C211.482 868.295 211.482 868.306 211.481 868.317C211.311 873.988 214.087 879.805 219.991 884.263L220.262 884.465C225.985 888.668 233.449 890.796 240.958 890.796C248.586 890.796 256.168 888.6 261.925 884.263C267.911 879.754 269.877 877.337 270.501 875.48C270.802 874.581 270.812 873.746 270.721 872.701C270.633 871.686 270.434 870.373 270.434 868.834V849.349C270.434 848.759 270.91 848.281 271.498 848.281C272.085 848.281 272.561 848.759 272.561 849.349V868.834C272.561 870.252 272.738 871.329 272.84 872.516C272.941 873.673 272.956 874.852 272.517 876.161C271.659 878.717 269.158 881.484 263.202 885.971C257.017 890.63 248.965 892.931 240.958 892.931C232.951 892.931 224.899 890.63 218.714 885.971L218.713 885.97C212.345 881.162 209.165 874.726 209.355 868.266V849.349Z" fill="black"/>
<path d="M219.383 866.272C231.325 875.267 250.651 875.267 262.594 866.272C274.536 857.276 274.536 842.731 262.594 833.736C250.651 824.74 231.325 824.74 219.383 833.736C207.44 842.731 207.44 857.276 219.383 866.272Z" fill="#0FADD0"/>
<path d="M240.988 825.922C248.995 825.922 257.047 828.223 263.232 832.882C269.429 837.55 272.614 843.733 272.614 850.004C272.614 856.274 269.429 862.458 263.232 867.125C257.047 871.784 248.995 874.086 240.988 874.086C232.981 874.086 224.929 871.784 218.744 867.125C212.548 862.458 209.362 856.274 209.362 850.004C209.362 843.733 212.548 837.55 218.744 832.882C224.929 828.223 232.981 825.922 240.988 825.922ZM240.988 828.056C233.361 828.056 225.778 830.253 220.021 834.589C214.275 838.917 211.489 844.504 211.489 850.004C211.489 855.503 214.275 861.09 220.021 865.418C225.778 869.754 233.361 871.951 240.988 871.951C248.616 871.951 256.199 869.754 261.955 865.418C267.701 861.09 270.487 855.503 270.487 850.004C270.487 844.504 267.701 838.917 261.955 834.589C256.199 830.253 248.616 828.056 240.988 828.056Z" fill="black"/>
<path d="M253.964 950.921V904.571C253.964 903.982 254.44 903.504 255.027 903.504C255.615 903.504 256.091 903.982 256.091 904.571V950.921C256.091 951.51 255.615 951.988 255.027 951.988C254.44 951.988 253.964 951.51 253.964 950.921Z" fill="black"/>
<path d="M253.964 889.234V870.724C253.964 870.135 254.44 869.657 255.027 869.657C255.615 869.657 256.091 870.135 256.091 870.724V889.234C256.091 889.823 255.615 890.301 255.027 890.301C254.44 890.301 253.964 889.823 253.964 889.234Z" fill="black"/>
<path d="M253.964 981.871V964.551C253.964 963.961 254.44 963.483 255.027 963.483C255.615 963.483 256.091 963.961 256.091 964.551V981.871C256.091 982.46 255.615 982.938 255.027 982.938C254.44 982.938 253.964 982.46 253.964 981.871Z" fill="black"/>
<path d="M507.591 866.623C510.564 860.391 515.008 854.88 520.694 850.61L576.656 808.657C579.86 806.262 583.871 806.579 586.642 808.657C588.605 810.128 589.961 812.465 589.961 815.322V880.935C589.961 894.525 583.554 907.336 572.673 915.501L516.711 957.454C513.479 959.878 509.438 959.503 506.667 957.425L506.523 957.31C504.647 955.838 503.406 953.559 503.406 950.818V885.205C503.406 878.684 504.878 872.365 507.591 866.652V866.623ZM566.237 889.187C572.846 869.97 569.845 851.504 559.512 847.955C549.18 844.406 535.471 857.102 528.833 876.318C522.224 895.535 525.225 914.001 535.557 917.55C545.89 921.099 559.599 908.403 566.237 889.187Z" fill="#0FADD0"/>
<path d="M586.7 808.599V808.657C583.871 806.579 579.888 806.262 576.685 808.657L520.723 850.61C515.037 854.851 510.592 860.391 507.62 866.624L473.073 840.713H473.015C475.988 834.452 480.432 828.912 486.118 824.671L542.051 782.689C545.313 780.236 549.411 780.64 552.182 782.804V782.746C552.21 782.746 586.7 808.599 586.7 808.599Z" fill="white"/>
<path d="M559.512 847.955C569.845 851.504 572.846 869.97 566.237 889.187C559.628 908.403 545.89 921.099 535.557 917.55C525.225 914.001 522.224 895.535 528.833 876.318C535.442 857.102 549.18 844.406 559.512 847.955Z" fill="white"/>
<path d="M473.044 840.714L507.591 866.624C504.878 872.337 503.406 878.685 503.406 885.177V950.79C503.406 953.531 504.676 955.81 506.523 957.282L484.386 940.662L494.113 933.362L499.452 937.373V934.141L496.277 931.746L473.477 914.665V917.897L476.796 920.378L468.917 926.293C468.83 925.803 468.801 925.312 468.801 924.793V859.18C468.801 852.688 470.273 846.34 472.986 840.627H473.044V840.714Z" fill="white"/>
<path d="M476.796 920.407L478.932 918.791L496.248 931.775L494.113 933.362L484.386 940.662L444.327 970.727L427.01 957.743L468.917 926.322L476.796 920.407Z" fill="white"/>
<path d="M444.327 970.727V982.99L427.01 970.006V957.743L444.327 970.727Z" fill="white"/>
<path d="M542.13 852.858C547.789 847.624 554.183 845.047 559.869 847C565.557 848.954 569.014 854.924 570.254 862.534C571.501 870.191 570.569 879.781 567.221 889.515L567.221 889.517C563.858 899.25 558.691 907.381 552.997 912.647C547.339 917.881 540.945 920.458 535.258 918.505C529.571 916.551 526.114 910.582 524.874 902.972C523.627 895.315 524.558 885.724 527.906 875.99L527.907 875.989C531.269 866.255 536.437 858.125 542.13 852.858ZM559.213 848.911C554.568 847.315 548.94 849.311 543.502 854.341C538.099 859.339 533.093 867.164 529.817 876.647C526.555 886.129 525.684 895.38 526.868 902.647C528.059 909.961 531.27 914.999 535.915 916.595C540.56 918.191 546.187 916.195 551.625 911.164C557.029 906.166 562.035 898.341 565.31 888.859C568.572 879.376 569.444 870.126 568.26 862.858C567.068 855.544 563.858 850.506 559.213 848.911Z" fill="black"/>
<path d="M588.98 880.907V815.294C588.98 812.778 587.791 810.731 586.065 809.437C583.623 807.606 580.105 807.333 577.29 809.438L521.329 851.389L521.327 851.391C515.778 855.531 511.437 860.939 508.532 867.028L508.532 867.028C505.883 872.608 504.445 878.808 504.445 885.148V950.761C504.445 953.173 505.557 955.17 507.181 956.463C507.238 956.508 507.288 956.558 507.332 956.612C509.774 958.452 513.303 958.741 516.134 956.618L572.095 914.665C582.722 906.69 588.98 894.179 588.98 880.907ZM591 880.907C591 894.815 584.443 907.925 573.308 916.281L573.308 916.281L517.346 958.234C513.721 960.952 509.183 960.557 506.085 958.201C506.02 958.152 505.962 958.096 505.913 958.035C503.848 956.386 502.425 953.826 502.425 950.761V885.148C502.425 878.504 503.931 872.008 506.707 866.162L506.708 866.161C509.749 859.786 514.297 854.115 520.119 849.772L576.08 807.82C579.672 805.135 584.177 805.497 587.277 807.821C589.475 809.469 591 812.097 591 815.294V880.907Z" fill="black"/>
<path d="M467.791 924.821V859.208C467.791 852.535 469.297 846.068 472.074 840.223L472.074 840.221C475.116 833.844 479.664 828.204 485.482 823.835L485.483 823.834L541.445 781.881C545.108 779.128 549.71 779.593 552.803 782.009C553.243 782.352 553.321 782.987 552.978 783.426C552.634 783.866 551.999 783.943 551.56 783.6C549.112 781.688 545.518 781.346 542.659 783.496L542.657 783.497L486.695 825.45L486.695 825.45C481.143 829.62 476.802 835.002 473.899 841.088L473.899 841.089C471.249 846.669 469.811 852.84 469.811 859.208V924.821C469.811 925.304 469.838 925.732 469.911 926.146C470.008 926.696 469.642 927.219 469.092 927.316C468.543 927.413 468.019 927.047 467.922 926.497C467.822 925.931 467.791 925.378 467.791 924.821Z" fill="black"/>
<path d="M472.236 840.107C472.571 839.661 473.204 839.571 473.65 839.905L508.076 865.724C508.554 865.929 508.803 866.47 508.636 866.972C508.459 867.501 507.887 867.787 507.358 867.611L507.272 867.582C507.169 867.547 507.072 867.496 506.985 867.431L472.438 841.521C471.991 841.186 471.901 840.553 472.236 840.107Z" fill="black"/>
<path d="M483.579 940.056C483.914 939.61 484.547 939.52 484.993 939.855L507.104 956.455L507.256 956.557C507.721 956.866 507.846 957.493 507.537 957.957C507.227 958.421 506.6 958.547 506.136 958.238L505.963 958.122C505.947 958.112 505.932 958.101 505.917 958.089L483.78 941.47C483.334 941.135 483.244 940.502 483.579 940.056Z" fill="black"/>
<path d="M473.025 913.762C473.367 913.591 473.776 913.628 474.083 913.857L496.883 930.938L496.886 930.94L500.06 933.335C500.313 933.526 500.462 933.824 500.462 934.141V937.373C500.462 937.755 500.246 938.105 499.903 938.276C499.561 938.447 499.151 938.41 498.845 938.18L493.506 934.17C493.06 933.835 492.97 933.201 493.305 932.755C493.64 932.31 494.273 932.22 494.719 932.555L498.442 935.351V934.644L495.669 932.553V932.552L474.487 916.684V917.394L477.405 919.601C477.85 919.938 477.938 920.571 477.601 921.016C477.265 921.461 476.631 921.549 476.187 921.212L472.867 918.702C472.615 918.511 472.467 918.213 472.467 917.897V914.665C472.467 914.283 472.683 913.933 473.025 913.762Z" fill="black"/>
<path d="M551.402 782.141C551.737 781.695 552.37 781.605 552.816 781.939L587.306 807.792L587.331 807.811L587.475 807.927C587.911 808.275 587.981 808.911 587.633 809.346C587.284 809.782 586.649 809.852 586.213 809.504L586.081 809.398L551.604 783.555C551.158 783.22 551.068 782.588 551.402 782.141Z" fill="black"/>
<path d="M478.391 917.938C478.743 917.715 479.2 917.73 479.538 917.983L496.854 930.967C497.109 931.159 497.259 931.459 497.259 931.778C497.258 932.096 497.107 932.396 496.851 932.586L494.715 934.173L494.715 934.173L445.337 971.232V982.99C445.337 983.373 445.121 983.723 444.779 983.894C444.437 984.065 444.027 984.028 443.721 983.798L426.404 970.814C426.15 970.623 426 970.324 426 970.006V957.743C426 957.723 426.001 957.702 426.002 957.682C426.003 957.675 426.003 957.669 426.004 957.662C426.005 957.646 426.007 957.629 426.009 957.613C426.01 957.607 426.01 957.601 426.011 957.595C426.014 957.576 426.018 957.557 426.021 957.538C426.022 957.534 426.023 957.53 426.024 957.526C426.033 957.484 426.045 957.443 426.059 957.403C426.061 957.4 426.062 957.396 426.063 957.392C426.117 957.247 426.205 957.112 426.325 957.002C426.329 956.997 426.334 956.993 426.339 956.989C426.349 956.98 426.36 956.971 426.37 956.962C426.378 956.956 426.386 956.949 426.394 956.943C426.398 956.941 426.401 956.938 426.404 956.936L476.189 919.599L478.322 917.986L478.391 917.938ZM428.02 969.501L443.317 980.97V971.232L428.02 959.763V969.501ZM477.405 921.212L477.402 921.214L469.523 927.129L469.523 927.13L428.693 957.743L444.326 969.465L493.506 932.555L493.51 932.552L494.56 931.771L478.934 920.055L477.405 921.212Z" fill="black"/>
<path d="M556.831 887.916C557.279 887.583 557.912 887.675 558.245 888.123C558.578 888.57 558.485 889.203 558.038 889.536L541.673 901.712C541.226 902.045 540.593 901.952 540.26 901.505C539.927 901.058 540.019 900.425 540.467 900.092L556.831 887.916Z" fill="black"/>
<path d="M552.787 866.48C553.232 866.145 553.865 866.235 554.201 866.68C554.536 867.126 554.447 867.759 554.001 868.094L541.071 877.818C540.625 878.153 539.992 878.063 539.657 877.618C539.321 877.172 539.411 876.539 539.857 876.204L552.787 866.48Z" fill="black"/>
<path d="M560.871 872.307C561.318 871.973 561.951 872.066 562.285 872.513C562.618 872.96 562.526 873.593 562.078 873.926L534.545 894.441C534.098 894.774 533.464 894.682 533.131 894.235C532.798 893.788 532.89 893.155 533.337 892.822L560.871 872.307Z" fill="black"/>
<path d="M442.768 956.792C443.103 956.346 443.736 956.255 444.182 956.59L452.841 963.082C453.287 963.416 453.378 964.049 453.043 964.495C452.708 964.942 452.075 965.032 451.629 964.697L442.971 958.205C442.524 957.871 442.434 957.238 442.768 956.792Z" fill="black"/>
<path d="M451.427 950.3C451.762 949.853 452.395 949.763 452.841 950.097L461.499 956.59C461.946 956.924 462.036 957.557 461.701 958.003C461.367 958.449 460.734 958.54 460.287 958.205L451.629 951.713C451.183 951.379 451.092 950.746 451.427 950.3Z" fill="black"/>
<path d="M460.085 943.807C460.42 943.361 461.053 943.271 461.499 943.605L470.158 950.097C470.604 950.432 470.694 951.065 470.36 951.511C470.025 951.957 469.392 952.048 468.946 951.713L460.287 945.221C459.841 944.886 459.751 944.254 460.085 943.807Z" fill="black"/>
<path d="M468.744 937.314C469.08 936.868 469.713 936.779 470.159 937.114L478.789 943.606C479.234 943.941 479.324 944.575 478.988 945.02C478.653 945.466 478.02 945.555 477.574 945.22L468.944 938.728C468.498 938.393 468.409 937.76 468.744 937.314Z" fill="black"/>
<path d="M477.373 930.823C477.708 930.377 478.341 930.286 478.787 930.621L487.446 937.113C487.892 937.448 487.982 938.08 487.648 938.527C487.313 938.973 486.68 939.063 486.234 938.729L477.575 932.237C477.129 931.902 477.038 931.269 477.373 930.823Z" fill="black"/>
<path d="M89.1429 855.543L87.2988 857.017L1.71448 793.49L1.22046 792.508V660.697L3.55858 660.206L89.1429 855.543ZM17.8799 737.611V780.288L18.3739 781.27L46.1235 801.868L47.9673 800.394L20.2177 737.119L17.8799 737.611Z" fill="white"/>
<path d="M4.67624 659.715L90.2605 855.053L89.9039 856.5L88.0598 857.974L86.5724 858L0.988046 794.473L0.624531 794.041L0.130508 793.058L0 792.508V660.698L0.969871 659.501L3.30799 659.01L4.67624 659.715ZM2.44092 661.691V792.217L2.67392 792.681L87.2711 855.476L87.648 855.174L2.83929 661.607L2.44092 661.691ZM21.3351 736.628L49.0847 799.902L48.7286 801.35L46.8848 802.824L45.3971 802.851L17.6475 782.253L17.284 781.821L16.7899 780.838L16.6594 780.288V737.612L17.629 736.415L19.9668 735.923L21.3351 736.628ZM19.1003 738.605V779.998L19.3334 780.461L46.0955 800.326L46.4721 800.025L19.4987 738.521L19.1003 738.605Z" fill="black"/>
<path d="M100.488 847.229L88.5526 856.033L2.37207 660.016L15.0504 653.667L100.488 847.229Z" fill="#0FADD0"/>
<path d="M102 847.632L88.0497 857.922L0.786621 659.443L15.649 652L102 847.632ZM3.95725 660.588L89.0553 854.144L98.9751 846.826L14.4515 655.333L3.95725 660.588Z" fill="black"/>
<path d="M15.2709 690.322L6.95031 696.366L5.5177 694.386L13.8383 688.342L15.2709 690.322Z" fill="black"/>
<path d="M44.9323 755.054L36.6117 761.098L35.1791 759.118L43.4997 753.074L44.9323 755.054Z" fill="black"/>
<path d="M38.8112 742.312L30.4905 748.356L29.0579 746.376L37.3785 740.332L38.8112 742.312Z" fill="black"/>
<path d="M67.2963 807.339L58.9757 813.383L57.5431 811.403L65.8637 805.359L67.2963 807.339Z" fill="black"/>
<path d="M33.1945 729.315L24.8739 735.359L23.4413 733.379L31.7619 727.335L33.1945 729.315Z" fill="black"/>
<path d="M61.6797 794.342L53.3591 800.386L51.9265 798.406L60.2471 792.362L61.6797 794.342Z" fill="black"/>
<path d="M27.5779 716.317L19.2573 722.361L17.8246 720.381L26.1453 714.337L27.5779 716.317Z" fill="black"/>
<path d="M56.063 781.344L47.7424 787.388L46.3098 785.408L54.6304 779.364L56.063 781.344Z" fill="black"/>
<path d="M50.0602 768.308L41.7396 774.352L40.307 772.372L48.6276 766.328L50.0602 768.308Z" fill="black"/>
<path d="M78.5454 833.335L70.2248 839.379L68.7922 837.4L77.1128 831.355L78.5454 833.335Z" fill="black"/>
<path d="M21.7196 703.319L13.399 709.363L11.9664 707.383L20.287 701.339L21.7196 703.319Z" fill="black"/>
<path d="M73.4175 820.337L65.0969 826.381L63.6642 824.401L71.9849 818.357L73.4175 820.337Z" fill="black"/>
</svg>
