<svg width="3000" height="640" viewBox="0 0 3000 640" fill="none" xmlns="http://www.w3.org/2000/svg">
<path d="M446.7 13.5L211 183.2V454.8L446.7 624.5L682.4 454.8V183.2L446.7 13.5Z" fill="white"/>
<path d="M446.7 44.1001L658.8 196.8L446.7 349.5L234.5 196.8L446.7 44.1001Z" fill="#FF580A"/>
<path d="M446.7 349.5V593.9L498.5 556.6V386.8L605.6 309.6V479.5L658.8 441.2V196.8L446.7 349.5Z" fill="#2D2E2F"/>
<path d="M446.7 221.4L514.1 258.2L488.3 198.7L555.8 162H472.4L446.7 102.6L420.9 162H337.6L405 198.7L379.2 258.2L446.7 221.4Z" fill="white"/>
<path d="M552 441.2L605.6 479.5V309.6L552.7 347.9L552 441.2Z" fill="#8B8F91"/>
<path d="M446.7 349.5V593.9L394.8 556.6V386.9L287.8 309.6V479.3L234.5 441.2V196.8L446.7 349.5Z" fill="#8B8F91"/>
<path d="M340.6 441.7L287.8 479.3V309.6L340.6 347.8V441.7Z" fill="#2D2E2F"/>
<path d="M2788.6 403.6C2788.6 417.2 2786.5 430.2 2782.3 442.7C2778.1 455.2 2772 466.3 2763.9 476C2756.1 485.4 2746.4 493 2734.9 498.7C2723.4 504.4 2710.4 507.3 2695.8 507.3C2681.2 507.3 2672.5 505 2661.8 500.3C2651.1 495.3 2642.8 488.7 2636.8 480.3H2636V595.7H2571.8V306.9H2632.9V330.8H2634.1C2640.1 323 2648.3 316.2 2658.7 310.5C2669.4 304.5 2681.9 301.5 2696.3 301.5C2710.7 301.5 2723.2 304.2 2734.7 309.7C2746.2 315.2 2755.8 322.6 2763.7 332C2771.8 341.4 2777.9 352.3 2782.1 364.9C2786.5 377.2 2788.8 390.1 2788.8 403.6H2788.6ZM2726.4 403.6C2726.4 397.3 2725.4 391.2 2723.3 385.2C2721.5 379.2 2718.6 374 2714.7 369.5C2711.1 364.8 2706.4 361 2700.6 358.2C2694.9 355.3 2688.2 353.9 2680.6 353.9C2673 353.9 2666.8 355.3 2661 358.2C2655.3 361.1 2650.3 364.9 2646.1 369.5C2642.2 374.2 2639 379.5 2636.7 385.5C2634.6 391.5 2633.6 397.6 2633.6 403.9C2633.6 410.2 2634.6 416.3 2636.7 422.3C2639 428.3 2642.2 433.6 2646.1 438.3C2650.3 443 2655.2 446.8 2661 449.6C2666.7 452.5 2673.3 453.9 2680.6 453.9C2687.9 453.9 2694.8 452.5 2700.6 449.6C2706.3 446.7 2711 442.9 2714.7 438.3C2718.6 433.6 2721.5 428.3 2723.3 422.3C2725.4 416 2726.4 409.8 2726.4 403.5V403.6Z" fill="white"/>
<path d="M2548.2 403.6C2548.2 419.5 2545.3 434 2539.6 447C2533.9 459.8 2526 470.7 2516.1 479.9C2506.2 488.8 2494.7 495.7 2481.7 500.6C2468.6 505.6 2454.7 508 2439.8 508C2424.9 508 2411.3 505.5 2397.9 500.6C2384.9 495.6 2373.4 488.7 2363.5 479.9C2353.8 470.8 2346.2 459.8 2340.4 447C2334.7 434 2331.8 419.5 2331.8 403.6C2331.8 387.7 2334.7 373.3 2340.4 360.6C2346.1 347.8 2353.8 337 2363.5 328.1C2373.4 319.2 2384.9 312.4 2397.9 307.8C2411.2 303.1 2425.2 300.8 2439.8 300.8C2454.4 300.8 2468.6 303.1 2481.7 307.8C2494.7 312.5 2506.2 319.3 2516.1 328.1C2526 337 2533.8 347.8 2539.6 360.6C2545.3 373.4 2548.2 387.7 2548.2 403.6ZM2486.3 403.6C2486.3 397.3 2485.3 391.2 2483.2 385.2C2481.1 379.2 2478.1 374 2474.2 369.5C2470.3 364.8 2465.4 361 2459.7 358.2C2454 355.3 2447.3 353.9 2439.7 353.9C2432.1 353.9 2425.5 355.3 2419.7 358.2C2414 361.1 2409.1 364.9 2405.2 369.5C2401.6 373.9 2398.7 379.2 2396.6 385.2C2394.8 391.2 2393.9 397.3 2393.9 403.6C2393.9 409.9 2394.8 416 2396.6 422C2398.7 428 2401.7 433.5 2405.6 438.4C2409.5 443.1 2414.4 446.9 2420.1 449.7C2425.8 452.6 2432.5 454 2440.1 454C2447.7 454 2454.3 452.6 2460.1 449.7C2465.8 446.8 2470.7 443 2474.6 438.4C2478.5 433.4 2481.4 428 2483.2 422C2485.3 416 2486.3 409.9 2486.3 403.6Z" fill="white"/>
<path d="M2243.1 501.8V396.1C2243.1 390.6 2242.7 385.4 2241.9 380.4C2241.1 375.4 2239.6 371.1 2237.2 367.5C2235.1 363.6 2232.2 360.6 2228.6 358.5C2224.9 356.2 2220.3 355 2214.5 355C2203.3 355 2194.7 359 2188.7 367.1C2182.7 374.9 2179.7 384.7 2179.7 396.4V501.7H2115.5V206H2179.7V331.6H2180.5C2184.9 323.8 2192 316.9 2201.6 310.9C2211.3 304.6 2222.9 301.5 2236.4 301.5C2249.9 301.5 2260.8 303.8 2269.7 308.5C2278.8 313.2 2286.1 319.3 2291.6 326.9C2297.3 334.2 2301.4 342.7 2303.7 352.3C2306.3 362 2307.6 371.6 2307.6 381.3V501.8H2243H2243.1Z" fill="white"/>
<path d="M2052.7 364.4C2047.5 359.4 2041.4 355.3 2034.3 351.9C2027.3 348.5 2019.8 346.8 2012 346.8C2004.2 346.8 2000.4 348 1995.2 350.3C1990.2 352.6 1987.8 356.7 1987.8 362.4C1987.8 368.1 1990.5 371.8 1996 374.1C2001.7 376.4 2010.9 379.1 2023.4 381.9C2030.7 383.5 2038 385.7 2045.3 388.6C2052.9 391.5 2059.6 395.3 2065.6 399.9C2071.6 404.6 2076.4 410.3 2080.1 417.1C2083.8 423.9 2085.6 432 2085.6 441.4C2085.6 450.8 2083.1 464.1 2078.2 472.7C2073.2 481 2066.7 487.8 2058.6 493C2050.8 498.2 2041.9 502 2032 504.3C2022.1 506.6 2012.2 507.8 2002.3 507.8C1986.4 507.8 1970.7 505.3 1955.3 500.4C1940.2 495.2 1927.5 487.6 1917.3 477.7L1953.3 439.7C1959 446 1966.1 451.2 1974.4 455.4C1982.7 459.6 1991.6 461.7 2001 461.7C2010.4 461.7 2011.3 460.5 2016.3 458.2C2021.5 455.6 2024.1 451.2 2024.1 444.9C2024.1 438.6 2021 434.5 2014.7 431.6C2008.4 428.7 1998.7 425.7 1985.4 422.6C1978.6 421 1971.8 418.9 1965.1 416.3C1958.3 413.7 1952.2 410.2 1946.7 405.7C1941.5 401.3 1937.2 395.8 1933.8 389.3C1930.4 382.8 1928.7 375 1928.7 365.8C1928.7 356.6 1931.2 344.1 1936.1 336.1C1941.1 327.8 1947.4 321 1955.3 315.8C1963.1 310.6 1971.7 306.8 1981.1 304.5C1990.8 301.9 2000.3 300.6 2009.7 300.6C2024.3 300.6 2038.5 302.9 2052.4 307.6C2066.5 312 2078.4 318.8 2088 327.9L2052.8 364.3L2052.7 364.4Z" fill="white"/>
<path d="M1909.1 501.8H1829.7L1765.9 408.3H1764.7V501.8H1700.1V206H1764.7V386H1765.9L1828.1 307H1906L1830.9 395L1909.2 501.8H1909.1Z" fill="white"/>
<path d="M1672.1 359.4C1669.2 358.6 1666.4 358.1 1663.5 357.8C1660.9 357.5 1658.3 357.4 1655.7 357.4C1647.1 357.4 1639.8 359 1633.8 362.1C1628.1 365.2 1623.4 369 1619.7 373.4C1616.3 377.8 1613.8 382.7 1612.3 387.9C1610.8 393.1 1610 397.7 1610 401.6V501.8H1545.8V306.9H1607.6V335.1H1608.4C1613.4 325.2 1620.4 317.1 1629.5 310.8C1638.6 304.5 1649.2 301.4 1661.2 301.4C1673.2 301.4 1666.3 301.5 1668.6 301.8C1671.2 302.1 1673.3 302.5 1674.9 303L1672.2 359.4H1672.1Z" fill="white"/>
<path d="M1515.2 403.6C1515.2 419.5 1512.3 434 1506.6 447C1500.9 459.8 1493 470.7 1483.1 479.9C1473.2 488.8 1461.7 495.7 1448.7 500.6C1435.7 505.6 1421.7 508 1406.8 508C1391.9 508 1378.2 505.5 1364.9 500.6C1351.9 495.6 1340.4 488.7 1330.5 479.9C1320.8 470.8 1313.2 459.8 1307.4 447C1301.7 434 1298.8 419.5 1298.8 403.6C1298.8 387.7 1301.7 373.3 1307.4 360.6C1313.1 347.8 1320.8 337 1330.5 328.1C1340.4 319.2 1351.9 312.4 1364.9 307.8C1378.2 303.1 1392.2 300.8 1406.8 300.8C1421.4 300.8 1435.6 303.1 1448.7 307.8C1461.7 312.5 1473.2 319.3 1483.1 328.1C1493 337 1500.8 347.8 1506.6 360.6C1512.3 373.4 1515.2 387.7 1515.2 403.6ZM1453.4 403.6C1453.4 397.3 1452.4 391.2 1450.3 385.2C1448.2 379.2 1445.2 374 1441.3 369.5C1437.4 364.8 1432.6 361 1426.8 358.2C1421.1 355.3 1414.4 353.9 1406.8 353.9C1399.2 353.9 1392.6 355.3 1386.8 358.2C1381.1 361.1 1376.2 364.9 1372.3 369.5C1368.6 373.9 1365.8 379.2 1363.7 385.2C1361.9 391.2 1361 397.3 1361 403.6C1361 409.9 1361.9 416 1363.7 422C1365.8 428 1368.8 433.5 1372.7 438.4C1376.6 443.1 1381.4 446.9 1387.2 449.7C1392.9 452.6 1399.6 454 1407.2 454C1414.8 454 1421.4 452.6 1427.2 449.7C1432.9 446.8 1437.8 443 1441.7 438.4C1445.6 433.4 1448.5 428 1450.3 422C1452.4 416 1453.4 409.9 1453.4 403.6Z" fill="white"/>
<path d="M1234.2 501.8H1168.1L1113.3 314.4H1112.1L1057.3 501.8H990.8L912.1 224.7H984.1L1027.9 409H1029.1L1078.4 224.7H1148.1L1197.8 409H1199L1243.6 224.7H1313.3L1234.3 501.8H1234.2Z" fill="white"/>
<path fill-rule="evenodd" clip-rule="evenodd" d="M1001.5 74.8999C998.5 70.7999 994.3 67.5999 989.5 65.7999C984.9 63.9999 980 62.9999 975.1 62.8999C969.1 62.8999 963.6 63.9999 958.7 66.1999C953.9 68.2999 949.6 71.3999 946 75.1999C942.4 79.0999 939.6 83.5999 937.8 88.5999C935.8 93.8999 934.9 99.5999 934.9 105.3C934.9 111.6 935.8 117.4 937.7 122.6C939.6 127.8 942.2 132.3 945.6 136.1C949.1 139.9 953.3 142.8 958 144.8C962.8 146.9 968.2 147.9 974.2 147.9C980.2 147.9 985.9 146.7 990.8 144.2C995.4 141.9 999.4 138.6 1002.4 134.5L1019 146.1C1013.9 152.5 1007.5 157.6 1000.1 161C992.7 164.5 984 166.3 974 166.3C964 166.3 956.6 164.8 949 161.8C941.7 159 935 154.7 929.4 149.2C923.9 143.7 919.5 137.1 916.6 129.9C913.5 122.4 912 114.2 912 105.1C912 95.9999 913.6 87.4999 916.8 79.9999C919.8 72.7999 924.4 66.2999 930.1 60.9999C935.9 55.6999 942.6 51.5999 950 48.8999C957.6 46.0999 966 44.6999 974.9 44.6999C983.8 44.6999 982.5 45.0999 986.5 45.7999C990.5 46.4999 994.4 47.5999 998.1 49.0999C1001.8 50.4999 1005.3 52.3999 1008.6 54.5999C1011.9 56.7999 1014.7 59.3999 1017 62.3999L1001.3 74.7999L1001.5 74.8999ZM1047.5 44.6999H1068.2V148.1H1117.5V166.4H1047.5V44.6999ZM1136.4 105.3C1136.4 95.9999 1138 87.6999 1141.1 80.1999C1144 72.9999 1148.4 66.4999 1154.1 61.1999C1159.8 55.8999 1166.5 51.7999 1173.8 49.0999C1181.4 46.2999 1189.7 44.8999 1198.6 44.8999C1207.5 44.8999 1216 46.2999 1223.7 49.0999C1231.1 51.7999 1237.8 55.8999 1243.5 61.1999C1249.2 66.4999 1253.6 72.9999 1256.5 80.1999C1259.6 87.6999 1261.2 95.9999 1261.2 105.3C1261.2 114.6 1259.6 122.6 1256.5 130.1C1253.5 137.3 1249.1 143.9 1243.5 149.4C1237.8 154.9 1231.1 159.2 1223.7 162C1216.1 165 1207.7 166.5 1198.6 166.5C1189.5 166.5 1181.4 165 1173.8 162C1166.5 159.2 1159.8 154.9 1154.1 149.4C1148.5 143.9 1144.1 137.4 1141.1 130.1C1138 122.6 1136.4 114.4 1136.4 105.3ZM1158.8 105.3C1158.8 111.5 1159.8 117.2 1161.7 122.4C1163.5 127.4 1166.3 132 1169.9 135.9C1173.4 139.7 1177.7 142.7 1182.5 144.8C1187.4 146.9 1192.7 148 1198.6 148C1204.5 148 1209.9 146.9 1214.8 144.8C1219.6 142.7 1223.9 139.7 1227.5 135.9C1231.1 132 1233.9 127.4 1235.7 122.4C1237.6 117.2 1238.6 111.5 1238.6 105.3C1238.6 99.5999 1237.7 93.9999 1235.7 88.5999C1233.9 83.6999 1231.1 79.0999 1227.6 75.1999C1224.1 71.3999 1219.8 68.2999 1215 66.1999C1210.1 63.9999 1204.6 62.8999 1198.6 62.8999C1192.6 62.8999 1187.2 63.9999 1182.3 66.1999C1177.5 68.2999 1173.3 71.3999 1169.8 75.1999C1166.3 79.0999 1163.5 83.6999 1161.7 88.5999C1159.8 93.8999 1158.8 99.5999 1158.8 105.3ZM1389.9 120.9C1389.9 127.9 1388.7 134.2 1386.3 139.8C1384 145.2 1380.7 150.1 1376.5 154.1C1372.2 158.1 1367.2 161.2 1361.7 163.2C1355.8 165.4 1349.5 166.4 1343.2 166.4C1336.5 166.4 1330.4 165.3 1324.7 163.2C1319.2 161.2 1314.2 158.1 1309.9 154.1C1305.6 150.1 1302.3 145.2 1300.1 139.8C1297.7 134.2 1296.6 127.9 1296.6 120.9V44.6999H1317.3V120.2C1317.3 123.6 1317.7 126.9 1318.6 130.3C1319.5 133.6 1320.9 136.6 1322.9 139.2C1324.9 141.8 1327.6 143.9 1330.9 145.6C1334.2 147.2 1338.4 148.1 1343.3 148.1C1348.2 148.1 1352.3 147.3 1355.7 145.6C1359 144 1361.7 141.8 1363.7 139.2C1365.7 136.6 1367.2 133.5 1368 130.3C1368.9 127 1369.3 123.6 1369.3 120.2V44.6999H1390V121L1389.9 120.9ZM1430.9 44.6999H1472C1479.5 44.6999 1487.1 45.6999 1494.8 47.5999C1502.3 49.4999 1509.3 52.7999 1515.5 57.2999C1521.6 61.7999 1526.6 67.7999 1530.4 75.0999C1534.2 82.4999 1536.1 95.0999 1536.1 105.9C1536.1 116.7 1534.2 127.3 1530.4 134.6C1526.6 141.9 1521.6 147.9 1515.5 152.6C1509.3 157.3 1502.3 160.8 1494.8 163C1487.4 165.2 1479.7 166.3 1472 166.4H1430.9V44.6999ZM1468.7 148.4C1474.1 148.4 1479.4 147.8 1484.8 146.5C1490 145.3 1494.9 143.1 1499.3 140.1C1503.6 137.1 1507.1 133.1 1509.9 127.9C1512.6 122.8 1514 113.8 1514 105.9C1514 97.9999 1512.6 87.3999 1509.9 82.1999C1507.2 76.9999 1503.6 72.8999 1499.3 69.8999C1494.9 66.8999 1490 64.8999 1484.8 63.8999C1479.5 62.7999 1474.1 62.2999 1468.7 62.2999H1451.5V148.4H1468.7ZM1560 152.4C1560 148.9 1561.3 145.9 1563.8 143.4C1565 142.2 1566.5 141.2 1568 140.6C1569.6 140 1571.3 139.6 1573 139.7C1576.5 139.7 1579.6 140.9 1582.2 143.3C1584.8 145.7 1586.1 148.6 1586.1 152.1C1586.1 155.6 1584.8 158.6 1582.3 161.1C1581.1 162.3 1579.6 163.3 1578.1 163.9C1576.5 164.5 1574.8 164.9 1573.1 164.8C1571.3 164.8 1569.7 164.5 1568.1 163.8C1566.6 163.2 1565.2 162.3 1563.9 161.2C1562.7 160.1 1561.7 158.8 1561 157.3C1560.3 155.8 1559.9 154.1 1559.9 152.4H1560ZM1717.5 157C1711.6 159.8 1705.1 162 1698.1 163.6C1691.1 165.2 1682.9 166 1673.8 166C1664.7 166 1655.8 164.5 1648.1 161.5C1640.3 158.5 1633.7 154.3 1628.1 148.9C1622.5 143.4 1618 136.9 1615.1 129.6C1612 122.1 1610.4 113.9 1610.4 104.8C1610.4 95.6999 1612 87.1999 1615.2 79.6999C1618.2 72.4999 1622.8 65.9999 1628.5 60.6999C1634.3 55.3999 1641 51.2999 1648.4 48.5999C1656 45.7999 1664.4 44.3999 1673.3 44.3999C1682.2 44.3999 1691.1 45.6999 1698.8 48.3999C1706.5 51.0999 1712.7 54.5999 1717.4 58.8999L1703.1 74.2999C1700.1 70.9999 1696 68.2999 1690.7 65.9999C1685.2 63.6999 1679.3 62.4999 1673.4 62.5999C1667.3 62.5999 1661.7 63.6999 1656.8 65.8999C1652 67.9999 1647.7 70.9999 1644.1 74.8999C1640.5 78.7999 1637.8 83.2999 1636 88.2999C1634.1 93.5999 1633.1 99.2999 1633.1 105C1633.1 111.2 1634.1 116.9 1636 122.1C1637.8 127.1 1640.6 131.7 1644.2 135.6C1647.8 139.5 1652.2 142.5 1657.2 144.5C1662.3 146.6 1668 147.7 1674.5 147.7C1681 147.7 1691.1 146.3 1697.6 143.6V114.2H1673.2V97.1999H1717.6V157.2L1717.5 157ZM1749.8 104.9C1749.8 95.5999 1751.4 87.2999 1754.5 79.7999C1757.4 72.5999 1761.8 66.0999 1767.4 60.7999C1773.1 55.4999 1779.7 51.3999 1787.1 48.6999C1794.7 45.8999 1803 44.4999 1811.9 44.4999C1820.8 44.4999 1829.3 45.8999 1837 48.6999C1844.4 51.3999 1851.1 55.4999 1856.8 60.7999C1862.5 66.0999 1866.9 72.5999 1869.8 79.7999C1872.9 87.2999 1874.5 95.5999 1874.5 104.9C1874.5 114.2 1872.9 122.2 1869.8 129.7C1866.8 136.9 1862.4 143.5 1856.8 149C1851.1 154.5 1844.4 158.8 1837 161.6C1829.4 164.6 1821 166.1 1811.9 166.1C1802.8 166.1 1794.7 164.6 1787.1 161.6C1779.8 158.8 1773.1 154.5 1767.4 149C1761.8 143.5 1757.4 137 1754.5 129.7C1751.4 122.2 1749.8 114 1749.8 104.9ZM1772.2 104.9C1772.2 111.1 1773.2 116.8 1775.1 122C1776.9 127 1779.7 131.6 1783.3 135.5C1786.8 139.3 1791.1 142.3 1795.9 144.4C1800.8 146.5 1806.2 147.6 1812.1 147.6C1818 147.6 1823.4 146.5 1828.3 144.4C1833.1 142.3 1837.4 139.3 1841 135.5C1844.6 131.6 1847.4 127 1849.2 122C1851.1 116.8 1852.1 111.1 1852.1 104.9C1852.1 98.6999 1851.1 93.3999 1849.2 88.1999C1847.4 83.2999 1844.6 78.6999 1841.1 74.7999C1837.6 70.9999 1833.3 67.8999 1828.5 65.7999C1823.6 63.5999 1818.1 62.4999 1812.1 62.4999C1806.1 62.4999 1800.6 63.5999 1795.8 65.7999C1791 67.8999 1786.8 70.9999 1783.3 74.7999C1779.7 78.6999 1777 83.2999 1775.2 88.1999C1773.2 93.4999 1772.3 99.1999 1772.3 104.9H1772.2ZM1892.2 44.6999H1915.5L1949.6 139.4H1950.3L1984.5 44.6999H2007.2L1958.3 166.1H1940.4L1892.2 44.6999Z" fill="white"/>
</svg>
