<svg width="3000" height="640" viewBox="0 0 3000 640" fill="none" xmlns="http://www.w3.org/2000/svg">
<path d="M290.8 13.5L55 183.2V454.8L290.8 624.5L526.5 454.8V183.2L290.8 13.5Z" fill="white"/>
<path fill-rule="evenodd" clip-rule="evenodd" d="M290.8 349.6L371 407.3L340.5 313.5L422 255H321.5L290.8 160.4L260 255H159.5L241 313.5L210.5 407.3L290.8 349.6Z" fill="white"/>
<path d="M290.8 44.1001L78.6 196.8L159.5 255H260L290.8 160.4L321.5 255H422L502.9 196.8L290.8 44.1001Z" fill="#046CD5"/>
<path d="M340.6 313.7L371 407.3L290.8 349.6L210.5 407.3L240.9 313.7L241 313.5L168.2 261.3L159.5 255L78.6 196.8V441.2L290.8 593.9L502.9 441.2V196.8L340.6 313.7Z" fill="#333333"/>
<path fill-rule="evenodd" clip-rule="evenodd" d="M921.2 256.9C915.1 248.6 906.8 242.3 897.1 238.7C887.9 235 878 233 868.1 232.9C856 232.9 845 235.1 835.1 239.5C825.4 243.7 816.7 249.9 809.6 257.6C802.4 265.4 796.8 274.6 793.1 284.6C789.2 295.3 787.2 306.7 787.3 318.1C787.3 330.8 789.2 342.4 792.9 352.9C796.6 363.4 802 372.4 808.9 380C815.8 387.6 824.3 393.6 833.8 397.6C843.5 401.8 854.4 403.8 866.4 403.8C878.4 403.8 890 401.3 899.7 396.4C909 391.8 917 385.1 923.1 376.9L956.4 400.2C946.2 413 933.3 423.3 918.5 430.3C903.5 437.4 886.1 441 866.1 441C846.1 441 831.1 438 815.8 432C801.1 426.3 787.7 417.7 776.4 406.7C765.3 395.6 756.5 382.5 750.7 367.9C744.5 352.9 741.5 336.3 741.5 318.1C741.5 299.9 744.7 282.7 751.2 267.7C757.3 253.2 766.4 240.2 777.9 229.4C789.5 218.7 803.1 210.4 818 205.1C833.4 199.4 850.1 196.6 868.1 196.6C886.1 196.6 883.4 197.3 891.5 198.7C899.6 200.1 907.4 202.3 914.9 205.3C922.3 208.2 929.4 211.9 936 216.3C942.6 220.7 948.2 225.9 952.8 232.1L921.1 257.1L921.2 256.9ZM1013.6 196.2H1055.1V404.2H1154.4V441H1013.6V196.2ZM1192.5 318.1C1192.5 299.5 1195.6 282.7 1201.9 267.7C1207.8 253.2 1216.7 240.2 1228 229.4C1239.4 218.7 1252.9 210.4 1267.6 205.1C1282.9 199.4 1299.5 196.6 1317.6 196.6C1335.7 196.6 1352.7 199.5 1368.1 205.1C1382.9 210.4 1396.5 218.7 1408 229.4C1419.4 240.2 1428.3 253.2 1434.2 267.7C1440.5 282.7 1443.6 299.5 1443.6 318.1C1443.6 336.7 1440.5 352.9 1434.2 367.9C1428.2 382.5 1419.3 395.7 1408 406.7C1396.5 417.7 1383 426.3 1368.1 432C1352.7 438 1335.9 441 1317.6 441C1299.3 441 1282.9 438 1267.6 432C1252.8 426.3 1239.4 417.7 1228 406.7C1216.8 395.7 1207.9 382.5 1201.9 367.9C1195.6 352.9 1192.5 336.3 1192.5 318.1ZM1237.7 318.1C1237.7 330.6 1239.6 342 1243.5 352.4C1247.1 362.4 1252.7 371.7 1260 379.5C1267.1 387.2 1275.8 393.3 1285.4 397.4C1295.2 401.7 1306 403.8 1317.9 403.8C1329.8 403.8 1340.7 401.7 1350.5 397.4C1360.2 393.3 1368.9 387.2 1376 379.5C1383.3 371.6 1388.9 362.4 1392.5 352.4C1396.4 342 1398.3 330.5 1398.3 318.1C1398.4 306.7 1396.5 295.3 1392.5 284.6C1388.9 274.6 1383.3 265.5 1376.2 257.6C1369.1 249.9 1360.4 243.7 1350.8 239.5C1340.9 235.1 1329.9 232.9 1317.8 232.9C1305.7 232.9 1294.8 235.1 1285 239.5C1275.4 243.7 1266.8 249.9 1259.8 257.6C1252.7 265.4 1247.1 274.6 1243.5 284.6C1239.6 295.3 1237.6 306.7 1237.7 318.1ZM1702.6 349.6C1702.6 363.6 1700.2 376.3 1695.3 387.6C1690.8 398.4 1684 408.2 1675.5 416.4C1666.9 424.4 1656.8 430.6 1645.8 434.6C1633.9 439 1621.2 441.1 1608.5 441C1595.1 441 1582.7 438.9 1571.2 434.6C1560.1 430.6 1550 424.4 1541.4 416.4C1532.8 408.3 1526.1 398.5 1521.6 387.6C1516.9 376.3 1514.5 363.6 1514.5 349.6V196.2H1556V348C1556 354.8 1556.9 361.5 1558.6 368.2C1560.4 374.9 1563.3 380.8 1567.3 386.1C1571.4 391.4 1576.7 395.6 1583.5 398.9C1590.2 402.2 1598.5 403.8 1608.4 403.8C1618.3 403.8 1626.6 402.2 1633.3 398.9C1640 395.6 1645.4 391.3 1649.5 386.1C1653.6 380.8 1656.6 374.7 1658.2 368.2C1659.9 361.6 1660.8 354.8 1660.8 348V196.2H1702.3V349.6H1702.6ZM1785 196.2H1867.8C1883 196.2 1898.3 198.2 1913.6 202.1C1928.6 205.9 1942.7 212.5 1955.1 221.7C1967.4 230.8 1977.4 242.7 1985.1 257.5C1992.8 272.3 1996.6 297.6 1996.6 319.5C1996.6 341.4 1992.8 362.5 1985.1 377.2C1977.4 391.9 1967.4 403.9 1955.1 413.4C1942.7 422.9 1928.6 430 1913.6 434.3C1898.7 438.7 1883.3 441 1867.8 441H1785V196.2ZM1861.1 404.8C1871.9 404.8 1882.6 403.5 1893.4 401C1903.9 398.6 1913.8 394.3 1922.6 388.2C1931.3 382.2 1938.4 374 1943.9 363.7C1949.4 353.4 1952.1 335.3 1952.1 319.5C1952.1 303.7 1949.4 282.3 1943.9 271.7C1938.4 261.2 1931.3 253 1922.6 247C1913.8 241 1903.9 236.9 1893.4 234.8C1882.8 232.6 1871.9 231.5 1861.1 231.5H1826.5V404.7H1861.1V404.8ZM2044.7 412.9C2044.7 405.9 2047.3 399.9 2052.4 394.8C2054.8 392.4 2057.7 390.4 2060.9 389.1C2064.1 387.8 2067.5 387.2 2071 387.2C2078 387.2 2084.2 389.6 2089.5 394.4C2094.8 399.2 2097.4 405.1 2097.4 412.1C2097.4 419.1 2094.8 425.1 2089.7 430.2C2087.3 432.6 2084.4 434.6 2081.2 435.9C2078 437.2 2074.6 437.8 2071.1 437.8C2067.6 437.8 2064.2 437.1 2061 435.8C2057.9 434.5 2055.1 432.8 2052.6 430.5C2050.2 428.3 2048.2 425.6 2046.8 422.6C2045.4 419.5 2044.7 416.2 2044.7 412.7V412.9ZM2361.4 422.2C2349.5 427.9 2336.5 432.3 2322.3 435.5C2308.1 438.7 2291.8 440.3 2273.3 440.3C2254.8 440.3 2237.1 437.3 2221.5 431.3C2205.9 425.3 2192.5 416.9 2181.3 406C2170 395 2161.1 381.8 2155.1 367.2C2148.8 352.2 2145.7 335.6 2145.7 317.4C2145.7 299.2 2148.9 282 2155.4 267C2161.5 252.5 2170.6 239.5 2182.1 228.7C2193.7 218 2207.3 209.7 2222.2 204.4C2237.6 198.7 2254.3 195.9 2272.3 195.9C2290.3 195.9 2308.1 198.6 2323.6 204C2339.1 209.4 2351.6 216.4 2361 225.2L2332.3 256.1C2326.4 249.5 2318.1 243.9 2307.4 239.3C2296.4 234.6 2284.6 232.3 2272.6 232.4C2260.3 232.4 2249.1 234.6 2239.1 239C2229.4 243.2 2220.7 249.3 2213.6 257.1C2206.5 264.9 2200.9 274.1 2197.3 284.1C2193.4 294.8 2191.4 306.2 2191.5 317.6C2191.5 330.1 2193.4 341.5 2197.3 351.9C2200.9 361.9 2206.5 371.2 2213.8 379C2221.1 386.8 2230 392.9 2239.9 396.9C2250.1 401.2 2261.7 403.3 2274.7 403.3C2287.7 403.3 2308 400.6 2321.2 395.1V335.9H2272.1V301.7H2361.5V422.3L2361.4 422.2ZM2426.4 317.4C2426.4 298.8 2429.5 282 2435.8 267C2441.7 252.5 2450.6 239.5 2461.8 228.7C2473.2 218 2486.6 209.7 2501.4 204.4C2516.7 198.7 2533.3 195.9 2551.3 195.9C2569.3 195.9 2586.4 198.8 2601.7 204.4C2616.5 209.7 2630.1 218 2641.6 228.7C2653 239.5 2661.9 252.5 2667.8 267C2674.1 282 2677.2 298.8 2677.2 317.4C2677.2 336 2674.1 352.2 2667.8 367.2C2661.8 381.8 2652.9 395 2641.6 406C2630.1 417 2616.6 425.6 2601.7 431.3C2586.3 437.3 2569.5 440.3 2551.3 440.3C2533.1 440.3 2516.6 437.3 2501.4 431.3C2486.6 425.6 2473.2 417 2461.8 406C2450.6 395 2441.7 381.8 2435.8 367.2C2429.5 352.2 2426.4 335.6 2426.4 317.4ZM2471.6 317.4C2471.6 329.9 2473.5 341.3 2477.4 351.7C2481 361.7 2486.6 371 2493.9 378.8C2501 386.5 2509.7 392.6 2519.3 396.7C2529.1 401 2539.9 403.1 2551.8 403.1C2563.7 403.1 2574.5 401 2584.5 396.7C2594.2 392.6 2602.9 386.5 2610 378.8C2617.3 370.9 2622.9 361.7 2626.5 351.7C2630.3 341.3 2632.3 329.8 2632.3 317.4C2632.3 305 2630.4 294.2 2626.5 283.9C2622.9 273.9 2617.3 264.8 2610.2 256.9C2603.1 249.2 2594.5 243 2584.8 238.8C2574.9 234.4 2563.9 232.2 2551.8 232.2C2539.7 232.2 2528.8 234.4 2519 238.8C2509.4 243 2500.8 249.2 2493.8 256.9C2486.6 264.7 2481.1 273.9 2477.5 283.9C2473.6 294.6 2471.6 306 2471.7 317.4H2471.6ZM2712.9 196.2H2759.7L2828.2 386.7H2829.5L2898.3 196.2H2944L2845.6 440.3H2809.7L2712.8 196.2H2712.9Z" fill="white"/>
</svg>
