<svg width="3000" height="640" viewBox="0 0 3000 640" fill="none" xmlns="http://www.w3.org/2000/svg">
<path d="M962.2 312.4V295.8L984.3 279.8V251.7L962.2 235.8V219.1L984.3 203.1V173.9L748.6 4.2002L512.9 173.9V359.8L748.6 529.5L984.3 359.8V328.3L962.2 312.4Z" fill="white"/>
<path d="M536 189.4L748.6 342.4V36.2998L536 189.4Z" fill="#0FADD0"/>
<path d="M748.6 36.2998V342.4L961.2 189.4L748.6 36.2998Z" fill="#2D2E2F"/>
<path d="M748.6 495.5L961.2 342.4L939.1 326.4L748.6 463.5V495.5Z" fill="#333333"/>
<path d="M939.1 250.4V205.3L748.6 342.6V387.5L939.1 250.4Z" fill="#C2C2BE"/>
<path d="M748.6 419.4V403.6V463.5L939.1 326.4V282.3L748.6 419.4Z" fill="#C2C2BE"/>
<path d="M939.1 250.4L748.6 387.5V419.4L939.1 282.3L961.2 266.4L939.1 250.4Z" fill="#333333"/>
<path d="M748.6 342.4L562.1 208.1L748.6 342.6V463.5L562.1 329.1V208.1L536 189.4V342.4L748.6 495.5V342.4Z" fill="#0FADD0"/>
<path d="M748.6 463.5V342.6L562.1 208.1V329.1L748.6 463.5Z" fill="white"/>
<path d="M748.6 211.5L804.7 242L783.3 192.6L839.4 162H770L748.6 112.6L727.2 162H657.9L714 192.6L692.5 242L748.6 211.5Z" fill="white"/>
<path d="M1425.4 302.1C1425.4 318.3 1422.4 332 1416.4 343.2C1410.4 354.2 1402.3 363 1392.1 369.8C1381.9 376.6 1370.2 381.5 1356.9 384.7C1343.6 387.8 1329.8 389.4 1315.4 389.4H1282.1V493.9H1215.2V216.8H1316.9C1332 216.8 1346.1 218.4 1359.2 221.5C1372.5 224.4 1384 229.2 1393.6 236C1403.5 242.5 1411.2 251.3 1416.7 262.2C1422.4 272.9 1425.3 286.2 1425.3 302.1H1425.4ZM1358.4 302.5C1358.4 296 1357.1 290.6 1354.5 286.5C1351.9 282.3 1348.4 279.1 1343.9 276.7C1339.5 274.4 1334.4 272.8 1328.6 272C1323.1 271.2 1317.4 270.8 1311.4 270.8H1282.1V336.2H1310.3C1316.6 336.2 1322.6 335.7 1328.3 334.6C1334 333.6 1339.1 331.7 1343.6 329.1C1348.3 326.5 1351.9 323.1 1354.6 318.9C1357.2 314.5 1358.5 309 1358.5 302.5H1358.4ZM1563.8 404.9H1555.6C1548.6 404.9 1541.4 405.3 1534.1 406.1C1527.1 406.6 1520.7 407.8 1514.9 409.6C1509.4 411.4 1504.9 414.2 1501.2 417.8C1497.5 421.2 1495.7 425.8 1495.7 431.5C1495.7 437.2 1496.5 438.3 1498 440.9C1499.8 443.5 1502 445.6 1504.7 447.2C1507.3 448.8 1510.3 449.9 1513.7 450.7C1517.1 451.2 1520.4 451.5 1523.5 451.5C1536.5 451.5 1546.5 448 1553.2 440.9C1560.2 433.6 1563.8 423.8 1563.8 411.6V404.9ZM1446 321.6C1457.5 310.6 1470.8 302.4 1485.9 296.9C1501.3 291.4 1516.9 288.7 1532.9 288.7C1548.9 288.7 1563.2 290.8 1574.4 295C1585.9 298.9 1595.1 305.2 1602.2 313.8C1609.2 322.1 1614.3 332.8 1617.5 345.9C1620.9 358.7 1622.6 373.9 1622.6 391.7V493.9H1563.9V469.2H1562.7C1557.7 477.3 1550.2 483.5 1540 488C1530.1 492.4 1519.3 494.7 1507.5 494.7C1495.7 494.7 1491.6 493.7 1483.2 491.6C1474.9 489.5 1467.2 486.1 1460.1 481.4C1453.3 476.7 1447.7 470.4 1443.3 462.6C1438.9 454.8 1436.6 445.1 1436.6 433.6C1436.6 422.1 1440.4 408.2 1447.9 399.6C1455.7 391 1465.6 384.3 1477.6 379.6C1489.9 374.9 1503.4 371.8 1518.3 370.2C1533.2 368.6 1547.6 367.9 1561.7 367.9V364.8C1561.7 355.1 1558.3 348.1 1551.5 343.7C1544.7 339 1536.4 336.7 1526.5 336.7C1516.6 336.7 1508.5 338.7 1499.9 342.6C1491.6 346.5 1484.4 351.2 1478.4 356.7L1445.9 321.9L1446 321.6ZM1866.1 473.5C1866.1 492.5 1863.4 509.1 1857.9 523.2C1852.4 537.3 1844.7 548.9 1834.8 558C1824.9 567.4 1812.8 574.3 1798.4 578.7C1784.3 583.4 1768.7 585.7 1751.4 585.7C1734.1 585.7 1716.4 583.1 1698.2 577.9C1680.2 572.7 1664.5 565.1 1651.2 555.2L1683.3 509.4C1692.7 517.7 1703 523.9 1714.2 527.8C1725.7 532 1736.9 534.1 1747.9 534.1C1766.7 534.1 1780.5 529.1 1789.4 519.2C1798.5 509.3 1803.1 496.1 1803.1 479.7V468H1801.9C1795.9 475.8 1787.8 482.1 1777.6 486.8C1767.4 491.5 1755.8 493.8 1742.8 493.8C1729.8 493.8 1714.8 491.2 1703.3 486C1691.8 480.5 1682 473.2 1674 464.1C1666.2 455 1660.2 444.4 1656 432.4C1651.8 420.1 1649.7 407.2 1649.7 393.7C1649.7 380.2 1651.8 367.2 1656 355C1660.2 342.7 1666.2 331.9 1674 322.5C1682.1 313.1 1691.9 305.7 1703.3 300.2C1714.8 294.5 1727.8 291.6 1742.4 291.6C1757 291.6 1766.4 294.1 1777.6 299C1788.8 304 1797.8 311.7 1804.6 322.1H1805.4V297.1H1866.1V473.6V473.5ZM1805.1 393.2C1805.1 386.7 1803.9 380.4 1801.6 374.4C1799.5 368.4 1796.4 363.2 1792.2 358.7C1788 354 1783.1 350.4 1777.3 347.7C1771.5 345 1765 343.8 1757.7 343.8C1750.4 343.8 1743.9 345.1 1738.1 347.7C1732.6 350.3 1727.9 353.8 1724 358.3C1720.1 362.7 1717.1 368 1715 374C1712.9 380 1711.9 386.4 1711.9 393.2C1711.9 400 1712.9 406 1715 412C1717.1 418 1720.1 423.3 1724 428C1727.9 432.4 1732.6 436.1 1738.1 439C1743.8 441.6 1750.4 442.9 1757.7 442.9C1765 442.9 1771.5 441.6 1777.3 439C1783.3 436.1 1788.3 432.5 1792.2 428C1796.4 423.6 1799.5 418.3 1801.6 412.3C1803.9 406.3 1805.1 399.9 1805.1 393.1V393.2ZM2035.4 368.1C2035.4 357.9 2032.1 349.2 2025.6 341.9C2019.3 334.6 2009.8 330.9 1997 330.9C1984.2 330.9 1985 331.9 1979.8 334C1974.6 335.8 1970 338.4 1966.1 341.8C1962.2 345.2 1959.1 349.2 1956.7 353.9C1954.4 358.3 1953 363 1952.8 368H2035.4V368.1ZM2094.5 392.8V400.6C2094.5 403.2 2094.4 405.7 2094.1 408H1952.8C1953.3 413.5 1954.9 418.4 1957.5 422.9C1960.4 427.3 1963.9 431.2 1968.1 434.6C1972.5 437.7 1977.4 440.2 1982.6 442C1988.1 443.8 1993.7 444.7 1999.4 444.7C2009.6 444.7 2018.2 442.9 2025.2 439.2C2032.2 435.3 2038 430.3 2042.4 424.3L2087 452.5C2077.9 465.8 2065.7 476.1 2050.6 483.4C2035.7 490.4 2018.4 494 1998.6 494C1978.8 494 1970.2 491.8 1957.1 487.3C1944.1 482.6 1932.6 476 1922.7 467.3C1913 458.4 1905.4 447.6 1899.6 434.8C1894.1 422 1891.4 407.4 1891.4 391C1891.4 374.6 1894.1 360.7 1899.6 348C1905.1 335 1912.5 324 1921.9 315.1C1931.3 306 1942.4 298.9 1955.2 294C1968 289 1981.8 286.6 1996.7 286.6C2011.6 286.6 2024.2 289.1 2036.2 294C2048.2 298.7 2058.5 305.6 2067.1 314.7C2075.7 323.8 2082.4 334.9 2087.1 348C2092.1 361 2094.5 375.9 2094.5 392.6V392.8ZM2241 350.5C2235.8 345.5 2229.7 341.4 2222.6 338C2215.6 334.6 2208.1 332.9 2200.3 332.9C2192.5 332.9 2188.7 334.1 2183.5 336.4C2178.5 338.7 2176.1 342.8 2176.1 348.5C2176.1 354.2 2178.8 357.9 2184.3 360.2C2190 362.5 2199.2 365.2 2211.7 368C2219 369.6 2226.3 371.8 2233.6 374.7C2241.2 377.6 2247.9 381.4 2253.9 386C2259.9 390.7 2264.7 396.4 2268.4 403.2C2272.1 410 2273.9 418.1 2273.9 427.5C2273.9 436.9 2271.4 450.2 2266.5 458.8C2261.5 467.1 2255 473.9 2246.9 479.1C2239.1 484.3 2230.2 488.1 2220.3 490.4C2210.4 492.7 2200.5 493.9 2190.6 493.9C2174.7 493.9 2159 491.4 2143.6 486.5C2128.5 481.3 2115.8 473.7 2105.6 463.8L2141.6 425.8C2147.3 432.1 2154.4 437.3 2162.7 441.5C2171 445.7 2179.9 447.8 2189.3 447.8C2198.7 447.8 2199.6 446.6 2204.6 444.3C2209.8 441.7 2212.4 437.3 2212.4 431C2212.4 424.7 2209.3 420.6 2203 417.7C2196.7 414.8 2187 411.8 2173.7 408.7C2166.9 407.1 2160.1 405 2153.4 402.4C2146.6 399.8 2140.5 396.3 2135 391.8C2129.8 387.4 2125.5 381.9 2122.1 375.4C2118.7 368.9 2117 361.1 2117 351.9C2117 342.7 2119.5 330.2 2124.4 322.2C2129.4 313.9 2135.7 307.1 2143.6 301.9C2151.4 296.7 2160 292.9 2169.4 290.6C2179.1 288 2188.6 286.7 2198 286.7C2212.6 286.7 2226.8 289 2240.7 293.7C2254.8 298.1 2266.7 304.9 2276.3 314L2241.1 350.4L2241 350.5Z" fill="white"/>
<path fill-rule="evenodd" clip-rule="evenodd" d="M1303.4 65.6002C1300.4 61.5002 1296.2 58.3002 1291.4 56.5002C1286.8 54.7002 1281.9 53.7002 1277 53.6002C1271 53.6002 1265.5 54.7002 1260.6 56.9002C1255.8 59.0002 1251.5 62.1002 1247.9 65.9002C1244.3 69.8002 1241.5 74.3002 1239.7 79.3002C1237.7 84.6002 1236.8 90.3002 1236.8 96.0002C1236.8 102.3 1237.7 108.1 1239.6 113.3C1241.5 118.5 1244.1 123 1247.5 126.8C1251 130.6 1255.2 133.5 1259.9 135.5C1264.7 137.6 1270.1 138.6 1276.1 138.6C1282.1 138.6 1287.8 137.4 1292.7 134.9C1297.3 132.6 1301.3 129.3 1304.3 125.2L1320.9 136.8C1315.8 143.2 1309.4 148.3 1302 151.7C1294.6 155.2 1285.9 157 1275.9 157C1265.9 157 1258.5 155.5 1250.9 152.5C1243.6 149.7 1236.9 145.4 1231.3 139.9C1225.8 134.4 1221.4 127.8 1218.5 120.6C1215.4 113.1 1213.9 104.9 1213.9 95.8002C1213.9 86.7002 1215.5 78.2002 1218.7 70.7002C1221.7 63.5002 1226.3 57.0002 1232 51.7002C1237.8 46.4002 1244.5 42.3002 1251.9 39.6002C1259.5 36.8002 1267.9 35.4002 1276.8 35.4002C1285.7 35.4002 1284.4 35.8002 1288.4 36.5002C1292.4 37.2002 1296.3 38.3002 1300 39.8002C1303.7 41.2002 1307.2 43.1002 1310.5 45.3002C1313.8 47.5002 1316.6 50.1002 1318.9 53.1002L1303.2 65.5002L1303.4 65.6002ZM1349.4 35.4002H1370.1V138.8H1419.4V157.1H1349.4V35.4002ZM1438.3 96.0002C1438.3 86.7002 1439.9 78.4002 1443 70.9002C1445.9 63.7002 1450.3 57.2002 1456 51.9002C1461.7 46.6002 1468.4 42.5002 1475.7 39.8002C1483.3 37.0002 1491.6 35.6002 1500.5 35.6002C1509.4 35.6002 1517.9 37.0002 1525.6 39.8002C1533 42.5002 1539.7 46.6002 1545.4 51.9002C1551.1 57.2002 1555.5 63.7002 1558.4 70.9002C1561.5 78.4002 1563.1 86.7002 1563.1 96.0002C1563.1 105.3 1561.5 113.3 1558.4 120.8C1555.4 128 1551 134.6 1545.4 140.1C1539.7 145.6 1533 149.9 1525.6 152.7C1518 155.7 1509.6 157.2 1500.5 157.2C1491.4 157.2 1483.3 155.7 1475.7 152.7C1468.4 149.9 1461.7 145.6 1456 140.1C1450.4 134.6 1446 128.1 1443 120.8C1439.9 113.3 1438.3 105.1 1438.3 96.0002ZM1460.8 96.0002C1460.8 102.2 1461.8 107.9 1463.7 113.1C1465.5 118.1 1468.3 122.7 1471.9 126.6C1475.4 130.4 1479.7 133.4 1484.5 135.5C1489.4 137.6 1494.7 138.7 1500.6 138.7C1506.5 138.7 1511.9 137.6 1516.8 135.5C1521.6 133.4 1525.9 130.4 1529.5 126.6C1533.1 122.7 1535.9 118.1 1537.7 113.1C1539.6 107.9 1540.6 102.2 1540.6 96.0002C1540.6 90.3002 1539.7 84.7002 1537.7 79.3002C1535.9 74.4002 1533.1 69.8002 1529.6 65.9002C1526.1 62.1002 1521.8 59.0002 1517 56.9002C1512.1 54.7002 1506.6 53.6002 1500.6 53.6002C1494.6 53.6002 1489.2 54.7002 1484.3 56.9002C1479.5 59.0002 1475.3 62.1002 1471.8 65.9002C1468.3 69.8002 1465.5 74.4002 1463.7 79.3002C1461.8 84.6002 1460.8 90.3002 1460.8 96.0002ZM1691.9 111.7C1691.9 118.7 1690.7 125 1688.3 130.6C1686 136 1682.7 140.9 1678.5 144.9C1674.2 148.9 1669.2 152 1663.7 154C1657.8 156.2 1651.5 157.2 1645.2 157.2C1638.5 157.2 1632.4 156.1 1626.7 154C1621.2 152 1616.2 148.9 1611.9 144.9C1607.6 140.9 1604.3 136 1602.1 130.6C1599.7 125 1598.6 118.7 1598.6 111.7V35.4002H1619.3V110.9C1619.3 114.3 1619.7 117.6 1620.6 121C1621.5 124.3 1622.9 127.3 1624.9 129.9C1626.9 132.5 1629.6 134.6 1632.9 136.3C1636.2 137.9 1640.4 138.8 1645.3 138.8C1650.2 138.8 1654.3 138 1657.7 136.3C1661 134.7 1663.7 132.5 1665.7 129.9C1667.7 127.3 1669.2 124.2 1670 121C1670.9 117.7 1671.3 114.3 1671.3 110.9V35.4002H1692V111.7H1691.9ZM1732.8 35.4002H1773.9C1781.4 35.4002 1789 36.4002 1796.7 38.3002C1804.2 40.2002 1811.2 43.5002 1817.4 48.0002C1823.5 52.5002 1828.5 58.5002 1832.3 65.8002C1836.1 73.2002 1838 85.8002 1838 96.6002C1838 107.4 1836.1 118 1832.3 125.3C1828.5 132.6 1823.5 138.6 1817.4 143.3C1811.2 148 1804.2 151.5 1796.7 153.7C1789.3 155.9 1781.6 157 1773.9 157.1H1732.8V35.4002ZM1770.7 139.1C1776.1 139.1 1781.4 138.5 1786.8 137.2C1792 136 1796.9 133.8 1801.3 130.8C1805.6 127.8 1809.1 123.8 1811.9 118.6C1814.6 113.5 1816 104.5 1816 96.6002C1816 88.7002 1814.6 78.1002 1811.9 72.9002C1809.2 67.7002 1805.6 63.6002 1801.3 60.6002C1796.9 57.6002 1792 55.6002 1786.8 54.6002C1781.5 53.5002 1776.1 53.0002 1770.7 53.0002H1753.5V139.1H1770.7ZM1862 143.1C1862 139.6 1863.3 136.6 1865.8 134.1C1867 132.9 1868.5 131.9 1870 131.3C1871.6 130.7 1873.3 130.3 1875 130.4C1878.5 130.4 1881.6 131.6 1884.2 134C1886.8 136.4 1888.1 139.3 1888.1 142.8C1888.1 146.3 1886.8 149.3 1884.3 151.8C1883.1 153 1881.6 154 1880.1 154.6C1878.5 155.2 1876.8 155.6 1875.1 155.5C1873.3 155.5 1871.7 155.2 1870.1 154.5C1868.6 153.9 1867.2 153 1865.9 151.9C1864.7 150.8 1863.7 149.5 1863 148C1862.3 146.5 1861.9 144.8 1861.9 143.1H1862ZM2019.4 147.8C2013.5 150.6 2007 152.8 2000 154.4C1993 156 1984.8 156.8 1975.7 156.8C1966.6 156.8 1957.7 155.3 1950 152.3C1942.2 149.3 1935.6 145.1 1930 139.7C1924.4 134.2 1919.9 127.7 1917 120.4C1913.9 112.9 1912.3 104.7 1912.3 95.6002C1912.3 86.5002 1913.9 78.0002 1917.1 70.5002C1920.1 63.3002 1924.7 56.8002 1930.4 51.5002C1936.2 46.2002 1942.9 42.1002 1950.3 39.4002C1957.9 36.6002 1966.3 35.2002 1975.2 35.2002C1984.1 35.2002 1993 36.5002 2000.7 39.2002C2008.4 41.9002 2014.6 45.4002 2019.3 49.7002L2005 65.1002C2002 61.8002 1997.9 59.1002 1992.6 56.8002C1987.1 54.5002 1981.2 53.3002 1975.3 53.4002C1969.2 53.4002 1963.6 54.5002 1958.7 56.7002C1953.9 58.8002 1949.6 61.8002 1946 65.7002C1942.4 69.6002 1939.7 74.1002 1937.9 79.1002C1936 84.4002 1935 90.1002 1935 95.8002C1935 102 1936 107.7 1937.9 112.9C1939.7 117.9 1942.5 122.5 1946.1 126.4C1949.7 130.3 1954.1 133.3 1959.1 135.3C1964.2 137.4 1969.9 138.5 1976.4 138.5C1982.9 138.5 1993 137.1 1999.5 134.4V105H1975.1V88.0002H2019.5V148L2019.4 147.8ZM2051.7 95.6002C2051.7 86.3002 2053.3 78.0002 2056.4 70.5002C2059.3 63.3002 2063.7 56.8002 2069.3 51.5002C2075 46.2002 2081.6 42.1002 2089 39.4002C2096.6 36.6002 2104.9 35.2002 2113.8 35.2002C2122.7 35.2002 2131.2 36.6002 2138.9 39.4002C2146.3 42.1002 2153 46.2002 2158.7 51.5002C2164.4 56.8002 2168.8 63.3002 2171.7 70.5002C2174.8 78.0002 2176.4 86.3002 2176.4 95.6002C2176.4 104.9 2174.8 112.9 2171.7 120.4C2168.7 127.6 2164.3 134.2 2158.7 139.7C2153 145.2 2146.3 149.5 2138.9 152.3C2131.3 155.3 2122.9 156.8 2113.8 156.8C2104.7 156.8 2096.6 155.3 2089 152.3C2081.7 149.5 2075 145.2 2069.3 139.7C2063.7 134.2 2059.3 127.7 2056.4 120.4C2053.3 112.9 2051.7 104.7 2051.7 95.6002ZM2074.2 95.6002C2074.2 101.8 2075.2 107.5 2077.1 112.7C2078.9 117.7 2081.7 122.3 2085.3 126.2C2088.8 130 2093.1 133 2097.9 135.1C2102.8 137.2 2108.2 138.3 2114.1 138.3C2120 138.3 2125.4 137.2 2130.3 135.1C2135.1 133 2139.4 130 2143 126.2C2146.6 122.3 2149.4 117.7 2151.2 112.7C2153.1 107.5 2154.1 101.8 2154.1 95.6002C2154.1 89.4002 2153.1 84.1002 2151.2 78.9002C2149.4 74.0002 2146.6 69.4002 2143.1 65.5002C2139.6 61.7002 2135.3 58.6002 2130.5 56.5002C2125.6 54.3002 2120.1 53.2002 2114.1 53.2002C2108.1 53.2002 2102.6 54.3002 2097.8 56.5002C2093 58.6002 2088.8 61.7002 2085.3 65.5002C2081.7 69.4002 2079 74.0002 2077.2 78.9002C2075.2 84.2002 2074.3 89.9002 2074.3 95.6002H2074.2ZM2194.1 35.4002H2217.4L2251.5 130.1H2252.2L2286.4 35.4002H2309.1L2260.2 156.8H2242.3L2194.1 35.4002Z" fill="white"/>
</svg>
