<svg width="1151" height="877" viewBox="0 0 1151 877" fill="none" xmlns="http://www.w3.org/2000/svg">
<path d="M404.087 219.265L368.858 247.249L311.359 203.608L346.995 174.797L404.087 219.265Z" stroke="white" stroke-width="8"/>
<path d="M337.449 207.556V166.629L365.322 186.544V228.139L337.449 207.556Z" fill="#0e4f5c"/>
<path d="M337.449 166.629L339.775 163.374L333.449 158.855V166.629H337.449ZM337.449 207.556H333.449V209.574L335.073 210.774L337.449 207.556ZM365.322 228.139L362.946 231.357L369.322 228.139H365.322ZM365.322 186.544H369.322V184.485L367.648 183.289L365.322 186.544ZM337.449 166.629H333.449V207.556H337.449H341.449V166.629H337.449ZM337.449 207.556L335.073 210.774L362.946 231.357L365.322 228.139L367.699 224.921L339.825 204.338L337.449 207.556ZM365.322 228.139H369.322V186.544H365.322H361.322V228.139H365.322ZM365.322 186.544L367.648 183.289L339.775 163.374L337.449 166.629L335.124 169.884L362.997 189.798L365.322 186.544Z" fill="white"/>
<path d="M375.512 220.482V194.699L364.619 193.193L364.619 228.328L375.512 220.482Z" stroke="white" stroke-width="8" stroke-linejoin="bevel"/>
<path d="M287.277 14.0918L426.959 115.001L426.373 238.691L386.857 209.622L287.277 137.624V14.0918Z" fill="#0e4f5c" stroke="white" stroke-width="8" stroke-linejoin="bevel"/>
<path d="M304.326 50.0292L409.909 125L409.505 202.752L378.337 180.433L304.326 127.672V50.0292Z" fill="#03a1c4" stroke="white" stroke-width="8" stroke-linejoin="bevel"/>
<path d="M441.51 103.625L426.552 116.155L426.042 238.945L441.255 226.097L441.51 103.625Z" stroke="white" stroke-width="8" stroke-linejoin="bevel"/>
<path d="M286.482 14.9313L426.733 115.875L441.754 104.186L301.926 3.36719L286.482 14.9313Z" stroke="white" stroke-width="8" stroke-linejoin="bevel"/>
<path d="M229.201 640.96L233.909 637.382L238.617 633.804L247.428 633.324L275.715 654.684V661.424L271.196 664.75L266.676 668.077H257.492L229.573 647.252L229.201 640.96Z" fill="white"/>
<path d="M946.73 493.485L951.438 489.907L956.146 486.329L964.957 485.85L993.244 507.209V513.949L988.725 517.276L984.205 520.603H975.022L947.102 499.777L946.73 493.485Z" fill="white"/>
<path d="M338.412 127.32L323.412 118.66L323.412 135.981L338.412 127.32ZM322.801 127.32V125.82L312.394 125.82V127.32V128.82L322.801 128.82L322.801 127.32ZM301.987 127.32V125.82L291.579 125.82V127.32V128.82L301.987 128.82V127.32ZM281.172 127.32V125.82L270.765 125.82V127.32V128.82L281.172 128.82V127.32ZM260.358 127.32V125.82L249.95 125.82V127.32V128.82L260.358 128.82V127.32ZM239.543 127.32V125.82L229.136 125.82V127.32V128.82L239.543 128.82V127.32ZM218.729 127.32V125.82L213.525 125.82V127.32V128.82L218.729 128.82V127.32Z" fill="#a8f2ff"/>
<rect x="97.873" y="98.166" width="111.651" height="89.3331" fill="#0e4f5c" stroke="white" stroke-width="8"/>
<path d="M153.699 173.732C169.908 173.732 184.416 175.937 194.732 179.391C199.912 181.124 203.814 183.1 206.341 185.1C208.91 187.133 209.524 188.737 209.524 189.758C209.524 190.779 208.91 192.382 206.341 194.416C203.814 196.415 199.912 198.391 194.732 200.125C184.416 203.578 169.908 205.783 153.699 205.783C137.49 205.783 122.982 203.578 112.665 200.125C107.486 198.391 103.583 196.415 101.057 194.416C98.4871 192.382 97.873 190.779 97.873 189.758C97.873 188.737 98.4871 187.133 101.057 185.1C103.583 183.1 107.486 181.124 112.665 179.391C122.982 175.937 137.49 173.732 153.699 173.732Z" fill="#0e4f5c" stroke="white" stroke-width="8"/>
<rect x="99.832" y="169.732" width="107.103" height="20.3789" fill="#0e4f5c"/>
<path d="M153.699 142.514C169.908 142.514 184.416 144.719 194.732 148.172C199.912 149.905 203.814 151.882 206.341 153.881C208.91 155.914 209.524 157.518 209.524 158.539C209.524 159.56 208.91 161.164 206.341 163.197C203.814 165.197 199.912 167.173 194.732 168.906C184.416 172.36 169.908 174.564 153.699 174.564C137.49 174.564 122.982 172.36 112.665 168.906C107.486 167.173 103.583 165.197 101.057 163.197C98.4871 161.164 97.873 159.56 97.873 158.539C97.873 157.518 98.4871 155.914 101.057 153.881C103.583 151.882 107.486 149.905 112.665 148.172C122.982 144.718 137.49 142.514 153.699 142.514Z" fill="#0e4f5c" stroke="white" stroke-width="8"/>
<rect x="99.832" y="138.514" width="107.103" height="20.3789" fill="#0e4f5c"/>
<path d="M153.699 111.293C169.908 111.293 184.416 113.498 194.732 116.951C199.912 118.685 203.814 120.661 206.341 122.66C208.91 124.694 209.524 126.297 209.524 127.318C209.524 128.34 208.91 129.943 206.341 131.977C203.814 133.976 199.912 135.952 194.732 137.686C184.416 141.139 169.908 143.344 153.699 143.344C137.49 143.344 122.982 141.139 112.665 137.686C107.486 135.952 103.583 133.976 101.057 131.977C98.4871 129.943 97.873 128.34 97.873 127.318C97.873 126.297 98.4871 124.694 101.057 122.66C103.583 120.661 107.486 118.685 112.665 116.951C122.982 113.498 137.49 111.293 153.699 111.293Z" fill="#0e4f5c" stroke="white" stroke-width="8"/>
<rect x="99.832" y="107.293" width="107.103" height="20.3789" fill="#0e4f5c"/>
<path d="M153.699 80.0723C169.908 80.0723 184.416 82.2771 194.732 85.7305C199.912 87.4641 203.814 89.4401 206.341 91.4395C208.91 93.473 209.524 95.0764 209.524 96.0977C209.524 97.1189 208.91 98.7223 206.341 100.756C203.814 102.755 199.912 104.731 194.732 106.465C184.416 109.918 169.908 112.123 153.699 112.123C137.49 112.123 122.982 109.918 112.665 106.465C107.486 104.731 103.583 102.755 101.057 100.756C98.4871 98.7223 97.873 97.1189 97.873 96.0977C97.873 95.0764 98.4871 93.473 101.057 91.4395C103.583 89.4401 107.486 87.4641 112.665 85.7305C122.982 82.2771 137.49 80.0723 153.699 80.0723Z" fill="#0e4f5c" stroke="white" stroke-width="8"/>
<path d="M701.813 95.0881L622.764 36.6387V155.359L701.813 213.974V95.0881Z" stroke="white" stroke-width="8"/>
<path d="M633.471 91.8903L689.774 134.09M634.801 116.006L691.105 158.205M634.801 138.533L691.105 180.733M647.718 83.0078L691.105 114.102" stroke="white" stroke-width="8"/>
<path d="M609.652 146.953V170.468L624.887 181.729M700.069 237.701L716.629 250.949V231.74M716.629 110.19V89.3244L702.719 78.7262M627.868 23.4162L609.652 9.50586V31.3648" stroke="#03a1c4" stroke-width="8"/>
<path d="M609.652 74.752L716.629 153.908" stroke="#03a1c4" stroke-width="8"/>
<path d="M900.006 59.7246L975.889 114.985L975.331 215.012L937.669 187.306L900.006 159.601L900.006 59.7246Z" stroke="white" stroke-width="5" stroke-linejoin="bevel"/>
<path d="M993.853 102.844L975.501 116.084L975.015 215.214L993.854 201.366L993.853 102.844Z" fill="#03a1c4" stroke="white" stroke-width="5" stroke-linejoin="bevel"/>
<path d="M918.839 47.4473L899.691 60.4779L975.426 116.133L993.769 102.864L918.839 47.4473Z" fill="#03a1c4" stroke="white" stroke-width="5" stroke-linejoin="bevel"/>
<path d="M937.946 123.588C944.113 128.068 949.112 137.879 949.112 145.502C949.112 151.048 946.464 153.906 942.647 153.326V164.847L933.244 158.015V146.494C929.426 141.527 926.779 134.823 926.779 129.276C926.779 121.654 931.779 119.107 937.946 123.588Z" fill="white"/>
<path d="M929.245 74.6837C926.161 74.6837 923.044 72.4493 921.871 71.3321V49.24L922.329 31.5199L923.294 24.502C925.312 18.5954 932.645 7.39624 945.839 9.85248C962.331 12.9228 968.12 28.362 970.84 36.4326C973.015 42.889 973.969 55.9655 974.173 61.6968L974.612 71.3321C975.138 80.0309 975.138 89.2418 975.138 98.1896C971.892 101.523 970.401 101.698 967.068 101.698C964.401 101.698 960.869 99.3592 959.436 98.1896V76.6974V57.3984L958.646 50.7314C957.734 44.6961 955.751 39.2397 954.611 36.4326C953.471 33.6254 947.242 26.3445 944.611 26.3445C943.733 25.8182 941.803 25.9059 939.786 26.3445C938.172 26.6954 937.337 30.8767 937.121 32.9235V41.5018V71.3321C935.781 72.4493 932.328 74.6837 929.245 74.6837Z" fill="#0e4f5c"/>
<path d="M926.982 17.7898C926.982 17.7898 931.7 11.8044 935.949 10.0847C940.197 8.36505 946.927 8.65641 953.051 12.3617C963.18 18.4901 970.54 28.2065 972.976 47.5577C974.968 63.3871 975.134 87.3062 974.968 97.2872" stroke="white" stroke-width="5"/>
<path d="M922.134 71.5187V35.9033C922.053 31.1702 922.484 24.0669 925.797 19.3636L927.187 17.582M959.66 98.797V60.7969C959.508 50.2118 956.256 24.4428 941.902 25.8872" stroke="white" stroke-width="5"/>
<path d="M942.432 25.7305C937.59 27.6454 936.994 31.2119 937.115 41.8075C937.236 52.4032 937.207 66.372 937.157 70.7869" stroke="white" stroke-width="5"/>
<path d="M921.877 70.8807C923.317 72.5392 927.455 75.5189 932.488 74.1701C936.112 73.199 937.769 70.5663 937.263 69.6074" stroke="white" stroke-width="5"/>
<path d="M959.543 98.1503C960.983 99.8087 965.121 102.788 970.154 101.44C973.778 100.469 975.435 97.8359 974.929 96.877" stroke="white" stroke-width="5"/>
<path d="M1014.06 60.0742V127.652L1021.7 122.229L1105.37 182.703V127.652L1014.06 60.0742Z" fill="#0e4f5c" stroke="white" stroke-width="5"/>
<path d="M993.854 9.07227V76.6499L1001.49 71.2267L1085.17 131.701V76.6499L993.854 9.07227Z" fill="white" stroke="#0e4f5c" stroke-width="5"/>
<path d="M1073.86 87.6578L1005.17 36.9727M1073.86 103.124L1005.17 52.4392" stroke="#0e4f5c" stroke-width="5"/>
<path d="M601.387 605.695V533.668L781.135 672.622L870.372 606.231V672.622L781.135 738.912L601.387 605.695Z" fill="#03a1c4" stroke="white" stroke-width="8"/>
<path d="M916.652 639.958L873.11 603.463L870.342 606.987V673.683L916.652 639.958Z" fill="#03a1c4" stroke="white" stroke-width="8"/>
<path d="M7.14648 834.951V705.566L98.9684 637.117L185.782 705.566L231.693 672.176L7.14648 503.558L231.693 335.773L781.79 738.955L872.777 672.176L916.764 639.654L872.777 603.53L778.903 672.176L601.969 532.756L829.034 366.881L1143.09 603.53L1146.04 672.176" stroke="white" stroke-width="8"/>
<path d="M5 569.566V503.225L231.822 671.241L185.587 705.648L5 569.566Z" fill="#03a1c4"/>
<path d="M5 503.225L7.38091 500.01L1 503.225H5ZM5 569.566H1V571.561L2.59274 572.761L5 569.566ZM185.587 705.648L183.18 708.843L185.572 710.646L187.975 708.857L185.587 705.648ZM231.822 671.241L234.21 674.45L238.532 671.234L234.203 668.027L231.822 671.241ZM5 503.225H1V569.566H5H9V503.225H5ZM5 569.566L2.59274 572.761L183.18 708.843L185.587 705.648L187.994 702.454L7.40726 566.372L5 569.566ZM185.587 705.648L187.975 708.857L234.21 674.45L231.822 671.241L229.434 668.032L183.199 702.439L185.587 705.648ZM231.822 671.241L234.203 668.027L7.38091 500.01L5 503.225L2.61909 506.439L229.441 674.455L231.822 671.241Z" fill="white"/>
<path d="M6.75977 770.957L92.0611 702.983L185.497 771.502L324.046 667.792L99.8015 502.723L232.215 400.875L780.37 807.319L1005.59 632.965L874.003 534.231L776.332 602.75L686.011 534.231L825.53 433.577L1147.88 673.395" stroke="white" stroke-width="8"/>
<path d="M92.0612 767.446L7.14275 834.758V770.191L92.0612 702.941L185.934 771.603L325.516 667.116V732.708L185.497 837.496L92.0612 767.446Z" fill="#03a1c4"/>
<path d="M780.37 871.783L232.215 465.338L143.208 534.443L99.7513 502.436L232.215 401.088L780.37 807.114L1004.87 632.169L825.531 498.041L734.763 569.897L686.748 534.23L825.531 433.968L1146.18 672.091V737.858L1004.87 632.169V706.405L957.897 737.858L780.37 871.783Z" fill="#03a1c4"/>
<path d="M7.14275 834.758H3.14275V843.033L9.62749 837.893L7.14275 834.758ZM92.0612 767.446L94.4607 764.246L91.9932 762.396L89.5765 764.311L92.0612 767.446ZM185.497 837.496L183.097 840.696L185.495 842.493L187.893 840.698L185.497 837.496ZM325.516 732.708L327.912 735.911L329.516 734.711V732.708H325.516ZM232.215 465.338L234.597 462.125L232.159 460.317L229.762 462.179L232.215 465.338ZM780.37 871.783L777.987 874.996L780.391 876.778L782.779 874.976L780.37 871.783ZM957.897 737.858L955.672 734.535L955.578 734.597L955.488 734.665L957.897 737.858ZM143.208 534.443L140.836 537.663L143.272 539.457L145.661 537.602L143.208 534.443ZM734.763 569.897L732.378 573.108L734.841 574.937L737.246 573.033L734.763 569.897ZM825.531 498.041L827.926 494.837L825.461 492.994L823.048 494.904L825.531 498.041ZM1146.18 737.858L1143.78 741.062L1150.18 745.845V737.858H1146.18ZM1146.18 672.091H1150.18V670.079L1148.56 668.88L1146.18 672.091ZM825.531 433.968L827.915 430.756L825.563 429.01L823.188 430.725L825.531 433.968ZM686.748 534.23L684.406 530.988L679.98 534.186L684.363 537.442L686.748 534.23ZM1004.87 706.405L1007.09 709.728L1008.87 708.54V706.405H1004.87ZM780.37 807.114L777.989 810.329L780.431 812.138L782.829 810.27L780.37 807.114ZM232.215 401.088L234.596 397.874L232.176 396.081L229.784 397.911L232.215 401.088ZM99.7513 502.436L97.3208 499.259L93.089 502.496L97.3792 505.656L99.7513 502.436ZM325.516 667.116H329.516L323.119 663.914L325.516 667.116ZM185.934 771.603L183.573 774.832L185.962 776.579L188.331 774.805L185.934 771.603ZM92.0612 702.941L94.4227 699.713L91.965 697.915L89.5779 699.806L92.0612 702.941ZM7.14275 770.191L4.65942 767.055L3.14275 768.256V770.191H7.14275ZM7.14275 834.758L9.62749 837.893L94.546 770.581L92.0612 767.446L89.5765 764.311L4.658 831.624L7.14275 834.758ZM92.0612 767.446L89.6618 770.647L183.097 840.696L185.497 837.496L187.896 834.295L94.4607 764.246L92.0612 767.446ZM185.497 837.496L187.893 840.698L327.912 735.911L325.516 732.708L323.119 729.506L183.1 834.293L185.497 837.496ZM232.215 465.338L229.833 468.551L777.987 874.996L780.37 871.783L782.752 868.569L234.597 462.125L232.215 465.338ZM780.37 871.783L782.779 874.976L960.306 741.052L957.897 737.858L955.488 734.665L777.961 868.589L780.37 871.783ZM143.208 534.443L145.661 537.602L234.668 468.498L232.215 465.338L229.762 462.179L140.755 531.283L143.208 534.443ZM734.763 569.897L737.246 573.033L828.013 501.177L825.531 498.041L823.048 494.904L732.281 566.761L734.763 569.897ZM1146.18 737.858H1150.18V672.091H1146.18H1142.18V737.858H1146.18ZM1146.18 672.091L1148.56 668.88L827.915 430.756L825.531 433.968L823.146 437.179L1143.79 675.303L1146.18 672.091ZM825.531 433.968L823.188 430.725L684.406 530.988L686.748 534.23L689.091 537.473L827.873 437.21L825.531 433.968ZM686.748 534.23L684.363 537.442L732.378 573.108L734.763 569.897L737.149 566.686L689.134 531.019L686.748 534.23ZM957.897 737.858L960.123 741.182L1007.09 709.728L1004.87 706.405L1002.64 703.081L955.672 734.535L957.897 737.858ZM825.531 498.041L823.135 501.244L1002.47 635.372L1004.87 632.169L1007.26 628.966L827.926 494.837L825.531 498.041ZM1004.87 632.169L1002.47 635.372L1143.78 741.062L1146.18 737.858L1148.57 734.655L1007.26 628.966L1004.87 632.169ZM1004.87 706.405H1008.87V632.169H1004.87H1000.87V706.405H1004.87ZM1004.87 632.169L1002.41 629.014L777.911 803.959L780.37 807.114L782.829 810.27L1007.32 635.324L1004.87 632.169ZM780.37 807.114L782.751 803.9L234.596 397.874L232.215 401.088L229.834 404.302L777.989 810.329L780.37 807.114ZM232.215 401.088L229.784 397.911L97.3208 499.259L99.7513 502.436L102.182 505.612L234.646 404.265L232.215 401.088ZM99.7513 502.436L97.3792 505.656L140.836 537.663L143.208 534.443L145.581 531.222L102.123 499.215L99.7513 502.436ZM325.516 732.708H329.516V667.116H325.516H321.516V732.708H325.516ZM325.516 667.116L323.119 663.914L183.537 768.401L185.934 771.603L188.331 774.805L327.913 670.318L325.516 667.116ZM185.934 771.603L188.296 768.375L94.4227 699.713L92.0612 702.941L89.6998 706.17L183.573 774.832L185.934 771.603ZM92.0612 702.941L89.5779 699.806L4.65942 767.055L7.14275 770.191L9.62607 773.327L94.5446 706.077L92.0612 702.941ZM7.14275 770.191H3.14275V834.758H7.14275H11.1427V770.191H7.14275Z" fill="white"/>
<path d="M827.922 499.321V431.965" stroke="white" stroke-width="8"/>
<path d="M637.684 675.714L642.391 672.136L647.099 668.558L655.91 668.078L684.198 689.438V696.177L679.678 699.504L675.158 702.831H665.975L638.055 682.006L637.684 675.714Z" fill="white"/>
<path d="M660.939 652.428L669.6 637.428L652.279 637.428L660.939 652.428ZM660.939 637.622L662.439 637.622L662.439 627.752L660.939 627.752L659.439 627.752L659.439 637.622L660.939 637.622ZM660.939 617.881L662.439 617.881L662.439 608.011L660.939 608.011L659.439 608.011L659.439 617.881L660.939 617.881ZM660.939 598.141L662.439 598.141L662.439 588.27L660.939 588.27L659.439 588.27L659.439 598.141L660.939 598.141ZM660.939 578.4L662.439 578.4L662.439 568.529L660.939 568.529L659.439 568.529L659.439 578.4L660.939 578.4ZM660.939 558.659L662.439 558.659L662.439 548.789L660.939 548.789L659.439 548.789L659.439 558.659L660.939 558.659ZM660.939 538.918L662.439 538.918L662.439 529.048L660.939 529.048L659.439 529.048L659.439 538.918L660.939 538.918ZM660.939 519.177L662.439 519.177L662.439 509.307L660.939 509.307L659.439 509.307L659.439 519.177L660.939 519.177ZM660.939 499.437L662.439 499.437L662.439 489.566L660.939 489.566L659.439 489.566L659.439 499.437L660.939 499.437ZM660.939 479.696L662.439 479.696L662.439 469.826L660.939 469.826L659.439 469.826L659.439 479.696L660.939 479.696ZM660.939 459.955L662.439 459.955L662.439 450.085L660.939 450.085L659.439 450.085L659.439 459.955L660.939 459.955ZM660.939 440.214L662.439 440.214L662.439 430.344L660.939 430.344L659.439 430.344L659.439 440.214L660.939 440.214ZM660.939 420.474L662.439 420.474L662.439 410.603L660.939 410.603L659.439 410.603L659.439 420.474L660.939 420.474ZM660.939 400.733L662.439 400.733L662.439 390.862L660.939 390.862L659.439 390.862L659.439 400.733L660.939 400.733ZM660.939 380.992L662.439 380.992L662.439 371.122L660.939 371.122L659.439 371.122L659.439 380.992L660.939 380.992ZM660.939 361.251L662.439 361.251L662.439 351.381L660.939 351.381L659.439 351.381L659.439 361.251L660.939 361.251ZM660.939 341.51L662.439 341.51L662.439 331.64L660.939 331.64L659.439 331.64L659.439 341.51L660.939 341.51ZM660.939 321.77L662.439 321.77L662.439 311.899L660.939 311.899L659.439 311.899L659.439 321.77L660.939 321.77ZM660.939 302.029L662.439 302.029L662.439 292.158L660.939 292.158L659.439 292.158L659.439 302.029L660.939 302.029ZM660.939 282.288L662.439 282.288L662.439 272.418L660.939 272.418L659.439 272.418L659.439 282.288L660.939 282.288ZM660.939 262.547L662.439 262.547L662.439 252.677L660.939 252.677L659.439 252.677L659.439 262.547L660.939 262.547ZM660.939 242.807L662.439 242.807L662.439 232.936L660.939 232.936L659.439 232.936L659.439 242.807L660.939 242.807ZM660.939 223.066L662.439 223.066L662.439 218.131L660.939 218.131L659.439 218.131L659.439 223.066L660.939 223.066Z" fill="#a8f2ff"/>
<path d="M252.459 629.439L261.12 614.439L243.799 614.439L252.459 629.439ZM974.691 450.08L983.352 435.08L966.031 435.08L974.691 450.08ZM252.459 614.369L253.959 614.369L253.959 604.321L252.459 604.321L250.959 604.321L250.959 614.369L252.459 614.369ZM252.459 594.274L253.959 594.274L253.959 584.227L252.459 584.227L250.959 584.227L250.959 594.274L252.459 594.274ZM252.459 574.18L253.959 574.18L253.959 564.133L252.459 564.133L250.959 564.133L250.959 574.18L252.459 574.18ZM252.459 554.085L253.959 554.085L253.959 544.038L252.459 544.038L250.959 544.038L250.959 554.085L252.459 554.085ZM252.459 533.991L253.959 533.991L253.959 523.944L252.459 523.944L250.959 523.944L250.959 533.991L252.459 533.991ZM252.459 513.897L253.959 513.897L253.959 503.85L252.459 503.85L250.959 503.85L250.959 513.897L252.459 513.897ZM252.459 493.802L253.959 493.802L253.959 483.755L252.459 483.755L250.959 483.755L250.959 493.802L252.459 493.802ZM252.459 473.708L253.959 473.708L253.959 463.661L252.459 463.661L250.959 463.661L250.959 473.708L252.459 473.708ZM252.459 453.614L253.959 453.614L253.959 443.566L252.459 443.566L250.959 443.566L250.959 453.614L252.459 453.614ZM252.459 433.519L253.959 433.519L253.959 423.472L252.459 423.472L250.959 423.472L250.959 433.519L252.459 433.519ZM252.459 413.425L253.959 413.425L253.959 403.378L252.459 403.378L250.959 403.378L250.959 413.425L252.459 413.425ZM252.459 393.33L253.959 393.33L253.959 383.283L252.459 383.283L250.959 383.283L250.959 393.33L252.459 393.33ZM252.459 373.236L253.959 373.236L253.959 363.189L252.459 363.189L250.959 363.189L250.959 373.236L252.459 373.236ZM252.459 353.142L253.959 353.142L253.959 343.094L252.459 343.094L250.959 343.094L250.959 353.142L252.459 353.142ZM252.459 333.047L253.959 333.047L253.959 323L252.459 323L250.959 323L250.959 333.047L252.459 333.047ZM252.459 312.953L253.959 312.953L253.959 302.906L252.459 302.906L250.959 302.906L250.959 312.953L252.459 312.953ZM252.459 292.859L253.959 292.859L253.959 282.811L252.459 282.811L250.959 282.811L250.959 292.859L252.459 292.859ZM252.459 272.764L253.959 272.764L253.959 262.717L252.459 262.717L250.959 262.717L250.959 272.764L252.459 272.764ZM252.459 252.67L253.959 252.67L253.959 242.623L252.459 242.623L250.959 242.623L250.959 252.67L252.459 252.67ZM252.459 232.575L253.959 232.575L253.959 222.528L252.459 222.528L250.959 222.528L250.959 232.575L252.459 232.575ZM252.459 212.481L253.959 212.481L253.959 202.434L252.459 202.434L250.959 202.434L250.959 212.481L252.459 212.481ZM252.459 192.387L253.959 192.387L253.959 182.34L252.459 182.34L250.959 182.34L250.959 192.387L252.459 192.387ZM252.459 172.292L253.959 172.292L253.959 162.245L252.459 162.245L250.959 162.245L250.959 172.292L252.459 172.292ZM252.459 152.198L253.959 152.198L253.959 142.151L252.459 142.151L250.959 142.151L250.959 152.198L252.459 152.198ZM252.459 132.104L253.959 132.104L253.959 127.08L252.459 127.08L250.959 127.08L250.959 132.104L252.459 132.104ZM974.691 434.418L976.191 434.418L976.191 423.976L974.691 423.976L973.191 423.976L973.191 434.418L974.691 434.418ZM974.691 413.534L976.191 413.534L976.191 403.092L974.691 403.092L973.191 403.092L973.191 413.534L974.691 413.534ZM974.691 392.651L976.191 392.651L976.191 382.209L974.691 382.209L973.191 382.209L973.191 392.651L974.691 392.651ZM974.691 371.767L976.191 371.767L976.191 361.325L974.691 361.325L973.191 361.325L973.191 371.767L974.691 371.767ZM974.691 350.883L976.191 350.883L976.191 340.442L974.691 340.442L973.191 340.442L973.191 350.883L974.691 350.883ZM974.691 330L976.191 330L976.191 319.558L974.691 319.558L973.191 319.558L973.191 330L974.691 330ZM974.691 309.116L976.191 309.116L976.191 298.674L974.691 298.674L973.191 298.674L973.191 309.116L974.691 309.116ZM974.691 288.233L976.191 288.233L976.191 277.791L974.691 277.791L973.191 277.791L973.191 288.233L974.691 288.233ZM974.691 267.349L976.191 267.349L976.191 256.907L974.691 256.907L973.191 256.907L973.191 267.349L974.691 267.349ZM974.691 246.466L976.191 246.466L976.191 236.024L974.691 236.024L973.191 236.024L973.191 246.466L974.691 246.466ZM974.691 225.582L976.191 225.582L976.191 220.361L974.691 220.361L973.191 220.361L973.191 225.582L974.691 225.582Z" fill="#a8f2ff"/>
</svg>
