<svg width="713" height="1133" viewBox="0 0 713 1133" fill="none" xmlns="http://www.w3.org/2000/svg">
<path d="M708.9 639.9V670.7L98.2999 1128.6V1097.3L708.9 639.9Z" fill="#D0E0F1" stroke="black" stroke-width="7" stroke-linejoin="round"/>
<path d="M67.7999 1073.8L98.2999 1097.3L708.9 639.9L678.4 616.6L67.7999 1073.8Z" fill="white" stroke="black" stroke-width="7" stroke-linejoin="round"/>
<path d="M678.4 616.6L678.3 31.5L67.7999 488.9V1073.8L678.4 616.6Z" fill="#D0E0F1" stroke="black" stroke-width="7" stroke-linejoin="round"/>
<path d="M67.7999 1074.5L29.5 1046.9L30.5 461.4L67.7999 489.2L67.7999 1074.5Z" fill="white" stroke="black" stroke-width="7" stroke-linejoin="round"/>
<path d="M67.7998 489.2L30.4999 461.4L641.1 4L678.3 31.7996L67.7998 489.2Z" fill="white" stroke="black" stroke-width="7" stroke-linejoin="round"/>
<path d="M98.2998 1097.3V1128.6L3.99994 1058.2V1027.4L98.2998 1097.3Z" fill="white" stroke="black" stroke-width="7" stroke-linecap="round" stroke-linejoin="round"/>
<path d="M28.9207 1009L4.00244 1027.24L29.0024 1045L28.9207 1009Z" fill="white" stroke="black" stroke-width="7" stroke-linecap="round" stroke-linejoin="round"/>
<path d="M654 173.4L631 155.9C625.123 151.901 616.308 151.982 609.697 156.879L133.59 512.76C123.795 520.105 118 531.695 118 543.937V973.371C118.082 978.186 119.877 982.348 122.816 985.45L149 1002.9" fill="white"/>
<path d="M654 173.4L631 155.9C625.123 151.901 616.308 151.982 609.697 156.879L133.59 512.76C123.795 520.105 118 531.695 118 543.937V973.371C118.082 978.186 119.877 982.348 122.816 985.45L149 1002.9" stroke="black" stroke-width="7" stroke-linejoin="round"/>
<path d="M162.316 1007.9C166.725 1007.9 171.052 1006.43 174.644 1003.74L644.99 650.548C655.441 642.71 661.727 630.137 661.727 617.074V189.491C661.727 178.061 652.42 168.753 640.99 168.753C637 168.4 632.254 170.223 628.662 172.917L158.315 526.105C147.865 533.943 141.578 546.516 141.578 559.579V987.081C141.578 992.796 143.864 998.103 147.947 1002.02C151.784 1005.7 157.009 1007.74 162.316 1007.74V1007.9Z" fill="#D0E0F1" stroke="black" stroke-width="7" stroke-linejoin="round"/>
<path d="M628 260.9L628 662.9" stroke="black" stroke-width="7" stroke-linecap="round" stroke-linejoin="round"/>
<path d="M445 399.9L445 800.9" stroke="black" stroke-width="7" stroke-miterlimit="10" stroke-linecap="round"/>
<path d="M257 539.9L257 939.9" stroke="black" stroke-width="7" stroke-miterlimit="10" stroke-linecap="round"/>
<path d="M658.687 236.9L143.11 623.675" stroke="black" stroke-width="7" stroke-miterlimit="10" stroke-linecap="square"/>
<path d="M169.501 891.427L195.708 871.751" stroke="black" stroke-width="7" stroke-linecap="round" stroke-linejoin="round"/>
<path d="M169.501 805.842L195.708 786.166" stroke="black" stroke-width="7" stroke-linecap="round" stroke-linejoin="round"/>
<path d="M169.501 714.87L220.61 675.437" stroke="black" stroke-width="7" stroke-linecap="round" stroke-linejoin="round"/>
<path d="M169.5 944.221L211.791 911.401" stroke="black" stroke-width="7" stroke-linecap="round" stroke-linejoin="round"/>
<path d="M169.5 852.023L204.525 825.815" stroke="black" stroke-width="7" stroke-linecap="round" stroke-linejoin="round"/>
<path d="M169.5 655.428L204.525 629.221" stroke="black" stroke-width="7" stroke-linecap="round" stroke-linejoin="round"/>
<path d="M169.5 766.425L211.465 734.911" stroke="black" stroke-width="7" stroke-linecap="round" stroke-linejoin="round"/>
<path d="M606.736 342.06V406.026L478.804 501.957L468.484 494.245L468.149 429.981L596.193 334.125L606.736 342.06Z" fill="white" stroke="black" stroke-width="7" stroke-linecap="round" stroke-linejoin="round"/>
<path d="M606.736 342.06V406.026L478.804 501.957V437.991L606.736 342.06Z" fill="#D0E0F1" stroke="black" stroke-width="7" stroke-linecap="round" stroke-linejoin="round"/>
<path d="M478.804 437.991L468.149 430.019" stroke="black" stroke-width="7" stroke-linecap="round" stroke-linejoin="round"/>
<path d="M606.737 451.16V515.126L478.804 611.094L468.485 603.345L468.149 539.081L596.194 443.262L606.737 451.16Z" fill="white" stroke="black" stroke-width="7" stroke-linecap="round" stroke-linejoin="round"/>
<path d="M606.737 451.16V515.126L478.804 611.094V547.128L606.737 451.16Z" fill="#D0E0F1" stroke="black" stroke-width="7" stroke-linecap="round" stroke-linejoin="round"/>
<path d="M478.804 547.128L468.149 539.119" stroke="black" stroke-width="7" stroke-linecap="round" stroke-linejoin="round"/>
<path d="M546.803 539.806L496.845 577.284" stroke="black" stroke-width="7" stroke-linecap="round" stroke-linejoin="round"/>
<path d="M528.404 534.136L496.812 557.83" stroke="black" stroke-width="7" stroke-linecap="round" stroke-linejoin="round"/>
<path d="M606.737 559.688V623.655L478.804 719.623L468.485 711.874L468.149 647.609L596.194 551.791L606.737 559.688Z" fill="white" stroke="black" stroke-width="7" stroke-linecap="round" stroke-linejoin="round"/>
<path d="M606.737 559.688V623.655L478.804 719.623V655.656L606.737 559.688Z" fill="#D0E0F1" stroke="black" stroke-width="7" stroke-linecap="round" stroke-linejoin="round"/>
<path d="M478.804 655.656L468.149 647.646" stroke="black" stroke-width="7" stroke-linecap="round" stroke-linejoin="round"/>
<path d="M546.803 648.352L496.845 685.83" stroke="black" stroke-width="7" stroke-linecap="round" stroke-linejoin="round"/>
<path d="M528.404 641.468L496.812 665.162" stroke="black" stroke-width="7" stroke-linecap="round" stroke-linejoin="round"/>
<path d="M528.404 443.498L496.812 467.191" stroke="black" stroke-width="7" stroke-linecap="round" stroke-linejoin="round"/>
<path d="M546.803 409.622L496.844 447.1" stroke="black" stroke-width="7" stroke-linecap="round" stroke-linejoin="round"/>
<path d="M421.3 477.342V541.345L293.368 637.276L283.048 629.564L282.676 565.263L410.757 469.444L421.3 477.342Z" fill="white" stroke="black" stroke-width="7" stroke-linecap="round" stroke-linejoin="round"/>
<path d="M421.3 477.342V541.345L293.368 637.276V573.31L421.3 477.342Z" fill="#D0E0F1" stroke="black" stroke-width="7" stroke-linecap="round" stroke-linejoin="round"/>
<path d="M293.368 573.31L282.676 565.337" stroke="black" stroke-width="7" stroke-linecap="round" stroke-linejoin="round"/>
<path d="M421.3 586.474V650.44L293.368 746.408L283.048 738.659L282.676 674.395L410.757 578.576L421.3 586.474Z" fill="white" stroke="black" stroke-width="7" stroke-linecap="round" stroke-linejoin="round"/>
<path d="M421.3 586.474V650.44L293.368 746.408V682.442L421.3 586.474Z" fill="#D0E0F1" stroke="black" stroke-width="7" stroke-linecap="round" stroke-linejoin="round"/>
<path d="M293.368 682.441L282.676 674.432" stroke="black" stroke-width="7" stroke-linecap="round" stroke-linejoin="round"/>
<path d="M337.373 563.938L309.134 585.098" stroke="black" stroke-width="7" stroke-linecap="round" stroke-linejoin="round"/>
<path d="M351.12 572.986L309.134 604.466" stroke="black" stroke-width="7" stroke-linecap="round" stroke-linejoin="round"/>
<path d="M366.425 649.039L309.053 692.03" stroke="black" stroke-width="7" stroke-linecap="round" stroke-linejoin="round"/>
<path d="M332.456 694.782L309.134 712.291" stroke="black" stroke-width="7" stroke-linecap="round" stroke-linejoin="round"/>
<path d="M406.588 706.978L381.388 691.125C368.635 681.218 362.258 670.286 359.183 648.992C351.668 597.408 376.15 523.96 413.728 484.788C439.236 458.483 462.238 459.216 480.116 470.44L499.179 481.254" fill="white"/>
<path d="M406.588 706.978L381.388 691.125C368.635 681.218 362.258 670.286 359.183 648.992C351.668 597.408 376.15 523.96 413.728 484.788C439.236 458.483 462.238 459.216 480.116 470.44L499.179 481.254" stroke="black" stroke-width="7" stroke-linecap="round" stroke-linejoin="round"/>
<path d="M438.883 500.462C476.575 461.404 513.128 471.425 520.644 523.009C528.159 574.593 503.677 648.041 466.099 687.213C428.407 726.385 391.854 716.251 384.338 664.667C376.823 613.082 401.305 539.635 438.883 500.462Z" fill="#046CD5" stroke="black" stroke-width="7" stroke-linecap="round" stroke-linejoin="round"/>
<path d="M439 656.192L489.952 572.367L439 551V656.192Z" fill="white" stroke="black" stroke-width="7" stroke-linecap="round" stroke-linejoin="round"/>
</svg>
