<svg width="1374" height="969" viewBox="0 0 1374 969" fill="none" xmlns="http://www.w3.org/2000/svg">
<path d="M1362.7 229.952L1255.43 307.701L1148.16 229.952V105.455L1255.43 24.3535L1362.7 105.455V229.952Z" fill="#0e4f5c"/>
<path d="M1255.43 307.701L1362.7 229.952V105.455M1255.43 307.701V187.633M1255.43 307.701L1148.16 229.952V105.455M1362.7 105.455L1255.43 187.633M1362.7 105.455L1255.43 24.3535L1148.16 105.455M1255.43 187.633L1148.16 105.455" stroke="white" stroke-width="8"/>
<path d="M1359.4 104.999L1255.43 184.646L1151.46 104.999L1255.43 26.3945L1359.4 104.999Z" fill="#03a1c4" stroke="white" stroke-width="4"/>
<path d="M1334.03 203.631C1331.7 205.381 1329.69 206.275 1327.99 206.312C1326.3 206.327 1324.99 205.535 1324.06 203.936C1323.13 202.338 1322.66 199.967 1322.66 196.824C1322.66 193.653 1323.13 190.558 1324.07 187.537C1325.01 184.516 1326.34 181.734 1328.04 179.191C1329.75 176.626 1331.75 174.485 1334.03 172.768C1336.3 171.051 1338.28 170.197 1339.96 170.204C1341.66 170.189 1342.97 170.988 1343.9 172.6C1344.84 174.204 1345.31 176.592 1345.31 179.762C1345.31 182.906 1344.85 185.972 1343.93 188.962C1343.01 191.952 1341.71 194.715 1340.01 197.25C1338.32 199.771 1336.33 201.898 1334.03 203.631ZM1334.03 197.899C1335.05 197.124 1335.96 196.133 1336.73 194.927C1337.5 193.707 1338.1 192.239 1338.52 190.524C1338.95 188.8 1339.17 186.79 1339.17 184.491C1339.17 182.123 1338.95 180.382 1338.52 179.267C1338.09 178.138 1337.49 177.54 1336.71 177.472C1335.94 177.391 1335.04 177.734 1334.03 178.5C1333 179.275 1332.1 180.287 1331.32 181.535C1330.55 182.783 1329.94 184.3 1329.5 186.087C1329.07 187.852 1328.85 189.912 1328.85 192.266C1328.85 194.564 1329.07 196.25 1329.5 197.324C1329.94 198.389 1330.55 198.948 1331.32 199.002C1332.1 199.041 1333 198.674 1334.03 197.899Z" fill="white"/>
<path d="M1307.99 222.841V199.06L1300.97 204.347V198.096L1320.62 183.284V189.536L1313.66 194.785V218.566L1307.99 222.841Z" fill="white"/>
<path d="M1279.64 244.202L1288.16 207.745L1294.02 203.333L1302.56 226.928L1296.96 231.153L1295.18 226.094L1287.09 232.193L1285.28 239.953L1279.64 244.202ZM1288.31 225.183L1293.87 220.996L1291.1 212.324L1288.31 225.183Z" fill="white"/>
<path d="M1206.61 150.799V271.489L1181.38 252.407V131.012L1206.61 150.799Z" fill="#03a1c4" stroke="white" stroke-width="8"/>
<path d="M1141.52 120.747V91.4941L1255.33 176.054L1370.52 91.4941V120.747L1255.33 204.85L1141.52 120.747Z" fill="#0e4f5c"/>
<path d="M1367.11 90.2871L1255.43 175.84L1143.75 90.2871L1255.43 5.85352L1367.11 90.2871Z" fill="#0e4f5c" stroke="white" stroke-width="8"/>
<path d="M1255.61 175.739V205.706M1255.61 205.706L1141.44 120.083V90.1152M1255.61 205.706L1369.77 120.083V90.1152" stroke="white" stroke-width="8"/>
<path d="M1205.25 138.313V167.317L1185.54 152.23L1185.54 123.604L1205.25 138.313Z" fill="#03a1c4" stroke="white" stroke-width="8"/>
<path d="M1316.35 50.6036L1298.25 36.8613L1275.1 54.4616L1280.15 78.736L1316.35 50.6036Z" fill="#03a1c4"/>
<path d="M1185.51 122.577L1204.88 137.236L1247.03 104.115L1217.77 98.0497L1185.51 122.577Z" fill="#03a1c4"/>
<path d="M1316.35 50.6036L1298.25 36.8613L1275.1 54.4616L1280.15 78.736L1316.35 50.6036Z" stroke="white" stroke-width="8"/>
<path d="M1185.51 122.577L1204.88 137.236L1247.03 104.115L1217.77 98.0497L1185.51 122.577Z" stroke="white" stroke-width="8"/>
<path d="M1271.08 55.4238C1258.33 48.2961 1254.04 66.0825 1254.49 74.6251C1240.58 44.5397 1270.25 33.4355 1281.3 35.8501C1292.35 38.2647 1298.67 53.0536 1293.81 63.3646C1288.95 73.6756 1269.01 76.9612 1259.64 77.3152C1269.44 72.1602 1283.83 62.5514 1271.08 55.4238Z" fill="#03a1c4" stroke="white" stroke-width="8"/>
<path d="M1222.26 90.247C1221.57 75.6548 1239.4 79.7535 1246.84 83.9734C1226.13 58.0918 1202.95 79.6945 1200.18 90.6622C1197.41 101.63 1207.82 113.884 1219.22 114.135C1230.62 114.386 1242.46 98.0045 1246.95 89.7825C1237.97 96.2484 1222.95 104.839 1222.26 90.247Z" fill="#03a1c4" stroke="white" stroke-width="8"/>
<path d="M1247.53 129.408C1235.37 111.168 1242.47 97.4891 1247.53 92.9297H1254.37C1253.87 96.2228 1255.21 106.229 1264.63 119.908C1274.06 133.588 1268.56 148.915 1264.63 154.868L1260.07 148.408L1248.9 150.102C1248.49 150.295 1248.03 150.37 1247.53 150.308L1248.9 150.102C1252.61 148.333 1252.38 136.679 1247.53 129.408Z" fill="#03a1c4" stroke="white" stroke-width="8"/>
<path d="M1297.34 82.1964C1279.33 69.6866 1265.52 76.5145 1260.86 81.4921L1260.73 88.3309C1264.03 87.8879 1274.01 89.4235 1287.51 99.1096C1301 108.796 1316.43 103.595 1322.46 99.7845L1316.09 95.1007L1318 83.957C1318.2 83.554 1318.28 83.1015 1318.23 82.5998L1318 83.957C1316.16 87.6335 1304.51 87.183 1297.34 82.1964Z" fill="#03a1c4" stroke="white" stroke-width="8"/>
<circle cx="1251.81" cy="82.1777" r="9.39642" fill="#03a1c4" stroke="white" stroke-width="8"/>
<path d="M132.613 801.553V864.734L303.59 739.329L89.1455 581.376L132.613 552.677L515.529 835.161L686.884 708.178L558.959 613.924L686.884 521.067L941.523 705.824L1155 551.7L898.445 358.327L941.523 328.651L1195.2 521.067V455.014L941.523 266.428L810.374 363.114L1065.97 551.7L941.523 643.6L686.884 455.014L471.493 613.924L601.685 705.824L515.529 771.877L132.613 487.562L5.29297 581.376L218.769 739.329L132.613 801.553Z" stroke="#a8f2ff" stroke-width="5" stroke-dasharray="20 20"/>
<path d="M132.397 881.799V948.051L304.455 822.468V757.205L519.034 916.408L689.115 788.848V724.573M604.074 661.287L689.115 597.012L944.695 785.716L1160.25 628.41V567.415L1201.93 597.012V535.9M813.591 379.344V440.34L1029.11 597.012M470.998 628.41V690.423L560.459 757.205M3.36328 597.012V661.287L176.603 786.374" stroke="#a8f2ff" stroke-width="5" stroke-dasharray="20 20"/>
<path d="M1162.04 383.92L1155.69 379.284L1128.13 359.188L307.739 964.182L306.681 964.963H213.688L223.354 957.756L1076.62 321.629L1053.8 304.991L1045.85 299.193L1055.59 297.8L1157.48 283.214L1162.04 282.561V383.92Z" fill="#03a1c4"/>
<path d="M1162.04 383.92L1159.69 387.152L1166.04 391.787V383.92H1162.04ZM1155.69 379.284L1158.04 376.052L1158.04 376.052L1155.69 379.284ZM1128.13 359.188L1130.48 355.956L1128.11 354.228L1125.75 355.969L1128.13 359.188ZM307.739 964.182L305.365 960.962L305.364 960.963L307.739 964.182ZM306.681 964.963V968.963H307.997L309.056 968.181L306.681 964.963ZM213.688 964.963L211.297 961.756L201.63 968.963H213.688V964.963ZM223.354 957.756L220.964 954.549L220.964 954.549L223.354 957.756ZM1076.62 321.629L1079.01 324.836L1083.36 321.593L1078.97 318.397L1076.62 321.629ZM1053.8 304.991L1051.44 308.223L1051.44 308.223L1053.8 304.991ZM1045.85 299.193L1045.28 295.234L1035.54 296.627L1043.49 302.425L1045.85 299.193ZM1055.59 297.8L1056.16 301.759L1056.16 301.759L1055.59 297.8ZM1157.48 283.214L1156.91 279.254L1156.91 279.254L1157.48 283.214ZM1162.04 282.561H1166.04V277.948L1161.48 278.601L1162.04 282.561ZM1162.04 383.92L1164.4 380.688L1158.04 376.052L1155.69 379.284L1153.33 382.516L1159.69 387.152L1162.04 383.92ZM1155.69 379.284L1158.04 376.052L1130.48 355.956L1128.13 359.188L1125.77 362.42L1153.33 382.516L1155.69 379.284ZM1128.13 359.188L1125.75 355.969L305.365 960.962L307.739 964.182L310.113 967.401L1130.5 362.408L1128.13 359.188ZM307.739 964.182L305.364 960.963L304.305 961.744L306.681 964.963L309.056 968.181L310.114 967.4L307.739 964.182ZM306.681 964.963V960.963H213.688V964.963V968.963H306.681V964.963ZM213.688 964.963L216.078 968.17L225.745 960.963L223.354 957.756L220.964 954.549L211.297 961.756L213.688 964.963ZM223.354 957.756L225.745 960.963L1079.01 324.836L1076.62 321.629L1074.23 318.422L220.964 954.549L223.354 957.756ZM1076.62 321.629L1078.97 318.397L1056.16 301.759L1053.8 304.991L1051.44 308.223L1074.26 324.861L1076.62 321.629ZM1053.8 304.991L1056.16 301.759L1048.21 295.961L1045.85 299.193L1043.49 302.425L1051.44 308.223L1053.8 304.991ZM1045.85 299.193L1046.42 303.153L1056.16 301.759L1055.59 297.8L1055.02 293.84L1045.28 295.234L1045.85 299.193ZM1055.59 297.8L1056.16 301.759L1158.04 287.173L1157.48 283.214L1156.91 279.254L1055.02 293.84L1055.59 297.8ZM1157.48 283.214L1158.04 287.174L1162.61 286.52L1162.04 282.561L1161.48 278.601L1156.91 279.254L1157.48 283.214ZM1162.04 282.561H1158.04V383.92H1162.04H1166.04V282.561H1162.04Z" fill="white"/>
</svg>
