<svg width="366" height="725" viewBox="0 0 366 725" fill="none" xmlns="http://www.w3.org/2000/svg">
<path d="M177.668 231.885C178.335 231.895 178.867 232.444 178.857 233.112L176.062 420.447C176.052 421.114 175.503 421.647 174.836 421.638C174.169 421.627 173.637 421.078 173.647 420.411L176.442 233.075C176.452 232.408 177.001 231.875 177.668 231.885Z" fill="black"/>
<path d="M217.128 263.412V452.647L196.078 468.428V279.193L217.128 263.412Z" fill="#046CD5"/>
<path d="M216.404 262.445C216.77 262.171 217.26 262.127 217.669 262.332C218.077 262.537 218.336 262.955 218.336 263.413V452.647C218.336 453.028 218.157 453.386 217.852 453.614L196.802 469.396C196.436 469.67 195.946 469.714 195.537 469.509C195.128 469.304 194.87 468.886 194.87 468.428V279.194C194.87 278.813 195.049 278.454 195.353 278.226L216.404 262.445ZM197.285 279.798V466.013L215.92 452.043V265.828L197.285 279.798Z" fill="black"/>
<path d="M153.942 247.597L196.077 279.193V468.428L153.942 436.831V247.597Z" fill="white"/>
<path d="M153.401 246.516C153.811 246.312 154.3 246.356 154.666 246.63L196.802 278.227C197.106 278.455 197.285 278.813 197.285 279.194V468.428C197.285 468.886 197.027 469.305 196.618 469.509C196.209 469.714 195.719 469.67 195.353 469.396L153.217 437.799C152.913 437.571 152.734 437.212 152.734 436.832V247.597C152.734 247.139 152.992 246.721 153.401 246.516ZM155.15 436.227L194.869 466.012V279.798L155.15 250.013V436.227Z" fill="black"/>
<path d="M174.854 231.264L216.99 262.895L196.215 278.71L154.08 247.079L174.854 231.264Z" fill="white"/>
<path d="M174.205 230.244C174.626 229.975 175.174 229.993 175.579 230.297L217.715 261.928C218.018 262.155 218.196 262.511 218.198 262.89C218.199 263.269 218.023 263.627 217.721 263.857L196.947 279.672C196.517 279.999 195.923 280.001 195.491 279.677L153.355 248.046C153.052 247.818 152.873 247.462 152.872 247.083C152.871 246.704 153.047 246.347 153.349 246.117L174.123 230.302L174.205 230.244ZM156.084 247.072L196.21 277.195L214.986 262.901L174.859 232.778L156.084 247.072Z" fill="black"/>
<path d="M301.434 389.522L343.569 421.154V515.875L301.434 484.243V389.522Z" fill="white"/>
<path d="M300.893 388.442C301.302 388.237 301.792 388.282 302.158 388.556L344.294 420.187C344.598 420.416 344.777 420.774 344.777 421.154V515.875C344.777 516.333 344.518 516.751 344.109 516.956C343.7 517.161 343.21 517.117 342.844 516.842L300.709 485.211C300.404 484.983 300.226 484.624 300.226 484.244V389.523L300.229 389.438C300.259 389.014 300.51 388.634 300.893 388.442ZM302.641 483.64L342.361 513.457V421.758L302.641 391.941V483.64Z" fill="black"/>
<path d="M322.484 373.707L364.482 405.235L343.569 421.154L301.434 389.523L322.484 373.707Z" fill="white"/>
<path d="M321.759 372.74C322.188 372.417 322.779 372.417 323.209 372.74L365.206 404.267C365.509 404.495 365.688 404.851 365.689 405.23C365.691 405.609 365.514 405.967 365.213 406.196L344.3 422.115C343.87 422.442 343.276 422.444 342.844 422.12L300.709 390.489C300.405 390.261 300.226 389.903 300.226 389.523C300.226 389.142 300.404 388.784 300.708 388.556L321.759 372.74ZM303.445 389.522L343.563 419.638L362.478 405.241L322.484 375.218L303.445 389.522Z" fill="black"/>
<path d="M364.619 405.338V500.059L343.569 515.874V421.153L364.619 405.338Z" fill="#046CD5"/>
<path d="M363.894 404.372C364.26 404.097 364.75 404.053 365.16 404.257C365.569 404.462 365.827 404.881 365.827 405.338V500.059C365.827 500.44 365.649 500.798 365.345 501.026L344.294 516.841C343.928 517.116 343.439 517.161 343.029 516.956C342.62 516.751 342.361 516.333 342.361 515.875V421.154C342.361 420.774 342.54 420.416 342.844 420.188L363.894 404.372ZM344.777 421.758V513.456L363.412 499.455V407.757L344.777 421.758Z" fill="black"/>
<path d="M301.571 611.459L343.707 643.056V706.353L301.571 674.756V611.459Z" fill="white"/>
<path d="M301.031 610.378C301.44 610.173 301.93 610.217 302.296 610.491L344.432 642.088C344.736 642.316 344.915 642.675 344.915 643.055V706.352C344.915 706.81 344.657 707.228 344.248 707.433C343.839 707.638 343.349 707.594 342.983 707.319L300.847 675.723C300.543 675.494 300.364 675.136 300.364 674.755V611.459L300.367 611.373C300.397 610.949 300.648 610.57 301.031 610.378ZM302.779 674.151L342.499 703.936V643.659L302.779 613.874V674.151Z" fill="black"/>
<path d="M322.656 595.644L364.792 627.24L343.707 643.056L301.571 611.459L322.656 595.644Z" fill="white"/>
<path d="M322.015 594.619C322.435 594.355 322.979 594.374 323.381 594.676L365.516 626.273C365.821 626.501 366 626.859 366 627.24C366 627.62 365.821 627.979 365.516 628.207L344.432 644.023C344.002 644.345 343.412 644.345 342.983 644.023L300.847 612.426C300.543 612.198 300.364 611.839 300.364 611.459C300.364 611.078 300.543 610.72 300.847 610.492L321.932 594.676L322.015 594.619ZM303.586 611.458L343.707 641.545L362.778 627.24L322.656 597.154L303.586 611.458Z" fill="black"/>
<path d="M364.792 627.24V690.572L343.707 706.353V643.056L364.792 627.24Z" fill="#046CD5"/>
<path d="M364.068 626.273C364.434 625.998 364.923 625.954 365.332 626.159C365.741 626.364 366 626.782 366 627.24V690.571C366 690.952 365.82 691.311 365.515 691.539L344.43 707.32C344.064 707.594 343.575 707.638 343.166 707.433C342.757 707.228 342.499 706.81 342.499 706.352V643.055C342.499 642.675 342.678 642.316 342.982 642.088L364.068 626.273ZM344.915 643.66V703.939L363.584 689.966V629.656L344.915 643.66Z" fill="black"/>
<path d="M26.1201 500.059V498.35C26.1202 497.588 26.7382 496.969 27.5005 496.969C28.2628 496.969 28.8808 497.588 28.8808 498.35V500.059C28.8808 500.822 28.2628 501.44 27.5005 501.44C26.7381 501.44 26.1201 500.822 26.1201 500.059ZM26.1201 491.517V488.1C26.1202 487.338 26.7382 486.719 27.5005 486.719C28.2628 486.719 28.8808 487.338 28.8808 488.1V491.517C28.8808 492.28 28.2628 492.898 27.5005 492.898C26.7381 492.898 26.1201 492.28 26.1201 491.517ZM26.1201 481.267V477.851C26.1201 477.088 26.7381 476.469 27.5005 476.469C28.2628 476.469 28.8808 477.088 28.8808 477.851V481.267C28.8808 482.03 28.2628 482.648 27.5005 482.648C26.7381 482.648 26.1201 482.03 26.1201 481.267ZM26.1201 471.017V467.601C26.1201 466.838 26.7381 466.22 27.5005 466.22C28.2628 466.22 28.8808 466.838 28.8808 467.601V471.017C28.8808 471.78 28.2628 472.398 27.5005 472.398C26.7381 472.398 26.1201 471.78 26.1201 471.017ZM26.1201 460.767V457.351C26.1201 456.588 26.7381 455.97 27.5005 455.97C28.2628 455.97 28.8808 456.588 28.8808 457.351V460.767C28.8808 461.53 28.2628 462.149 27.5005 462.149C26.7381 462.149 26.1201 461.53 26.1201 460.767ZM26.1201 450.518V447.101C26.1201 446.338 26.7381 445.72 27.5005 445.72C28.2628 445.72 28.8808 446.338 28.8808 447.101V450.518C28.8808 451.28 28.2628 451.899 27.5005 451.899C26.7382 451.899 26.1202 451.28 26.1201 450.518ZM26.1201 440.268V436.851C26.1201 436.088 26.7381 435.47 27.5005 435.47C28.2628 435.47 28.8808 436.088 28.8808 436.851V440.268C28.8808 441.03 28.2628 441.649 27.5005 441.649C26.7382 441.649 26.1202 441.03 26.1201 440.268ZM26.1201 430.018V426.601C26.1201 425.838 26.7381 425.22 27.5005 425.22C28.2628 425.22 28.8808 425.838 28.8808 426.601V430.018C28.8808 430.781 28.2628 431.399 27.5005 431.399C26.7382 431.399 26.1202 430.781 26.1201 430.018ZM26.1201 419.768V416.351C26.1202 415.588 26.7382 414.97 27.5005 414.97C28.2628 414.97 28.8808 415.588 28.8808 416.351V419.768C28.8808 420.531 28.2628 421.149 27.5005 421.149C26.7381 421.149 26.1201 420.531 26.1201 419.768ZM26.1201 409.518V406.101C26.1202 405.338 26.7382 404.72 27.5005 404.72C28.2628 404.72 28.8808 405.338 28.8808 406.101V409.518C28.8808 410.281 28.2628 410.899 27.5005 410.899C26.7381 410.899 26.1201 410.281 26.1201 409.518ZM26.1201 399.268V395.851C26.1202 395.088 26.7382 394.47 27.5005 394.47C28.2628 394.47 28.8808 395.088 28.8808 395.851V399.268C28.8808 400.031 28.2628 400.649 27.5005 400.649C26.7381 400.649 26.1201 400.031 26.1201 399.268ZM26.1201 389.018V385.601C26.1201 384.839 26.7381 384.22 27.5005 384.22C28.2628 384.22 28.8808 384.839 28.8808 385.601V389.018C28.8808 389.781 28.2628 390.399 27.5005 390.399C26.7381 390.399 26.1201 389.781 26.1201 389.018ZM26.1201 378.768V375.351C26.1201 374.589 26.7381 373.97 27.5005 373.97C28.2628 373.97 28.8808 374.589 28.8808 375.351V378.768C28.8808 379.531 28.2628 380.149 27.5005 380.149C26.7381 380.149 26.1201 379.531 26.1201 378.768ZM26.1201 368.518V365.102C26.1201 364.339 26.7381 363.72 27.5005 363.72C28.2628 363.72 28.8808 364.339 28.8808 365.102V368.518C28.8808 369.281 28.2628 369.899 27.5005 369.899C26.7381 369.899 26.1201 369.281 26.1201 368.518ZM26.1201 358.268V354.852C26.1201 354.089 26.7381 353.47 27.5005 353.47C28.2628 353.47 28.8808 354.089 28.8808 354.852V358.268C28.8808 359.031 28.2628 359.65 27.5005 359.65C26.7382 359.65 26.1202 359.031 26.1201 358.268ZM26.1201 348.018V344.602C26.1201 343.839 26.7381 343.22 27.5005 343.22C28.2628 343.22 28.8808 343.839 28.8808 344.602V348.018C28.8808 348.781 28.2628 349.4 27.5005 349.4C26.7382 349.4 26.1202 348.781 26.1201 348.018ZM26.1201 337.768V334.352C26.1202 333.589 26.7382 332.97 27.5005 332.97C28.2628 332.97 28.8808 333.589 28.8808 334.352V337.768C28.8808 338.531 28.2628 339.15 27.5005 339.15C26.7381 339.15 26.1201 338.531 26.1201 337.768ZM26.1201 327.518V324.102C26.1202 323.339 26.7382 322.72 27.5005 322.72C28.2628 322.72 28.8808 323.339 28.8808 324.102V327.518C28.8808 328.281 28.2628 328.9 27.5005 328.9C26.7381 328.9 26.1201 328.281 26.1201 327.518ZM26.1201 317.268V313.852C26.1201 313.089 26.7381 312.471 27.5005 312.471C28.2628 312.471 28.8808 313.089 28.8808 313.852V317.268C28.8808 318.031 28.2628 318.65 27.5005 318.65C26.7381 318.65 26.1201 318.031 26.1201 317.268ZM26.1201 307.019V303.602C26.1201 302.839 26.7381 302.221 27.5005 302.221C28.2628 302.221 28.8808 302.839 28.8808 303.602V307.019C28.8808 307.781 28.2628 308.4 27.5005 308.4C26.7381 308.4 26.1201 307.781 26.1201 307.019ZM26.1201 296.769V293.352C26.1201 292.589 26.7381 291.971 27.5005 291.971C28.2628 291.971 28.8808 292.589 28.8808 293.352V296.769C28.8808 297.531 28.2628 298.15 27.5005 298.15C26.7381 298.15 26.1201 297.531 26.1201 296.769ZM26.1201 286.519V283.102C26.1201 282.339 26.7381 281.721 27.5005 281.721C28.2628 281.721 28.8808 282.339 28.8808 283.102V286.519C28.8808 287.282 28.2628 287.9 27.5005 287.9C26.7382 287.9 26.1202 287.282 26.1201 286.519ZM26.1201 276.269V272.852C26.1201 272.089 26.7381 271.471 27.5005 271.471C28.2628 271.471 28.8808 272.089 28.8808 272.852V276.269C28.8808 277.032 28.2628 277.65 27.5005 277.65C26.7382 277.65 26.1202 277.032 26.1201 276.269ZM26.1201 266.019V262.602C26.1201 261.839 26.7381 261.221 27.5005 261.221C28.2628 261.221 28.8808 261.839 28.8808 262.602V266.019C28.8808 266.782 28.2628 267.4 27.5005 267.4C26.7382 267.4 26.1202 266.782 26.1201 266.019ZM26.1201 255.769V252.352C26.1202 251.589 26.7382 250.971 27.5005 250.971C28.2628 250.971 28.8808 251.589 28.8808 252.352V255.769C28.8808 256.532 28.2628 257.15 27.5005 257.15C26.7381 257.15 26.1201 256.532 26.1201 255.769ZM26.1201 245.519V242.102C26.1202 241.34 26.7382 240.721 27.5005 240.721C28.2628 240.721 28.8808 241.34 28.8808 242.102V245.519C28.8808 246.282 28.2628 246.9 27.5005 246.9C26.7381 246.9 26.1201 246.282 26.1201 245.519ZM26.1201 235.269V231.852C26.1202 231.09 26.7382 230.471 27.5005 230.471C28.2628 230.471 28.8808 231.09 28.8808 231.852V235.269C28.8808 236.032 28.2628 236.65 27.5005 236.65C26.7381 236.65 26.1201 236.032 26.1201 235.269ZM26.1201 225.019V221.603C26.1201 220.84 26.7381 220.221 27.5005 220.221C28.2628 220.221 28.8808 220.84 28.8808 221.603V225.019C28.8808 225.782 28.2628 226.4 27.5005 226.4C26.7381 226.4 26.1201 225.782 26.1201 225.019ZM26.1201 214.769V211.353C26.1201 210.59 26.7381 209.971 27.5005 209.971C28.2628 209.971 28.8808 210.59 28.8808 211.353V214.769C28.8808 215.532 28.2628 216.15 27.5005 216.15C26.7381 216.15 26.1201 215.532 26.1201 214.769ZM26.1201 204.519V201.103C26.1201 200.34 26.7381 199.722 27.5005 199.722C28.2628 199.722 28.8808 200.34 28.8808 201.103V204.519C28.8808 205.282 28.2628 205.901 27.5005 205.901C26.7381 205.901 26.1201 205.282 26.1201 204.519ZM26.1201 194.27V190.853C26.1201 190.09 26.7381 189.472 27.5005 189.472C28.2628 189.472 28.8808 190.09 28.8808 190.853V194.27C28.8808 195.032 28.2628 195.651 27.5005 195.651C26.7382 195.651 26.1202 195.032 26.1201 194.27ZM26.1201 184.02V180.603C26.1201 179.84 26.7381 179.222 27.5005 179.222C28.2628 179.222 28.8808 179.84 28.8808 180.603V184.02C28.8808 184.782 28.2628 185.401 27.5005 185.401C26.7382 185.401 26.1202 184.782 26.1201 184.02ZM26.1201 173.77V170.353C26.1202 169.59 26.7381 168.972 27.5005 168.972C28.2628 168.972 28.8808 169.59 28.8808 170.353V173.77C28.8808 174.533 28.2628 175.151 27.5005 175.151C26.7381 175.151 26.1201 174.533 26.1201 173.77ZM26.1201 163.52V160.103C26.1202 159.34 26.7382 158.722 27.5005 158.722C28.2628 158.722 28.8808 159.34 28.8808 160.103V163.52C28.8808 164.283 28.2628 164.901 27.5005 164.901C26.7381 164.901 26.1201 164.283 26.1201 163.52ZM26.1201 153.27V149.853C26.1202 149.09 26.7382 148.472 27.5005 148.472C28.2628 148.472 28.8808 149.09 28.8808 149.853V153.27C28.8808 154.033 28.2628 154.651 27.5005 154.651C26.7381 154.651 26.1201 154.033 26.1201 153.27ZM26.1201 143.02V139.603C26.1201 138.841 26.7381 138.222 27.5005 138.222C28.2628 138.222 28.8808 138.841 28.8808 139.603V143.02C28.8808 143.783 28.2628 144.401 27.5005 144.401C26.7381 144.401 26.1201 143.783 26.1201 143.02ZM26.1201 132.77V129.353C26.1201 128.591 26.7381 127.972 27.5005 127.972C28.2628 127.972 28.8808 128.591 28.8808 129.353V132.77C28.8808 133.533 28.2628 134.151 27.5005 134.151C26.7381 134.151 26.1201 133.533 26.1201 132.77ZM26.1201 122.52V119.103C26.1201 118.341 26.7381 117.722 27.5005 117.722C28.2628 117.722 28.8808 118.341 28.8808 119.103V122.52C28.8808 123.283 28.2628 123.901 27.5005 123.901C26.7381 123.901 26.1201 123.283 26.1201 122.52ZM26.1201 112.27V108.853C26.1201 108.091 26.7381 107.472 27.5005 107.472C28.2628 107.472 28.8808 108.091 28.8808 108.853V112.27C28.8808 113.033 28.2628 113.652 27.5005 113.652C26.7382 113.652 26.1202 113.033 26.1201 112.27ZM26.1201 102.02V98.6035C26.1201 97.8407 26.7381 97.2222 27.5005 97.2222C28.2628 97.2222 28.8808 97.8407 28.8808 98.6035V102.02C28.8808 102.783 28.2628 103.402 27.5005 103.402C26.7382 103.402 26.1202 102.783 26.1201 102.02ZM26.1201 91.7703V90.0619C26.1201 89.2991 26.7381 88.6807 27.5005 88.6807C28.2628 88.6807 28.8808 89.2991 28.8808 90.0619V91.7703C28.8808 92.5331 28.2628 93.1516 27.5005 93.1516C26.7381 93.1516 26.1202 92.5331 26.1201 91.7703Z" fill="black"/>
<path d="M173.577 617.054V615.331C173.577 614.568 174.195 613.95 174.958 613.95C175.72 613.95 176.338 614.568 176.338 615.331V617.054C176.338 617.816 175.72 618.435 174.958 618.435C174.195 618.435 173.577 617.816 173.577 617.054ZM173.577 608.443V604.999C173.577 604.236 174.195 603.617 174.958 603.617C175.72 603.617 176.338 604.236 176.338 604.999V608.443C176.338 609.205 175.72 609.824 174.958 609.824C174.195 609.824 173.577 609.205 173.577 608.443ZM173.577 598.11V594.666C173.577 593.903 174.195 593.284 174.958 593.284C175.72 593.284 176.338 593.903 176.338 594.666V598.11C176.338 598.873 175.72 599.491 174.958 599.491C174.195 599.491 173.577 598.873 173.577 598.11ZM173.577 587.777V584.333C173.577 583.57 174.195 582.952 174.958 582.952C175.72 582.952 176.338 583.57 176.338 584.333V587.777L176.336 587.848C176.299 588.578 175.696 589.158 174.958 589.158C174.219 589.158 173.616 588.578 173.579 587.848L173.577 587.777ZM173.577 577.444V574C173.577 573.237 174.195 572.619 174.958 572.619C175.72 572.619 176.338 573.237 176.338 574V577.444L176.336 577.515C176.299 578.245 175.696 578.825 174.958 578.825C174.219 578.825 173.616 578.245 173.579 577.515L173.577 577.444ZM173.577 567.112V563.667C173.577 562.904 174.195 562.286 174.958 562.286C175.72 562.286 176.338 562.904 176.338 563.667V567.112C176.338 567.874 175.72 568.493 174.958 568.493C174.195 568.493 173.577 567.874 173.577 567.112ZM173.577 556.779V553.335C173.577 552.572 174.195 551.953 174.958 551.953C175.72 551.953 176.338 552.572 176.338 553.335V556.779C176.338 557.542 175.72 558.16 174.958 558.16C174.195 558.16 173.577 557.542 173.577 556.779ZM173.577 546.446V543.002C173.577 542.239 174.195 541.62 174.958 541.62C175.72 541.62 176.338 542.239 176.338 543.002V546.446C176.338 547.209 175.72 547.827 174.958 547.827C174.195 547.827 173.577 547.209 173.577 546.446ZM173.577 536.113V532.669C173.577 531.906 174.195 531.287 174.958 531.287C175.72 531.287 176.338 531.906 176.338 532.669V536.113C176.338 536.876 175.72 537.494 174.958 537.494C174.195 537.494 173.577 536.876 173.577 536.113ZM173.577 525.78V522.336C173.577 521.573 174.195 520.955 174.958 520.955C175.72 520.955 176.338 521.573 176.338 522.336V525.78C176.338 526.543 175.72 527.162 174.958 527.162C174.195 527.162 173.577 526.543 173.577 525.78ZM173.577 515.448V512.003C173.577 511.24 174.195 510.622 174.958 510.622C175.72 510.622 176.338 511.24 176.338 512.003V515.448C176.338 516.21 175.72 516.829 174.958 516.829C174.195 516.829 173.577 516.21 173.577 515.448ZM173.577 505.115V501.67C173.577 500.908 174.195 500.289 174.958 500.289C175.72 500.289 176.338 500.908 176.338 501.67V505.115C176.338 505.878 175.72 506.496 174.958 506.496C174.195 506.496 173.577 505.878 173.577 505.115ZM173.577 494.782V491.338C173.577 490.575 174.195 489.956 174.958 489.956C175.72 489.956 176.338 490.575 176.338 491.338V494.782C176.338 495.545 175.72 496.163 174.958 496.163C174.195 496.163 173.577 495.545 173.577 494.782ZM173.577 484.449V481.005C173.577 480.242 174.195 479.624 174.958 479.624C175.72 479.624 176.338 480.242 176.338 481.005V484.449C176.338 485.212 175.72 485.831 174.958 485.831C174.195 485.831 173.577 485.212 173.577 484.449ZM173.577 474.116V470.672C173.577 469.909 174.195 469.291 174.958 469.291C175.72 469.291 176.338 469.909 176.338 470.672V474.116C176.338 474.879 175.72 475.498 174.958 475.498C174.195 475.498 173.577 474.879 173.577 474.116ZM173.577 463.784V460.339C173.577 459.577 174.195 458.958 174.958 458.958C175.72 458.958 176.338 459.577 176.338 460.339V463.784C176.338 464.547 175.72 465.165 174.958 465.165C174.195 465.165 173.577 464.547 173.577 463.784ZM173.577 453.451V450.006C173.577 449.244 174.195 448.625 174.958 448.625C175.72 448.625 176.338 449.244 176.338 450.006V453.451C176.338 454.214 175.72 454.832 174.958 454.832C174.195 454.832 173.577 454.214 173.577 453.451ZM173.577 443.118V439.674C173.577 438.911 174.195 438.293 174.958 438.293C175.72 438.293 176.338 438.911 176.338 439.674V443.118C176.338 443.881 175.72 444.499 174.958 444.499C174.195 444.499 173.577 443.881 173.577 443.118ZM173.577 432.785V429.341C173.577 428.578 174.195 427.96 174.958 427.96C175.72 427.96 176.338 428.578 176.338 429.341V432.785C176.338 433.548 175.72 434.167 174.958 434.167C174.195 434.167 173.577 433.548 173.577 432.785ZM173.577 422.452V419.008C173.577 418.245 174.195 417.627 174.958 417.627C175.72 417.627 176.338 418.245 176.338 419.008V422.452C176.338 423.215 175.72 423.834 174.958 423.834C174.195 423.834 173.577 423.215 173.577 422.452ZM173.577 412.12V408.675C173.577 407.913 174.195 407.294 174.958 407.294C175.72 407.294 176.338 407.913 176.338 408.675V412.12C176.338 412.882 175.72 413.501 174.958 413.501C174.195 413.501 173.577 412.882 173.577 412.12ZM173.577 401.787V398.343C173.577 397.58 174.195 396.961 174.958 396.961C175.72 396.961 176.338 397.58 176.338 398.343V401.787C176.338 402.55 175.72 403.168 174.958 403.168C174.195 403.168 173.577 402.55 173.577 401.787ZM173.577 391.454V388.01C173.577 387.247 174.195 386.629 174.958 386.629C175.72 386.629 176.338 387.247 176.338 388.01V391.454C176.338 392.217 175.72 392.835 174.958 392.835C174.195 392.835 173.577 392.217 173.577 391.454ZM173.577 381.121V377.677C173.577 376.914 174.195 376.296 174.958 376.296C175.72 376.296 176.338 376.914 176.338 377.677V381.121C176.338 381.884 175.72 382.503 174.958 382.503C174.195 382.503 173.577 381.884 173.577 381.121ZM173.577 370.789V367.344C173.577 366.581 174.195 365.963 174.958 365.963C175.72 365.963 176.338 366.581 176.338 367.344V370.789C176.338 371.551 175.72 372.17 174.958 372.17C174.195 372.17 173.577 371.551 173.577 370.789ZM173.577 360.456V357.012C173.577 356.249 174.195 355.63 174.958 355.63C175.72 355.63 176.338 356.249 176.338 357.012V360.456C176.338 361.218 175.72 361.837 174.958 361.837C174.195 361.837 173.577 361.218 173.577 360.456ZM173.577 350.123V346.679C173.577 345.916 174.195 345.297 174.958 345.297C175.72 345.297 176.338 345.916 176.338 346.679V350.123C176.338 350.886 175.72 351.504 174.958 351.504C174.195 351.504 173.577 350.886 173.577 350.123ZM173.577 339.79V336.346C173.577 335.583 174.195 334.965 174.958 334.965C175.72 334.965 176.338 335.583 176.338 336.346V339.79C176.338 340.553 175.72 341.171 174.958 341.171C174.195 341.171 173.577 340.553 173.577 339.79ZM173.577 329.457V326.013C173.577 325.25 174.195 324.632 174.958 324.632C175.72 324.632 176.338 325.25 176.338 326.013V329.457C176.338 330.22 175.72 330.838 174.958 330.838C174.195 330.838 173.577 330.22 173.577 329.457ZM173.577 319.125V315.68C173.577 314.917 174.195 314.299 174.958 314.299C175.72 314.299 176.338 314.917 176.338 315.68V319.125C176.338 319.887 175.72 320.506 174.958 320.506C174.195 320.506 173.577 319.887 173.577 319.125ZM173.577 308.792V305.348C173.577 304.585 174.195 303.966 174.958 303.966C175.72 303.966 176.338 304.585 176.338 305.348V308.792C176.338 309.555 175.72 310.173 174.958 310.173C174.195 310.173 173.577 309.555 173.577 308.792ZM173.577 298.459V295.015C173.577 294.252 174.195 293.633 174.958 293.633C175.72 293.633 176.338 294.252 176.338 295.015V298.459C176.338 299.222 175.72 299.84 174.958 299.84C174.195 299.84 173.577 299.222 173.577 298.459ZM173.577 288.126V284.682C173.577 283.919 174.195 283.3 174.958 283.3C175.72 283.3 176.338 283.919 176.338 284.682V288.126C176.338 288.889 175.72 289.507 174.958 289.507C174.195 289.507 173.577 288.889 173.577 288.126ZM173.577 277.793V274.349C173.577 273.586 174.195 272.968 174.958 272.968C175.72 272.968 176.338 273.586 176.338 274.349V277.793C176.338 278.556 175.72 279.175 174.958 279.175C174.195 279.175 173.577 278.556 173.577 277.793ZM173.577 267.461V264.016C173.577 263.253 174.195 262.635 174.958 262.635C175.72 262.635 176.338 263.253 176.338 264.016V267.461C176.338 268.223 175.72 268.842 174.958 268.842C174.195 268.842 173.577 268.223 173.577 267.461ZM173.577 257.128V253.683C173.577 252.921 174.195 252.302 174.958 252.302C175.72 252.302 176.338 252.921 176.338 253.683V257.128C176.338 257.891 175.72 258.509 174.958 258.509C174.195 258.509 173.577 257.891 173.577 257.128ZM173.577 246.795V243.351C173.577 242.588 174.195 241.969 174.958 241.969C175.72 241.969 176.338 242.588 176.338 243.351V246.795C176.338 247.558 175.72 248.176 174.958 248.176C174.195 248.176 173.577 247.558 173.577 246.795ZM173.577 236.462V233.018C173.577 232.255 174.195 231.637 174.958 231.637C175.72 231.637 176.338 232.255 176.338 233.018V236.462C176.338 237.225 175.72 237.844 174.958 237.844C174.195 237.844 173.577 237.225 173.577 236.462ZM173.577 226.129V222.685C173.577 221.922 174.195 221.304 174.958 221.304C175.72 221.304 176.338 221.922 176.338 222.685V226.129C176.338 226.892 175.72 227.511 174.958 227.511C174.195 227.511 173.577 226.892 173.577 226.129ZM173.577 215.796V212.352C173.577 211.589 174.195 210.971 174.958 210.971C175.72 210.971 176.338 211.589 176.338 212.352V215.796C176.338 216.559 175.72 217.178 174.958 217.178C174.195 217.178 173.577 216.559 173.577 215.796ZM173.577 205.464V203.742C173.577 202.979 174.195 202.36 174.958 202.36C175.72 202.36 176.338 202.979 176.338 203.742V205.464C176.338 206.227 175.72 206.845 174.958 206.845C174.195 206.845 173.577 206.227 173.577 205.464Z" fill="black"/>
<path d="M321.104 723.619V721.897C321.104 721.134 321.722 720.515 322.484 720.515C323.246 720.515 323.864 721.134 323.864 721.897V723.619C323.864 724.382 323.246 725 322.484 725C321.722 725 321.104 724.382 321.104 723.619ZM321.104 715.008V711.564C321.104 710.801 321.722 710.183 322.484 710.183C323.246 710.183 323.864 710.801 323.864 711.564V715.008C323.864 715.771 323.246 716.389 322.484 716.389C321.722 716.389 321.104 715.771 321.104 715.008ZM321.104 704.675V701.231C321.104 700.468 321.722 699.85 322.484 699.85C323.246 699.85 323.864 700.468 323.864 701.231V704.675C323.864 705.438 323.246 706.057 322.484 706.057C321.722 706.057 321.104 705.438 321.104 704.675ZM321.104 694.343V690.898C321.104 690.136 321.722 689.517 322.484 689.517C323.246 689.517 323.864 690.136 323.864 690.898V694.343L323.863 694.414C323.826 695.143 323.222 695.724 322.484 695.724C321.745 695.724 321.142 695.143 321.105 694.414L321.104 694.343ZM321.104 684.01V680.566C321.104 679.803 321.722 679.184 322.484 679.184C323.246 679.184 323.864 679.803 323.864 680.566V684.01L323.863 684.081C323.826 684.811 323.222 685.391 322.484 685.391C321.745 685.391 321.142 684.811 321.105 684.081L321.104 684.01ZM321.104 673.677V670.233C321.104 669.47 321.722 668.851 322.484 668.851C323.246 668.851 323.864 669.47 323.864 670.233V673.677C323.864 674.44 323.246 675.058 322.484 675.058C321.722 675.058 321.104 674.44 321.104 673.677ZM321.104 663.344V659.9C321.104 659.137 321.722 658.519 322.484 658.519C323.246 658.519 323.864 659.137 323.864 659.9V663.344C323.864 664.107 323.246 664.725 322.484 664.725C321.722 664.725 321.104 664.107 321.104 663.344ZM321.104 653.012V649.567C321.104 648.804 321.722 648.186 322.484 648.186C323.246 648.186 323.864 648.804 323.864 649.567V653.012C323.864 653.774 323.246 654.393 322.484 654.393C321.722 654.393 321.104 653.774 321.104 653.012ZM321.104 642.679V639.234C321.104 638.471 321.722 637.853 322.484 637.853C323.246 637.853 323.864 638.471 323.864 639.234V642.679C323.864 643.441 323.246 644.06 322.484 644.06C321.722 644.06 321.104 643.441 321.104 642.679ZM321.104 632.346V628.902C321.104 628.139 321.722 627.52 322.484 627.52C323.246 627.52 323.864 628.139 323.864 628.902V632.346C323.864 633.109 323.246 633.727 322.484 633.727C321.722 633.727 321.104 633.109 321.104 632.346ZM321.104 622.013V618.569C321.104 617.806 321.722 617.187 322.484 617.187C323.246 617.187 323.864 617.806 323.864 618.569V622.013C323.864 622.776 323.246 623.394 322.484 623.394C321.722 623.394 321.104 622.776 321.104 622.013ZM321.104 611.68V608.236C321.104 607.473 321.722 606.854 322.484 606.854C323.246 606.854 323.864 607.473 323.864 608.236V611.68C323.864 612.443 323.246 613.061 322.484 613.061C321.722 613.061 321.104 612.443 321.104 611.68ZM321.104 601.347V597.903C321.104 597.14 321.722 596.522 322.484 596.522C323.246 596.522 323.864 597.14 323.864 597.903V601.347C323.864 602.11 323.246 602.729 322.484 602.729C321.722 602.729 321.104 602.11 321.104 601.347ZM321.104 591.015V587.57C321.104 586.807 321.722 586.189 322.484 586.189C323.246 586.189 323.864 586.807 323.864 587.57V591.015C323.864 591.778 323.246 592.396 322.484 592.396C321.722 592.396 321.104 591.778 321.104 591.015ZM321.104 580.682V577.238C321.104 576.475 321.722 575.856 322.484 575.856C323.246 575.856 323.864 576.475 323.864 577.238V580.682C323.864 581.445 323.246 582.063 322.484 582.063C321.722 582.063 321.104 581.445 321.104 580.682ZM321.104 570.349V566.905C321.104 566.142 321.722 565.523 322.484 565.523C323.246 565.523 323.864 566.142 323.864 566.905V570.349C323.864 571.112 323.246 571.73 322.484 571.73C321.722 571.73 321.104 571.112 321.104 570.349ZM321.104 560.016V556.572C321.104 555.809 321.722 555.191 322.484 555.191C323.246 555.191 323.864 555.809 323.864 556.572V560.016C323.864 560.779 323.246 561.398 322.484 561.398C321.722 561.398 321.104 560.779 321.104 560.016ZM321.104 549.683V546.239C321.104 545.476 321.722 544.858 322.484 544.858C323.246 544.858 323.864 545.476 323.864 546.239V549.683C323.864 550.446 323.246 551.065 322.484 551.065C321.722 551.065 321.104 550.446 321.104 549.683ZM321.104 539.351V535.906C321.104 535.144 321.722 534.525 322.484 534.525C323.246 534.525 323.864 535.144 323.864 535.906V539.351C323.864 540.114 323.246 540.732 322.484 540.732C321.722 540.732 321.104 540.114 321.104 539.351ZM321.104 529.018V525.574C321.104 524.811 321.722 524.193 322.484 524.193C323.246 524.193 323.864 524.811 323.864 525.574V529.018C323.864 529.781 323.246 530.399 322.484 530.399C321.722 530.399 321.104 529.781 321.104 529.018ZM321.104 518.685V515.241C321.104 514.478 321.722 513.86 322.484 513.86C323.246 513.86 323.864 514.478 323.864 515.241V518.685C323.864 519.448 323.246 520.066 322.484 520.066C321.722 520.066 321.104 519.448 321.104 518.685ZM321.104 508.352V504.908C321.104 504.145 321.722 503.527 322.484 503.527C323.246 503.527 323.864 504.145 323.864 504.908V508.352C323.864 509.115 323.246 509.734 322.484 509.734C321.722 509.734 321.104 509.115 321.104 508.352ZM321.104 498.019V494.575C321.104 493.812 321.722 493.194 322.484 493.194C323.246 493.194 323.864 493.812 323.864 494.575V498.019C323.864 498.782 323.246 499.401 322.484 499.401C321.722 499.401 321.104 498.782 321.104 498.019ZM321.104 487.687V484.242C321.104 483.48 321.722 482.861 322.484 482.861C323.246 482.861 323.864 483.48 323.864 484.242V487.687C323.864 488.45 323.246 489.068 322.484 489.068C321.722 489.068 321.104 488.45 321.104 487.687ZM321.104 477.354V473.91C321.104 473.147 321.722 472.528 322.484 472.528C323.246 472.528 323.864 473.147 323.864 473.91V477.354C323.864 478.117 323.246 478.735 322.484 478.735C321.722 478.735 321.104 478.117 321.104 477.354ZM321.104 467.021V463.577C321.104 462.814 321.722 462.196 322.484 462.196C323.246 462.196 323.864 462.814 323.864 463.577V467.021C323.864 467.784 323.246 468.402 322.484 468.402C321.722 468.402 321.104 467.784 321.104 467.021ZM321.104 456.688V453.244C321.104 452.481 321.722 451.863 322.484 451.863C323.246 451.863 323.864 452.481 323.864 453.244V456.688C323.864 457.451 323.246 458.07 322.484 458.07C321.722 458.07 321.104 457.451 321.104 456.688ZM321.104 446.356V442.911C321.104 442.149 321.722 441.53 322.484 441.53C323.246 441.53 323.864 442.149 323.864 442.911V446.356C323.864 447.118 323.246 447.737 322.484 447.737C321.722 447.737 321.104 447.118 321.104 446.356ZM321.104 436.023V432.579C321.104 431.816 321.722 431.197 322.484 431.197C323.246 431.197 323.864 431.816 323.864 432.579V436.023C323.864 436.785 323.246 437.404 322.484 437.404C321.722 437.404 321.104 436.785 321.104 436.023ZM321.104 425.69V422.246C321.104 421.483 321.722 420.864 322.484 420.864C323.246 420.864 323.864 421.483 323.864 422.246V425.69C323.864 426.453 323.246 427.071 322.484 427.071C321.722 427.071 321.104 426.453 321.104 425.69ZM321.104 415.357V411.913C321.104 411.15 321.722 410.532 322.484 410.532C323.246 410.532 323.864 411.15 323.864 411.913V415.357C323.864 416.12 323.246 416.738 322.484 416.738C321.722 416.738 321.104 416.12 321.104 415.357ZM321.104 405.025V401.58C321.104 400.817 321.722 400.199 322.484 400.199C323.246 400.199 323.864 400.817 323.864 401.58V405.025C323.864 405.787 323.246 406.406 322.484 406.406C321.722 406.406 321.104 405.787 321.104 405.025ZM321.104 394.692V391.247C321.104 390.484 321.722 389.866 322.484 389.866C323.246 389.866 323.864 390.484 323.864 391.247V394.692C323.864 395.454 323.246 396.073 322.484 396.073C321.722 396.073 321.104 395.454 321.104 394.692ZM321.104 384.359V380.915C321.104 380.152 321.722 379.533 322.484 379.533C323.246 379.533 323.864 380.152 323.864 380.915V384.359C323.864 385.122 323.246 385.74 322.484 385.74C321.722 385.74 321.104 385.122 321.104 384.359ZM321.104 374.026V370.582C321.104 369.819 321.722 369.2 322.484 369.2C323.246 369.2 323.864 369.819 323.864 370.582V374.026C323.864 374.789 323.246 375.407 322.484 375.407C321.722 375.407 321.104 374.789 321.104 374.026ZM321.104 363.693V360.249C321.104 359.486 321.722 358.867 322.484 358.867C323.246 358.867 323.864 359.486 323.864 360.249V363.693C323.864 364.456 323.246 365.074 322.484 365.074C321.722 365.074 321.104 364.456 321.104 363.693ZM321.104 353.36V349.916C321.104 349.153 321.722 348.535 322.484 348.535C323.246 348.535 323.864 349.153 323.864 349.916V353.36C323.864 354.123 323.246 354.742 322.484 354.742C321.722 354.742 321.104 354.123 321.104 353.36ZM321.104 343.028V339.583C321.104 338.82 321.722 338.202 322.484 338.202C323.246 338.202 323.864 338.82 323.864 339.583V343.028C323.864 343.79 323.246 344.409 322.484 344.409C321.722 344.409 321.104 343.79 321.104 343.028ZM321.104 332.695V329.251C321.104 328.488 321.722 327.869 322.484 327.869C323.246 327.869 323.864 328.488 323.864 329.251V332.695C323.864 333.458 323.246 334.076 322.484 334.076C321.722 334.076 321.104 333.458 321.104 332.695ZM321.104 322.362V318.918C321.104 318.155 321.722 317.536 322.484 317.536C323.246 317.536 323.864 318.155 323.864 318.918V322.362C323.864 323.125 323.246 323.743 322.484 323.743C321.722 323.743 321.104 323.125 321.104 322.362ZM321.104 312.029V310.307C321.104 309.544 321.722 308.926 322.484 308.926C323.246 308.926 323.864 309.544 323.864 310.307V312.029C323.864 312.792 323.246 313.411 322.484 313.411C321.722 313.411 321.104 312.792 321.104 312.029Z" fill="black"/>
<path d="M44.1334 164.686C44.9338 163.618 46.4479 163.401 47.5152 164.202L134.306 229.329C135.373 230.13 135.59 231.645 134.789 232.713C133.989 233.781 132.475 233.998 131.407 233.197L44.617 168.07C43.5497 167.269 43.3331 165.754 44.1334 164.686Z" fill="black"/>
<path d="M125.782 246.457V207.229L143.969 240.483L125.782 246.457Z" fill="black"/>
<path d="M125.483 206.058C126.018 205.922 126.577 206.164 126.842 206.649L145.028 239.903C145.201 240.218 145.224 240.594 145.092 240.928C144.96 241.262 144.687 241.519 144.346 241.632L126.159 247.606C125.791 247.727 125.388 247.663 125.074 247.436C124.76 247.209 124.575 246.845 124.575 246.457V207.229C124.575 206.677 124.949 206.195 125.483 206.058ZM126.99 244.788L142.212 239.788L126.99 211.955V244.788Z" fill="black"/>
<path d="M135.113 402.266C135.921 401.204 137.437 400.999 138.498 401.808L143.914 405.937C144.975 406.746 145.18 408.263 144.371 409.325C143.563 410.386 142.047 410.592 140.986 409.782L135.57 405.654C134.509 404.845 134.304 403.328 135.113 402.266ZM117.782 389.054C118.591 387.992 120.106 387.787 121.168 388.596L131.999 396.854C133.06 397.663 133.265 399.179 132.457 400.241C131.648 401.303 130.133 401.508 129.071 400.699L118.24 392.442C117.179 391.633 116.974 390.116 117.782 389.054ZM100.452 375.842C101.26 374.781 102.776 374.575 103.837 375.384L114.669 383.642C115.73 384.451 115.935 385.968 115.126 387.03C114.318 388.091 112.802 388.297 111.741 387.488L100.909 379.23C99.8483 378.421 99.6434 376.904 100.452 375.842ZM83.1211 362.63C83.9296 361.568 85.4455 361.363 86.5067 362.172L97.3383 370.43C98.3995 371.239 98.6044 372.756 97.7959 373.818C96.9874 374.88 95.4716 375.084 94.4104 374.275L83.5788 366.018C82.5176 365.209 82.3127 363.692 83.1211 362.63ZM65.7908 349.418C66.5993 348.357 68.1151 348.151 69.1763 348.961L80.0079 357.218C81.069 358.027 81.2737 359.544 80.4652 360.606C79.6567 361.668 78.1413 361.873 77.08 361.064L66.2484 352.806C65.1872 351.997 64.9823 350.48 65.7908 349.418ZM53.8761 340.335C54.6845 339.273 56.2004 339.068 57.2616 339.877L62.6772 344.006C63.7384 344.815 63.9434 346.332 63.1349 347.394C62.3264 348.456 60.8106 348.661 59.7493 347.852L54.3337 343.723C53.2725 342.914 53.0676 341.397 53.8761 340.335Z" fill="black"/>
<path d="M64.0457 327.193V366.422L45.8594 333.167L64.0457 327.193Z" fill="black"/>
<path d="M63.6687 326.045C64.0367 325.924 64.4402 325.987 64.7539 326.214C65.0675 326.441 65.2533 326.805 65.2533 327.193V366.421C65.2533 366.973 64.8793 367.455 64.3448 367.592C63.8102 367.729 63.2509 367.486 62.986 367.001L44.7996 333.747C44.6273 333.432 44.604 333.057 44.7359 332.723C44.8679 332.389 45.1414 332.131 45.4824 332.019L63.6687 326.045ZM47.6159 333.862L62.8377 361.695V328.862L47.6159 333.862Z" fill="black"/>
<path d="M274.137 387.554V348.36L292.323 381.615L274.137 387.554Z" fill="black"/>
<path d="M273.837 347.19C274.372 347.053 274.931 347.296 275.196 347.781L293.382 381.035C293.555 381.35 293.578 381.726 293.446 382.061C293.313 382.395 293.039 382.652 292.698 382.764L274.511 388.704C274.143 388.824 273.74 388.76 273.427 388.533C273.114 388.306 272.929 387.942 272.929 387.555V348.361C272.929 347.809 273.303 347.327 273.837 347.19ZM275.344 385.889L290.564 380.918L275.344 353.087V385.889Z" fill="black"/>
<path d="M207.361 318.94C208.161 317.872 209.675 317.655 210.743 318.456L281.797 371.773C282.864 372.574 283.081 374.089 282.28 375.157C281.48 376.225 279.966 376.442 278.899 375.641L207.845 322.324C206.777 321.523 206.561 320.008 207.361 318.94Z" fill="black"/>
<path d="M245.805 406.548V445.776L227.619 412.487L245.805 406.548Z" fill="black"/>
<path d="M245.43 405.399C245.798 405.278 246.201 405.342 246.514 405.569C246.827 405.797 247.013 406.16 247.013 406.547V445.776C247.013 446.328 246.639 446.81 246.104 446.947C245.569 447.083 245.01 446.84 244.745 446.356L226.559 413.067C226.386 412.751 226.363 412.376 226.496 412.042C226.628 411.707 226.902 411.45 227.244 411.338L245.43 405.399ZM229.376 413.184L244.597 441.045V408.213L229.376 413.184Z" fill="black"/>
<path d="M281.208 453.878C282.008 452.81 283.523 452.594 284.59 453.395L289.252 456.895C290.319 457.696 290.536 459.211 289.735 460.279C288.934 461.347 287.42 461.563 286.353 460.762L281.691 457.262C280.624 456.461 280.407 454.946 281.208 453.878ZM266.288 442.678C267.089 441.61 268.603 441.394 269.67 442.195L278.995 449.195C280.062 449.996 280.278 451.511 279.478 452.579C278.677 453.647 277.163 453.863 276.096 453.062L266.771 446.062C265.704 445.261 265.488 443.746 266.288 442.678ZM251.369 431.478C252.169 430.411 253.684 430.194 254.751 430.995L264.076 437.995C265.143 438.796 265.359 440.311 264.558 441.379C263.758 442.447 262.243 442.663 261.176 441.862L251.852 434.862C250.785 434.061 250.568 432.546 251.369 431.478ZM241.112 423.778C241.912 422.71 243.427 422.494 244.494 423.295L249.156 426.795C250.223 427.596 250.44 429.112 249.639 430.179C248.838 431.247 247.324 431.464 246.257 430.663L241.594 427.163C240.527 426.361 240.311 424.846 241.112 423.778Z" fill="black"/>
<path d="M273.516 609.387V570.159L291.702 603.448L273.516 609.387Z" fill="black"/>
<path d="M273.217 568.988C273.751 568.851 274.311 569.095 274.575 569.579L292.762 602.868C292.934 603.183 292.957 603.559 292.824 603.893C292.692 604.227 292.418 604.485 292.077 604.597L273.89 610.536C273.522 610.656 273.119 610.592 272.806 610.365C272.493 610.138 272.308 609.774 272.308 609.387V570.159C272.308 569.607 272.682 569.125 273.217 568.988ZM274.723 607.721L289.944 602.75L274.723 574.889V607.721Z" fill="black"/>
<path d="M46.6527 419.566C47.4527 418.498 48.9669 418.281 50.0345 419.082L281.521 592.673C282.589 593.474 282.805 594.989 282.005 596.057C281.205 597.125 279.692 597.343 278.624 596.542L47.1369 422.95C46.0694 422.15 45.8526 420.635 46.6527 419.566Z" fill="black"/>
<path d="M64.0457 454.34V493.568L45.8594 460.314L64.0457 454.34Z" fill="black"/>
<path d="M63.6687 453.191C64.0367 453.07 64.4402 453.133 64.7539 453.36C65.0675 453.588 65.2533 453.952 65.2533 454.339V493.568C65.2532 494.12 64.8793 494.602 64.3448 494.739C63.8102 494.875 63.2509 494.632 62.986 494.148L44.7996 460.894C44.6273 460.579 44.604 460.203 44.7359 459.869C44.8679 459.535 45.1414 459.277 45.4824 459.165L63.6687 453.191ZM47.616 461.008L62.8377 488.841V456.008L47.616 461.008Z" fill="black"/>
<path d="M279.788 637.403C280.591 636.337 282.106 636.124 283.171 636.928L288.738 641.125C289.804 641.929 290.017 643.445 289.214 644.511C288.411 645.577 286.896 645.79 285.831 644.986L280.264 640.788C279.198 639.985 278.985 638.469 279.788 637.403ZM261.973 623.97C262.776 622.904 264.291 622.691 265.357 623.495L276.491 631.89C277.556 632.694 277.769 634.209 276.966 635.275C276.163 636.342 274.649 636.555 273.583 635.751L262.449 627.356C261.384 626.552 261.171 625.036 261.973 623.97ZM244.159 610.538C244.962 609.471 246.477 609.258 247.542 610.062L258.676 618.457C259.741 619.261 259.954 620.776 259.151 621.842C258.349 622.909 256.834 623.122 255.769 622.318L244.634 613.923C243.569 613.119 243.356 611.604 244.159 610.538ZM226.344 597.105C227.147 596.038 228.662 595.825 229.727 596.629L240.861 605.024C241.927 605.828 242.14 607.344 241.337 608.41C240.534 609.476 239.019 609.689 237.954 608.886L226.82 600.49C225.754 599.687 225.541 598.171 226.344 597.105ZM208.53 583.672C209.332 582.606 210.847 582.393 211.913 583.196L223.047 591.592C224.112 592.395 224.325 593.911 223.522 594.977C222.719 596.043 221.205 596.256 220.139 595.453L209.005 587.057C207.94 586.254 207.727 584.738 208.53 583.672ZM190.715 570.239C191.518 569.173 193.033 568.96 194.098 569.763L205.232 578.159C206.297 578.962 206.51 580.477 205.708 581.544C204.905 582.61 203.39 582.823 202.325 582.02L191.19 573.624C190.125 572.821 189.912 571.305 190.715 570.239ZM172.9 556.806C173.703 555.74 175.218 555.527 176.284 556.33L187.417 564.726C188.483 565.529 188.696 567.045 187.893 568.111C187.09 569.177 185.576 569.39 184.51 568.587L173.376 560.191C172.31 559.388 172.097 557.872 172.9 556.806ZM155.086 543.373C155.889 542.307 157.403 542.094 158.469 542.897L169.603 551.293C170.668 552.096 170.881 553.612 170.078 554.678C169.275 555.744 167.761 555.957 166.695 555.154L155.561 546.758C154.496 545.955 154.283 544.439 155.086 543.373ZM137.271 529.94C138.074 528.874 139.589 528.661 140.654 529.464L151.788 537.86C152.854 538.663 153.067 540.179 152.264 541.245C151.461 542.311 149.946 542.524 148.881 541.721L137.747 533.326C136.681 532.522 136.468 531.006 137.271 529.94ZM119.456 516.507C120.259 515.441 121.774 515.228 122.839 516.032L133.973 524.427C135.039 525.231 135.252 526.746 134.449 527.812C133.646 528.878 132.132 529.091 131.066 528.288L119.932 519.892C118.867 519.089 118.654 517.574 119.456 516.507ZM101.642 503.074C102.445 502.008 103.959 501.795 105.025 502.599L116.159 510.994C117.224 511.798 117.437 513.313 116.634 514.38C115.831 515.446 114.317 515.658 113.252 514.855L102.117 506.459C101.052 505.656 100.839 504.141 101.642 503.074ZM83.8272 489.641C84.6301 488.575 86.1446 488.363 87.21 489.166L98.3442 497.561C99.4097 498.365 99.6226 499.88 98.8197 500.947C98.0169 502.013 96.5024 502.226 95.4369 501.422L84.3027 493.027C83.2372 492.223 83.0243 490.708 83.8272 489.641ZM66.0125 476.209C66.8154 475.143 68.3299 474.93 69.3954 475.733L80.5296 484.128C81.5951 484.932 81.8079 486.447 81.0051 487.513C80.2022 488.58 78.6878 488.793 77.6223 487.989L66.4881 479.594C65.4226 478.79 65.2097 477.275 66.0125 476.209ZM53.7649 466.973C54.5677 465.907 56.0825 465.694 57.148 466.498L62.715 470.695C63.7805 471.499 63.9934 473.015 63.1905 474.081C62.3876 475.147 60.8731 475.36 59.8076 474.557L54.2404 470.359C53.1749 469.555 52.962 468.04 53.7649 466.973Z" fill="black"/>
<path d="M180.927 190.032L190.866 182.435C194.731 179.431 196.664 176.115 197.595 169.658C199.873 154.015 192.454 131.742 181.066 119.863C173.37 111.852 166.606 110.85 160.981 115.443L151.077 122.936" fill="white"/>
<path d="M160.246 114.484C163.294 112.006 166.742 110.986 170.486 111.742C174.063 112.464 177.762 114.778 181.568 118.646L181.936 119.026L181.937 119.026C187.785 125.127 192.567 133.836 195.601 142.968C198.635 152.096 199.964 161.771 198.791 169.832L198.79 169.832C198.312 173.143 197.567 175.736 196.394 177.915C195.214 180.106 193.64 181.809 191.607 183.389C191.604 183.391 191.602 183.393 191.599 183.395L181.661 190.992C181.131 191.397 180.373 191.296 179.968 190.766C179.563 190.235 179.664 189.477 180.194 189.071L190.133 181.474C191.96 180.053 193.283 178.597 194.267 176.768C195.26 174.924 195.946 172.631 196.4 169.485L196.4 169.484C197.504 161.902 196.263 152.619 193.309 143.73C190.356 134.845 185.733 126.478 180.194 120.7V120.699C176.434 116.785 173.027 114.721 170.008 114.111C167.052 113.514 164.315 114.281 161.745 116.379C161.733 116.389 161.721 116.398 161.709 116.407L151.806 123.901C151.274 124.303 150.516 124.198 150.114 123.665C149.711 123.133 149.816 122.375 150.348 121.972L160.246 114.484Z" fill="black"/>
<path d="M170.541 127.805C159.118 115.926 148.041 119 145.763 134.643C143.485 150.285 150.905 172.559 162.293 184.437C173.715 196.316 184.793 193.243 187.07 177.6C189.348 161.957 181.929 139.684 170.541 127.805Z" fill="white"/>
<path d="M154.401 119.738C159.523 118.322 165.585 120.909 171.411 126.967L171.412 126.968C177.26 133.069 182.041 141.778 185.076 150.91C188.11 160.038 189.439 169.714 188.265 177.775C187.098 185.79 183.598 191.077 178.432 192.505C173.31 193.92 167.248 191.334 161.423 185.275L161.421 185.274C155.573 179.173 150.792 170.464 147.757 161.333C144.724 152.204 143.394 142.529 144.568 134.468C145.735 126.453 149.235 121.166 154.401 119.738ZM169.669 128.641C164.073 122.822 158.884 121.007 155.044 122.068C151.246 123.118 148.069 127.189 146.958 134.817C145.854 142.399 147.096 151.682 150.049 160.57C153.002 169.455 157.624 177.821 163.163 183.599L163.425 183.87C168.921 189.476 174.008 191.22 177.789 190.175C181.587 189.125 184.765 185.053 185.875 177.426C186.979 169.844 185.738 160.561 182.784 151.673C179.831 142.787 175.208 134.42 169.669 128.642V128.641Z" fill="black"/>
<path d="M36.7486 78.4945L46.6872 70.8975C50.5522 67.8932 52.4848 64.5782 53.4165 58.1207C55.6941 42.4778 48.2747 20.2047 36.8867 8.32577C29.1566 0.348909 22.3928 -0.652515 16.7679 3.97475L6.86377 11.4682" fill="white"/>
<path d="M16.0279 3.01925C19.0759 0.522346 22.5242 -0.508387 26.2738 0.23815C29.8551 0.951188 33.563 3.25578 37.3841 7.10675L37.7542 7.48411L37.7585 7.48883C43.607 13.5894 48.3881 22.2985 51.4226 31.4301C54.4559 40.5578 55.7853 50.2322 54.612 58.2928C54.1342 61.6046 53.3882 64.1983 52.2156 66.3768C51.036 68.5683 49.462 70.271 47.4285 71.8516C47.4259 71.8536 47.4233 71.8557 47.4207 71.8577L37.4822 79.4547C36.9521 79.8599 36.194 79.7582 35.7891 79.2278C35.3843 78.6973 35.4859 77.939 36.0159 77.5339L45.9467 69.9426L46.2844 69.6752C47.9426 68.3354 49.1646 66.9475 50.0888 65.2306C51.0816 63.3861 51.7675 61.0934 52.2213 57.9478L52.2217 57.9462C53.3256 50.3643 52.0842 41.0815 49.1304 32.1929C46.1784 23.31 41.5575 14.9451 36.0199 9.16686L35.6668 8.80671C32.0287 5.14094 28.7321 3.19214 25.8027 2.60884C22.8426 2.01948 20.1058 2.79352 17.5354 4.90805C17.5227 4.91845 17.5097 4.92851 17.4966 4.9384L7.59276 12.4319C7.06068 12.8345 6.30298 12.7293 5.90067 12.1968C5.49842 11.6645 5.60363 10.9066 6.13557 10.504L16.0279 3.01925Z" fill="black"/>
<path d="M26.396 16.268C14.9735 4.42356 3.89613 7.46237 1.61853 23.1053C-0.659068 38.7482 6.76038 61.0213 18.1484 72.9003C29.5709 84.7792 40.6483 81.7059 42.9259 66.063C45.2035 50.42 37.784 28.147 26.396 16.268Z" fill="white"/>
<path d="M10.2577 8.21348C15.2991 6.82486 21.2506 9.30777 26.9923 15.1478L27.2656 15.4288L27.2679 15.4311C33.1164 21.5317 37.8975 30.2408 40.932 39.3724C43.9655 48.5008 45.2951 58.1761 44.1214 66.2371C42.9544 74.2525 39.4541 79.5393 34.2884 80.9671C29.1656 82.3831 23.1043 79.7967 17.2785 73.738L17.2771 73.737C11.4287 67.6365 6.64761 58.9273 3.61303 49.7957C0.579533 40.6673 -0.75003 30.992 0.42364 22.931C1.59076 14.9151 5.09143 9.63652 10.2577 8.21348ZM25.5246 17.1044C19.9289 11.3031 14.7404 9.48585 10.8987 10.544C7.10132 11.5901 3.92449 15.6525 2.814 23.2794C1.71008 30.8613 2.9515 40.1443 5.90532 49.0329C8.85784 57.9176 13.4802 66.2837 19.0191 72.062L19.281 72.3322C24.7774 77.9386 29.8644 79.6824 33.6454 78.6373C37.4432 77.5874 40.6205 73.5161 41.7311 65.8888C42.835 58.3069 41.5936 49.0238 38.6397 40.1352C35.687 31.2499 31.0641 22.8831 25.5246 17.1048V17.1044Z" fill="black"/>
<path d="M287.182 287.516V275.637L337.634 313.484V325.363L287.182 287.516Z" fill="white"/>
<path d="M286.641 274.556C287.05 274.352 287.54 274.396 287.906 274.67L338.358 312.517C338.662 312.745 338.842 313.104 338.842 313.484V325.363C338.842 325.821 338.583 326.239 338.174 326.444C337.765 326.649 337.275 326.605 336.909 326.33L286.457 288.483C286.153 288.255 285.974 287.897 285.974 287.516V275.637C285.974 275.18 286.232 274.761 286.641 274.556ZM288.389 286.912L336.426 322.946V314.088L288.389 278.054V286.912Z" fill="black"/>
<path d="M287.182 275.637L300.433 265.796L350.885 303.677L337.634 313.484L287.182 275.637Z" fill="white"/>
<path d="M299.795 264.769C300.215 264.508 300.757 264.528 301.158 264.829L351.61 302.71C351.915 302.939 352.094 303.299 352.093 303.681C352.092 304.063 351.91 304.422 351.604 304.649L338.352 314.456C337.923 314.773 337.336 314.771 336.909 314.451L286.457 276.604C286.152 276.375 285.973 276.016 285.974 275.634C285.975 275.253 286.155 274.894 286.462 274.667L299.713 264.825L299.795 264.769ZM289.201 275.642L337.639 311.977L348.863 303.67L300.429 267.304L289.201 275.642Z" fill="black"/>
<path d="M337.634 325.363V313.484L350.885 303.677V315.556L337.634 325.363Z" fill="white"/>
<path d="M350.167 302.705C350.533 302.434 351.022 302.393 351.429 302.598C351.836 302.804 352.093 303.221 352.093 303.677V315.556C352.093 315.94 351.911 316.3 351.603 316.528L338.352 326.335C337.985 326.607 337.497 326.648 337.09 326.442C336.683 326.237 336.426 325.82 336.426 325.363V313.485C336.426 313.101 336.607 312.741 336.915 312.513L350.167 302.705ZM338.841 314.094V322.966L349.677 314.946V306.074L338.841 314.094Z" fill="black"/>
<path d="M328.972 296.943L338.911 289.346C342.776 286.342 344.708 283.027 345.64 276.569C347.917 260.926 340.498 238.653 329.11 226.774C321.414 218.763 314.651 217.761 309.026 222.354L299.122 229.848" fill="white"/>
<path d="M308.291 221.395C311.338 218.917 314.786 217.897 318.53 218.653C322.107 219.375 325.807 221.689 329.612 225.557L329.981 225.937L329.981 225.937C335.83 232.038 340.611 240.747 343.646 249.879C346.679 259.007 348.009 268.682 346.835 276.743L346.835 276.743C346.357 280.054 345.611 282.648 344.439 284.826C343.259 287.017 341.685 288.72 339.651 290.3C339.649 290.302 339.646 290.304 339.644 290.306L329.705 297.903C329.175 298.308 328.417 298.207 328.012 297.677C327.607 297.146 327.708 296.388 328.238 295.982L338.177 288.385C340.005 286.964 341.327 285.508 342.312 283.679C343.305 281.835 343.99 279.542 344.444 276.396L344.445 276.395C345.548 268.813 344.307 259.53 341.353 250.642C338.401 241.756 333.778 233.389 328.238 227.611V227.61C324.478 223.696 321.071 221.632 318.052 221.022C315.096 220.425 312.359 221.192 309.789 223.291C309.778 223.3 309.766 223.309 309.754 223.318L299.85 230.812C299.318 231.214 298.56 231.109 298.158 230.576C297.756 230.044 297.861 229.286 298.393 228.883L308.291 221.395Z" fill="black"/>
<path d="M318.619 234.751C307.197 222.872 296.119 225.945 293.842 241.588C291.564 257.231 298.984 279.504 310.372 291.383C321.794 303.262 332.871 300.188 335.149 284.546C337.427 268.903 330.007 246.63 318.619 234.751Z" fill="white"/>
<path d="M302.479 226.683C307.602 225.267 313.663 227.854 319.489 233.912L319.491 233.914C325.339 240.014 330.12 248.724 333.155 257.855C336.188 266.984 337.518 276.659 336.344 284.72C335.177 292.735 331.677 298.022 326.511 299.45C321.388 300.866 315.327 298.279 309.501 292.221L309.5 292.219C303.651 286.119 298.87 277.41 295.836 268.278C292.802 259.15 291.473 249.475 292.646 241.414C293.813 233.398 297.314 228.111 302.479 226.683ZM317.747 235.587C312.151 229.768 306.963 227.952 303.122 229.014C299.324 230.063 296.147 234.135 295.037 241.762C293.933 249.344 295.174 258.627 298.128 267.516C301.08 276.4 305.703 284.766 311.242 290.545L311.504 290.815C317 296.421 322.087 298.165 325.868 297.12C329.666 296.07 332.843 291.999 333.954 284.371C335.058 276.789 333.816 267.506 330.862 258.618C327.91 249.733 323.287 241.365 317.747 235.587V235.587Z" fill="black"/>
<path d="M226.859 313.691C227.259 313.157 228.016 313.048 228.55 313.449L264.474 340.383C265.008 340.784 265.117 341.541 264.717 342.075C264.317 342.609 263.559 342.718 263.026 342.318L227.102 315.383C226.568 314.983 226.459 314.225 226.859 313.691Z" fill="black"/>
<path d="M81.0587 173.665C81.4587 173.13 82.2156 173.022 82.7494 173.422L118.673 200.357C119.207 200.757 119.316 201.515 118.916 202.049C118.516 202.583 117.759 202.692 117.225 202.291L81.301 175.356C80.7672 174.956 80.6587 174.199 81.0587 173.665Z" fill="black"/>
<path d="M73.6393 331.441C74.0393 330.907 74.7962 330.798 75.33 331.199L111.254 358.133C111.788 358.534 111.896 359.291 111.496 359.825C111.096 360.359 110.339 360.468 109.805 360.068L73.8816 333.133C73.3477 332.733 73.2393 331.975 73.6393 331.441Z" fill="black"/>
<path d="M73.6392 457.516C74.0395 456.982 74.7967 456.874 75.3303 457.274L111.254 484.244C111.788 484.644 111.896 485.402 111.495 485.936C111.095 486.469 110.338 486.578 109.805 486.177L73.8805 459.208C73.3469 458.807 73.2389 458.05 73.6392 457.516Z" fill="black"/>
<path d="M257.021 409.447C257.421 408.913 258.178 408.805 258.712 409.206L294.635 436.175C295.169 436.576 295.277 437.333 294.877 437.867C294.476 438.401 293.72 438.509 293.186 438.109L257.262 411.139C256.728 410.739 256.62 409.981 257.021 409.447Z" fill="black"/>
<path d="M226.859 534.694C227.26 534.16 228.017 534.052 228.551 534.453L264.474 561.422C265.008 561.823 265.116 562.58 264.716 563.114C264.315 563.648 263.558 563.756 263.025 563.356L227.101 536.386C226.567 535.986 226.459 535.228 226.859 534.694Z" fill="black"/>
</svg>
