<svg width="51" height="40" viewBox="0 0 51 40" fill="none" xmlns="http://www.w3.org/2000/svg">
<path d="M49.8951 16.4178C48.6694 15.5927 45.4483 15.2403 43.1065 15.871C42.9802 13.5385 41.7776 11.5729 39.5773 9.85787L38.7627 9.3111L38.2199 10.1309C37.1528 11.7507 36.7033 13.9087 36.8626 15.8704C36.9882 17.0789 37.4087 18.4376 38.2199 19.4234C35.172 21.1913 32.3628 20.79 19.9213 20.79H0.71232C0.656123 23.5992 1.10769 29.0034 4.54434 33.4027C4.92383 33.8886 5.34036 34.3587 5.79192 34.8116C8.58593 37.6096 12.8074 39.6611 19.12 39.6671C28.7503 39.6757 37.0014 34.4704 42.0202 21.8842C43.6718 21.9113 48.0314 22.1804 50.1649 18.0574C50.2171 17.988 50.7077 16.9639 50.7077 16.9639L49.8945 16.4171L49.8951 16.4178ZM13.2484 13.8486H7.84677V19.2501H13.2484V13.8486ZM20.2268 13.8486H14.8252V19.2501H20.2268V13.8486ZM27.2052 13.8486H21.8036V19.2501H27.2052V13.8486ZM34.1836 13.8486H28.782V19.2501H34.1836V13.8486ZM6.26993 13.8486H0.868351V19.2501H6.26993V13.8486ZM13.2484 7.02618H7.84677V12.4278H13.2484V7.02618ZM20.2268 7.02618H14.8252V12.4278H20.2268V7.02618ZM27.2052 7.02618H21.8036V12.4278H27.2052V7.02618ZM27.2052 0.203125H21.8036V5.60471H27.2052V0.203125Z" fill="#1D63ED"/>
</svg>
