<svg width="48" height="54" viewBox="0 0 48 54" fill="none" xmlns="http://www.w3.org/2000/svg">
<path fill-rule="evenodd" clip-rule="evenodd" d="M47.6443 36.5635L24.2668 33.7891L0.888672 36.5635L24.2668 53.9968L47.6443 36.5635Z" fill="#99BCE3"/>
<path fill-rule="evenodd" clip-rule="evenodd" d="M47.7961 17.6544L24.1155 20.4154L0.737305 17.6476L24.2667 0.214355L47.7961 17.6544Z" fill="#19486F"/>
<path fill-rule="evenodd" clip-rule="evenodd" d="M24.2667 0.214355L0.737305 11.3444V17.6537L24.2667 10.9707V0.214355ZM24.2667 43.2396L0.737305 36.5626V42.8658L24.2667 53.9959V43.2396ZM24.2667 35.2382L14.0684 33.815V20.5075L24.2667 19.1038L33.8728 27.171L24.2667 35.2382Z" fill="#205B99"/>
<path fill-rule="evenodd" clip-rule="evenodd" d="M24.2666 0.214355L47.796 11.3444V17.6537L24.2666 10.9707V0.214355ZM24.2666 43.2396L47.796 36.5626V42.8658L24.2666 53.9959V43.2396ZM24.2666 35.2382L34.4649 33.815V20.5075L24.2666 19.1038V35.2382Z" fill="#5294CF"/>
</svg>
