<svg width="1740" height="555" viewBox="0 0 1740 555" fill="none" xmlns="http://www.w3.org/2000/svg">
<path d="M2 156.3L214.6 309.3V3.2002L2 156.3Z" fill="#0FADD0"/>
<path d="M214.6 3.2002V309.3L427.2 156.3L214.6 3.2002Z" fill="#2D2E2F"/>
<path d="M214.6 462.4L427.2 309.3L405.1 293.3L214.6 430.5V462.4Z" fill="#333333"/>
<path d="M405.1 217.3V172.2L214.6 309.5V354.4L405.1 217.3Z" fill="#C2C2BE"/>
<path d="M214.6 386.4V370.5V430.5L405.1 293.3V249.2L214.6 386.4Z" fill="#C2C2BE"/>
<path d="M405.1 217.3L214.6 354.4V386.4L405.1 249.2L427.2 233.3L405.1 217.3Z" fill="#333333"/>
<path d="M214.6 309.3L28.1 175L214.6 309.5V430.5L28 296V175L2 156.3V309.3L214.6 462.4V309.3Z" fill="#0FADD0"/>
<path d="M214.6 430.5V309.5L28.1 175H28V296L214.6 430.5Z" fill="white"/>
<path d="M214.6 178.4L270.7 208.9L249.3 159.5L305.3 128.9H236L214.6 79.5L193.2 128.9H123.9L179.9 159.5L158.5 208.9L214.6 178.4Z" fill="white"/>
<path d="M853.8 268.1C853.8 284.3 850.8 298 844.8 309.2C838.8 320.2 830.7 329 820.5 335.8C810.3 342.6 798.6 347.5 785.3 350.7C772 353.8 758.2 355.4 743.8 355.4H710.5V459.9H643.6V182.8H745.3C760.4 182.8 774.5 184.4 787.6 187.5C800.9 190.4 812.4 195.2 822 202C831.9 208.5 839.6 217.3 845.1 228.2C850.8 238.9 853.7 252.2 853.7 268.1H853.8ZM786.9 268.5C786.9 262 785.6 256.6 783 252.5C780.4 248.3 776.9 245.1 772.4 242.7C768 240.4 762.9 238.8 757.1 238C751.6 237.2 745.9 236.8 739.9 236.8H710.6V302.2H738.8C745.1 302.2 751.1 301.7 756.8 300.6C762.5 299.6 767.6 297.7 772.1 295.1C776.8 292.5 780.4 289.1 783.1 284.9C785.7 280.5 787 275 787 268.5H786.9ZM992.2 370.9H984C977 370.9 969.8 371.3 962.5 372.1C955.5 372.6 949.1 373.8 943.3 375.6C937.8 377.4 933.3 380.2 929.6 383.8C925.9 387.2 924.1 391.8 924.1 397.5C924.1 403.2 924.9 404.3 926.4 406.9C928.2 409.5 930.4 411.6 933.1 413.2C935.7 414.8 938.7 415.9 942.1 416.7C945.5 417.2 948.8 417.5 951.9 417.5C964.9 417.5 974.9 414 981.6 406.9C988.6 399.6 992.2 389.8 992.2 377.6V370.9ZM874.5 287.6C886 276.6 899.3 268.4 914.4 262.9C929.8 257.4 945.4 254.7 961.4 254.7C977.4 254.7 991.7 256.8 1002.9 261C1014.4 264.9 1023.6 271.2 1030.7 279.8C1037.7 288.1 1042.8 298.8 1046 311.9C1049.4 324.7 1051.1 339.9 1051.1 357.7V459.9H992.4V435.2H991.2C986.2 443.3 978.7 449.5 968.5 454C958.6 458.4 947.8 460.7 936 460.7C924.2 460.7 920.1 459.7 911.7 457.6C903.4 455.5 895.7 452.1 888.6 447.4C881.8 442.7 876.2 436.4 871.8 428.6C867.4 420.8 865.1 411.1 865.1 399.6C865.1 388.1 868.9 374.2 876.4 365.6C884.2 357 894.1 350.3 906.1 345.6C918.4 340.9 931.9 337.8 946.8 336.2C961.7 334.6 976.1 333.9 990.2 333.9V330.8C990.2 321.1 986.8 314.1 980 309.7C973.2 305 964.9 302.7 955 302.7C945.1 302.7 937 304.7 928.4 308.6C920.1 312.5 912.9 317.2 906.9 322.7L874.4 287.9L874.5 287.6ZM1294.6 439.5C1294.6 458.5 1291.9 475.1 1286.4 489.2C1280.9 503.3 1273.2 514.9 1263.3 524C1253.4 533.4 1241.3 540.3 1226.9 544.7C1212.8 549.4 1197.2 551.7 1179.9 551.7C1162.6 551.7 1144.9 549.1 1126.7 543.9C1108.7 538.7 1093 531.1 1079.7 521.2L1111.8 475.4C1121.2 483.7 1131.5 489.9 1142.7 493.8C1154.2 498 1165.4 500.1 1176.4 500.1C1195.2 500.1 1209 495.1 1217.9 485.2C1227 475.3 1231.6 462.1 1231.6 445.7V434H1230.4C1224.4 441.8 1216.3 448.1 1206.1 452.8C1195.9 457.5 1184.3 459.8 1171.3 459.8C1158.3 459.8 1143.3 457.2 1131.8 452C1120.3 446.5 1110.5 439.2 1102.5 430.1C1094.7 421 1088.7 410.4 1084.5 398.4C1080.3 386.1 1078.2 373.2 1078.2 359.7C1078.2 346.2 1080.3 333.2 1084.5 321C1088.7 308.7 1094.7 297.9 1102.5 288.5C1110.6 279.1 1120.4 271.7 1131.8 266.2C1143.3 260.5 1156.3 257.6 1170.9 257.6C1185.5 257.6 1194.9 260.1 1206.1 265C1217.3 270 1226.3 277.7 1233.1 288.1H1233.9V263.1H1294.6V439.6V439.5ZM1233.5 359.3C1233.5 352.8 1232.3 346.5 1230 340.5C1227.9 334.5 1224.8 329.3 1220.6 324.8C1216.4 320.1 1211.5 316.5 1205.7 313.8C1199.9 311.1 1193.4 309.9 1186.1 309.9C1178.8 309.9 1172.3 311.2 1166.5 313.8C1161 316.4 1156.3 319.9 1152.4 324.4C1148.5 328.8 1145.5 334.1 1143.4 340.1C1141.3 346.1 1140.3 352.5 1140.3 359.3C1140.3 366.1 1141.3 372.1 1143.4 378.1C1145.5 384.1 1148.5 389.4 1152.4 394.1C1156.3 398.5 1161 402.2 1166.5 405.1C1172.2 407.7 1178.8 409 1186.1 409C1193.4 409 1199.9 407.7 1205.7 405.1C1211.7 402.2 1216.7 398.6 1220.6 394.1C1224.8 389.7 1227.9 384.4 1230 378.4C1232.3 372.4 1233.5 366 1233.5 359.2V359.3ZM1463.8 334.1C1463.8 323.9 1460.5 315.2 1454 307.9C1447.7 300.6 1438.2 296.9 1425.4 296.9C1412.6 296.9 1413.4 297.9 1408.2 300C1403 301.8 1398.4 304.4 1394.5 307.8C1390.6 311.2 1387.5 315.2 1385.1 319.9C1382.8 324.3 1381.4 329 1381.2 334H1463.8V334.1ZM1522.9 358.8V366.6C1522.9 369.2 1522.8 371.7 1522.5 374H1381.2C1381.7 379.5 1383.3 384.4 1385.9 388.9C1388.8 393.3 1392.3 397.2 1396.5 400.6C1400.9 403.7 1405.8 406.2 1411 408C1416.5 409.8 1422.1 410.7 1427.8 410.7C1438 410.7 1446.6 408.9 1453.6 405.2C1460.6 401.3 1466.4 396.3 1470.8 390.3L1515.4 418.5C1506.3 431.8 1494.1 442.1 1479 449.4C1464.1 456.4 1446.8 460 1427 460C1407.2 460 1398.6 457.8 1385.5 453.3C1372.5 448.6 1361 442 1351.1 433.3C1341.4 424.4 1333.8 413.6 1328 400.8C1322.5 388 1319.8 373.4 1319.8 357C1319.8 340.6 1322.5 326.7 1328 314C1333.5 301 1340.9 290 1350.3 281.1C1359.7 272 1370.8 264.9 1383.6 260C1396.4 255 1410.2 252.6 1425.1 252.6C1440 252.6 1452.6 255.1 1464.6 260C1476.6 264.7 1486.9 271.6 1495.5 280.7C1504.1 289.8 1510.8 300.9 1515.5 314C1520.5 327 1522.9 341.9 1522.9 358.6V358.8ZM1669.4 316.5C1664.2 311.5 1658.1 307.4 1651 304C1644 300.6 1636.5 298.9 1628.7 298.9C1620.9 298.9 1617.1 300.1 1611.9 302.4C1606.9 304.7 1604.5 308.8 1604.5 314.5C1604.5 320.2 1607.2 323.9 1612.7 326.2C1618.4 328.5 1627.6 331.2 1640.1 334C1647.4 335.6 1654.7 337.8 1662 340.7C1669.6 343.6 1676.3 347.4 1682.3 352C1688.3 356.7 1693.1 362.4 1696.8 369.2C1700.5 376 1702.3 384.1 1702.3 393.5C1702.3 402.9 1699.8 416.2 1694.9 424.8C1689.9 433.1 1683.4 439.9 1675.3 445.1C1667.5 450.3 1658.6 454.1 1648.7 456.4C1638.8 458.7 1628.9 459.9 1619 459.9C1603.1 459.9 1587.4 457.4 1572 452.5C1556.9 447.3 1544.2 439.7 1534 429.8L1570 391.8C1575.7 398.1 1582.8 403.3 1591.1 407.5C1599.4 411.7 1608.3 413.8 1617.7 413.8C1627.1 413.8 1628 412.6 1633 410.3C1638.2 407.7 1640.8 403.3 1640.8 397C1640.8 390.7 1637.7 386.6 1631.4 383.7C1625.1 380.8 1615.4 377.8 1602.1 374.7C1595.3 373.1 1588.5 371 1581.8 368.4C1575 365.8 1568.9 362.3 1563.4 357.8C1558.2 353.4 1553.9 347.9 1550.5 341.4C1547.1 334.9 1545.4 327.1 1545.4 317.9C1545.4 308.7 1547.9 296.2 1552.8 288.2C1557.8 279.9 1564.1 273.1 1572 267.9C1579.8 262.7 1588.4 258.9 1597.8 256.6C1607.5 254 1617 252.7 1626.4 252.7C1641 252.7 1655.2 255 1669.1 259.7C1683.2 264.1 1695.1 270.9 1704.7 280L1669.5 316.4L1669.4 316.5Z" fill="#0FADD0"/>
<path fill-rule="evenodd" clip-rule="evenodd" d="M729.4 33.4998C726.5 29.4998 722.4 26.3998 717.8 24.6998C713.3 22.8998 708.6 21.9998 703.8 21.8998C698 21.8998 692.6 22.9998 687.9 25.0998C683.2 27.0998 679 30.0998 675.5 33.7998C672 37.5998 669.3 41.9998 667.5 46.7998C665.6 51.9998 664.7 57.4998 664.7 62.9998C664.7 69.1998 665.6 74.7998 667.4 79.7998C669.2 84.8998 671.8 89.2998 675.1 92.8998C678.5 96.5998 682.6 99.4998 687.1 101.4C691.8 103.4 697 104.4 702.9 104.4C708.8 104.4 714.3 103.2 719 100.8C723.5 98.5998 727.4 95.2998 730.3 91.2998L746.4 102.6C741.5 108.8 735.2 113.8 728.1 117.1C720.9 120.5 712.4 122.3 702.7 122.3C693 122.3 685.8 120.8 678.4 117.9C671.3 115.2 664.8 111 659.4 105.7C654 100.4 649.8 93.9998 647 86.8998C644 79.5998 642.5 71.5998 642.5 62.7998C642.5 53.9998 644.1 45.6998 647.2 38.3998C650.2 31.3998 654.6 25.0998 660.1 19.8998C665.7 14.6998 672.3 10.6998 679.5 8.0998C686.9 5.2998 695 3.9998 703.7 3.9998C712.4 3.9998 711.1 4.2998 715 4.9998C718.9 5.6998 722.7 6.6998 726.3 8.1998C729.9 9.5998 733.3 11.3998 736.5 13.4998C739.7 15.5998 742.4 18.1998 744.6 21.0998L729.3 33.1998L729.4 33.4998ZM774.1 4.0998H794.2V104.7H842.2V122.5H774.1V4.0998ZM860.6 62.9998C860.6 53.9998 862.1 45.8998 865.1 38.5998C867.9 31.5998 872.2 25.2998 877.7 20.0998C883.2 14.8998 889.7 10.8998 896.8 8.2998C904.2 5.4998 912.2 4.1998 921 4.1998C929.8 4.1998 938 5.5998 945.4 8.2998C952.6 10.8998 959.1 14.8998 964.7 20.0998C970.2 25.2998 974.5 31.5998 977.4 38.5998C980.4 45.8998 981.9 53.9998 981.9 62.9998C981.9 71.9998 980.4 79.7998 977.4 87.0998C974.5 94.0998 970.2 100.5 964.7 105.8C959.2 111.1 952.6 115.3 945.4 118C938 120.9 929.8 122.4 921 122.4C912.2 122.4 904.2 120.9 896.8 118C889.7 115.2 883.2 111.1 877.7 105.8C872.3 100.5 868 94.0998 865.1 86.9998C862.1 79.6998 860.6 71.6998 860.6 62.8998V62.9998ZM882.5 62.9998C882.5 68.9998 883.4 74.5998 885.3 79.5998C887.1 84.4998 889.8 88.8998 893.3 92.6998C896.7 96.3998 900.9 99.3998 905.6 101.4C910.3 103.5 915.6 104.5 921.3 104.5C927 104.5 932.3 103.5 937.1 101.4C941.8 99.3998 946 96.4998 949.5 92.6998C953 88.8998 955.7 84.3998 957.5 79.5998C959.4 74.5998 960.3 68.9998 960.3 62.9998C960.3 57.4998 959.4 51.9998 957.5 46.7998C955.7 41.9998 953.1 37.5998 949.6 33.7998C946.2 30.0998 942 27.0998 937.3 25.0998C932.5 22.9998 927.2 21.8998 921.4 21.8998C915.6 21.8998 910.3 22.9998 905.5 25.0998C900.9 27.0998 896.7 30.0998 893.3 33.7998C889.8 37.5998 887.2 41.9998 885.4 46.7998C883.5 51.9998 882.6 57.4998 882.6 62.9998H882.5ZM1107.2 78.2998C1107.2 85.0998 1106 91.1998 1103.7 96.6998C1101.5 101.9 1098.3 106.7 1094.1 110.6C1090 114.5 1085.1 117.5 1079.8 119.4C1074 121.5 1067.9 122.6 1061.8 122.5C1055.3 122.5 1049.3 121.5 1043.8 119.4C1038.5 117.4 1033.5 114.4 1029.4 110.6C1025.2 106.7 1022 102 1019.8 96.6998C1017.5 91.1998 1016.4 85.0998 1016.4 78.2998V4.0998H1036.5V77.4998C1036.5 80.7998 1036.9 83.9998 1037.8 87.2998C1038.7 90.4998 1040.1 93.3998 1042 95.9998C1044 98.4998 1046.6 100.6 1049.8 102.2C1053 103.8 1057.1 104.6 1061.8 104.6C1066.5 104.6 1070.6 103.8 1073.8 102.2C1077 100.6 1079.6 98.4998 1081.6 95.9998C1083.6 93.3998 1085 90.4998 1085.8 87.2998C1086.6 84.0998 1087.1 80.7998 1087.1 77.4998V4.0998H1107.2V78.2998ZM1147.1 4.0998H1187.1C1194.4 4.0998 1201.8 5.0998 1209.3 6.9998C1216.6 8.7998 1223.4 11.9998 1229.4 16.4998C1235.4 20.8998 1240.2 26.6998 1243.9 33.7998C1247.6 40.9998 1249.5 53.1998 1249.5 63.7998C1249.5 74.3998 1247.6 84.5998 1243.9 91.6998C1240.2 98.7998 1235.3 104.6 1229.4 109.2C1223.4 113.8 1216.6 117.2 1209.3 119.3C1202.1 121.4 1194.6 122.5 1187.1 122.6H1147.1V4.0998ZM1183.9 105C1189.1 105 1194.3 104.4 1199.5 103.2C1204.6 102 1209.3 99.8998 1213.6 96.9998C1217.8 94.0998 1221.2 90.0998 1223.9 85.1998C1226.6 80.1998 1227.9 71.3998 1227.9 63.7998C1227.9 56.1998 1226.6 45.7998 1223.9 40.6998C1221.2 35.5998 1217.8 31.5998 1213.6 28.7998C1209.3 25.8998 1204.5 23.8998 1199.5 22.8998C1194.4 21.7998 1189.1 21.2998 1183.9 21.2998H1167.2V105H1183.9ZM1272.7 108.9C1272.7 105.5 1273.9 102.6 1276.4 100.2C1277.6 98.9998 1279 98.0998 1280.5 97.4998C1282 96.8998 1283.7 96.5998 1285.4 96.5998C1288.8 96.5998 1291.8 97.7998 1294.3 100.1C1296.9 102.4 1298.1 105.3 1298.1 108.7C1298.1 112.1 1296.9 115 1294.4 117.4C1293.2 118.6 1291.8 119.5 1290.3 120.1C1288.8 120.7 1287.1 121 1285.4 121C1283.7 121 1282.1 120.7 1280.5 120C1279 119.4 1277.6 118.5 1276.4 117.5C1275.2 116.4 1274.3 115.1 1273.6 113.7C1272.9 112.2 1272.6 110.6 1272.6 108.9H1272.7ZM1425.8 113.4C1420.1 116.2 1413.8 118.3 1406.9 119.8C1400 121.3 1392.2 122.1 1383.2 122.1C1374.2 122.1 1365.7 120.6 1358.2 117.7C1350.7 114.8 1344.2 110.7 1338.7 105.5C1333.2 100.2 1328.9 93.7998 1326 86.6998C1323 79.3998 1321.5 71.3998 1321.5 62.5998C1321.5 53.7998 1323.1 45.4998 1326.2 38.1998C1329.2 31.1998 1333.6 24.8998 1339.1 19.6998C1344.7 14.4998 1351.3 10.4998 1358.5 7.89981C1365.9 5.09981 1374 3.7998 1382.7 3.7998C1391.4 3.7998 1400 5.0998 1407.5 7.6998C1415 10.2998 1421 13.6998 1425.6 17.8998L1411.7 32.7998C1408.8 29.5998 1404.8 26.8998 1399.7 24.6998C1394.4 22.3998 1388.7 21.2998 1382.9 21.3998C1376.9 21.3998 1371.6 22.4998 1366.7 24.5998C1362 26.5998 1357.8 29.5998 1354.3 33.2998C1350.8 37.0998 1348.2 41.4998 1346.4 46.2998C1344.5 51.4998 1343.6 56.9998 1343.6 62.4998C1343.6 68.4998 1344.5 74.0998 1346.4 79.0998C1348.2 83.9998 1350.9 88.3998 1354.4 92.1998C1357.9 95.9998 1362.2 98.8998 1367 100.9C1371.9 103 1377.6 104 1383.8 104C1390 104 1399.9 102.7 1406.3 99.9998V71.3998H1382.5V54.8998H1425.7V113.2L1425.8 113.4ZM1457.2 62.6998C1457.2 53.6998 1458.7 45.5998 1461.7 38.2998C1464.5 31.2998 1468.8 24.9998 1474.3 19.7998C1479.8 14.5998 1486.3 10.5998 1493.4 7.9998C1500.8 5.1998 1508.8 3.8998 1517.5 3.8998C1526.2 3.8998 1534.5 5.2998 1541.9 7.9998C1549.1 10.5998 1555.6 14.5998 1561.2 19.7998C1566.7 24.9998 1571 31.2998 1573.9 38.2998C1576.9 45.5998 1578.4 53.6998 1578.4 62.6998C1578.4 71.6998 1576.9 79.4998 1573.9 86.7998C1571 93.7998 1566.7 100.2 1561.2 105.5C1555.7 110.8 1549.1 115 1541.9 117.7C1534.5 120.6 1526.3 122.1 1517.5 122.1C1508.7 122.1 1500.7 120.6 1493.4 117.7C1486.3 114.9 1479.8 110.8 1474.3 105.5C1468.9 100.2 1464.6 93.7998 1461.7 86.6998C1458.7 79.3998 1457.2 71.3998 1457.2 62.5998V62.6998ZM1479.1 62.6998C1479.1 68.6998 1480 74.2998 1481.9 79.2998C1483.6 84.1998 1486.4 88.5998 1489.9 92.3998C1493.3 96.0998 1497.5 99.0998 1502.2 101.1C1506.9 103.2 1512.2 104.2 1517.9 104.2C1523.6 104.2 1528.9 103.2 1533.7 101.1C1538.4 99.0998 1542.6 96.1998 1546 92.3998C1549.5 88.5998 1552.2 84.0998 1554 79.2998C1555.8 74.2998 1556.8 68.6998 1556.8 62.6998C1556.8 56.6998 1555.9 51.4998 1554 46.4998C1552.2 41.6998 1549.6 37.2998 1546.1 33.4998C1542.7 29.7998 1538.5 26.7998 1533.8 24.7998C1529 22.6998 1523.7 21.5998 1517.9 21.5998C1512.1 21.5998 1506.8 22.6998 1502 24.7998C1497.4 26.7998 1493.2 29.7998 1489.8 33.4998C1486.3 37.2998 1483.7 41.6998 1481.9 46.4998C1480 51.6998 1479 57.1998 1479.1 62.6998ZM1595.7 4.0998H1618.3L1651.4 96.1998H1652L1685.2 4.0998H1707.3L1659.7 122.1H1642.3L1595.4 4.0998H1595.7Z" fill="#2E2E2E"/>
</svg>
