<svg width="2850" height="555" viewBox="0 0 2850 555" fill="none" xmlns="http://www.w3.org/2000/svg">
<path fill-rule="evenodd" clip-rule="evenodd" d="M823.2 216.2C817.1 207.9 808.8 201.6 799.1 198C789.9 194.3 780 192.3 770.1 192.2C758 192.2 747 194.4 737.1 198.8C727.4 203 718.7 209.2 711.6 216.9C704.4 224.7 698.8 233.9 695.1 243.9C691.2 254.6 689.2 266 689.3 277.4C689.3 290.1 691.2 301.7 694.9 312.2C698.6 322.7 704 331.7 710.9 339.3C717.8 346.9 726.3 352.9 735.8 356.9C745.5 361.1 756.4 363.1 768.4 363.1C780.4 363.1 792 360.6 801.7 355.7C811 351.1 819 344.4 825.1 336.2L858.4 359.5C848.2 372.3 835.3 382.6 820.5 389.6C805.5 396.7 788.1 400.3 768.1 400.3C748.1 400.3 733.1 397.3 717.8 391.3C703.1 385.6 689.7 377 678.4 366C667.3 354.9 658.5 341.8 652.7 327.2C646.5 312.2 643.5 295.6 643.5 277.4C643.5 259.2 646.7 242 653.2 227C659.3 212.5 668.4 199.5 679.9 188.7C691.5 178 705.1 169.7 720 164.4C735.4 158.7 752.1 155.9 770.1 155.9C788.1 155.9 785.4 156.6 793.5 158C801.6 159.4 809.4 161.6 816.9 164.6C824.3 167.5 831.4 171.2 838 175.6C844.6 180 850.2 185.2 854.8 191.4L823.1 216.4L823.2 216.2ZM915.7 155.4H957.2V363.4H1056.5V400.2H915.7V155.4ZM1094.6 277.3C1094.6 258.7 1097.7 241.9 1104 226.9C1109.9 212.4 1118.8 199.4 1130.1 188.6C1141.5 177.9 1155 169.6 1169.7 164.3C1185 158.6 1201.6 155.8 1219.7 155.8C1237.8 155.8 1254.8 158.7 1270.2 164.3C1285 169.6 1298.6 177.9 1310.1 188.6C1321.5 199.4 1330.4 212.4 1336.3 226.9C1342.6 241.9 1345.7 258.7 1345.7 277.3C1345.7 295.9 1342.6 312.1 1336.3 327.1C1330.3 341.7 1321.4 354.9 1310.1 365.9C1298.6 376.9 1285.1 385.5 1270.2 391.2C1254.8 397.2 1238 400.2 1219.7 400.2C1201.4 400.2 1185 397.2 1169.7 391.2C1154.9 385.5 1141.5 376.9 1130.1 365.9C1118.9 354.9 1110 341.7 1104 327.1C1097.7 312.1 1094.6 295.5 1094.6 277.3ZM1139.7 277.3C1139.7 289.8 1141.6 301.2 1145.5 311.6C1149.1 321.6 1154.7 330.9 1162 338.7C1169.1 346.4 1177.8 352.5 1187.4 356.6C1197.2 360.9 1208 363 1219.9 363C1231.8 363 1242.7 360.9 1252.5 356.6C1262.2 352.5 1270.9 346.4 1278 338.7C1285.3 330.8 1290.9 321.6 1294.5 311.6C1298.4 301.2 1300.3 289.7 1300.3 277.3C1300.4 265.9 1298.5 254.5 1294.5 243.8C1290.9 233.8 1285.3 224.7 1278.2 216.8C1271.1 209.1 1262.4 202.9 1252.8 198.7C1242.9 194.3 1231.9 192.1 1219.8 192.1C1207.7 192.1 1196.8 194.3 1187 198.7C1177.4 202.9 1168.8 209.1 1161.8 216.8C1154.7 224.6 1149.1 233.8 1145.5 243.8C1141.6 254.5 1139.6 265.9 1139.7 277.3ZM1604.6 308.9C1604.6 322.9 1602.2 335.6 1597.3 346.9C1592.8 357.7 1586 367.5 1577.5 375.7C1568.9 383.7 1558.8 389.9 1547.8 393.9C1535.9 398.3 1523.2 400.4 1510.5 400.3C1497.1 400.3 1484.7 398.2 1473.2 393.9C1462.1 389.9 1452 383.7 1443.4 375.7C1434.8 367.6 1428.1 357.8 1423.6 346.9C1418.9 335.6 1416.5 322.9 1416.5 308.9V155.5H1458V307.3C1458 314.1 1458.9 320.8 1460.6 327.5C1462.4 334.2 1465.3 340.1 1469.3 345.4C1473.4 350.7 1478.7 354.9 1485.5 358.2C1492.2 361.5 1500.5 363.1 1510.4 363.1C1520.3 363.1 1528.6 361.5 1535.3 358.2C1542 354.9 1547.4 350.6 1551.5 345.4C1555.6 340.1 1558.6 334 1560.2 327.5C1561.9 320.9 1562.8 314.1 1562.8 307.3V155.5H1604.3V308.9H1604.6ZM1687 155.4H1769.8C1785 155.4 1800.3 157.4 1815.6 161.3C1830.6 165.1 1844.7 171.7 1857.1 180.9C1869.4 190 1879.4 201.9 1887.1 216.7C1894.8 231.5 1898.6 256.8 1898.6 278.7C1898.6 300.6 1894.8 321.7 1887.1 336.4C1879.4 351.1 1869.4 363.1 1857.1 372.6C1844.7 382.1 1830.6 389.2 1815.6 393.5C1800.7 397.9 1785.3 400.2 1769.8 400.2H1687V155.4ZM1763.2 364.1C1774 364.1 1784.7 362.8 1795.5 360.3C1806 357.9 1815.9 353.6 1824.7 347.5C1833.4 341.5 1840.5 333.3 1846 323C1851.5 312.7 1854.2 294.6 1854.2 278.8C1854.2 263 1851.5 241.6 1846 231C1840.5 220.5 1833.4 212.3 1824.7 206.3C1815.9 200.3 1806 196.2 1795.5 194.1C1784.9 191.9 1774 190.8 1763.2 190.8H1728.6V364H1763.2V364.1ZM1946.8 372.1C1946.8 365.1 1949.4 359.1 1954.5 354C1956.9 351.6 1959.8 349.6 1963 348.3C1966.2 347 1969.6 346.4 1973.1 346.4C1980.1 346.4 1986.3 348.8 1991.6 353.6C1996.9 358.4 1999.5 364.3 1999.5 371.3C1999.5 378.3 1996.9 384.3 1991.8 389.4C1989.4 391.8 1986.5 393.8 1983.3 395.1C1980.1 396.4 1976.7 397 1973.2 397C1969.7 397 1966.3 396.3 1963.1 395C1960 393.7 1957.2 392 1954.7 389.7C1952.3 387.5 1950.3 384.8 1948.9 381.8C1947.5 378.7 1946.8 375.4 1946.8 371.9V372.1ZM2263.5 381.5C2251.6 387.2 2238.6 391.6 2224.4 394.8C2210.2 398 2193.9 399.6 2175.4 399.6C2156.9 399.6 2139.2 396.6 2123.6 390.6C2108 384.6 2094.6 376.2 2083.4 365.3C2072.1 354.3 2063.2 341.1 2057.2 326.5C2050.9 311.5 2047.8 294.9 2047.8 276.7C2047.8 258.5 2051 241.3 2057.5 226.3C2063.6 211.8 2072.7 198.8 2084.2 188C2095.8 177.3 2109.4 169 2124.3 163.7C2139.7 158 2156.4 155.2 2174.4 155.2C2192.4 155.2 2210.2 157.9 2225.7 163.3C2241.2 168.7 2253.7 175.7 2263.1 184.5L2234.4 215.4C2228.5 208.8 2220.2 203.2 2209.5 198.6C2198.5 193.9 2186.7 191.6 2174.7 191.7C2162.4 191.7 2151.2 193.9 2141.2 198.3C2131.5 202.5 2122.8 208.6 2115.7 216.4C2108.6 224.2 2103 233.4 2099.4 243.4C2095.5 254.1 2093.5 265.5 2093.6 276.9C2093.6 289.4 2095.5 300.8 2099.4 311.2C2103 321.2 2108.6 330.5 2115.9 338.3C2123.2 346.1 2132.1 352.2 2142 356.2C2152.2 360.5 2163.8 362.6 2176.8 362.6C2189.8 362.6 2210.1 359.9 2223.3 354.4V295.2H2174.2V261H2263.6V381.6L2263.5 381.5ZM2328.5 276.6C2328.5 258 2331.6 241.2 2337.9 226.2C2343.8 211.7 2352.7 198.7 2363.9 187.9C2375.3 177.2 2388.7 168.9 2403.5 163.6C2418.8 157.9 2435.4 155.1 2453.4 155.1C2471.4 155.1 2488.5 158 2503.8 163.6C2518.6 168.9 2532.2 177.2 2543.7 187.9C2555.1 198.7 2564 211.7 2569.9 226.2C2576.2 241.2 2579.3 258 2579.3 276.6C2579.3 295.2 2576.2 311.4 2569.9 326.4C2563.9 341 2555 354.2 2543.7 365.2C2532.2 376.2 2518.7 384.8 2503.8 390.5C2488.4 396.5 2471.6 399.5 2453.4 399.5C2435.2 399.5 2418.7 396.5 2403.5 390.5C2388.7 384.8 2375.3 376.2 2363.9 365.2C2352.7 354.2 2343.8 341 2337.9 326.4C2331.6 311.4 2328.5 294.8 2328.5 276.6ZM2373.6 276.6C2373.6 289.1 2375.5 300.5 2379.4 310.9C2383 320.9 2388.6 330.2 2395.9 338C2403 345.7 2411.7 351.8 2421.3 355.9C2431.1 360.2 2441.9 362.3 2453.8 362.3C2465.7 362.3 2476.5 360.2 2486.5 355.9C2496.2 351.8 2504.9 345.7 2512 338C2519.3 330.1 2524.9 320.9 2528.5 310.9C2532.3 300.5 2534.3 289 2534.3 276.6C2534.3 264.2 2532.4 253.4 2528.5 243.1C2524.9 233.1 2519.3 224 2512.2 216.1C2505.1 208.4 2496.5 202.2 2486.8 198C2476.9 193.6 2465.9 191.4 2453.8 191.4C2441.7 191.4 2430.8 193.6 2421 198C2411.4 202.2 2402.8 208.4 2395.8 216.1C2388.6 223.9 2383.1 233.1 2379.5 243.1C2375.6 253.8 2373.6 265.2 2373.7 276.6H2373.6ZM2615 155.4H2661.8L2730.3 345.9H2731.6L2800.4 155.4H2846.1L2747.7 399.5H2711.8L2614.9 155.4H2615Z" fill="#2E2E2E"/>
<path fill-rule="evenodd" clip-rule="evenodd" d="M216 308.3L296.2 366L265.7 272.1L347.2 213.6H246.7L216 119L185.2 213.6H84.5996L166.2 272.1L135.7 366L216 308.3Z" fill="white"/>
<path d="M215.9 2.7002L3.7998 155.4L84.5998 213.6H185.2L215.9 119L246.7 213.6H347.2L428.1 155.4L215.9 2.7002Z" fill="#046CD5"/>
<path d="M265.7 272.3L296.2 366L215.9 308.3L135.7 366L166.1 272.3L166.2 272.1L93.3998 219.9L84.5998 213.6L3.7998 155.4V399.8L215.9 552.5L428.1 399.8V155.4L265.7 272.3Z" fill="#333333"/>
</svg>
