<svg width="2520" height="555" viewBox="0 0 2520 555" fill="none" xmlns="http://www.w3.org/2000/svg">
<path d="M214.1 2.80005L426.2 155.6L214.1 308.3L1.90039 155.6L214.1 2.80005Z" fill="#FF580A"/>
<path d="M214.101 308.3V552.7L265.901 515.4V345.5L373.001 268.4V438.2L426.201 400V155.6L214.101 308.3Z" fill="#2D2E2F"/>
<path d="M214.1 180.2L281.5 217L255.7 157.5L323.2 120.8H239.8L214.1 61.3L188.3 120.8H105L172.4 157.5L146.7 217L214.1 180.2Z" fill="white"/>
<path d="M319.4 400L373 438.2V268.4L320.1 306.6L319.4 400Z" fill="#8B8F91"/>
<path d="M214.1 308.3V552.7L162.2 515.4V345.7L55.3004 268.4V438.1L1.90039 400V155.6L214.1 308.3Z" fill="#8B8F91"/>
<path d="M108.001 400.4L55.3008 438.1V268.4L108.001 306.5V400.4Z" fill="#2D2E2F"/>
<path d="M2518.5 359.5C2518.5 373.1 2516.4 386.1 2512.2 398.6C2508 411.1 2501.9 422.2 2493.8 431.9C2486 441.3 2476.3 448.9 2464.8 454.6C2453.3 460.3 2440.3 463.2 2425.7 463.2C2411.1 463.2 2402.4 460.9 2391.7 456.2C2381 451.2 2372.7 444.6 2366.7 436.2H2365.9V551.6H2301.7V262.8H2362.8V286.7H2364C2370 278.9 2378.2 272.1 2388.6 266.4C2399.3 260.4 2411.8 257.4 2426.2 257.4C2440.6 257.4 2453.1 260.1 2464.6 265.6C2476.1 271.1 2485.7 278.5 2493.6 287.9C2501.7 297.3 2507.8 308.2 2512 320.8C2516.4 333.1 2518.7 346 2518.7 359.5H2518.5ZM2456.3 359.5C2456.3 353.2 2455.3 347.1 2453.2 341.1C2451.4 335.1 2448.5 329.9 2444.6 325.4C2441 320.7 2436.3 316.9 2430.5 314.1C2424.8 311.2 2418.1 309.8 2410.5 309.8C2402.9 309.8 2396.7 311.2 2390.9 314.1C2385.2 317 2380.2 320.8 2376 325.4C2372.1 330.1 2368.9 335.4 2366.6 341.4C2364.5 347.4 2363.5 353.5 2363.5 359.8C2363.5 366.1 2364.5 372.2 2366.6 378.2C2368.9 384.2 2372.1 389.5 2376 394.2C2380.2 398.9 2385.1 402.7 2390.9 405.5C2396.6 408.4 2403.2 409.8 2410.5 409.8C2417.8 409.8 2424.7 408.4 2430.5 405.5C2436.2 402.6 2440.9 398.8 2444.6 394.2C2448.5 389.5 2451.4 384.2 2453.2 378.2C2455.3 371.9 2456.3 365.7 2456.3 359.4V359.5Z" fill="#FF580A"/>
<path d="M2278.1 359.5C2278.1 375.4 2275.2 389.9 2269.5 402.9C2263.8 415.7 2255.9 426.6 2246 435.8C2236.1 444.7 2224.6 451.6 2211.6 456.5C2198.5 461.5 2184.6 463.9 2169.7 463.9C2154.8 463.9 2141.2 461.4 2127.8 456.5C2114.8 451.5 2103.3 444.6 2093.4 435.8C2083.7 426.7 2076.1 415.7 2070.3 402.9C2064.6 389.9 2061.7 375.4 2061.7 359.5C2061.7 343.6 2064.6 329.2 2070.3 316.5C2076 303.7 2083.7 292.9 2093.4 284C2103.3 275.1 2114.8 268.3 2127.8 263.7C2141.1 259 2155.1 256.7 2169.7 256.7C2184.3 256.7 2198.5 259 2211.6 263.7C2224.6 268.4 2236.1 275.2 2246 284C2255.9 292.9 2263.7 303.7 2269.5 316.5C2275.2 329.3 2278.1 343.6 2278.1 359.5ZM2216.2 359.5C2216.2 353.2 2215.2 347.1 2213.1 341.1C2211 335.1 2208 329.9 2204.1 325.4C2200.2 320.7 2195.3 316.9 2189.6 314.1C2183.9 311.2 2177.2 309.8 2169.6 309.8C2162 309.8 2155.4 311.2 2149.6 314.1C2143.9 317 2139 320.8 2135.1 325.4C2131.5 329.8 2128.6 335.1 2126.5 341.1C2124.7 347.1 2123.8 353.2 2123.8 359.5C2123.8 365.8 2124.7 371.9 2126.5 377.9C2128.6 383.9 2131.6 389.4 2135.5 394.3C2139.4 399 2144.3 402.8 2150 405.6C2155.7 408.5 2162.4 409.9 2170 409.9C2177.6 409.9 2184.2 408.5 2190 405.6C2195.7 402.7 2200.6 398.9 2204.5 394.3C2208.4 389.3 2211.3 383.9 2213.1 377.9C2215.2 371.9 2216.2 365.8 2216.2 359.5Z" fill="#FF580A"/>
<path d="M1973 457.7V352C1973 346.5 1972.6 341.3 1971.8 336.3C1971 331.3 1969.5 327 1967.1 323.4C1965 319.5 1962.1 316.5 1958.5 314.4C1954.8 312.1 1950.2 310.9 1944.4 310.9C1933.2 310.9 1924.6 314.9 1918.6 323C1912.6 330.8 1909.6 340.6 1909.6 352.3V457.6H1845.4V161.9H1909.6V287.5H1910.4C1914.8 279.7 1921.9 272.8 1931.5 266.8C1941.2 260.5 1952.8 257.4 1966.3 257.4C1979.8 257.4 1990.7 259.7 1999.6 264.4C2008.7 269.1 2016 275.2 2021.5 282.8C2027.2 290.1 2031.3 298.6 2033.6 308.2C2036.2 317.9 2037.5 327.5 2037.5 337.2V457.7H1972.9H1973Z" fill="#FF580A"/>
<path d="M1782.6 320.3C1777.4 315.3 1771.3 311.2 1764.2 307.8C1757.2 304.4 1749.7 302.7 1741.9 302.7C1734.1 302.7 1730.3 303.9 1725.1 306.2C1720.1 308.5 1717.7 312.6 1717.7 318.3C1717.7 324 1720.4 327.7 1725.9 330C1731.6 332.3 1740.8 335 1753.3 337.8C1760.6 339.4 1767.9 341.6 1775.2 344.5C1782.8 347.4 1789.5 351.2 1795.5 355.8C1801.5 360.4 1806.3 366.2 1810 373C1813.7 379.8 1815.5 387.9 1815.5 397.3C1815.5 406.7 1813 420 1808.1 428.6C1803.1 436.9 1796.6 443.7 1788.5 448.9C1780.7 454.1 1771.8 457.9 1761.9 460.2C1752 462.5 1742.1 463.7 1732.2 463.7C1716.3 463.7 1700.6 461.2 1685.2 456.3C1670.1 451.1 1657.4 443.5 1647.2 433.6L1683.2 395.6C1688.9 401.9 1696 407.1 1704.3 411.3C1712.6 415.5 1721.5 417.6 1730.9 417.6C1740.3 417.6 1741.2 416.4 1746.2 414.1C1751.4 411.5 1754 407.1 1754 400.8C1754 394.5 1750.9 390.4 1744.6 387.5C1738.3 384.6 1728.6 381.6 1715.3 378.5C1708.5 376.9 1701.7 374.8 1695 372.2C1688.2 369.6 1682.1 366.1 1676.6 361.6C1671.4 357.2 1667.1 351.7 1663.7 345.2C1660.3 338.7 1658.6 330.9 1658.6 321.7C1658.6 312.5 1661.1 300 1666 292C1671 283.7 1677.3 276.9 1685.2 271.7C1693 266.5 1701.6 262.7 1711 260.4C1720.7 257.8 1730.2 256.5 1739.6 256.5C1754.2 256.5 1768.4 258.8 1782.3 263.5C1796.4 267.9 1808.3 274.7 1817.9 283.8L1782.7 320.2L1782.6 320.3Z" fill="#FF580A"/>
<path d="M1638.9 457.7H1559.5L1495.7 364.2H1494.5V457.7H1429.9V161.9H1494.5V341.9H1495.7L1557.9 262.9H1635.8L1560.7 350.9L1639 457.7H1638.9Z" fill="#FF580A"/>
<path d="M1402 315.3C1399.1 314.5 1396.3 314 1393.4 313.7C1390.8 313.4 1388.2 313.3 1385.6 313.3C1377 313.3 1369.7 314.9 1363.7 318C1358 321.1 1353.3 324.9 1349.6 329.3C1346.2 333.7 1343.7 338.6 1342.2 343.8C1340.7 349 1339.9 353.6 1339.9 357.5V457.7H1275.7V262.8H1337.5V291H1338.3C1343.3 281.1 1350.3 273 1359.4 266.7C1368.5 260.4 1379.1 257.3 1391.1 257.3C1403.1 257.3 1396.2 257.4 1398.5 257.7C1401.1 258 1403.2 258.4 1404.8 258.9L1402.1 315.3H1402Z" fill="#FF580A"/>
<path d="M1245.1 359.5C1245.1 375.4 1242.2 389.9 1236.5 402.9C1230.8 415.7 1222.9 426.6 1213 435.8C1203.1 444.7 1191.6 451.6 1178.6 456.5C1165.6 461.5 1151.6 463.9 1136.7 463.9C1121.8 463.9 1108.1 461.4 1094.8 456.5C1081.8 451.5 1070.3 444.6 1060.4 435.8C1050.7 426.7 1043.1 415.7 1037.3 402.9C1031.6 389.9 1028.7 375.4 1028.7 359.5C1028.7 343.6 1031.6 329.2 1037.3 316.5C1043 303.7 1050.7 292.9 1060.4 284C1070.3 275.1 1081.8 268.3 1094.8 263.7C1108.1 259 1122.1 256.7 1136.7 256.7C1151.3 256.7 1165.5 259 1178.6 263.7C1191.6 268.4 1203.1 275.2 1213 284C1222.9 292.9 1230.7 303.7 1236.5 316.5C1242.2 329.3 1245.1 343.6 1245.1 359.5ZM1183.3 359.5C1183.3 353.2 1182.3 347.1 1180.2 341.1C1178.1 335.1 1175.1 329.9 1171.2 325.4C1167.3 320.7 1162.5 316.9 1156.7 314.1C1151 311.2 1144.3 309.8 1136.7 309.8C1129.1 309.8 1122.5 311.2 1116.7 314.1C1111 317 1106.1 320.8 1102.2 325.4C1098.5 329.8 1095.7 335.1 1093.6 341.1C1091.8 347.1 1090.9 353.2 1090.9 359.5C1090.9 365.8 1091.8 371.9 1093.6 377.9C1095.7 383.9 1098.7 389.4 1102.6 394.3C1106.5 399 1111.3 402.8 1117.1 405.6C1122.8 408.5 1129.5 409.9 1137.1 409.9C1144.7 409.9 1151.3 408.5 1157.1 405.6C1162.8 402.7 1167.7 398.9 1171.6 394.3C1175.5 389.3 1178.4 383.9 1180.2 377.9C1182.3 371.9 1183.3 365.8 1183.3 359.5Z" fill="#FF580A"/>
<path d="M964.1 457.7H898L843.2 270.3H842L787.2 457.7H720.7L642 180.6H714L757.8 364.9H759L808.3 180.6H878L927.7 364.9H928.9L973.5 180.6H1043.2L964.2 457.7H964.1Z" fill="#FF580A"/>
<path fill-rule="evenodd" clip-rule="evenodd" d="M728.9 33.5999C726 29.5999 721.9 26.4999 717.3 24.7999C712.8 22.9999 708.1 22.0999 703.3 21.9999C697.5 21.9999 692.1 23.0999 687.4 25.1999C682.7 27.1999 678.5 30.1999 675 33.8999C671.5 37.6999 668.8 42.0999 667 46.8999C665.1 52.0999 664.2 57.5999 664.2 63.0999C664.2 69.2999 665.1 74.8999 666.9 79.8999C668.7 84.9999 671.3 89.3999 674.6 92.9999C678 96.6999 682.1 99.5999 686.6 101.5C691.3 103.5 696.5 104.5 702.4 104.5C708.3 104.5 713.8 103.3 718.5 100.9C723 98.6999 726.9 95.3999 729.8 91.3999L745.9 102.7C741 108.9 734.7 113.9 727.6 117.2C720.4 120.6 711.9 122.4 702.2 122.4C692.5 122.4 685.3 120.9 677.9 118C670.8 115.3 664.3 111.1 658.9 105.8C653.5 100.5 649.3 94.0999 646.5 86.9999C643.5 79.6999 642 71.6999 642 62.8999C642 54.0999 643.6 45.7999 646.7 38.4999C649.7 31.4999 654.1 25.1999 659.6 19.9999C665.2 14.7999 671.8 10.7999 679 8.1999C686.4 5.3999 694.5 4.0999 703.2 4.0999C711.9 4.0999 710.6 4.3999 714.5 5.0999C718.4 5.7999 722.2 6.7999 725.8 8.2999C729.4 9.6999 732.8 11.4999 736 13.5999C739.2 15.6999 741.9 18.2999 744.1 21.1999L728.8 33.2999L728.9 33.5999ZM773.6 4.2999H793.7V104.9H841.7V122.7H773.6V4.2999ZM860.1 63.1999C860.1 54.1999 861.6 46.0999 864.6 38.7999C867.4 31.7999 871.7 25.4999 877.2 20.2999C882.7 15.0999 889.2 11.0999 896.3 8.4999C903.7 5.6999 911.7 4.3999 920.5 4.3999C929.3 4.3999 937.5 5.7999 944.9 8.4999C952.1 11.0999 958.6 15.0999 964.2 20.2999C969.7 25.4999 974 31.7999 976.9 38.7999C979.9 46.0999 981.4 54.1999 981.4 63.1999C981.4 72.1999 979.9 79.9999 976.9 87.2999C974 94.2999 969.7 100.7 964.2 106C958.7 111.3 952.1 115.5 944.9 118.2C937.5 121.1 929.3 122.6 920.5 122.6C911.7 122.6 903.7 121.1 896.3 118.2C889.2 115.4 882.7 111.3 877.2 106C871.8 100.7 867.5 94.2999 864.6 87.1999C861.6 79.8999 860.1 71.8999 860.1 63.0999V63.1999ZM881.9 63.1999C881.9 69.1999 882.8 74.7999 884.7 79.7999C886.5 84.6999 889.2 89.0999 892.7 92.8999C896.1 96.5999 900.3 99.5999 905 101.6C909.7 103.7 915 104.7 920.7 104.7C926.4 104.7 931.7 103.7 936.5 101.6C941.2 99.5999 945.4 96.6999 948.9 92.8999C952.4 89.0999 955.1 84.5999 956.9 79.7999C958.8 74.7999 959.7 69.1999 959.7 63.1999C959.7 57.6999 958.8 52.1999 956.9 46.9999C955.1 42.1999 952.5 37.7999 949 33.9999C945.6 30.2999 941.4 27.2999 936.7 25.2999C931.9 23.1999 926.6 22.0999 920.8 22.0999C915 22.0999 909.7 23.1999 904.9 25.2999C900.3 27.2999 896.1 30.2999 892.7 33.9999C889.2 37.7999 886.6 42.1999 884.8 46.9999C882.9 52.1999 882 57.6999 882 63.1999H881.9ZM1106.7 78.3999C1106.7 85.1999 1105.5 91.2999 1103.2 96.7999C1101 102 1097.8 106.8 1093.6 110.7C1089.5 114.6 1084.6 117.6 1079.3 119.5C1073.5 121.6 1067.4 122.7 1061.3 122.6C1054.8 122.6 1048.8 121.6 1043.3 119.5C1038 117.5 1033 114.5 1028.9 110.7C1024.7 106.8 1021.5 102.1 1019.3 96.7999C1017 91.2999 1015.9 85.1999 1015.9 78.3999V4.2999H1036V77.6999C1036 80.9999 1036.4 84.1999 1037.3 87.4999C1038.2 90.6999 1039.6 93.5999 1041.5 96.1999C1043.5 98.6999 1046.1 100.8 1049.3 102.4C1052.5 104 1056.6 104.8 1061.3 104.8C1066 104.8 1070.1 104 1073.3 102.4C1076.5 100.8 1079.1 98.6999 1081.1 96.1999C1083.1 93.5999 1084.5 90.6999 1085.3 87.4999C1086.1 84.2999 1086.6 80.9999 1086.6 77.6999V4.2999H1106.7V78.4999V78.3999ZM1146.5 4.2999H1186.5C1193.8 4.2999 1201.2 5.2999 1208.7 7.1999C1216 8.9999 1222.8 12.1999 1228.8 16.6999C1234.8 21.0999 1239.6 26.8999 1243.3 33.9999C1247 41.1999 1248.9 53.3999 1248.9 63.9999C1248.9 74.5999 1247 84.7999 1243.3 91.8999C1239.6 98.9999 1234.7 104.8 1228.8 109.4C1222.8 114 1216 117.4 1208.7 119.5C1201.5 121.6 1194 122.7 1186.5 122.8H1146.5V4.2999ZM1183.4 105.1C1188.6 105.1 1193.8 104.5 1199 103.3C1204.1 102.1 1208.8 99.9999 1213.1 97.0999C1217.3 94.1999 1220.7 90.1999 1223.4 85.2999C1226.1 80.2999 1227.4 71.4999 1227.4 63.8999C1227.4 56.2999 1226.1 45.8999 1223.4 40.7999C1220.7 35.6999 1217.3 31.6999 1213.1 28.8999C1208.8 25.9999 1204 23.9999 1199 22.9999C1193.9 21.8999 1188.6 21.3999 1183.4 21.3999H1166.7V105.1H1183.4ZM1272.1 109C1272.1 105.6 1273.3 102.7 1275.8 100.3C1277 99.0999 1278.4 98.1999 1279.9 97.5999C1281.4 96.9999 1283.1 96.6999 1284.8 96.6999C1288.2 96.6999 1291.2 97.8999 1293.7 100.2C1296.3 102.5 1297.5 105.4 1297.5 108.8C1297.5 112.2 1296.3 115.1 1293.8 117.5C1292.6 118.7 1291.2 119.6 1289.7 120.2C1288.2 120.8 1286.5 121.1 1284.8 121.1C1283.1 121.1 1281.5 120.8 1279.9 120.1C1278.4 119.5 1277 118.6 1275.8 117.6C1274.6 116.5 1273.7 115.2 1273 113.8C1272.3 112.3 1272 110.7 1272 109H1272.1ZM1425.3 113.5C1419.6 116.3 1413.3 118.4 1406.4 119.9C1399.5 121.4 1391.7 122.2 1382.7 122.2C1373.7 122.2 1365.2 120.7 1357.7 117.8C1350.2 114.9 1343.7 110.8 1338.2 105.6C1332.7 100.3 1328.4 93.8999 1325.5 86.7999C1322.5 79.4999 1321 71.4999 1321 62.6999C1321 53.8999 1322.6 45.5999 1325.7 38.2999C1328.7 31.2999 1333.1 24.9999 1338.6 19.7999C1344.2 14.5999 1350.8 10.5999 1358 7.9999C1365.4 5.1999 1373.5 3.8999 1382.2 3.8999C1390.9 3.8999 1399.5 5.1999 1407 7.7999C1414.5 10.3999 1420.5 13.7999 1425.1 17.9999L1411.2 32.8999C1408.3 29.6999 1404.3 26.9999 1399.2 24.7999C1393.9 22.4999 1388.2 21.3999 1382.4 21.4999C1376.4 21.4999 1371.1 22.5999 1366.2 24.6999C1361.5 26.6999 1357.3 29.6999 1353.8 33.3999C1350.3 37.1999 1347.7 41.5999 1345.9 46.3999C1344 51.5999 1343.1 57.0999 1343.1 62.5999C1343.1 68.5999 1344 74.1999 1345.9 79.1999C1347.7 84.0999 1350.4 88.4999 1353.9 92.2999C1357.4 96.0999 1361.7 98.9999 1366.5 101C1371.4 103.1 1377.1 104.1 1383.3 104.1C1389.5 104.1 1399.4 102.8 1405.8 100.1V71.4999H1382V54.9999H1425.2V113.3L1425.3 113.5ZM1456.7 62.7999C1456.7 53.7999 1458.2 45.6999 1461.2 38.3999C1464 31.3999 1468.3 25.0999 1473.8 19.8999C1479.3 14.6999 1485.8 10.6999 1492.9 8.0999C1500.3 5.2999 1508.3 3.9999 1517 3.9999C1525.7 3.9999 1534 5.3999 1541.4 8.0999C1548.6 10.6999 1555.1 14.6999 1560.7 19.8999C1566.2 25.0999 1570.5 31.3999 1573.4 38.3999C1576.4 45.6999 1577.9 53.7999 1577.9 62.7999C1577.9 71.7999 1576.4 79.5999 1573.4 86.8999C1570.5 93.8999 1566.2 100.3 1560.7 105.6C1555.2 110.9 1548.6 115.1 1541.4 117.8C1534 120.7 1525.8 122.2 1517 122.2C1508.2 122.2 1500.2 120.7 1492.9 117.8C1485.8 115 1479.3 110.9 1473.8 105.6C1468.4 100.3 1464.1 93.8999 1461.2 86.7999C1458.2 79.4999 1456.7 71.4999 1456.7 62.6999V62.7999ZM1478.5 62.7999C1478.5 68.7999 1479.4 74.3999 1481.3 79.3999C1483 84.2999 1485.8 88.6999 1489.3 92.4999C1492.7 96.1999 1496.9 99.1999 1501.6 101.2C1506.3 103.3 1511.6 104.3 1517.3 104.3C1523 104.3 1528.3 103.3 1533.1 101.2C1537.8 99.1999 1542 96.2999 1545.4 92.4999C1548.9 88.6999 1551.6 84.1999 1553.4 79.3999C1555.2 74.3999 1556.2 68.7999 1556.2 62.7999C1556.2 56.7999 1555.3 51.5999 1553.4 46.5999C1551.6 41.7999 1549 37.3999 1545.5 33.5999C1542.1 29.8999 1537.9 26.8999 1533.2 24.8999C1528.4 22.7999 1523.1 21.6999 1517.3 21.6999C1511.5 21.6999 1506.2 22.7999 1501.4 24.8999C1496.8 26.8999 1492.6 29.8999 1489.2 33.5999C1485.7 37.3999 1483.1 41.7999 1481.3 46.5999C1479.4 51.7999 1478.4 57.2999 1478.5 62.7999ZM1595.2 4.2999H1617.8L1650.9 96.3999H1651.5L1684.7 4.2999H1706.8L1659.2 122.3H1641.8L1594.9 4.2999H1595.2Z" fill="#2E2E2E"/>
</svg>
