<?xml version="1.0" encoding="utf-8"?>
<!-- Generator: D3.js v3 + https://designsystem.digital.gov/components/data-visualizations/ -->
<svg version="1.1" id="LineChart" xmlns="http://www.w3.org/2000/svg" xmlns:xlink="http://www.w3.org/1999/xlink" x="0px"
     y="0px"
     viewBox="0 0 1020.29 660.46" style="enable-background:new 0 0 1020.29 660.46; margin-top:-50px;" xml:space="preserve"
     aria-hidden="true">
<style type="text/css">
.line-st0{fill:none;stroke:#71767a;stroke-miterlimit:10;}
.line-st0-light{fill:none;stroke:#dfe1e2;stroke-miterlimit:10;}
.line-st2{font-size:27px;}
.line-st4{fill:none;stroke:#005EA2;stroke-width:5;stroke-linecap:round;stroke-miterlimit:10;}
.line-st5{fill:none;stroke:#005EA2;stroke-width:6;stroke-linecap:round;stroke-miterlimit:10;}
.line-st7{fill:#005EA2;}
.line-st8{font-size:24px;}
.font-svg-main{font-size:26px;}
</style>
    <g>
<g>
  <line class="line-st0" x1="69.45" y1="574.89" x2="971.08" y2="574.89"/>
</g>
        <g>
  <g>
    <text transform="matrix(1 0 0 1 41.5112 586.7432)" class="line-st1 line-st2">0</text>
      <text transform="matrix(1 0 0 1 41.5112 468.05)" class="line-st1 line-st2">5</text>
      <text transform="matrix(1 0 0 1 27.6606 351.21)" class="line-st1 line-st2">10</text>
      <text transform="matrix(1 0 0 1 27.6606 234.37)" class="line-st1 line-st2">15</text>
      <text transform="matrix(1 0 0 1 27.6606 119.375)" class="line-st1 line-st2">20</text>
  </g>
            <line class="line-st0" x1="69.45" y1="574.89" x2="69.45" y2="107.53" stroke-width='1px' vector-effect="non-scaling-stroke"/>
            <g>
    <g>
      <line class="line-st0" x1="69.45" y1="574.89" x2="971.08" y2="574.89" stroke-width='1px' vector-effect="non-scaling-stroke"/>
        <line class="line-st0-light" x1="69.45" y1="458.05" x2="971.08" y2="458.05" stroke-width='1px' vector-effect="non-scaling-stroke"/>
        <line class="line-st0-light" x1="69.45" y1="341.21" x2="971.08" y2="341.21" stroke-width='1px' vector-effect="non-scaling-stroke"/>
        <line class="line-st0-light" x1="69.45" y1="224.37" x2="971.08" y2="224.37" stroke-width='1px' vector-effect="non-scaling-stroke"/>
        <line class="line-st0-light" x1="69.45" y1="107.53" x2="971.08" y2="107.53" stroke-width='1px' vector-effect="non-scaling-stroke"/>
    </g>
                <g>
    </g>
  </g>
</g>
        <g>
  <g>
    <g>
        <line class="line-st4" x1="133.85" y1="221.05" x2="228.48" y2="205.61"></line>
        <line class="line-st4" x1="228.48" y1="205.61" x2="326.27" y2="182.82"></line>
        <line class="line-st4" x1="326.27" y1="182.82" x2="424.06" y2="175.89"></line>
        <line class="line-st4" x1="424.06" y1="175.89" x2="518.6" y2="174.94"></line>
        <line class="line-st4" x1="518.69" y1="174.94" x2="616.47" y2="375.95"></line>
        <line class="line-st4" x1="616.47" y1="375.95" x2="711.11" y2="408.16"></line>
        <line class="line-st4" x1="711.11" y1="408.16" x2="808.89" y2="408.65"></line>
        <line class="line-st4" x1="808.89" y1="408.65" x2="906.68" y2="416.77"></line>
    </g>
  </g>
</g>
        <g>
  <g>
    <g>
        <circle class="line-st7" cx="133.85" cy="221.05" r="8"></circle>
        <circle class="line-st7" cx="228.48" cy="205.61" r="8"></circle>
        <circle class="line-st7" cx="326.27" cy="182.82" r="8"></circle>
        <circle class="line-st7" cx="424.06" cy="175.89" r="8"></circle>
        <circle class="line-st7" cx="518.69" cy="174.94" r="8"></circle>
        <circle class="line-st7" cx="616.47" cy="375.95" r="8"></circle>
        <circle class="line-st7" cx="711.11" cy="408.16" r="8"></circle>
        <circle class="line-st7" cx="808.89" cy="408.65" r="8"></circle>
        <circle class="line-st7" cx="906.68" cy="416.77" r="8"></circle>
    </g>
  </g>
</g>
        <g>
  <text class="font-svg-main" transform="matrix(1 0 0 1 113.85 613.895)">Jun</text>
            <text class="font-svg-main" transform="matrix(1 0 0 1 208.48 613.895)">Jul</text>
            <text class="font-svg-main" transform="matrix(1 0 0 1 306.27 613.895)">Aug</text>
            <text class="font-svg-main" transform="matrix(1 0 0 1 404.06 613.895)">Sep</text>
            <text class="font-svg-main" transform="matrix(1 0 0 1 498.69 613.895)">Oct</text>
            <text class="font-svg-main" transform="matrix(1 0 0 1 596.47 613.895)">Nov</text>
            <text class="font-svg-main" transform="matrix(1 0 0 1 691.11 613.895)">Dec</text>
            <text class="font-svg-main" transform="matrix(1 0 0 1 788.89 613.895)">Jan</text>
            <text class="font-svg-main" transform="matrix(1 0 0 1 886.68 613.895)">Feb</text>
</g>
</g>
</svg>